<?xml version="1.0" encoding="UTF-8" standalone="no"?>
<!-- Created with Inkscape (http://www.inkscape.org/) -->

<svg
   xmlns:dc="http://purl.org/dc/elements/1.1/"
   xmlns:cc="http://creativecommons.org/ns#"
   xmlns:rdf="http://www.w3.org/1999/02/22-rdf-syntax-ns#"
   xmlns:svg="http://www.w3.org/2000/svg"
   xmlns="http://www.w3.org/2000/svg"
   xmlns:xlink="http://www.w3.org/1999/xlink"
   xmlns:sodipodi="http://sodipodi.sourceforge.net/DTD/sodipodi-0.dtd"
   xmlns:inkscape="http://www.inkscape.org/namespaces/inkscape"
   width="210mm"
   height="297mm"
   viewBox="0 0 744.09448819 1052.3622047"
   id="svg2"
   version="1.1"
   inkscape:version="0.91 r13725"
   sodipodi:docname="chamber_map.svg">
  <defs
     id="defs4">
    <linearGradient
       inkscape:collect="always"
       id="linearGradient4162">
      <stop
         style="stop-color:#000000;stop-opacity:1;"
         offset="0"
         id="stop4164" />
      <stop
         style="stop-color:#000000;stop-opacity:0;"
         offset="1"
         id="stop4166" />
    </linearGradient>
    <linearGradient
       inkscape:collect="always"
       id="linearGradient4154">
      <stop
         style="stop-color:#000000;stop-opacity:1;"
         offset="0"
         id="stop4156" />
      <stop
         style="stop-color:#000000;stop-opacity:0;"
         offset="1"
         id="stop4158" />
    </linearGradient>
    <linearGradient
       inkscape:collect="always"
       id="linearGradient4146">
      <stop
         style="stop-color:#000000;stop-opacity:1;"
         offset="0"
         id="stop4148" />
      <stop
         style="stop-color:#000000;stop-opacity:0;"
         offset="1"
         id="stop4150" />
    </linearGradient>
    <linearGradient
       inkscape:collect="always"
       xlink:href="#linearGradient4146"
       id="linearGradient4152"
       x1="475.62164"
       y1="451.94626"
       x2="897.36407"
       y2="532.80194"
       gradientUnits="userSpaceOnUse"
       gradientTransform="matrix(0,0.67049936,-0.67049936,0,667.95573,281.4918)" />
    <linearGradient
       inkscape:collect="always"
       xlink:href="#linearGradient4154"
       id="linearGradient4160"
       x1="87.213966"
       y1="550.25977"
       x2="384.86371"
       y2="594.9884"
       gradientUnits="userSpaceOnUse"
       gradientTransform="matrix(0,0.67049936,-0.67049936,0,667.95573,281.4918)" />
    <linearGradient
       inkscape:collect="always"
       xlink:href="#linearGradient4162"
       id="linearGradient4168"
       x1="540.12744"
       y1="684.74786"
       x2="639.99042"
       y2="754.08612"
       gradientUnits="userSpaceOnUse"
       gradientTransform="matrix(0,0.67049936,-0.67049936,0,667.95573,281.4918)" />
    <linearGradient
       inkscape:collect="always"
       xlink:href="#linearGradient4878"
       id="linearGradient4884"
       x1="533.64008"
       y1="395.29102"
       x2="1756.5098"
       y2="395.29102"
       gradientUnits="userSpaceOnUse" />
    <linearGradient
       inkscape:collect="always"
       id="linearGradient4878">
      <stop
         style="stop-color:#e8eced;stop-opacity:1"
         offset="0"
         id="stop4880" />
      <stop
         style="stop-color:#ffffff;stop-opacity:1"
         offset="1"
         id="stop4882" />
    </linearGradient>
    <linearGradient
       inkscape:collect="always"
       xlink:href="#linearGradient4892"
       id="linearGradient4898"
       x1="1528.0073"
       y1="876.15454"
       x2="1523.3878"
       y2="690.55615"
       gradientUnits="userSpaceOnUse" />
    <linearGradient
       inkscape:collect="always"
       id="linearGradient4892">
      <stop
         style="stop-color:#e8eced;stop-opacity:1;"
         offset="0"
         id="stop4894" />
      <stop
         style="stop-color:#e8eced;stop-opacity:0;"
         offset="1"
         id="stop4896" />
    </linearGradient>
  </defs>
  <sodipodi:namedview
     id="base"
     pagecolor="#ffffff"
     bordercolor="#666666"
     borderopacity="1.0"
     inkscape:pageopacity="0.0"
     inkscape:pageshadow="2"
     inkscape:zoom="0.58128256"
     inkscape:cx="191.53898"
     inkscape:cy="448.3461"
     inkscape:document-units="px"
     inkscape:current-layer="layer1"
     showgrid="false"
     inkscape:window-width="1600"
     inkscape:window-height="876"
     inkscape:window-x="0"
     inkscape:window-y="24"
     inkscape:window-maximized="1" />
  <metadata
     id="metadata7">
    <rdf:RDF>
      <cc:Work
         rdf:about="">
        <dc:format>image/svg+xml</dc:format>
        <dc:type
           rdf:resource="http://purl.org/dc/dcmitype/StillImage" />
        <dc:title />
      </cc:Work>
    </rdf:RDF>
  </metadata>
  <g
     inkscape:label="Layer 1"
     inkscape:groupmode="layer"
     id="layer1">
    <g
       id="g4904"
       transform="matrix(0.60190088,0,0,0.60190088,-315.84411,240.19377)">
      <path
         inkscape:connector-curvature="0"
         style="opacity:1;fill:#999999;fill-opacity:1;stroke:#f2f2f2;stroke-width:3;stroke-linecap:round;stroke-linejoin:round;stroke-miterlimit:4;stroke-dasharray:none;stroke-dashoffset:0;stroke-opacity:1"
         d="m 549,-72.886719 c -0.34995,-0.0112 -0.82541,9.925465 -1.05469,22.082031 -0.22927,12.156551 -0.58376,22.984675 -0.78906,24.0625 -0.20529,1.077813 -0.72113,18.554688 -1.14648,38.835938 -0.42535,20.28125 -1.05881,47 -1.40821,59.375 -1.32439,46.90646 -3.03565,126.9713 -3.81836,178.75 -0.44687,29.5625 -1.03106,54.12252 -1.29882,54.57813 -0.55221,0.93959 -0.39928,196.55029 0.16796,214.79687 0.20303,6.53125 0.71292,24.8125 1.13282,40.625 1.40031,52.73211 1.78865,61.68179 5.09961,117.5 1.0195,17.1875 2.98594,52.90625 4.36914,79.375 4.3345,82.94443 5.02511,95.41841 5.71679,103.125 l 0.67383,7.5 71.49609,0.48633 c 39.32247,0.26789 74.0254,0.60387 77.11915,0.74609 25.10581,1.15406 206.52428,2.51758 335.00003,2.51758 154.6333,0 226.0704,-0.77062 283.75,-3.06055 16.1563,-0.64141 39.7813,-1.48686 52.5,-1.8789 12.7188,-0.39204 28.75,-0.99443 35.625,-1.33789 6.875,-0.34346 36.6875,-1.17481 66.25,-1.84766 29.5625,-0.67285 61.625,-1.50084 71.25,-1.83984 9.625,-0.339 40.5625,-0.9802 68.75,-1.42579 28.1875,-0.44556 52.9375,-0.95811 55,-1.13867 2.0625,-0.18055 18.9375,-0.4854 37.5,-0.67773 18.5625,-0.19232 36.9844,-0.58638 40.9375,-0.875 l 7.1875,-0.52539 -0.012,-20.82227 c -0.01,-11.45199 -0.575,-43.60156 -1.2636,-71.44531 -0.6886,-27.84375 -1.8193,-61.59375 -2.5117,-75 -1.1178,-21.63955 -1.9811,-43.9099 -4.2872,-110.625 -0.3564,-10.3125 -0.9531,-34.21875 -1.3261,-53.125 -0.373,-18.90625 -1.2062,-49.28125 -1.8516,-67.5 -0.6453,-18.21875 -1.5141,-55.34375 -1.9316,-82.5 -0.4175,-27.15625 -2.1299,-74.40625 -3.8047,-105 -2.9469,-53.83427 -4.018,-75.85844 -6.7774,-139.375 -0.7168,-16.5 -1.5765,-34.21875 -1.9101,-39.375 -0.3337,-5.15625 -1.7211,-32.4375 -3.084,-60.625 -2.9844,-61.7211 -3.9139,-78.633462 -4.3496,-79.117188 -0.1814,-0.201388 -24.7275,0.16306 -54.5469,0.810547 -49.1568,1.067375 -416.059,0.750922 -427.9687,-0.36914 -2.75,-0.258625 -26.0937,-0.83431 -51.875,-1.279297 -25.7812,-0.445001 -49.6875,-1.011868 -53.125,-1.261719 -3.4375,-0.24985 -17.7812,-0.795753 -31.875,-1.212891 -14.0937,-0.417149 -41.0937,-1.296928 -60,-1.955078 -18.9062,-0.65815 -61.65628,-1.76925 -95.00003,-2.46875 -33.34375,-0.6995 -67.375,-1.54069 -75.625,-1.86914 -8.25,-0.328463 -24.5625,-0.913016 -36.25,-1.298828 -26.88731,-0.887575 -91.72269,-3.804458 -138.75,-6.242188 -19.9375,-1.03348 -53.96875,-2.729941 -75.625,-3.769531 -21.65625,-1.03959 -47.53125,-2.433846 -57.5,-3.097656 -9.96875,-0.66381 -18.40981,-1.21398 -18.75977,-1.22461 z"
         id="path4900" />
      <path
         inkscape:connector-curvature="0"
         id="rect4856"
         d="m 545,-76.886719 c -0.34995,-0.0112 -0.82541,9.925465 -1.05469,22.082031 -0.22927,12.156551 -0.58376,22.984675 -0.78906,24.0625 -0.20529,1.077813 -0.72113,18.554688 -1.14648,38.835938 -0.42535,20.28125 -1.05881,47 -1.40821,59.375 -1.32439,46.90646 -3.03565,126.9713 -3.81836,178.75 -0.44687,29.5625 -1.03106,54.12252 -1.29882,54.57813 -0.55221,0.93959 -0.39928,196.55029 0.16796,214.79687 0.20303,6.53125 0.71292,24.8125 1.13282,40.625 1.40031,52.73211 1.78865,61.68179 5.09961,117.5 1.0195,17.1875 2.98594,52.90625 4.36914,79.375 4.3345,82.94443 5.02511,95.41841 5.71679,103.125 l 0.67383,7.5 71.49609,0.48633 c 39.32247,0.26789 74.0254,0.60387 77.11915,0.74609 25.10581,1.15406 206.52428,2.51758 335.00003,2.51758 154.6333,0 226.0704,-0.77062 283.75,-3.06055 16.1563,-0.64141 39.7813,-1.48686 52.5,-1.8789 12.7188,-0.39204 28.75,-0.99443 35.625,-1.33789 6.875,-0.34346 36.6875,-1.17481 66.25,-1.84766 29.5625,-0.67285 61.625,-1.50084 71.25,-1.83984 9.625,-0.339 40.5625,-0.9802 68.75,-1.42579 28.1875,-0.44556 52.9375,-0.95811 55,-1.13867 2.0625,-0.18055 18.9375,-0.4854 37.5,-0.67773 18.5625,-0.19232 36.9844,-0.58638 40.9375,-0.875 l 7.1875,-0.52539 -0.012,-20.82227 c -0.01,-11.45199 -0.575,-43.60156 -1.2636,-71.44531 -0.6886,-27.84375 -1.8193,-61.59375 -2.5117,-75 -1.1178,-21.63955 -1.9811,-43.9099 -4.2872,-110.625 -0.3564,-10.3125 -0.9531,-34.21875 -1.3261,-53.125 -0.373,-18.90625 -1.2062,-49.28125 -1.8516,-67.5 -0.6453,-18.21875 -1.5141,-55.34375 -1.9316,-82.5 -0.4175,-27.15625 -2.1299,-74.40625 -3.8047,-105 -2.9469,-53.83427 -4.018,-75.85844 -6.7774,-139.375 -0.7168,-16.5 -1.5765,-34.21875 -1.9101,-39.375 -0.3337,-5.15625 -1.7211,-32.4375 -3.084,-60.625 -2.9844,-61.7211 -3.9139,-78.633462 -4.3496,-79.117188 -0.1814,-0.201388 -24.7275,0.16306 -54.5469,0.810547 -49.1568,1.067375 -416.059,0.750922 -427.9687,-0.36914 -2.75,-0.258625 -26.0937,-0.83431 -51.875,-1.279297 -25.7812,-0.445001 -49.6875,-1.011868 -53.125,-1.261719 -3.4375,-0.24985 -17.7812,-0.795753 -31.875,-1.212891 -14.0937,-0.417149 -41.0937,-1.296928 -60,-1.955078 -18.9062,-0.65815 -61.65628,-1.76925 -95.00003,-2.46875 -33.34375,-0.6995 -67.375,-1.54069 -75.625,-1.86914 -8.25,-0.328463 -24.5625,-0.913016 -36.25,-1.298828 -26.88731,-0.887575 -91.72269,-3.804458 -138.75,-6.242188 -19.9375,-1.03348 -53.96875,-2.729941 -75.625,-3.769531 -21.65625,-1.03959 -47.53125,-2.433846 -57.5,-3.097656 -9.96875,-0.66381 -18.40981,-1.21398 -18.75977,-1.22461 z"
         style="opacity:1;fill:url(#linearGradient4884);fill-opacity:1;stroke:none;stroke-width:3;stroke-linecap:round;stroke-linejoin:round;stroke-miterlimit:4;stroke-dasharray:none;stroke-dashoffset:0;stroke-opacity:1" />
      <path
         inkscape:connector-curvature="0"
         id="path4886"
         d="m 1522.8574,775.21875 c -52.8615,0 -100.7195,9.91509 -135.3613,25.94336 -30.615,14.16519 -684.54695,26.41129 -836.1836,45.94922 0.26203,4.13669 0.46974,7.00761 0.6582,9.10742 l 0.67383,7.5 71.49609,0.48633 c 39.32247,0.26789 74.0254,0.60387 77.11915,0.74609 25.10581,1.15406 206.52425,2.51758 335.00003,2.51758 154.6333,0 226.0704,-0.77062 283.75,-3.06055 16.1563,-0.64141 39.7813,-1.48686 52.5,-1.8789 12.7188,-0.39204 28.75,-0.99443 35.625,-1.33789 6.875,-0.34346 36.6875,-1.17481 66.25,-1.84766 29.5625,-0.67285 61.625,-1.50084 71.25,-1.83984 9.625,-0.339 40.5625,-0.9802 68.75,-1.42579 28.1875,-0.44556 52.9375,-0.95811 55,-1.13867 0.572,-0.0501 2.472,-0.10968 5.0429,-0.17383 -44.811,-42.27957 -93.9378,-79.54686 -151.5703,-79.54687 z"
         style="opacity:1;fill:url(#linearGradient4898);fill-opacity:1;stroke:none;stroke-width:3;stroke-linecap:round;stroke-linejoin:round;stroke-miterlimit:4;stroke-dasharray:none;stroke-dashoffset:0;stroke-opacity:1" />
    </g>
    <path
       style="opacity:1;fill:url(#linearGradient4160);fill-opacity:1;stroke:none;stroke-width:3;stroke-linecap:round;stroke-linejoin:round;stroke-miterlimit:4;stroke-dasharray:none;stroke-dashoffset:0;stroke-opacity:1"
       id="path4136"
       d="m 191.94508,332.1282 c 13.56151,0.49794 27.13795,0.51115 40.70698,0.66563 25.60664,0.60065 51.18565,-1.21228 76.64472,-3.77164 24.16715,-2.18036 48.1749,-5.82053 71.91794,-10.79855 4.95599,-1.16544 9.95085,-2.16459 14.89443,-3.38342 0.66449,-0.20651 1.36316,-0.22512 2.05258,-0.24815 0.60802,0.11364 1.23312,0.0779 1.84929,0.11067 0,0 12.97864,25.52181 12.97864,25.52181 l 0,0 c -0.66412,0.0244 -1.32872,-0.029 -1.99108,0.0353 -0.48947,-0.0939 -0.99169,-0.19638 -1.48968,-0.16137 -5.20626,0.47331 -10.35786,1.42456 -15.53592,2.11603 -24.2398,3.52723 -48.51462,6.84694 -72.88395,9.3569 -25.33422,2.84664 -50.77169,5.19039 -76.29348,5.05541 -13.34285,0.15369 -26.69368,0.16237 -40.02867,0.66561 0,0 -12.82179,-25.1642 -12.82179,-25.1642 z"
       inkscape:connector-curvature="0" />
    <path
       style="opacity:1;fill:url(#linearGradient4152);fill-opacity:1;stroke:none;stroke-width:3;stroke-linecap:round;stroke-linejoin:round;stroke-miterlimit:4;stroke-dasharray:none;stroke-dashoffset:0;stroke-opacity:1"
       id="path4138"
       d="m 471.15841,314.84284 c 12.36693,0.89 24.74435,0.10175 37.04548,-1.21325 6.14421,-0.69048 12.26128,-1.59376 18.38351,-2.45255 4.79286,-0.75949 9.6481,-0.85907 14.48962,-1.13526 9.76383,-0.87336 19.61241,-1.13741 29.2617,-2.95816 14.01449,-3.34571 9.27769,3.15264 20.75907,25.39817 0.0648,0.12573 0.18157,7.87354 0.1817,7.88096 -0.14294,12.63289 -2.29449,25.0835 -3.8409,37.58599 -1.38279,11.70749 -1.75135,23.49552 -1.96292,35.2716 -0.13694,22.45925 -0.12109,47.03179 4.13579,66.79881 0.17574,1.72648 0.41247,3.44621 0.61873,5.1693 l 0.61509,6.55136 c 1.36792,15.92761 1.66836,31.91973 1.9626,47.89539 0.19749,12.90415 0.23942,25.81015 0.26221,38.7156 -0.0187,11.33261 -0.0445,22.665 -0.004,33.99761 0.0209,8.02646 0.0719,16.05264 0.15488,24.07867 0.053,2.63782 0.0865,5.27591 0.1378,7.91368 0.049,4.19196 -6.91684,4.51779 -9.69773,5.02371 -19.25292,1.94145 -38.6658,1.75289 -57.997,1.83117 -28.50849,-0.0148 -57.01632,-0.12602 -85.52447,0.0673 -17.37223,0.1343 -34.74317,0.41646 -52.11286,0.73489 -6.27325,0.036 -12.54325,0.24028 -18.81443,0.3709 -2.40508,0.14717 -4.80785,0.032 -7.21454,0.003 -4.46823,-0.0131 -8.93539,-0.0956 -13.40406,-0.0905 -2.84139,0.0528 -5.68361,0.0924 -8.5243,0.17598 -0.18731,0.007 -0.37461,0.0136 -0.56193,0.0204 l 1.23364,-20.07547 c 72.09498,-11.39711 155.95756,3.06415 229.78954,-7.55254 2.022,-0.47953 6.02207,-1.0217 6.14291,-2.09372 0.052,-0.46142 -0.32134,-1.05832 -0.12314,-1.54905 0.0514,-2.51159 0.0839,-5.0235 0.13752,-7.53512 0.0844,-7.881 0.13594,-15.76217 0.16249,-23.64363 0.0496,-11.31499 0.0382,-22.62987 0.0436,-33.94492 0.039,-12.77316 0.10337,-25.54677 -0.0308,-38.31968 1.52248,-31.57946 -11.54196,-12.55022 -7.85283,-74.06328 0.0581,-5.59827 0.0439,-11.19732 -0.0648,-16.79496 -0.035,-4.12621 0.0968,-8.25199 0.0761,-12.37848 0.045,-7.90173 0.0344,-15.80491 0.25865,-23.7043 0.3227,-11.75437 0.99342,-23.50511 2.37238,-35.18746 -0.75891,-63.52326 34.93434,-27.70715 -17.88088,-21.21516 -4.17901,0.508 -8.29142,0.87964 -12.32481,1.91995 -0.54984,0.14179 -1.15657,-0.12552 -1.70251,0.0574 -6.30262,0.3388 -12.5838,0.99827 -18.87317,1.51282 -12.26365,1.0588 -24.54319,1.78005 -36.8458,2.18557 l -12.86658,-25.25209 z"
       inkscape:connector-curvature="0"
       sodipodi:nodetypes="ccccccccccccccccccccccccccccccccccccccccsccccc" />
    <path
       style="opacity:1;fill:url(#linearGradient4168);fill-opacity:1;stroke:none;stroke-width:3;stroke-linecap:round;stroke-linejoin:round;stroke-miterlimit:4;stroke-dasharray:none;stroke-dashoffset:0;stroke-opacity:1"
       id="path4140"
       d="m 239.21913,654.29376 c -7.13438,-0.3624 -14.28493,-0.28297 -21.42386,-0.10698 -4.25062,0.12891 -8.5016,0.038 -12.75362,0.0561 -3.26522,0.0896 -6.52356,0.0899 -9.78765,-0.008 -4.64564,-0.0999 -9.2919,-0.0443 -13.93694,0.0551 -0.41625,0.0121 -0.83246,0.0242 -1.2487,0.0363 l -12.9219,-25.36065 0,0 c 0.42858,0.0122 0.85713,0.0242 1.28568,0.0363 4.66376,0.0977 9.32876,0.15592 13.99309,0.0551 3.26121,-0.1012 6.51679,-0.0946 9.77924,-0.008 4.27109,0.0182 8.54108,-0.0721 12.81085,0.0561 7.10246,0.17082 14.2173,0.26383 21.31484,-0.10697 l 25.82004,22.42247 c -4.31036,0.95782 -5.70851,0.94493 -12.93107,2.87348 z"
       inkscape:connector-curvature="0"
       sodipodi:nodetypes="ccccccccccccccc" />
    <path
       style="opacity:1;fill:#000000;fill-opacity:1;stroke:none;stroke-width:3;stroke-linecap:round;stroke-linejoin:round;stroke-miterlimit:4;stroke-dasharray:none;stroke-dashoffset:0;stroke-opacity:1"
       id="path4144"
       d="m 570.36707,428.33265 c -9.12096,-2.71834 -18.21462,-5.50506 -27.44286,-7.84259 -11.70435,-2.64854 -23.65132,-3.86898 -35.60239,-4.69336 -15.24397,-0.76369 -30.51646,-1.38667 -45.73306,1.3e-4 -16.36928,1.87948 -32.18862,6.58047 -48.00773,10.98105 -13.14827,3.29564 -26.26807,6.70877 -39.42475,9.97134 -7.1994,1.52607 -13.98018,4.17443 -20.10986,8.2308 -4.01135,2.97219 -4.07319,7.6057 -4.38181,12.19085 -0.26397,6.72935 -0.16708,13.46629 -0.1352,20.19892 -0.2468,6.71546 0.017,13.14564 2.16905,19.53735 3.55634,7.22506 7.297,14.35522 10.72163,21.64712 2.04175,4.70246 3.17993,9.68212 3.82408,14.74869 1.03156,9.69876 13.37266,29.44021 -3.14865,0.11772 3.92583,6.26006 8.66009,10.08687 15.3211,13.10778 8.8142,3.13066 18.26597,3.35995 27.51554,3.66785 13.6538,0.36143 27.29727,0.41264 40.93145,-0.43111 16.93335,-1.73934 33.50604,-5.8016 50.0117,-9.819 8.21528,-1.63947 16.21481,-4.11857 24.27726,-6.34873 3.52231,-0.67686 6.81773,-1.87199 10.05624,-3.40404 8.37726,-6.68468 15.35572,-14.16973 23.53922,-19.91938 3.45982,-2.2819 7.33093,-4.06223 10.27469,-7.02199 2.07006,-2.80402 3.22911,-6.08565 4.59492,-9.25745 1.73033,-4.1922 3.28031,-8.47269 4.79845,-12.75141 2.07664,-7.35952 2.21983,-15.11461 2.49332,-22.71177 0.11112,-8.76408 0.47145,-17.54745 -0.10081,-26.29924 -0.20458,-7.14649 -1.54678,-14.06855 -4.04513,-20.7519 -2.83222,-6.61636 -10.03349,-18.89803 6.02271,9.70113 0.41513,0.73941 -0.87669,-1.45277 -1.35428,-2.15346 -1.19507,-1.75321 -1.19986,-1.63707 -2.61069,-3.06856 -2.90438,-2.55504 -6.51764,-3.4757 -10.24214,-4.04877 -4.14862,-0.48699 -8.33156,-0.50942 -12.50285,-0.52355 -4.39965,-0.0222 -8.80003,-0.0192 -13.19943,0.0397 -2.70492,0.0247 -5.40943,0.0675 -8.11453,0.0556 -2.23391,-0.0122 -4.46801,-0.0109 -6.70153,0.0365 -0.70438,-0.15932 -0.92406,1.31645 -1.19177,2.33672 -0.48193,3.32746 -1.49003,6.52361 -2.04138,9.84586 -1.47629,4.49746 -1.97239,9.2015 -2.31086,13.89658 -0.33134,6.25812 -0.3351,12.5284 -0.33618,18.79357 -0.004,5.76171 0.0418,11.52315 0.0324,17.28486 -0.008,6.00822 -0.009,12.01648 0.002,18.02471 -0.002,5.60957 0.0158,11.21912 0.007,16.82869 0.006,4.09985 0.0631,8.19967 0.044,12.2995 0.22961,3.37986 -0.47012,6.90185 0.36974,10.20378 3.55466,6.26279 8.49573,15.34298 -8.02779,-14.06234 -0.21905,-0.39013 0.47755,0.7609 0.77053,1.09904 1.18947,1.37271 1.22476,1.09996 3.09507,1.86806 7.18287,1.57483 14.61843,1.45519 21.93628,1.53261 6.06538,-3.86618 40.51067,17.09338 26.18786,18.35249 -5.64498,-0.0443 -11.28969,-0.13648 -16.93499,-0.15126 -7.44493,-0.0585 -14.94064,0.031 -22.32688,-1.02162 -1.1464,-0.23527 -3.14491,-0.49373 -4.22259,-1.21089 -0.38829,-0.25841 -0.66422,-0.66802 -0.90359,-1.0684 -3.50295,-5.85421 -10.18856,-13.97911 -12.07075,-22.00464 -0.20533,-3.44565 -0.0378,-6.90024 -0.0885,-10.35024 -0.0187,-4.05948 0.0374,-8.1189 0.0441,-12.17837 -0.009,-5.60369 0.009,-11.20734 0.006,-16.81103 0.009,-6.01198 0.007,-12.02404 -0.012,-18.036 -0.0208,-5.74797 -5.2e-4,-11.49582 0.007,-17.2438 0.0321,-6.31634 0.0226,-12.63888 0.42168,-18.9455 0.4146,-4.7749 1.14163,-9.48902 2.4046,-14.12041 0.66045,-3.38688 1.47596,-6.747 2.22156,-10.11241 0.58913,-1.49113 1.45852,-3.76788 3.40399,-3.72385 2.24557,0.0468 4.49171,0.0495 6.73767,0.0361 2.71923,-0.0135 5.43803,0.025 8.15721,0.0372 4.40734,0.0384 8.81515,0.01 13.22248,-0.018 4.25538,0.01 8.51793,-0.005 12.75671,0.42806 3.99678,0.45821 7.95645,1.12273 11.3217,3.50487 1.96292,1.47815 3.38265,2.96998 4.63986,5.11863 4.97848,8.50846 10.58208,16.57486 14.03938,25.78496 2.16138,6.80879 3.30737,13.76617 3.45838,20.9235 0.37132,8.81213 0.14216,17.64056 -0.0208,26.45641 -0.34002,7.77939 -0.61321,15.74331 -2.89095,23.23569 -1.57365,4.33817 -2.98069,8.74043 -4.82912,12.97112 -1.51997,3.3594 -2.771,6.8963 -5.30156,9.66964 -7.27138,5.35955 -14.99585,9.928 -21.318,15.5012 -4.13046,4.13132 -8.13803,8.51772 -13.11223,11.6582 -3.31813,1.65057 -6.66524,3.26724 -10.38539,3.70906 -8.25603,1.78837 -16.40893,4.04361 -24.7229,5.5719 -16.67996,3.75507 -33.3127,7.95552 -50.33373,9.89541 -13.61278,1.02302 -27.24093,1.15907 -40.88909,0.93969 -9.42524,-0.22458 -19.00161,-0.41077 -28.10367,-3.14409 -7.0437,-2.78195 -12.12562,-6.1878 -16.4322,-12.56234 -6.93748,-11.87749 -14.81792,-22.14128 -16.67428,-35.77829 -0.84285,-4.93359 -2.12677,-9.78159 -4.26032,-14.33026 -3.42179,-7.27637 -7.34865,-14.31852 -10.42496,-21.74846 -1.79057,-6.55376 -1.9288,-13.14795 -1.71221,-19.91835 -0.0383,-6.79222 -0.16891,-13.59533 0.22193,-20.37956 0.4897,-5.24403 1.24316,-10.1243 5.93563,-13.27378 6.42083,-4.03855 13.48936,-6.67641 20.92762,-8.18782 13.22721,-3.03308 26.40715,-6.27415 39.58134,-9.52917 15.92126,-4.40855 31.82825,-9.16325 48.27065,-11.22076 15.29246,-1.57126 30.64699,-0.80909 45.98524,-0.20369 12.0035,0.68261 24.03127,1.59799 35.78944,4.25124 9.1362,2.22459 18.09559,5.06394 27.21219,7.35397 l 8.97522,18.73574 z"
       inkscape:connector-curvature="0"
       sodipodi:nodetypes="ccccccccccccccccccccccccccsscccccccccccccccsscccccsscccccccccccccccscccccccccccccccccccccccccccc" />
    <path
       style="opacity:1;fill:#00000a;fill-opacity:1;stroke:none;stroke-width:3;stroke-linecap:round;stroke-linejoin:round;stroke-miterlimit:4;stroke-dasharray:none;stroke-dashoffset:0;stroke-opacity:1"
       id="path12930"
       d="m 204.08886,351.93368 c -4.31094,0.0516 -8.61883,0.4846 -12.92525,0.74184 -2.16318,0.36377 -4.44652,0.54993 -6.51744,1.33718 -0.45672,0.17362 -0.87142,0.44221 -1.30714,0.66332 2.8871,-1.63803 5.77419,-3.27607 8.66129,-4.91411 -3.24654,2.06974 -4.75904,5.43751 -6.04665,8.91027 -1.69828,5.07192 -2.51262,10.35812 -3.28276,15.63231 -0.88337,6.6513 -1.56166,13.31803 -1.92832,20.01762 -0.28678,5.33058 -0.32442,10.66874 -0.29464,16.00543 0.0205,2.42577 0.0486,4.85146 0.0668,7.27724 0,0 -10.35535,5.2793 -10.35535,5.2793 l 0,0 c 0.007,-2.44975 0.0217,-4.89948 0.0568,-7.34901 0.0775,-5.37982 0.12476,-10.76291 0.41144,-16.13655 0.45136,-6.71529 1.03876,-13.41431 1.8806,-20.09315 0.71595,-5.31568 1.4629,-10.6431 3.06505,-15.77885 1.20118,-3.60961 2.56273,-7.13867 5.6227,-9.60481 8.52016,-4.87961 10.78281,-7.44247 19.19582,-8.03318 4.38139,-0.24793 8.75245,-0.68638 13.13854,-0.81453 0,0 -9.44154,6.85968 -9.44154,6.85968 z"
       inkscape:connector-curvature="0" />
    <path
       style="opacity:1;fill:#00000a;fill-opacity:1;stroke:none;stroke-width:3;stroke-linecap:round;stroke-linejoin:round;stroke-miterlimit:4;stroke-dasharray:none;stroke-dashoffset:0;stroke-opacity:1"
       id="path12932"
       d="m 172.88416,645.36938 c -4.39197,-3.08655 -7.70276,-7.22787 -10.7345,-11.59486 -3.65366,-5.40782 -6.33848,-11.35666 -8.35827,-17.54075 -2.00565,-6.487 -3.34849,-13.13513 -4.20479,-19.86324 -0.44996,-2.78533 -0.40895,-5.60366 -0.38564,-8.41283 0,0 10.17307,-5.15788 10.17307,-5.15788 l 0,0 c -0.0881,2.77517 -0.18433,5.55789 0.21511,8.31857 0.79537,6.66467 2.08614,13.25697 4.10447,19.66796 2.00135,6.07451 4.57156,11.94755 8.18522,17.25681 3.00848,4.25298 6.30631,8.30595 10.83007,11.03556 0,0 -9.82474,6.29066 -9.82474,6.29066 z"
       inkscape:connector-curvature="0" />
    <g
       id="g13895"
       transform="matrix(0.22847613,0.85268453,-0.85268453,0.22847613,928.62582,379.55412)"
       style="stroke:#f2f2f2">
      <path
         inkscape:connector-curvature="0"
         style="display:inline;opacity:1;fill:#800000;fill-opacity:1;stroke:#f2f2f2;stroke-width:0.177;stroke-linecap:round;stroke-linejoin:miter;stroke-miterlimit:4;stroke-dasharray:none;stroke-opacity:1"
         d="m 42.121882,767.27072 0,11.58993 a 31.889763,31.889763 0 0 0 5.01051,38.52073 31.889763,31.889763 0 0 0 38.59947,4.96217 l 10e-6,-11.46288 11.48634,10e-4 a 31.889763,31.889763 0 0 0 -4.98705,-38.59945 31.889763,31.889763 0 0 0 -38.56217,-5.01052 l -11.5471,-10e-4 z m 25.05534,25.05532 a 3.5433071,3.5433071 0 0 1 5.01051,0 3.5433071,3.5433071 0 0 1 -1e-5,5.0105 3.5433071,3.5433071 0 0 1 -5.01189,10e-4 3.5433071,3.5433071 0 0 1 0.001,-5.01189 z"
         id="path13871" />
      <path
         id="path4137-3-5-3-6-1-7-8-8"
         d="m 38.121882,763.27072 0,11.58993 a 31.889763,31.889763 0 0 0 5.01051,38.52073 31.889763,31.889763 0 0 0 38.59947,4.96217 l 10e-6,-11.46288 11.48634,10e-4 a 31.889763,31.889763 0 0 0 -4.98705,-38.59945 31.889763,31.889763 0 0 0 -38.56217,-5.01052 l -11.5471,-10e-4 z m 25.05534,25.05532 a 3.5433071,3.5433071 0 0 1 5.01051,0 3.5433071,3.5433071 0 0 1 -1e-5,5.0105 3.5433071,3.5433071 0 0 1 -5.01189,10e-4 3.5433071,3.5433071 0 0 1 10e-4,-5.01189 z"
         style="display:inline;opacity:1;fill:#ff0000;fill-opacity:1;stroke:#f2f2f2;stroke-width:0.177;stroke-linecap:round;stroke-linejoin:miter;stroke-miterlimit:4;stroke-dasharray:none;stroke-opacity:1"
         inkscape:connector-curvature="0" />
    </g>
    <path
       id="path13901"
       d="m 414.73801,372.56832 10.23117,0 a 28.151134,28.151134 0 0 0 34.00471,-4.4231 28.151134,28.151134 0 0 0 4.38043,-34.07422 l -10.11902,-1e-5 8.8e-4,-10.13972 a 28.151134,28.151134 0 0 0 -34.0742,4.40238 28.151134,28.151134 0 0 0 -4.42311,34.0413 l -8.8e-4,10.19336 z m 22.11793,-22.11795 a 3.1279039,3.1279039 0 0 1 0,-4.4231 3.1279039,3.1279039 0 0 1 4.42309,1e-5 3.1279039,3.1279039 0 0 1 8.8e-4,4.42432 3.1279039,3.1279039 0 0 1 -4.42431,-8.9e-4 z"
       style="display:inline;opacity:1;fill:#552200;fill-opacity:1;stroke:none;stroke-width:0.15624923;stroke-linecap:round;stroke-linejoin:miter;stroke-miterlimit:4;stroke-dasharray:none;stroke-opacity:1"
       inkscape:connector-curvature="0" />
    <path
       inkscape:connector-curvature="0"
       style="display:inline;opacity:1;fill:#ff6600;fill-opacity:1;stroke:#f9f9f9;stroke-width:0.15624923;stroke-linecap:round;stroke-linejoin:miter;stroke-miterlimit:4;stroke-dasharray:none;stroke-opacity:1"
       d="m 414.73801,368.56832 10.23117,0 a 28.151134,28.151134 0 0 0 34.00471,-4.4231 28.151134,28.151134 0 0 0 4.38043,-34.07422 l -10.11902,-1e-5 8.8e-4,-10.13972 a 28.151134,28.151134 0 0 0 -34.0742,4.40238 28.151134,28.151134 0 0 0 -4.42311,34.0413 l -8.8e-4,10.19336 z m 22.11793,-22.11795 a 3.1279039,3.1279039 0 0 1 0,-4.4231 3.1279039,3.1279039 0 0 1 4.42309,1e-5 3.1279039,3.1279039 0 0 1 8.8e-4,4.42432 3.1279039,3.1279039 0 0 1 -4.42431,-8.9e-4 z"
       id="path4137-3-5-3-6-1-7-8-8-6" />
  </g>
</svg>
