<?xml version="1.0" encoding="UTF-8" standalone="no"?>
<!-- Created with Inkscape (http://www.inkscape.org/) -->

<svg
   xmlns:dc="http://purl.org/dc/elements/1.1/"
   xmlns:cc="http://creativecommons.org/ns#"
   xmlns:rdf="http://www.w3.org/1999/02/22-rdf-syntax-ns#"
   xmlns:svg="http://www.w3.org/2000/svg"
   xmlns="http://www.w3.org/2000/svg"
   xmlns:xlink="http://www.w3.org/1999/xlink"
   xmlns:sodipodi="http://sodipodi.sourceforge.net/DTD/sodipodi-0.dtd"
   xmlns:inkscape="http://www.inkscape.org/namespaces/inkscape"
   width="210mm"
   height="297mm"
   viewBox="0 0 744.09448819 1052.3622047"
   id="svg2"
   version="1.1"
   inkscape:version="0.91 r13725"
   sodipodi:docname="chamber_drawing.svg">
  <defs
     id="defs4">
    <linearGradient
       id="linearGradient4184"
       inkscape:collect="always">
      <stop
         id="stop4186"
         offset="0"
         style="stop-color:#000000;stop-opacity:1;" />
      <stop
         id="stop4188"
         offset="1"
         style="stop-color:#ffffff;stop-opacity:1" />
    </linearGradient>
    <linearGradient
       inkscape:collect="always"
       id="linearGradient4172">
      <stop
         style="stop-color:#f9f9f9;stop-opacity:1;"
         offset="0"
         id="stop4174" />
      <stop
         style="stop-color:#fffff0;stop-opacity:1"
         offset="1"
         id="stop4176" />
    </linearGradient>
    <linearGradient
       inkscape:collect="always"
       id="linearGradient4162">
      <stop
         style="stop-color:#000000;stop-opacity:1;"
         offset="0"
         id="stop4164" />
      <stop
         style="stop-color:#000000;stop-opacity:0;"
         offset="1"
         id="stop4166" />
    </linearGradient>
    <linearGradient
       inkscape:collect="always"
       id="linearGradient4154">
      <stop
         style="stop-color:#000000;stop-opacity:1;"
         offset="0"
         id="stop4156" />
      <stop
         style="stop-color:#000000;stop-opacity:0;"
         offset="1"
         id="stop4158" />
    </linearGradient>
    <linearGradient
       inkscape:collect="always"
       id="linearGradient4146">
      <stop
         style="stop-color:#000000;stop-opacity:1;"
         offset="0"
         id="stop4148" />
      <stop
         style="stop-color:#000000;stop-opacity:0;"
         offset="1"
         id="stop4150" />
    </linearGradient>
    <linearGradient
       inkscape:collect="always"
       xlink:href="#linearGradient4146"
       id="linearGradient4152"
       x1="475.62164"
       y1="451.94626"
       x2="897.36407"
       y2="532.80194"
       gradientUnits="userSpaceOnUse"
       gradientTransform="matrix(0,0.75954544,-0.75954544,0,707.65596,245.35834)" />
    <linearGradient
       inkscape:collect="always"
       xlink:href="#linearGradient4154"
       id="linearGradient4160"
       x1="87.213966"
       y1="550.25977"
       x2="384.86371"
       y2="594.9884"
       gradientUnits="userSpaceOnUse"
       gradientTransform="matrix(0,0.75954544,-0.75954544,0,707.65596,245.35834)" />
    <linearGradient
       inkscape:collect="always"
       xlink:href="#linearGradient4162"
       id="linearGradient4168"
       x1="540.12744"
       y1="684.74786"
       x2="639.99042"
       y2="754.08612"
       gradientUnits="userSpaceOnUse"
       gradientTransform="matrix(0,0.75954544,-0.75954544,0,707.65596,245.35834)" />
    <linearGradient
       inkscape:collect="always"
       xlink:href="#linearGradient4172"
       id="linearGradient4178"
       x1="457.60876"
       y1="503.57574"
       x2="722.54016"
       y2="-191.43909"
       gradientUnits="userSpaceOnUse"
       gradientTransform="matrix(0.75954544,0,0,0.75954544,196.12965,-752.50764)" />
    <linearGradient
       inkscape:collect="always"
       xlink:href="#linearGradient4184"
       id="linearGradient4182"
       gradientUnits="userSpaceOnUse"
       gradientTransform="matrix(0.75954544,0,0,0.75954544,200.68692,-755.54582)"
       x1="457.60876"
       y1="503.57574"
       x2="722.54016"
       y2="-191.43909" />
  </defs>
  <sodipodi:namedview
     id="base"
     pagecolor="#ffffff"
     bordercolor="#666666"
     borderopacity="1.0"
     inkscape:pageopacity="0.0"
     inkscape:pageshadow="2"
     inkscape:zoom="0.29064128"
     inkscape:cx="958.4242"
     inkscape:cy="518.90163"
     inkscape:document-units="px"
     inkscape:current-layer="layer1"
     showgrid="false"
     inkscape:window-width="1600"
     inkscape:window-height="876"
     inkscape:window-x="0"
     inkscape:window-y="24"
     inkscape:window-maximized="1" />
  <metadata
     id="metadata7">
    <rdf:RDF>
      <cc:Work
         rdf:about="">
        <dc:format>image/svg+xml</dc:format>
        <dc:type
           rdf:resource="http://purl.org/dc/dcmitype/StillImage" />
        <dc:title></dc:title>
      </cc:Work>
    </rdf:RDF>
  </metadata>
  <g
     inkscape:label="Layer 1"
     inkscape:groupmode="layer"
     id="layer1">
    <rect
       transform="matrix(0,1,-1,0,0,0)"
       y="-721.93848"
       x="205.91359"
       height="692.53595"
       width="548.80206"
       id="rect4180"
       style="opacity:1;fill:url(#linearGradient4182);fill-opacity:1;stroke:none;stroke-width:3;stroke-linecap:round;stroke-linejoin:round;stroke-miterlimit:4;stroke-dasharray:none;stroke-dashoffset:0;stroke-opacity:1" />
    <rect
       style="opacity:1;fill:url(#linearGradient4178);fill-opacity:1;stroke:none;stroke-width:3;stroke-linecap:round;stroke-linejoin:round;stroke-miterlimit:4;stroke-dasharray:none;stroke-dashoffset:0;stroke-opacity:1"
       id="rect4170"
       width="548.80206"
       height="692.53595"
       x="201.35632"
       y="-718.90027"
       transform="matrix(0,1,-1,0,0,0)" />
    <path
       style="opacity:1;fill:url(#linearGradient4160);fill-opacity:1;stroke:none;stroke-width:3;stroke-linecap:round;stroke-linejoin:round;stroke-miterlimit:4;stroke-dasharray:none;stroke-dashoffset:0;stroke-opacity:1"
       id="path4136"
       d="m 168.42842,302.71954 c 15.36255,0.56407 30.74202,0.57903 46.11309,0.75403 29.00735,0.68041 57.98339,-1.37328 86.82357,-4.27254 27.37669,-2.46992 54.5728,-6.59353 81.46905,-12.23266 5.61417,-1.32022 11.27238,-2.45206 16.87249,-3.83275 0.75274,-0.23394 1.5442,-0.25502 2.32518,-0.28111 0.68877,0.12873 1.39688,0.0882 2.09488,0.12537 0,0 14.70228,28.91125 14.70228,28.91125 l 0,0 c -0.75232,0.0276 -1.50518,-0.0328 -2.25551,0.04 -0.55447,-0.10635 -1.12339,-0.22246 -1.68752,-0.18281 -5.89768,0.53617 -11.73344,1.61376 -17.59917,2.39706 -27.45899,3.99566 -54.95764,7.75625 -82.56335,10.59954 -28.69875,3.2247 -57.51446,5.87971 -86.42568,5.7268 -15.11486,0.1741 -30.23876,0.18394 -45.34471,0.75401 0,0 -14.52459,-28.50615 -14.52459,-28.50615 z"
       inkscape:connector-curvature="0" />
    <path
       style="opacity:1;fill:url(#linearGradient4152);fill-opacity:1;stroke:none;stroke-width:3;stroke-linecap:round;stroke-linejoin:round;stroke-miterlimit:4;stroke-dasharray:none;stroke-dashoffset:0;stroke-opacity:1"
       id="path4138"
       d="m 484.72285,283.13858 c 14.00932,1.0082 28.03054,0.11527 41.96532,-1.37437 6.9602,-0.78218 13.88965,-1.80542 20.82495,-2.77827 5.42938,-0.86035 10.92942,-0.97316 16.41392,-1.28603 11.06052,-0.98934 22.21705,-1.28846 33.14782,-3.35102 15.87569,-3.79004 10.50982,3.57133 23.51599,28.77119 0.0734,0.14243 0.20568,8.91919 0.20583,8.9276 -0.16192,14.31061 -2.59921,28.41473 -4.35099,42.57762 -1.56644,13.26231 -1.98394,26.61586 -2.22361,39.95587 -0.15512,25.44196 -0.13717,53.27787 4.68505,75.67007 0.19908,1.95576 0.46725,3.90388 0.7009,5.85581 l 0.69677,7.42141 c 1.54959,18.04289 1.88993,36.15886 2.22325,54.25617 0.22372,14.61789 0.27122,29.23788 0.29703,43.85725 -0.0212,12.83764 -0.0504,25.67504 -0.005,38.51268 0.0237,9.09242 0.0814,18.18453 0.17545,27.27646 0.06,2.98813 0.098,5.97658 0.15609,8.96466 0.0555,4.74868 -7.83543,5.11778 -10.98564,5.69089 -21.80981,2.19928 -43.80083,1.98568 -65.69932,2.07436 -32.29458,-0.0168 -64.58841,-0.14276 -96.88261,0.0762 -19.67936,0.15214 -39.35725,0.47177 -59.03374,0.83249 -7.10637,0.0408 -14.20906,0.27219 -21.31309,0.42016 -2.72449,0.16671 -5.44636,0.0363 -8.17267,0.003 -5.06164,-0.0148 -10.12206,-0.10825 -15.18419,-0.1025 -3.21875,0.0598 -6.43843,0.10472 -9.65638,0.19935 -0.21218,0.008 -0.42436,0.0154 -0.63656,0.0231 l 1.39748,-22.74161 c 81.6696,-12.91071 176.6696,3.47109 260.30688,-8.55556 2.29053,-0.54321 6.82184,-1.15738 6.95872,-2.37177 0.0589,-0.5227 -0.36401,-1.19887 -0.13949,-1.75478 0.0582,-2.84514 0.0951,-5.69065 0.15578,-8.53582 0.0956,-8.92764 0.154,-17.85548 0.18407,-26.78364 0.0562,-12.81768 0.0433,-25.63524 0.0494,-38.453 0.0442,-14.4695 0.1171,-28.93952 -0.0349,-43.40875 1.72468,-35.77339 -13.0748,-14.21695 -8.89573,-83.8993 0.0658,-6.34175 0.0497,-12.68438 -0.0734,-19.02542 -0.0397,-4.67419 0.10965,-9.3479 0.0862,-14.02241 0.051,-8.95113 0.039,-17.90389 0.293,-26.85237 0.36556,-13.31541 1.12535,-26.62672 2.68745,-39.86055 -0.8597,-71.95951 39.57381,-31.38681 -20.25556,-24.03265 -4.73401,0.57547 -9.39257,0.99646 -13.96162,2.17493 -0.62286,0.16062 -1.31017,-0.14219 -1.92861,0.065 -7.13964,0.38379 -14.255,1.13084 -21.37963,1.71373 -13.89234,1.19941 -27.80267,2.01645 -41.73913,2.47583 l -14.57534,-28.60571 z"
       inkscape:connector-curvature="0"
       sodipodi:nodetypes="ccccccccccccccccccccccccccccccccccccccccsccccc" />
    <path
       style="opacity:1;fill:url(#linearGradient4168);fill-opacity:1;stroke:none;stroke-width:3;stroke-linecap:round;stroke-linejoin:round;stroke-miterlimit:4;stroke-dasharray:none;stroke-dashoffset:0;stroke-opacity:1"
       id="path4140"
       d="m 221.98073,667.67049 c -8.08187,-0.41053 -16.18205,-0.32055 -24.26907,-0.12119 -4.81513,0.14603 -9.63066,0.0431 -14.44737,0.0636 -3.69886,0.10155 -7.38993,0.10186 -11.08751,-0.009 -5.26261,-0.11311 -10.52592,-0.0502 -15.78785,0.0624 -0.47152,0.0137 -0.94301,0.0274 -1.41453,0.0411 l -14.638,-28.72869 0,0 c 0.4855,0.0138 0.97096,0.0274 1.45643,0.0411 5.28313,0.11068 10.56767,0.17663 15.85145,0.0624 3.69431,-0.11464 7.38225,-0.10712 11.07797,-0.009 4.83832,0.0206 9.67539,-0.0817 14.51221,0.0636 8.04571,0.1935 16.10543,0.29886 24.14557,-0.12118 l 29.24908,25.4003 c -4.88279,1.08503 -6.46663,1.07042 -14.64838,3.2551 z"
       inkscape:connector-curvature="0"
       sodipodi:nodetypes="ccccccccccccccc" />
    <path
       style="opacity:1;fill:#000000;fill-opacity:1;stroke:none;stroke-width:3;stroke-linecap:round;stroke-linejoin:round;stroke-miterlimit:4;stroke-dasharray:none;stroke-dashoffset:0;stroke-opacity:1"
       id="path4144"
       d="m 597.10697,411.70048 c -10.33227,-3.07935 -20.63362,-6.23616 -31.08742,-8.88413 -13.25875,-3.00028 -26.79235,-4.3828 -40.33059,-5.31667 -17.26845,-0.86511 -34.56922,-1.57083 -51.80667,1.5e-4 -18.54321,2.12909 -36.46345,7.45439 -54.38342,12.43939 -14.89444,3.73332 -29.75662,7.59974 -44.66058,11.2956 -8.15552,1.72874 -15.83683,4.72881 -22.78057,9.32389 -4.54407,3.36692 -4.61413,8.61578 -4.96373,13.80987 -0.29903,7.62304 -0.18927,15.25468 -0.15316,22.88145 -0.27957,7.60731 0.0193,14.89145 2.45711,22.13202 4.02864,8.18458 8.26609,16.26167 12.14553,24.52197 2.3129,5.32698 3.60224,10.96796 4.33194,16.7074 1.16855,10.98681 15.14862,33.35004 -3.56681,0.13336 4.4472,7.09143 9.8102,11.42646 17.35583,14.84856 9.98477,3.54643 20.69179,3.80617 31.16975,4.15497 15.46711,0.40942 30.92251,0.46744 46.36738,-0.48837 19.18219,-1.97033 37.95583,-6.57208 56.65353,-11.12302 9.30632,-1.8572 18.36823,-4.66554 27.50142,-7.19187 3.99009,-0.76675 7.72316,-2.12061 11.39177,-3.85612 9.4898,-7.57244 17.39504,-16.05155 26.66536,-22.56478 3.9193,-2.58495 8.30452,-4.60172 11.63923,-7.95455 2.34497,-3.17641 3.65795,-6.89386 5.20515,-10.4869 1.96012,-4.74894 3.71595,-9.59791 5.43571,-14.44486 2.35243,-8.33691 2.51463,-17.12192 2.82444,-25.72803 0.12588,-9.928 0.53406,-19.87785 -0.11419,-29.79192 -0.23175,-8.09559 -1.75221,-15.93693 -4.58235,-23.50787 -3.20835,-7.49505 -11.366,-21.4078 6.82256,10.98949 0.47026,0.83761 -0.99312,-1.6457 -1.53414,-2.43945 -1.35378,-1.98605 -1.3592,-1.85448 -2.9574,-3.47608 -3.2901,-2.89436 -7.38322,-3.93729 -11.60235,-4.58647 -4.69958,-0.55166 -9.43804,-0.57707 -14.1633,-0.59308 -4.98395,-0.0251 -9.96873,-0.0217 -14.95239,0.045 -3.06415,0.028 -6.12784,0.0765 -9.19219,0.063 -2.53058,-0.0138 -5.06138,-0.0123 -7.59153,0.0413 -0.79792,-0.18047 -1.04678,1.49128 -1.35004,2.64705 -0.54593,3.76937 -1.68792,7.38998 -2.31249,11.15345 -1.67235,5.09475 -2.23433,10.42351 -2.61775,15.74212 -0.37535,7.08924 -0.37961,14.19224 -0.38083,21.28946 -0.005,6.5269 0.0474,13.05349 0.0367,19.58039 -0.009,6.80615 -0.0104,13.61234 0.002,20.41849 -0.002,6.35456 0.0179,12.70908 0.008,19.06364 0.007,4.64433 0.0715,9.28863 0.0498,13.93294 0.26011,3.82873 -0.53255,7.81845 0.41885,11.5589 4.02673,7.09452 9.62401,17.38061 -9.09393,-15.9299 -0.24814,-0.44194 0.54097,0.86195 0.87286,1.245 1.34744,1.55502 1.38742,1.24604 3.50612,2.11615 8.13679,1.78398 16.55983,1.64845 24.84954,1.73615 6.87089,-4.37963 45.89071,19.36348 29.66575,20.7898 -6.39466,-0.0502 -12.78902,-0.1546 -19.18405,-0.17135 -8.43366,-0.0663 -16.92484,0.0351 -25.29202,-1.15729 -1.29865,-0.26652 -3.56257,-0.5593 -4.78337,-1.37171 -0.43986,-0.29272 -0.75243,-0.75673 -1.02359,-1.21029 -3.96816,-6.63168 -11.54166,-15.83561 -13.67381,-24.92698 -0.2326,-3.90325 -0.0428,-7.81663 -0.1003,-11.72481 -0.0212,-4.5986 0.0424,-9.19713 0.05,-13.79572 -0.0103,-6.34789 0.0103,-12.69574 0.007,-19.04363 0.0107,-6.81041 0.008,-13.6209 -0.0136,-20.43128 -0.0236,-6.51134 -5.8e-4,-13.02253 0.008,-19.53388 0.0364,-7.15518 0.0256,-14.31739 0.47768,-21.46156 0.46967,-5.40904 1.29325,-10.74922 2.72395,-15.99569 0.74816,-3.83667 1.67197,-7.64303 2.51659,-11.45539 0.66737,-1.68916 1.65222,-4.26828 3.85606,-4.2184 2.5438,0.053 5.08824,0.0561 7.63247,0.0409 3.08036,-0.0153 6.16024,0.0283 9.24054,0.0421 4.99266,0.0435 9.98585,0.0113 14.9785,-0.0204 4.82051,0.0112 9.64916,-0.006 14.45087,0.48491 4.52758,0.51906 9.01311,1.27183 12.82528,3.97034 2.22361,1.67445 3.83189,3.36441 5.25607,5.79841 5.63964,9.63843 11.98744,18.77609 15.90388,29.20935 2.44843,7.71303 3.74661,15.59439 3.91768,23.70225 0.42063,9.98244 0.16103,19.98333 -0.0236,29.96998 -0.38518,8.81253 -0.69465,17.83411 -3.27488,26.32152 -1.78264,4.9143 -3.37655,9.9012 -5.47046,14.69375 -1.72183,3.80555 -3.139,7.81217 -6.00564,10.95383 -8.23706,6.07132 -16.98738,11.24649 -24.14915,17.55984 -4.679,4.67998 -9.2188,9.64892 -14.85361,13.20648 -3.75879,1.86977 -7.55042,3.70115 -11.76462,4.20164 -9.35248,2.02588 -18.58813,4.58062 -28.00624,6.31188 -18.89515,4.25377 -37.73682,9.01206 -57.01834,11.20958 -15.42063,1.15888 -30.85867,1.313 -46.31939,1.06448 -10.67696,-0.2544 -21.52513,-0.46532 -31.83599,-3.56164 -7.97915,-3.15141 -13.73597,-7.00957 -18.61449,-14.23069 -7.85882,-13.45489 -16.78582,-25.08177 -18.88872,-40.52985 -0.95478,-5.5888 -2.40921,-11.08064 -4.82611,-16.2334 -3.87622,-8.24271 -8.3246,-16.2201 -11.80946,-24.63677 -2.02836,-7.42414 -2.18495,-14.89408 -1.9396,-22.56362 -0.0434,-7.69427 -0.19134,-15.40087 0.25141,-23.08608 0.55473,-5.94047 1.40825,-11.46887 6.72391,-15.03662 7.27355,-4.57489 15.28082,-7.56307 23.70693,-9.2752 14.98385,-3.4359 29.91417,-7.1074 44.83796,-10.7947 18.0357,-4.99403 36.05522,-10.38018 54.68126,-12.71094 17.32339,-1.77993 34.71709,-0.91654 52.09234,-0.23074 13.59764,0.77326 27.22276,1.81021 40.54248,4.81583 10.34954,2.52002 20.49879,5.73645 30.82613,8.33061 l 10.16717,21.22396 z"
       inkscape:connector-curvature="0"
       sodipodi:nodetypes="ccccccccccccccccccccccccccsscccccccccccccccsscccccsscccccccccccccccscccccccccccccccccccccccccccc" />
  </g>
</svg>
