<?xml version="1.0" encoding="UTF-8" standalone="no"?>
<!-- Created with Inkscape (http://www.inkscape.org/) -->

<svg
   xmlns:dc="http://purl.org/dc/elements/1.1/"
   xmlns:cc="http://creativecommons.org/ns#"
   xmlns:rdf="http://www.w3.org/1999/02/22-rdf-syntax-ns#"
   xmlns:svg="http://www.w3.org/2000/svg"
   xmlns="http://www.w3.org/2000/svg"
   xmlns:sodipodi="http://sodipodi.sourceforge.net/DTD/sodipodi-0.dtd"
   xmlns:inkscape="http://www.inkscape.org/namespaces/inkscape"
   width="20mm"
   height="10mm"
   viewBox="0 0 70.86614 35.433071"
   id="svg40038"
   version="1.1"
   inkscape:version="0.91 r13725"
   sodipodi:docname="move_level_base_level.svg"
   inkscape:export-filename="/home/sjbrown/work/misc_work/deckahedron/images/move_level_base_level.png"
   inkscape:export-xdpi="96.760002"
   inkscape:export-ydpi="96.760002">
  <defs
     id="defs40040" />
  <sodipodi:namedview
     id="base"
     pagecolor="#ffffff"
     bordercolor="#666666"
     borderopacity="1.0"
     inkscape:pageopacity="0.0"
     inkscape:pageshadow="2"
     inkscape:zoom="1.8339125"
     inkscape:cx="-42.36101"
     inkscape:cy="78.693418"
     inkscape:document-units="px"
     inkscape:current-layer="layer1"
     showgrid="false"
     inkscape:snap-bbox="true"
     inkscape:snap-bbox-midpoints="true"
     inkscape:snap-nodes="false"
     inkscape:window-width="1600"
     inkscape:window-height="876"
     inkscape:window-x="0"
     inkscape:window-y="24"
     inkscape:window-maximized="1" />
  <metadata
     id="metadata40043">
    <rdf:RDF>
      <cc:Work
         rdf:about="">
        <dc:format>image/svg+xml</dc:format>
        <dc:type
           rdf:resource="http://purl.org/dc/dcmitype/StillImage" />
        <dc:title></dc:title>
      </cc:Work>
    </rdf:RDF>
  </metadata>
  <g
     inkscape:label="Layer 1"
     inkscape:groupmode="layer"
     id="layer1"
     transform="translate(0,-1016.9291)">
    <path
       id="path5170"
       d="m 29.729622,1022.9519 1.38036,2.3911 3.2748,0 0,-2.3911 -4.65516,0 z m 6.74597,0 0,2.3911 3.28057,0 1.38039,-2.3911 -4.66096,0 z m -9.16598,0.01 c -2.07913,0.042 -3.80794,1.7724 -3.84662,3.8523 l 2.39115,1.3804 0,-1.3111 c 0,-0.8512 0.68505,-1.5363 1.53632,-1.5363 l 1.29952,0 -1.38037,-2.3853 z m 16.24115,0 -1.3746,2.3853 1.30531,0 c 0.85127,0 1.53632,0.6851 1.53632,1.5363 l 0,1.2996 2.38535,-1.3746 c -0.0417,-2.0792 -1.77263,-3.808 -3.85238,-3.8466 z m 3.85815,6.2608 -2.39112,1.3804 0,3.2806 2.39112,0 0,-4.661 z m -23.95168,0.01 0,4.6551 2.39691,0 0,-3.269 -2.39691,-1.3861 z m 0,6.7517 0,4.6552 2.39691,-1.3861 0,-3.2691 -2.39691,0 z m 21.56056,0 0,3.2806 2.39112,1.3804 0,-4.661 -2.39112,0 z m -19.16365,5.6891 -2.39115,1.3803 c 0.0417,2.0775 1.7692,3.8108 3.84662,3.8524 l 1.38037,-2.3911 -1.29952,0 c -0.85127,0 -1.53632,-0.6851 -1.53632,-1.5364 l 0,-1.3052 z m 19.16365,0.01 0,1.2995 c 0,0.8512 -0.68505,1.5363 -1.53632,1.5363 l -1.30531,0 1.3746,2.3911 c 2.07786,-0.039 3.80743,-1.7697 3.85238,-3.8466 l -2.38535,-1.3803 z m -13.90201,2.8358 -1.38616,2.3969 4.65516,0 0,-2.3969 -3.269,0 z m 5.35981,0 0,2.3969 4.65516,0 -1.38036,-2.3969 -3.2748,0 z"
       style="color:#000000;font-style:normal;font-variant:normal;font-weight:normal;font-stretch:normal;font-size:medium;line-height:normal;font-family:sans-serif;text-indent:0;text-align:start;text-decoration:none;text-decoration-line:none;text-decoration-style:solid;text-decoration-color:#000000;letter-spacing:normal;word-spacing:normal;text-transform:none;direction:ltr;block-progression:tb;writing-mode:lr-tb;baseline-shift:baseline;text-anchor:start;white-space:normal;clip-rule:nonzero;display:inline;overflow:visible;visibility:visible;opacity:1;isolation:auto;mix-blend-mode:normal;color-interpolation:sRGB;color-interpolation-filters:linearRGB;solid-color:#000000;solid-opacity:1;fill:#000000;fill-opacity:1;fill-rule:nonzero;stroke:none;stroke-width:2;stroke-linecap:round;stroke-linejoin:miter;stroke-miterlimit:4;stroke-dasharray:none;stroke-dashoffset:4.5999999;stroke-opacity:1;color-rendering:auto;image-rendering:auto;shape-rendering:auto;text-rendering:auto;enable-background:accumulate"
       inkscape:connector-curvature="0" />
  </g>
</svg>
