<?xml version="1.0" encoding="UTF-8" standalone="no"?>
<!-- Created with Inkscape (http://www.inkscape.org/) -->

<svg
   xmlns:dc="http://purl.org/dc/elements/1.1/"
   xmlns:cc="http://creativecommons.org/ns#"
   xmlns:rdf="http://www.w3.org/1999/02/22-rdf-syntax-ns#"
   xmlns:svg="http://www.w3.org/2000/svg"
   xmlns="http://www.w3.org/2000/svg"
   xmlns:sodipodi="http://sodipodi.sourceforge.net/DTD/sodipodi-0.dtd"
   xmlns:inkscape="http://www.inkscape.org/namespaces/inkscape"
   width="210mm"
   height="297mm"
   viewBox="0 0 210 297"
   version="1.1"
   id="svg5991"
   inkscape:version="0.92.5 (2060ec1f9f, 2020-04-08)"
   sodipodi:docname="commitment.svg">
  <defs
     id="defs5985" />
  <sodipodi:namedview
     id="base"
     pagecolor="#ffffff"
     bordercolor="#666666"
     borderopacity="1.0"
     inkscape:pageopacity="0.0"
     inkscape:pageshadow="2"
     inkscape:zoom="2.8"
     inkscape:cx="353.96358"
     inkscape:cy="605.09694"
     inkscape:document-units="mm"
     inkscape:current-layer="layer1"
     showgrid="false"
     inkscape:window-width="1848"
     inkscape:window-height="1016"
     inkscape:window-x="72"
     inkscape:window-y="27"
     inkscape:window-maximized="1" />
  <metadata
     id="metadata5988">
    <rdf:RDF>
      <cc:Work
         rdf:about="">
        <dc:format>image/svg+xml</dc:format>
        <dc:type
           rdf:resource="http://purl.org/dc/dcmitype/StillImage" />
        <dc:title></dc:title>
      </cc:Work>
    </rdf:RDF>
  </metadata>
  <g
     inkscape:label="Layer 1"
     inkscape:groupmode="layer"
     id="layer1">
    <path
       style="color:#000000;font-style:normal;font-variant:normal;font-weight:normal;font-stretch:normal;font-size:37.5px;line-height:1.25;font-family:sans-serif;font-variant-ligatures:normal;font-variant-position:normal;font-variant-caps:normal;font-variant-numeric:normal;font-variant-alternates:normal;font-feature-settings:normal;text-indent:0;text-align:start;text-decoration:none;text-decoration-line:none;text-decoration-style:solid;text-decoration-color:#000000;letter-spacing:0px;word-spacing:0px;text-transform:none;writing-mode:lr-tb;direction:ltr;text-orientation:mixed;dominant-baseline:auto;baseline-shift:baseline;text-anchor:start;white-space:normal;shape-padding:0;clip-rule:nonzero;display:inline;overflow:visible;visibility:visible;opacity:1;isolation:auto;mix-blend-mode:normal;color-interpolation:sRGB;color-interpolation-filters:linearRGB;solid-color:#000000;solid-opacity:1;vector-effect:none;fill:#e6e6e6;fill-opacity:1;fill-rule:nonzero;stroke:none;stroke-width:0.32366571;stroke-linecap:butt;stroke-linejoin:miter;stroke-miterlimit:4;stroke-dasharray:none;stroke-dashoffset:0;stroke-opacity:1;color-rendering:auto;image-rendering:auto;shape-rendering:auto;text-rendering:auto;enable-background:accumulate"
       d="m 93.978516,116.15237 -0.0059,0.002 -0.0039,0.002 c -0.87363,0.54438 -1.333984,1.31575 -1.333984,2.25586 0,0.9603 0.373764,1.89163 0.738637,2.33649 1.006809,1.2364 2.920913,4.0868 4.054325,4.27685 1.252046,-0.0236 3.884476,-3.81121 3.884476,-3.81121 0.33118,-0.60836 0.95737,-1.70365 0.95737,-2.80212 0,-0.33129 -0.0723,-0.68026 -0.21289,-1.04492 l -0.004,-0.01 -0.006,-0.0117 c -0.54959,-0.97703 -1.31957,-1.50588 -2.259771,-1.49804 -1.856276,0.13497 -5.210455,-0.15344 -5.808363,0.30479 z"
       id="path6583"
       inkscape:connector-curvature="0"
       sodipodi:nodetypes="cccscccsccccc" />
    <g
       transform="matrix(0.28222223,0,0,0.28222223,304.78285,-101.47495)"
       aria-label="♥"
       style="font-style:normal;font-weight:normal;font-size:37.5px;line-height:1.25;font-family:sans-serif;letter-spacing:0px;word-spacing:0px;display:inline;fill:#000000;fill-opacity:1;stroke:none;stroke-width:0.9375"
       id="text11589">
      <path
         d="m -727.85208,773.44098 c 3.68119,-0.23216 7.04124,1.98482 6.68827,5.21599 0.39063,1.01319 -0.6656,2.60207 -0.30317,3.41613 0.83705,1.87987 -0.93471,4.28902 -3.47377,7.06002 l -9.74122,9.75219 c 0,0 -6.74122,-5.60724 -6.62285,-6.49506 l -2.83477,-3.89077 c -2.87943,-2.14731 -3.96401,-5.43936 -3.96401,-8.10049 0,-2.57569 1.2146,-4.62037 3.6438,-6.13404 1.02539,-0.54931 2.06938,-0.84819 3.13113,-0.82397 3.93252,0.0897 5.98672,2.96132 6.67419,5.02808 0.89124,-2.03937 3.21183,-4.99591 6.80235,-5.02808 z"
         style="fill:#aa0000;stroke-width:0.9375"
         id="path11591"
         inkscape:connector-curvature="0"
         sodipodi:nodetypes="ccsccccscscsc" />
    </g>
    <path
       style="display:inline;fill:#800000;stroke:#001c1c;stroke-width:1.00000012;stroke-linecap:round;stroke-linejoin:miter;stroke-miterlimit:4;stroke-dasharray:none;stroke-opacity:1"
       d="m 94.892778,121.54097 c 3.740531,0.84057 2.465669,-2.43765 6.332282,-2.77387"
       id="path11594"
       inkscape:connector-curvature="0"
       sodipodi:nodetypes="cc" />
    <path
       style="display:inline;fill:#800000;stroke:#001c1c;stroke-width:0.26458332px;stroke-linecap:butt;stroke-linejoin:miter;stroke-opacity:1"
       d="m 96.507916,120.78345 0.840571,1.34491"
       id="path11597"
       inkscape:connector-curvature="0" />
    <path
       inkscape:connector-curvature="0"
       id="path11599"
       d="m 98.873559,118.66678 0.840571,1.34491"
       style="display:inline;fill:#800000;stroke:#001c1c;stroke-width:0.26458332px;stroke-linecap:butt;stroke-linejoin:miter;stroke-opacity:1" />
  </g>
</svg>
