<?xml version="1.0" encoding="UTF-8" standalone="no"?>
<!-- Created with Inkscape (http://www.inkscape.org/) -->

<svg
   xmlns:dc="http://purl.org/dc/elements/1.1/"
   xmlns:cc="http://creativecommons.org/ns#"
   xmlns:rdf="http://www.w3.org/1999/02/22-rdf-syntax-ns#"
   xmlns:svg="http://www.w3.org/2000/svg"
   xmlns="http://www.w3.org/2000/svg"
   xmlns:xlink="http://www.w3.org/1999/xlink"
   xmlns:sodipodi="http://sodipodi.sourceforge.net/DTD/sodipodi-0.dtd"
   xmlns:inkscape="http://www.inkscape.org/namespaces/inkscape"
   width="210mm"
   height="297mm"
   viewBox="0 0 210 297"
   version="1.1"
   id="svg52"
   inkscape:version="0.92.5 (2060ec1f9f, 2020-04-08)"
   sodipodi:docname="deck_template_pnp_3x3.svg">
  <metadata
     id="metadata16">
    <rdf:RDF>
      <cc:Work
         rdf:about="">
        <dc:format>image/svg+xml</dc:format>
        <dc:type
           rdf:resource="http://purl.org/dc/dcmitype/StillImage" />
      </cc:Work>
    </rdf:RDF>
  </metadata>
  <defs
     id="defs46" />
  <sodipodi:namedview
     id="base"
     pagecolor="#ffffff"
     bordercolor="#666666"
     borderopacity="1.0"
     inkscape:pageopacity="0.0"
     inkscape:pageshadow="2"
     inkscape:zoom="1.979899"
     inkscape:cx="292.36662"
     inkscape:cy="846.16997"
     inkscape:document-units="mm"
     inkscape:current-layer="layer1"
     showgrid="false"
     inkscape:window-width="1920"
     inkscape:window-height="1016"
     inkscape:window-x="0"
     inkscape:window-y="27"
     inkscape:window-maximized="1" />
  <g
     inkscape:label="Layer 1"
     inkscape:groupmode="layer"
     id="layer1">
    <path
       inkscape:connector-curvature="0"
       id="path11294-3-11-82"
       style="display:inline;fill:#b3b3b3;fill-opacity:1;fill-rule:nonzero;stroke:#000000;stroke-width:0.28222224"
       d="m 76.745542,108.77667 c -1.56421,-10e-6 -2.82221,1.258 -2.82221,2.82221 v 83.25556 c -1e-5,1.56386 1.258,2.82222 2.82221,2.82223 l 57.855578,-1e-5 c 1.56385,1e-5 2.82221,-1.25835 2.82221,-2.82222 l -1e-5,-83.25555 c 0,-1.56422 -1.25835,-2.82222 -2.82221,-2.82223 z m 2.75026,3.94934 H 131.8505 c 1.56386,1e-5 2.82222,1.25942 2.82221,2.82222 v 75.35651 c 1e-5,1.56282 -1.25835,2.82223 -2.8222,2.82223 H 79.495802 c -1.56386,0 -2.82222,-1.25942 -2.82222,-2.82222 v -75.35651 c 0,-1.56281 1.25835,-2.82224 2.82222,-2.82223 z" />
    <path
       inkscape:connector-curvature="0"
       id="path11294-3-3"
       style="display:inline;fill:#b3b3b3;fill-opacity:1;fill-rule:nonzero;stroke:#000000;stroke-width:0.28222224"
       d="m 12.963322,108.77667 c -1.56421,-10e-6 -2.822201,1.258 -2.822211,2.82221 v 83.25556 c -10e-6,1.56386 1.258011,2.82222 2.822211,2.82223 l 57.85557,-1e-5 c 1.56386,1e-5 2.82222,-1.25835 2.82221,-2.82222 v -83.25555 c 0,-1.56422 -1.25836,-2.82222 -2.82221,-2.82223 z m 2.75026,3.94934 h 52.35469 c 1.56387,1e-5 2.82222,1.25942 2.82222,2.82222 v 75.35651 c 1e-5,1.56282 -1.25835,2.82223 -2.82221,2.82223 h -52.3547 c -1.56386,0 -2.82222,-1.25942 -2.82222,-2.82222 v -75.35651 c 0,-1.56281 1.25835,-2.82224 2.82222,-2.82223 z" />
    <path
       inkscape:connector-curvature="0"
       id="path11294-3-3-8"
       style="display:inline;fill:#b3b3b3;fill-opacity:1;fill-rule:nonzero;stroke:#000000;stroke-width:0.28222224"
       d="m 12.963322,19.594441 c -1.56421,-3e-6 -2.822201,1.258005 -2.822211,2.822216 v 83.255553 c -10e-6,1.56386 1.258011,2.82222 2.822211,2.82223 l 57.85557,-1e-5 c 1.56386,1e-5 2.82222,-1.25835 2.82221,-2.82222 V 22.416663 c 0,-1.564223 -1.25836,-2.82222 -2.82221,-2.822228 z m 2.75026,3.949347 h 52.35469 c 1.56387,3e-6 2.82222,1.259411 2.82222,2.822214 v 75.356508 c 1e-5,1.56282 -1.25835,2.82222 -2.82221,2.82222 l -52.3547,1e-5 c -1.56386,0 -2.82222,-1.25942 -2.82222,-2.82222 V 26.366013 c 0,-1.562811 1.25835,-2.822236 2.82222,-2.822225 z" />
    <path
       inkscape:connector-curvature="0"
       id="path11294-3-3-6"
       style="display:inline;fill:#b3b3b3;fill-opacity:1;fill-rule:nonzero;stroke:#000000;stroke-width:0.28222224"
       d="m 76.745542,19.594441 c -1.56421,-3e-6 -2.82221,1.258005 -2.82221,2.822216 v 83.255553 c -1e-5,1.56386 1.258,2.82222 2.82221,2.82223 l 57.855578,-1e-5 c 1.56385,1e-5 2.82221,-1.25835 2.82221,-2.82222 l -1e-5,-83.255547 c 0,-1.564223 -1.25835,-2.82222 -2.82221,-2.822228 z m 2.75026,3.949347 H 131.8505 c 1.56386,3e-6 2.82222,1.259411 2.82221,2.822214 v 75.356508 c 1e-5,1.56282 -1.25835,2.82222 -2.8222,2.82222 l -52.354708,1e-5 c -1.56386,0 -2.82222,-1.25942 -2.82222,-2.82222 V 26.366013 c 0,-1.562811 1.25835,-2.822236 2.82222,-2.822225 z" />
    <path
       inkscape:connector-curvature="0"
       id="path11294-3-3-3"
       style="display:inline;fill:#b3b3b3;fill-opacity:1;fill-rule:nonzero;stroke:#000000;stroke-width:0.28222224"
       d="m 140.52776,19.594441 c -1.56421,-3e-6 -2.8222,1.258005 -2.82221,2.822216 v 83.255553 c 0,1.56386 1.25801,2.82222 2.82222,2.82223 l 57.85556,-1e-5 c 1.56387,1e-5 2.82222,-1.25835 2.82222,-2.82222 l -10e-6,-83.255547 c 0,-1.564223 -1.25835,-2.82222 -2.82221,-2.822228 z m 2.75027,3.949347 h 52.35469 c 1.56386,3e-6 2.82222,1.259411 2.82221,2.822214 v 75.356508 c 1e-5,1.56282 -1.25835,2.82222 -2.82221,2.82222 l -52.3547,1e-5 c -1.56385,0 -2.82222,-1.25942 -2.82222,-2.82222 V 26.366013 c 0,-1.562811 1.25835,-2.822236 2.82223,-2.822225 z" />
    <path
       inkscape:connector-curvature="0"
       id="path11294-3-4"
       style="display:inline;fill:#b3b3b3;fill-opacity:1;fill-rule:nonzero;stroke:#000000;stroke-width:0.28222224"
       d="m 12.963322,197.9589 c -1.56421,-1e-5 -2.822201,1.258 -2.822211,2.82221 v 83.25555 c -10e-6,1.56388 1.258011,2.82223 2.822211,2.82223 h 57.85557 c 1.56386,3e-5 2.82222,-1.25835 2.82221,-2.82223 v -83.25554 c 0,-1.56422 -1.25836,-2.82222 -2.82221,-2.82223 z m 2.75026,3.94935 h 52.35469 c 1.56387,0 2.82222,1.25941 2.82222,2.82221 v 75.3565 c 1e-5,1.56283 -1.25835,2.82222 -2.82221,2.82222 h -52.3547 c -1.56386,0 -2.82222,-1.25942 -2.82222,-2.82222 v -75.35649 c 0,-1.56281 1.25835,-2.82224 2.82222,-2.82222 z" />
    <path
       inkscape:connector-curvature="0"
       id="path11294-3-4-5"
       style="display:inline;fill:#b3b3b3;fill-opacity:1;fill-rule:nonzero;stroke:#000000;stroke-width:0.28222224"
       d="m 140.52776,108.77667 c -1.56421,-10e-6 -2.8222,1.258 -2.82221,2.82221 v 83.25556 c 0,1.56386 1.25801,2.82222 2.82222,2.82223 l 57.85556,-1e-5 c 1.56387,1e-5 2.82222,-1.25835 2.82222,-2.82222 l -10e-6,-83.25555 c 0,-1.56422 -1.25835,-2.82222 -2.82221,-2.82223 z m 2.75027,3.94934 h 52.35469 c 1.56386,1e-5 2.82222,1.25942 2.82221,2.82222 v 75.35651 c 1e-5,1.56282 -1.25835,2.82223 -2.82221,2.82223 h -52.3547 c -1.56385,0 -2.82222,-1.25942 -2.82222,-2.82222 v -75.35651 c 0,-1.56281 1.25835,-2.82224 2.82223,-2.82223 z" />
    <path
       inkscape:connector-curvature="0"
       id="path11294-3-4-2"
       style="display:inline;fill:#b3b3b3;fill-opacity:1;fill-rule:nonzero;stroke:#000000;stroke-width:0.28222224"
       d="m 76.745542,197.9589 c -1.56421,-1e-5 -2.82221,1.258 -2.82221,2.82221 v 83.25555 c -1e-5,1.56388 1.258,2.82223 2.82221,2.82223 h 57.855578 c 1.56385,3e-5 2.82221,-1.25835 2.82221,-2.82223 l -1e-5,-83.25554 c 0,-1.56422 -1.25835,-2.82222 -2.82221,-2.82223 z m 2.75026,3.94935 H 131.8505 c 1.56386,0 2.82222,1.25941 2.82221,2.82221 v 75.3565 c 1e-5,1.56283 -1.25835,2.82222 -2.8222,2.82222 H 79.495802 c -1.56386,0 -2.82222,-1.25942 -2.82222,-2.82222 v -75.35649 c 0,-1.56281 1.25835,-2.82224 2.82222,-2.82222 z" />
    <path
       inkscape:connector-curvature="0"
       id="path11294-3-4-0"
       style="display:inline;fill:#b3b3b3;fill-opacity:1;fill-rule:nonzero;stroke:#000000;stroke-width:0.28222224"
       d="m 140.52776,197.9589 c -1.56421,-1e-5 -2.8222,1.258 -2.82221,2.82221 v 83.25555 c 0,1.56388 1.25801,2.82223 2.82222,2.82223 h 57.85556 c 1.56387,3e-5 2.82222,-1.25835 2.82222,-2.82223 l -10e-6,-83.25554 c 0,-1.56422 -1.25835,-2.82222 -2.82221,-2.82223 z m 2.75027,3.94935 h 52.35469 c 1.56386,0 2.82222,1.25941 2.82221,2.82221 v 75.3565 c 1e-5,1.56283 -1.25835,2.82222 -2.82221,2.82222 h -52.3547 c -1.56385,0 -2.82222,-1.25942 -2.82222,-2.82222 v -75.35649 c 0,-1.56281 1.25835,-2.82224 2.82223,-2.82222 z" />
    <image
       xlink:href="card_3x3_01.png"
       width="64.029167"
       height="89.429169"
       preserveAspectRatio="none"
       id="image00001"
       x="10"
       y="197.78084" />
    <image
       xlink:href="card_3x3_02.png"
       y="197.78084"
       x="74.029167"
       id="image17"
       preserveAspectRatio="none"
       height="89.429169"
       width="64.029167" />
    <image
       xlink:href="card_3x3_03.png"
       width="64.029167"
       height="89.429169"
       preserveAspectRatio="none"
       id="image19"
       x="138.05833"
       y="197.78084" />
    <image
       xlink:href="card_3x3_04.png"
       y="108.35167"
       x="10"
       id="image00001-3"
       preserveAspectRatio="none"
       height="89.429169"
       width="64.029167" />
    <image
       xlink:href="card_3x3_05.png"
       y="108.35167"
       x="74.029167"
       id="image00001-6"
       preserveAspectRatio="none"
       height="89.429169"
       width="64.029167" />
    <image
       xlink:href="card_3x3_06.png"
       y="108.35167"
       x="138.05833"
       id="image00001-7"
       preserveAspectRatio="none"
       height="89.429169"
       width="64.029167" />
    <image
       xlink:href="card_3x3_07.png"
       y="18.922501"
       x="10"
       id="image00001-5"
       preserveAspectRatio="none"
       height="89.429169"
       width="64.029167" />
    <image
       xlink:href="card_3x3_08.png"
       y="18.922501"
       x="74.029167"
       id="image00001-35"
       preserveAspectRatio="none"
       height="89.429169"
       width="64.029167" />
    <image
       xlink:href="card_3x3_09.png"
       y="18.922501"
       x="138.05833"
       id="image00001-62"
       preserveAspectRatio="none"
       height="89.429169"
       width="64.029167" />
  </g>
</svg>
