<?xml version="1.0" encoding="UTF-8" standalone="no"?>
<!-- Created with Inkscape (http://www.inkscape.org/) -->

<svg
   xmlns:dc="http://purl.org/dc/elements/1.1/"
   xmlns:cc="http://creativecommons.org/ns#"
   xmlns:rdf="http://www.w3.org/1999/02/22-rdf-syntax-ns#"
   xmlns:svg="http://www.w3.org/2000/svg"
   xmlns="http://www.w3.org/2000/svg"
   xmlns:xlink="http://www.w3.org/1999/xlink"
   xmlns:sodipodi="http://sodipodi.sourceforge.net/DTD/sodipodi-0.dtd"
   xmlns:inkscape="http://www.inkscape.org/namespaces/inkscape"
   width="2625"
   height="2506"
   viewBox="0 0 694.53123 663.04585"
   version="1.1"
   id="svg831"
   sodipodi:docname="deck_template_tts_7x10.svg"
   inkscape:version="0.92.5 (2060ec1f9f, 2020-04-08)">
  <defs
     id="defs825" />
  <sodipodi:namedview
     id="base"
     pagecolor="#ffffff"
     bordercolor="#666666"
     borderopacity="1.0"
     inkscape:pageopacity="0.0"
     inkscape:pageshadow="2"
     inkscape:zoom="0.49497475"
     inkscape:cx="1008.592"
     inkscape:cy="1061.3536"
     inkscape:document-units="mm"
     inkscape:current-layer="layer1"
     showgrid="false"
     inkscape:snap-nodes="false"
     inkscape:snap-bbox="true"
     inkscape:bbox-nodes="true"
     inkscape:window-width="3840"
     inkscape:window-height="2123"
     inkscape:window-x="1920"
     inkscape:window-y="0"
     inkscape:window-maximized="1"
     units="px" />
  <metadata
     id="metadata828">
    <rdf:RDF>
      <cc:Work
         rdf:about="">
        <dc:format>image/svg+xml</dc:format>
        <dc:type
           rdf:resource="http://purl.org/dc/dcmitype/StillImage" />
        <dc:title />
      </cc:Work>
    </rdf:RDF>
  </metadata>
  <g
     inkscape:label="Layer 1"
     inkscape:groupmode="layer"
     id="layer1"
     transform="translate(0,366.04585)">
    <path
       style="display:inline;fill:#000000;fill-opacity:0.36538463;stroke-width:0.3508375"
       d="m 8e-7,-366.08291 v 94.72613 H 69.465822 v -94.72613 z m 6.315075,3.15754 H 63.150751 c 1.744011,0 3.15754,1.41352 3.15754,3.15754 v 82.09597 c 0,1.74402 -1.41353,3.15754 -3.15754,3.15754 H 6.3150758 c -1.744014,0 -3.157537,-1.41352 -3.157537,-3.15754 v -82.09597 c 0,-1.74402 1.413523,-3.15754 3.157537,-3.15754 z"
       id="polygon235-6-3-5"
        />
    <image

       xlink:href="card_tts_01.png"
       y="-366.08292"
       x="9.7430416e-07"
       id="image1559"
       preserveAspectRatio="none"
       height="94.726128"
       width="69.46582"
        />
    <path
       style="display:inline;fill:#000000;fill-opacity:0.36538463;stroke-width:0.3508375"
       d="m 69.465822,-366.08291 v 94.72613 h 69.465818 v -94.72613 z m 6.315074,3.15754 h 56.835674 c 1.74401,0 3.15754,1.41352 3.15754,3.15754 v 82.09597 c 0,1.74402 -1.41353,3.15754 -3.15754,3.15754 H 75.780896 c -1.744013,0 -3.157537,-1.41352 -3.157537,-3.15754 v -82.09597 c 0,-1.74402 1.413523,-3.15754 3.157537,-3.15754 z"
       id="polygon235-6-3-5-5"
        />
    <image

       xlink:href="card_tts_02.png"

       width="69.46582"
       height="94.726128"
       preserveAspectRatio="none"
       id="image1559-6"
       x="69.465828"
       y="-366.08292" />
    <path
       style="display:inline;fill:#000000;fill-opacity:0.36538463;stroke-width:0.3508375"
       d="m 138.93165,-366.08291 v 94.72612 h 69.46582 v -94.72612 z m 6.31508,3.15754 h 56.83567 c 1.74401,0 3.15754,1.41352 3.15754,3.15754 v 82.09597 c 0,1.74402 -1.41353,3.15754 -3.15754,3.15754 h -56.83567 c -1.74402,0 -3.15754,-1.41352 -3.15754,-3.15754 v -82.09597 c 0,-1.74402 1.41352,-3.15754 3.15754,-3.15754 z"
       id="polygon235-6-3-5-5-2"
        />
    <image

       xlink:href="card_tts_03.png"

       width="69.46582"
       height="94.726128"
       preserveAspectRatio="none"
       id="image1559-6-9"
       x="138.93166"
       y="-366.08292" />
    <path
       style="display:inline;fill:#000000;fill-opacity:0.36538463;stroke-width:0.3508375"
       d="m 208.39746,-366.08291 v 94.72613 h 69.46582 v -94.72613 z m 6.31507,3.15754 h 56.83568 c 1.74401,0 3.15754,1.41352 3.15754,3.15754 v 82.09597 c 0,1.74402 -1.41353,3.15754 -3.15754,3.15754 h -56.83568 c -1.74401,0 -3.15753,-1.41352 -3.15753,-3.15754 v -82.09597 c 0,-1.74402 1.41352,-3.15754 3.15753,-3.15754 z"
       id="polygon235-6-3-5-5-1"
        />
    <image

       xlink:href="card_tts_04.png"

       width="69.46582"
       height="94.726128"
       preserveAspectRatio="none"
       id="image1559-6-2"
       x="208.39748"
       y="-366.08292" />
    <path
       style="display:inline;fill:#000000;fill-opacity:0.36538463;stroke-width:0.3508375"
       d="m 277.8633,-366.08291 v 94.72613 h 69.46582 v -94.72613 z m 6.31508,3.15754 h 56.83567 c 1.74401,0 3.15754,1.41352 3.15754,3.15754 v 82.09597 c 0,1.74402 -1.41353,3.15754 -3.15754,3.15754 h -56.83567 c -1.74402,0 -3.15754,-1.41352 -3.15754,-3.15754 v -82.09597 c 0,-1.74402 1.41352,-3.15754 3.15754,-3.15754 z"
       id="polygon235-6-3-5-5-7"
        />
    <image

       xlink:href="card_tts_05.png"

       width="69.46582"
       height="94.726128"
       preserveAspectRatio="none"
       id="image1559-6-0"
       x="277.86331"
       y="-366.08292" />
    <path
       style="display:inline;fill:#000000;fill-opacity:0.36538463;stroke-width:0.3508375"
       d="m 347.32913,-366.08291 v 94.72612 h 69.46582 v -94.72612 z m 6.31507,3.15754 h 56.83568 c 1.744,0 3.15753,1.41352 3.15753,3.15754 v 82.09597 c 0,1.74402 -1.41353,3.15754 -3.15753,3.15754 H 353.6442 c -1.74401,0 -3.15754,-1.41352 -3.15754,-3.15754 v -82.09597 c 0,-1.74402 1.41353,-3.15754 3.15754,-3.15754 z"
       id="polygon235-6-3-5-5-9"
        />
    <image

       xlink:href="card_tts_06.png"

       width="69.46582"
       height="94.726128"
       preserveAspectRatio="none"
       id="image1559-6-3"
       x="347.32913"
       y="-366.08292" />
    <path
       style="display:inline;fill:#000000;fill-opacity:0.36538463;stroke-width:0.3508375"
       d="m 416.79494,-366.08291 v 94.72612 h 69.46582 v -94.72612 z m 6.31508,3.15754 h 56.83567 c 1.74401,0 3.15754,1.41353 3.15754,3.15754 v 82.09597 c 0,1.74402 -1.41353,3.15754 -3.15754,3.15754 h -56.83567 c -1.74402,0 -3.15754,-1.41352 -3.15754,-3.15754 v -82.09597 c 0,-1.74401 1.41352,-3.15754 3.15754,-3.15754 z"
       id="polygon235-6-3-5-5-2-6"
        />
    <image

       xlink:href="card_tts_07.png"

       width="69.46582"
       height="94.726128"
       preserveAspectRatio="none"
       id="image1559-6-9-0"
       x="416.79495"
       y="-366.08292" />
    <path
       style="display:inline;fill:#000000;fill-opacity:0.36538463;stroke-width:0.3508375"
       d="m 486.26075,-366.08291 v 94.72613 h 69.46582 v -94.72613 z m 6.31507,3.15754 h 56.83568 c 1.74401,0 3.15754,1.41353 3.15754,3.15754 v 82.09597 c 0,1.74402 -1.41353,3.15754 -3.15754,3.15754 h -56.83568 c -1.74401,0 -3.15753,-1.41352 -3.15753,-3.15754 v -82.09597 c 0,-1.74401 1.41352,-3.15754 3.15753,-3.15754 z"
       id="polygon235-6-3-5-5-1-6"
        />
    <image

       xlink:href="card_tts_08.png"

       width="69.46582"
       height="94.726128"
       preserveAspectRatio="none"
       id="image1559-6-2-2"
       x="486.26077"
       y="-366.08292" />
    <path
       style="display:inline;fill:#000000;fill-opacity:0.36538463;stroke-width:0.3508375"
       d="m 555.72659,-366.08291 v 94.72613 h 69.46582 v -94.72613 z m 6.31508,3.15754 h 56.83567 c 1.74401,0 3.15754,1.41353 3.15754,3.15754 v 82.09597 c 0,1.74402 -1.41353,3.15754 -3.15754,3.15754 h -56.83567 c -1.74402,0 -3.15754,-1.41352 -3.15754,-3.15754 v -82.09597 c 0,-1.74401 1.41352,-3.15754 3.15754,-3.15754 z"
       id="polygon235-6-3-5-5-7-6"
        />
    <image

       xlink:href="card_tts_09.png"

       width="69.46582"
       height="94.726128"
       preserveAspectRatio="none"
       id="image1559-6-0-1"
       x="555.72662"
       y="-366.08292" />
    <path
       style="display:inline;fill:#000000;fill-opacity:0.36538463;stroke-width:0.3508375"
       d="m 625.19242,-366.08291 v 94.72613 h 69.46582 v -94.72613 z m 6.31507,3.15754 h 56.83567 c 1.74401,0 3.15754,1.41353 3.15754,3.15754 v 82.09597 c 0,1.74402 -1.41353,3.15754 -3.15754,3.15754 h -56.83567 c -1.74401,0 -3.15754,-1.41352 -3.15754,-3.15754 v -82.09597 c 0,-1.74401 1.41353,-3.15754 3.15754,-3.15754 z"
       id="polygon235-6-3-5-5-9-8"
        />
    <image

       xlink:href="card_tts_10.png"

       width="69.46582"
       height="94.726128"
       preserveAspectRatio="none"
       id="image1559-6-3-7"
       x="625.19244"
       y="-366.08292" />
    <path
       style="display:inline;fill:#000000;fill-opacity:0.36538463;stroke-width:0.3508375"
       d="m 8e-7,-271.35677 v 94.72612 H 69.465823 v -94.72612 z m 6.315075,3.15753 H 63.150753 c 1.744009,0 3.157537,1.41353 3.157537,3.15754 v 82.09597 c 0,1.74402 -1.413528,3.15754 -3.157537,3.15754 H 6.3150758 c -1.744014,0 -3.157537,-1.41352 -3.157537,-3.15754 v -82.09597 c 0,-1.74401 1.413523,-3.15754 3.157537,-3.15754 z"
       id="polygon235-6-3-5-9"
        />
    <image

       xlink:href="card_tts_11.png"

       width="69.46582"
       height="94.726128"
       preserveAspectRatio="none"
       id="image1559-2"
       x="9.7430416e-07"
       y="-271.35678" />
    <path
       style="display:inline;fill:#000000;fill-opacity:0.36538463;stroke-width:0.3508375"
       d="m 69.465823,-271.35677 v 94.72612 h 69.465817 v -94.72612 z m 6.315074,3.15753 h 56.835673 c 1.74401,0 3.15754,1.41353 3.15754,3.15754 v 82.09597 c 0,1.74402 -1.41353,3.15754 -3.15754,3.15754 H 75.780897 c -1.744013,0 -3.157537,-1.41352 -3.157537,-3.15754 v -82.09597 c 0,-1.74401 1.413523,-3.15754 3.157537,-3.15754 z"
       id="polygon235-6-3-5-5-0"
        />
    <image

       xlink:href="card_tts_12.png"

       width="69.46582"
       height="94.726128"
       preserveAspectRatio="none"
       id="image1559-6-23"
       x="69.465828"
       y="-271.35678" />
    <path
       style="display:inline;fill:#000000;fill-opacity:0.36538463;stroke-width:0.3508375"
       d="m 138.93165,-271.35677 v 94.72612 h 69.46582 v -94.72612 z m 6.31508,3.15753 h 56.83567 c 1.74401,0 3.15754,1.41353 3.15754,3.15754 v 82.09597 c 0,1.74402 -1.41353,3.15755 -3.15754,3.15755 h -56.83567 c -1.74402,0 -3.15754,-1.41353 -3.15754,-3.15755 v -82.09597 c 0,-1.74401 1.41352,-3.15754 3.15754,-3.15754 z"
       id="polygon235-6-3-5-5-2-7"
        />
    <image

       xlink:href="card_tts_13.png"

       width="69.46582"
       height="94.726128"
       preserveAspectRatio="none"
       id="image1559-6-9-5"
       x="138.93166"
       y="-271.35678" />
    <path
       style="display:inline;fill:#000000;fill-opacity:0.36538463;stroke-width:0.3508375"
       d="m 208.39746,-271.35677 v 94.72612 h 69.46581 v -94.72612 z m 6.31507,3.15753 h 56.83567 c 1.74403,0 3.15756,1.41353 3.15756,3.15754 v 82.09597 c 0,1.74402 -1.41353,3.15754 -3.15756,3.15754 h -56.83567 c -1.74401,0 -3.15753,-1.41352 -3.15753,-3.15754 v -82.09597 c 0,-1.74401 1.41352,-3.15754 3.15753,-3.15754 z"
       id="polygon235-6-3-5-5-1-9"
        />
    <image

       xlink:href="card_tts_14.png"

       width="69.46582"
       height="94.726128"
       preserveAspectRatio="none"
       id="image1559-6-2-22"
       x="208.39748"
       y="-271.35678" />
    <path
       style="display:inline;fill:#000000;fill-opacity:0.36538463;stroke-width:0.3508375"
       d="m 277.8633,-271.35677 v 94.72612 h 69.46582 v -94.72612 z m 6.31507,3.15753 h 56.83568 c 1.744,0 3.15754,1.41353 3.15754,3.15754 v 82.09597 c 0,1.74402 -1.41354,3.15754 -3.15754,3.15754 h -56.83568 c -1.744,0 -3.15753,-1.41352 -3.15753,-3.15754 v -82.09597 c 0,-1.74401 1.41353,-3.15754 3.15753,-3.15754 z"
       id="polygon235-6-3-5-5-7-8"
        />
    <image

       xlink:href="card_tts_15.png"

       width="69.46582"
       height="94.726128"
       preserveAspectRatio="none"
       id="image1559-6-0-9"
       x="277.86331"
       y="-271.35678" />
    <path
       style="display:inline;fill:#000000;fill-opacity:0.36538463;stroke-width:0.3508375"
       d="m 347.32912,-271.35677 v 94.72612 h 69.46583 v -94.72612 z m 6.31508,3.15753 h 56.83567 c 1.74401,0 3.15754,1.41353 3.15754,3.15754 v 82.09597 c 0,1.74402 -1.41353,3.15754 -3.15754,3.15754 H 353.6442 c -1.744,0 -3.15754,-1.41352 -3.15754,-3.15754 v -82.09597 c 0,-1.74401 1.41354,-3.15754 3.15754,-3.15754 z"
       id="polygon235-6-3-5-5-9-7"
        />
    <image

       xlink:href="card_tts_16.png"

       width="69.46582"
       height="94.726128"
       preserveAspectRatio="none"
       id="image1559-6-3-3"
       x="347.32913"
       y="-271.35678" />
    <path
       style="display:inline;fill:#000000;fill-opacity:0.36538463;stroke-width:0.3508375"
       d="m 416.79495,-271.35677 v 94.72612 h 69.46582 v -94.72612 z m 6.31507,3.15753 h 56.83568 c 1.744,0 3.15754,1.41353 3.15754,3.15754 v 82.09597 c 0,1.74402 -1.41354,3.15755 -3.15754,3.15755 h -56.83568 c -1.74402,0 -3.15753,-1.41353 -3.15753,-3.15755 v -82.09597 c 0,-1.74401 1.41351,-3.15754 3.15753,-3.15754 z"
       id="polygon235-6-3-5-5-2-6-6"
        />
    <image

       xlink:href="card_tts_17.png"

       width="69.46582"
       height="94.726128"
       preserveAspectRatio="none"
       id="image1559-6-9-0-1"
       x="416.79495"
       y="-271.35678" />
    <path
       style="display:inline;fill:#000000;fill-opacity:0.36538463;stroke-width:0.3508375"
       d="m 486.26075,-271.35677 v 94.72612 h 69.46582 v -94.72612 z m 6.31507,3.15753 h 56.83568 c 1.74403,0 3.15754,1.41353 3.15754,3.15754 v 82.09597 c 0,1.74402 -1.41351,3.15754 -3.15754,3.15754 h -56.83568 c -1.744,0 -3.15753,-1.41352 -3.15753,-3.15754 v -82.09597 c 0,-1.74401 1.41353,-3.15754 3.15753,-3.15754 z"
       id="polygon235-6-3-5-5-1-6-2"
        />
    <image

       xlink:href="card_tts_18.png"

       width="69.46582"
       height="94.726128"
       preserveAspectRatio="none"
       id="image1559-6-2-2-9"
       x="486.2608"
       y="-271.35678" />
    <path
       style="display:inline;fill:#000000;fill-opacity:0.36538463;stroke-width:0.3508375"
       d="m 555.7266,-271.35677 v 94.72612 h 69.46582 v -94.72612 z m 6.31507,3.15753 h 56.83568 c 1.744,0 3.15754,1.41353 3.15754,3.15754 v 82.09597 c 0,1.74402 -1.41354,3.15754 -3.15754,3.15754 h -56.83568 c -1.74402,0 -3.15753,-1.41352 -3.15753,-3.15754 v -82.09597 c 0,-1.74401 1.41351,-3.15754 3.15753,-3.15754 z"
       id="polygon235-6-3-5-5-7-6-3"
        />
    <image

       xlink:href="card_tts_19.png"

       width="69.46582"
       height="94.726128"
       preserveAspectRatio="none"
       id="image1559-6-0-1-1"
       x="555.72662"
       y="-271.35678" />
    <path
       style="display:inline;fill:#000000;fill-opacity:0.36538463;stroke-width:0.3508375"
       d="m 625.19242,-271.35677 v 94.72612 h 69.46583 v -94.72612 z m 6.31508,3.15753 h 56.83567 c 1.74401,0 3.15754,1.41353 3.15754,3.15754 v 82.09597 c 0,1.74402 -1.41353,3.15754 -3.15754,3.15754 H 631.5075 c -1.74403,0 -3.15754,-1.41352 -3.15754,-3.15754 v -82.09597 c 0,-1.74401 1.41351,-3.15754 3.15754,-3.15754 z"
       id="polygon235-6-3-5-5-9-8-9"
        />
    <image

       xlink:href="card_tts_20.png"

       width="69.46582"
       height="94.726128"
       preserveAspectRatio="none"
       id="image1559-6-3-7-4"
       x="625.19244"
       y="-271.35678" />
    <path
       style="display:inline;fill:#000000;fill-opacity:0.36538463;stroke-width:0.3508375"
       d="m 1.1e-6,-176.63065 v 94.72612 H 69.465823 v -94.72612 z m 6.315075,3.15753 H 63.150754 c 1.744009,0 3.157537,1.41353 3.157537,3.15754 v 82.09597 c 0,1.74402 -1.413528,3.15754 -3.157537,3.15754 H 6.3150761 c -1.744014,0 -3.157537,-1.41352 -3.157537,-3.15754 v -82.09597 c 0,-1.74401 1.413523,-3.15754 3.157537,-3.15754 z"
       id="polygon235-6-3-5-7"
        />
    <image

       xlink:href="card_tts_21.png"

       width="69.46582"
       height="94.726128"
       preserveAspectRatio="none"
       id="image1559-8"
       x="9.7430416e-07"
       y="-176.63065" />
    <path
       style="display:inline;fill:#000000;fill-opacity:0.36538463;stroke-width:0.3508375"
       d="m 69.465823,-176.63065 v 94.72612 h 69.465817 v -94.72612 z m 6.315075,3.15753 h 56.835672 c 1.74401,0 3.15754,1.41353 3.15754,3.15754 v 82.09597 c 0,1.74402 -1.41353,3.15754 -3.15754,3.15754 H 75.780899 c -1.744015,0 -3.157537,-1.41352 -3.157537,-3.15754 v -82.09597 c 0,-1.74401 1.413522,-3.15754 3.157536,-3.15754 z"
       id="polygon235-6-3-5-5-4"
        />
    <image

       xlink:href="card_tts_22.png"

       width="69.46582"
       height="94.726128"
       preserveAspectRatio="none"
       id="image1559-6-5"
       x="69.465828"
       y="-176.63065" />
    <path
       style="display:inline;fill:#000000;fill-opacity:0.36538463;stroke-width:0.3508375"
       d="m 138.93165,-176.63065 v 94.72612 h 69.46582 v -94.72612 z m 6.31508,3.15753 h 56.83567 c 1.74401,0 3.15754,1.41353 3.15754,3.15754 v 82.09597 c 0,1.74402 -1.41353,3.15755 -3.15754,3.15755 h -56.83567 c -1.74402,0 -3.15754,-1.41353 -3.15754,-3.15755 v -82.09597 c 0,-1.74401 1.41352,-3.15754 3.15754,-3.15754 z"
       id="polygon235-6-3-5-5-2-0"
        />
    <image

       xlink:href="card_tts_23.png"

       width="69.46582"
       height="94.726128"
       preserveAspectRatio="none"
       id="image1559-6-9-3"
       x="138.93166"
       y="-176.63065" />
    <path
       style="display:inline;fill:#000000;fill-opacity:0.36538463;stroke-width:0.3508375"
       d="m 208.39746,-176.63065 v 94.72612 h 69.46581 v -94.72612 z m 6.31507,3.15753 h 56.83567 c 1.74403,0 3.15756,1.41353 3.15756,3.15754 v 82.09597 c 0,1.74402 -1.41353,3.15754 -3.15756,3.15754 h -56.83567 c -1.74401,0 -3.15753,-1.41352 -3.15753,-3.15754 v -82.09597 c 0,-1.74401 1.41352,-3.15754 3.15753,-3.15754 z"
       id="polygon235-6-3-5-5-1-61"
        />
    <image

       xlink:href="card_tts_24.png"

       width="69.46582"
       height="94.726128"
       preserveAspectRatio="none"
       id="image1559-6-2-0"
       x="208.39748"
       y="-176.63065" />
    <path
       style="display:inline;fill:#000000;fill-opacity:0.36538463;stroke-width:0.3508375"
       d="m 277.8633,-176.63065 v 94.72612 h 69.46582 v -94.72612 z m 6.31507,3.15753 h 56.83568 c 1.744,0 3.15754,1.41353 3.15754,3.15754 v 82.09597 c 0,1.74402 -1.41354,3.15754 -3.15754,3.15754 h -56.83568 c -1.744,0 -3.15753,-1.41352 -3.15753,-3.15754 v -82.09597 c 0,-1.74401 1.41353,-3.15754 3.15753,-3.15754 z"
       id="polygon235-6-3-5-5-7-63"
        />
    <image

       xlink:href="card_tts_25.png"

       width="69.46582"
       height="94.726128"
       preserveAspectRatio="none"
       id="image1559-6-0-2"
       x="277.86331"
       y="-176.63065" />
    <path
       style="display:inline;fill:#000000;fill-opacity:0.36538463;stroke-width:0.3508375"
       d="m 347.32912,-176.63065 v 94.72612 h 69.46583 v -94.72612 z m 6.31508,3.15753 h 56.83567 c 1.74401,0 3.15754,1.41353 3.15754,3.15754 v 82.09597 c 0,1.74402 -1.41353,3.15754 -3.15754,3.15754 H 353.6442 c -1.744,0 -3.15754,-1.41352 -3.15754,-3.15754 v -82.09597 c 0,-1.74401 1.41354,-3.15754 3.15754,-3.15754 z"
       id="polygon235-6-3-5-5-9-0"
        />
    <image

       xlink:href="card_tts_26.png"

       width="69.46582"
       height="94.726128"
       preserveAspectRatio="none"
       id="image1559-6-3-6"
       x="347.32913"
       y="-176.63065" />
    <path
       style="display:inline;fill:#000000;fill-opacity:0.36538463;stroke-width:0.3508375"
       d="m 416.79495,-176.63065 v 94.72612 h 69.46582 v -94.72612 z m 6.31507,3.15754 h 56.83568 c 1.744,0 3.15754,1.41352 3.15754,3.15753 v 82.09597 c 0,1.74402 -1.41354,3.15755 -3.15754,3.15755 h -56.83568 c -1.74402,0 -3.15753,-1.41353 -3.15753,-3.15755 v -82.09597 c 0,-1.74401 1.41351,-3.15753 3.15753,-3.15753 z"
       id="polygon235-6-3-5-5-2-6-1"
        />
    <image

       xlink:href="card_tts_27.png"

       width="69.46582"
       height="94.726128"
       preserveAspectRatio="none"
       id="image1559-6-9-0-5"
       x="416.79495"
       y="-176.63065" />
    <path
       style="display:inline;fill:#000000;fill-opacity:0.36538463;stroke-width:0.3508375"
       d="m 486.26075,-176.63065 v 94.72612 h 69.46582 v -94.72612 z m 6.31507,3.15754 h 56.83568 c 1.74403,0 3.15754,1.41352 3.15754,3.15753 v 82.09597 c 0,1.74402 -1.41351,3.15754 -3.15754,3.15754 h -56.83568 c -1.744,0 -3.15753,-1.41352 -3.15753,-3.15754 v -82.09597 c 0,-1.74401 1.41353,-3.15753 3.15753,-3.15753 z"
       id="polygon235-6-3-5-5-1-6-5"
        />
    <image

       xlink:href="card_tts_28.png"

       width="69.46582"
       height="94.726128"
       preserveAspectRatio="none"
       id="image1559-6-2-2-4"
       x="486.2608"
       y="-176.63065" />
    <path
       style="display:inline;fill:#000000;fill-opacity:0.36538463;stroke-width:0.3508375"
       d="m 555.7266,-176.63065 v 94.72612 h 69.46582 v -94.72612 z m 6.31507,3.15754 h 56.83568 c 1.744,0 3.15754,1.41352 3.15754,3.15753 v 82.09597 c 0,1.74402 -1.41354,3.15754 -3.15754,3.15754 h -56.83568 c -1.74402,0 -3.15753,-1.41352 -3.15753,-3.15754 v -82.09597 c 0,-1.74401 1.41351,-3.15753 3.15753,-3.15753 z"
       id="polygon235-6-3-5-5-7-6-7"
        />
    <image

       xlink:href="card_tts_29.png"

       width="69.46582"
       height="94.726128"
       preserveAspectRatio="none"
       id="image1559-6-0-1-6"
       x="555.72662"
       y="-176.63065" />
    <path
       style="display:inline;fill:#000000;fill-opacity:0.36538463;stroke-width:0.3508375"
       d="m 625.19242,-176.63065 v 94.72612 h 69.46583 v -94.72612 z m 6.31508,3.15754 h 56.83567 c 1.74401,0 3.15754,1.41352 3.15754,3.15753 v 82.09597 c 0,1.74402 -1.41353,3.15754 -3.15754,3.15754 H 631.5075 c -1.74403,0 -3.15754,-1.41352 -3.15754,-3.15754 v -82.09597 c 0,-1.74401 1.41351,-3.15753 3.15754,-3.15753 z"
       id="polygon235-6-3-5-5-9-8-5"
        />
    <image

       xlink:href="card_tts_30.png"

       width="69.46582"
       height="94.726128"
       preserveAspectRatio="none"
       id="image1559-6-3-7-6"
       x="625.19244"
       y="-176.63065" />
    <path
       style="display:inline;fill:#000000;fill-opacity:0.36538463;stroke-width:0.3508375"
       d="M 3e-7,-81.90452 V 12.8216 H 69.465823 v -94.72612 z m 6.315075,3.15754 H 63.150753 c 1.744009,0 3.157537,1.41352 3.157537,3.15753 V 6.50652 c 0,1.74402 -1.413528,3.15754 -3.157537,3.15754 H 6.3150753 c -1.744014,0 -3.157537,-1.41352 -3.157537,-3.15754 v -82.09597 c 0,-1.74401 1.413523,-3.15753 3.157537,-3.15753 z"
       id="polygon235-6-3-5-93"
        />
    <image

       xlink:href="card_tts_31.png"

       width="69.46582"
       height="94.726128"
       preserveAspectRatio="none"
       id="image1559-7"
       x="9.7430416e-07"
       y="-81.904526" />
    <path
       style="display:inline;fill:#000000;fill-opacity:0.36538463;stroke-width:0.3508375"
       d="M 69.465823,-81.90452 V 12.8216 h 69.465817 v -94.72612 z m 6.315076,3.15754 h 56.835671 c 1.74401,0 3.15754,1.41352 3.15754,3.15753 V 6.50652 c 0,1.74402 -1.41353,3.15754 -3.15754,3.15754 H 75.780899 c -1.744021,0 -3.15754,-1.41352 -3.15754,-3.15754 v -82.09597 c 0,-1.74401 1.41352,-3.15753 3.15754,-3.15753 z"
       id="polygon235-6-3-5-5-45"
        />
    <image

       xlink:href="card_tts_32.png"

       width="69.46582"
       height="94.726128"
       preserveAspectRatio="none"
       id="image1559-6-25"
       x="69.465828"
       y="-81.904526" />
    <path
       style="display:inline;fill:#000000;fill-opacity:0.36538463;stroke-width:0.3508375"
       d="M 138.93165,-81.90452 V 12.8216 h 69.46582 v -94.72612 z m 6.31508,3.15754 h 56.83567 c 1.74401,0 3.15754,1.41352 3.15754,3.15753 V 6.50652 c 0,1.74402 -1.41353,3.15755 -3.15754,3.15755 h -56.83567 c -1.74402,0 -3.15754,-1.41353 -3.15754,-3.15755 v -82.09597 c 0,-1.74401 1.41352,-3.15753 3.15754,-3.15753 z"
       id="polygon235-6-3-5-5-2-4"
        />
    <image

       xlink:href="card_tts_33.png"

       width="69.46582"
       height="94.726128"
       preserveAspectRatio="none"
       id="image1559-6-9-7"
       x="138.93166"
       y="-81.904526" />
    <path
       style="display:inline;fill:#000000;fill-opacity:0.36538463;stroke-width:0.3508375"
       d="M 208.39746,-81.90452 V 12.8216 h 69.46581 v -94.72612 z m 6.31507,3.15754 h 56.83567 c 1.74403,0 3.15756,1.41352 3.15756,3.15753 V 6.50652 c 0,1.74402 -1.41353,3.15754 -3.15756,3.15754 h -56.83567 c -1.74401,0 -3.15753,-1.41352 -3.15753,-3.15754 v -82.09597 c 0,-1.74401 1.41352,-3.15753 3.15753,-3.15753 z"
       id="polygon235-6-3-5-5-1-4"
        />
    <image

       xlink:href="card_tts_34.png"

       width="69.46582"
       height="94.726128"
       preserveAspectRatio="none"
       id="image1559-6-2-4"
       x="208.39748"
       y="-81.904526" />
    <path
       style="display:inline;fill:#000000;fill-opacity:0.36538463;stroke-width:0.3508375"
       d="M 277.8633,-81.90452 V 12.8216 h 69.46582 v -94.72612 z m 6.31507,3.15754 h 56.83568 c 1.744,0 3.15754,1.41352 3.15754,3.15753 V 6.50652 c 0,1.74402 -1.41354,3.15754 -3.15754,3.15754 h -56.83568 c -1.744,0 -3.15753,-1.41352 -3.15753,-3.15754 v -82.09597 c 0,-1.74401 1.41353,-3.15753 3.15753,-3.15753 z"
       id="polygon235-6-3-5-5-7-3"
        />
    <image

       xlink:href="card_tts_35.png"

       width="69.46582"
       height="94.726128"
       preserveAspectRatio="none"
       id="image1559-6-0-0"
       x="277.86331"
       y="-81.904526" />
    <path
       style="display:inline;fill:#000000;fill-opacity:0.36538463;stroke-width:0.3508375"
       d="M 347.32912,-81.90452 V 12.8216 h 69.46583 v -94.72612 z m 6.31508,3.15754 h 56.83567 c 1.74401,0 3.15754,1.41352 3.15754,3.15753 V 6.50652 c 0,1.74402 -1.41353,3.15754 -3.15754,3.15754 H 353.6442 c -1.744,0 -3.15754,-1.41352 -3.15754,-3.15754 v -82.09597 c 0,-1.74401 1.41354,-3.15753 3.15754,-3.15753 z"
       id="polygon235-6-3-5-5-9-78"
        />
    <image

       xlink:href="card_tts_36.png"

       width="69.46582"
       height="94.726128"
       preserveAspectRatio="none"
       id="image1559-6-3-68"
       x="347.32913"
       y="-81.904526" />
    <path
       style="display:inline;fill:#000000;fill-opacity:0.36538463;stroke-width:0.3508375"
       d="M 416.79495,-81.90452 V 12.8216 h 69.46582 v -94.72612 z m 6.31507,3.15754 h 56.83568 c 1.744,0 3.15754,1.41352 3.15754,3.15753 V 6.50652 c 0,1.74402 -1.41354,3.15755 -3.15754,3.15755 h -56.83568 c -1.74402,0 -3.15753,-1.41353 -3.15753,-3.15755 v -82.09597 c 0,-1.74401 1.41351,-3.15753 3.15753,-3.15753 z"
       id="polygon235-6-3-5-5-2-6-8"
        />
    <image

       xlink:href="card_tts_37.png"

       width="69.46582"
       height="94.726128"
       preserveAspectRatio="none"
       id="image1559-6-9-0-4"
       x="416.79495"
       y="-81.904526" />
    <path
       style="display:inline;fill:#000000;fill-opacity:0.36538463;stroke-width:0.3508375"
       d="M 486.26075,-81.90452 V 12.8216 h 69.46582 v -94.72612 z m 6.31507,3.15754 h 56.83568 c 1.74403,0 3.15754,1.41352 3.15754,3.15753 V 6.50652 c 0,1.74402 -1.41351,3.15754 -3.15754,3.15754 h -56.83568 c -1.744,0 -3.15753,-1.41352 -3.15753,-3.15754 v -82.09597 c 0,-1.74401 1.41353,-3.15753 3.15753,-3.15753 z"
       id="polygon235-6-3-5-5-1-6-3"
        />
    <image

       xlink:href="card_tts_38.png"

       width="69.46582"
       height="94.726128"
       preserveAspectRatio="none"
       id="image1559-6-2-2-1"
       x="486.26077"
       y="-81.904526" />
    <path
       style="display:inline;fill:#000000;fill-opacity:0.36538463;stroke-width:0.3508375"
       d="M 555.7266,-81.90452 V 12.8216 h 69.46582 v -94.72612 z m 6.31507,3.15754 h 56.83568 c 1.744,0 3.15754,1.41352 3.15754,3.15753 V 6.50652 c 0,1.74402 -1.41354,3.15754 -3.15754,3.15754 h -56.83568 c -1.74402,0 -3.15753,-1.41352 -3.15753,-3.15754 v -82.09597 c 0,-1.74401 1.41351,-3.15753 3.15753,-3.15753 z"
       id="polygon235-6-3-5-5-7-6-4"
        />
    <image

       xlink:href="card_tts_39.png"

       width="69.46582"
       height="94.726128"
       preserveAspectRatio="none"
       id="image1559-6-0-1-9"
       x="555.72662"
       y="-81.904526" />
    <path
       style="display:inline;fill:#000000;fill-opacity:0.36538463;stroke-width:0.3508375"
       d="M 625.19242,-81.90452 V 12.8216 h 69.46583 v -94.72612 z m 6.31508,3.15754 h 56.83567 c 1.74401,0 3.15754,1.41352 3.15754,3.15753 V 6.50652 c 0,1.74402 -1.41353,3.15754 -3.15754,3.15754 H 631.5075 c -1.74403,0 -3.15754,-1.41352 -3.15754,-3.15754 v -82.09597 c 0,-1.74401 1.41351,-3.15753 3.15754,-3.15753 z"
       id="polygon235-6-3-5-5-9-8-2"
        />
    <image

       xlink:href="card_tts_40.png"

       width="69.46582"
       height="94.726128"
       preserveAspectRatio="none"
       id="image1559-6-3-7-0"
       x="625.19244"
       y="-81.904526" />
    <path
       style="display:inline;fill:#000000;fill-opacity:0.36538463;stroke-width:0.3508375"
       d="m 3e-7,12.82162 v 94.72612 H 69.465823 V 12.82162 Z m 6.315075,3.15753 H 63.150753 c 1.744009,0 3.157537,1.41353 3.157537,3.15754 v 82.09597 c 0,1.74402 -1.413528,3.15754 -3.157537,3.15754 H 6.3150753 c -1.744014,0 -3.157537,-1.41352 -3.157537,-3.15754 V 19.13669 c 0,-1.74401 1.413523,-3.15754 3.157537,-3.15754 z"
       id="polygon235-6-3-5-9-6"
        />
    <image

       xlink:href="card_tts_41.png"

       width="69.46582"
       height="94.726128"
       preserveAspectRatio="none"
       id="image1559-2-8"
       x="9.7430416e-07"
       y="12.821612" />
    <path
       style="display:inline;fill:#000000;fill-opacity:0.36538463;stroke-width:0.3508375"
       d="m 69.465823,12.82162 v 94.72612 H 138.93164 V 12.82162 Z m 6.315076,3.15753 h 56.835671 c 1.74401,0 3.15754,1.41353 3.15754,3.15754 v 82.09597 c 0,1.74402 -1.41353,3.15754 -3.15754,3.15754 H 75.780899 c -1.744021,0 -3.15754,-1.41352 -3.15754,-3.15754 V 19.13669 c 0,-1.74401 1.41352,-3.15754 3.15754,-3.15754 z"
       id="polygon235-6-3-5-5-0-9"
        />
    <image

       xlink:href="card_tts_42.png"

       width="69.46582"
       height="94.726128"
       preserveAspectRatio="none"
       id="image1559-6-23-2"
       x="69.465828"
       y="12.821612" />
    <path
       style="display:inline;fill:#000000;fill-opacity:0.36538463;stroke-width:0.3508375"
       d="m 138.93165,12.82162 v 94.72612 h 69.46582 V 12.82162 Z m 6.31508,3.15753 h 56.83567 c 1.74401,0 3.15754,1.41353 3.15754,3.15754 v 82.09597 c 0,1.74402 -1.41353,3.15755 -3.15754,3.15755 h -56.83567 c -1.74402,0 -3.15754,-1.41353 -3.15754,-3.15755 V 19.13669 c 0,-1.74401 1.41352,-3.15754 3.15754,-3.15754 z"
       id="polygon235-6-3-5-5-2-7-6"
        />
    <image

       xlink:href="card_tts_43.png"

       width="69.46582"
       height="94.726128"
       preserveAspectRatio="none"
       id="image1559-6-9-5-6"
       x="138.93166"
       y="12.821612" />
    <path
       style="display:inline;fill:#000000;fill-opacity:0.36538463;stroke-width:0.3508375"
       d="m 208.39746,12.82162 v 94.72612 h 69.46581 V 12.82162 Z m 6.31507,3.15753 h 56.83567 c 1.74403,0 3.15756,1.41353 3.15756,3.15754 v 82.09597 c 0,1.74402 -1.41353,3.15754 -3.15756,3.15754 h -56.83567 c -1.74401,0 -3.15753,-1.41352 -3.15753,-3.15754 V 19.13669 c 0,-1.74401 1.41352,-3.15754 3.15753,-3.15754 z"
       id="polygon235-6-3-5-5-1-9-4"
        />
    <image

       xlink:href="card_tts_44.png"

       width="69.46582"
       height="94.726128"
       preserveAspectRatio="none"
       id="image1559-6-2-22-9"
       x="208.39748"
       y="12.821612" />
    <path
       style="display:inline;fill:#000000;fill-opacity:0.36538463;stroke-width:0.3508375"
       d="m 277.8633,12.82162 v 94.72612 h 69.46582 V 12.82162 Z m 6.31507,3.15753 h 56.83568 c 1.744,0 3.15754,1.41353 3.15754,3.15754 v 82.09597 c 0,1.74402 -1.41354,3.15754 -3.15754,3.15754 h -56.83568 c -1.744,0 -3.15753,-1.41352 -3.15753,-3.15754 V 19.13669 c 0,-1.74401 1.41353,-3.15754 3.15753,-3.15754 z"
       id="polygon235-6-3-5-5-7-8-5"
        />
    <image

       xlink:href="card_tts_45.png"

       width="69.46582"
       height="94.726128"
       preserveAspectRatio="none"
       id="image1559-6-0-9-0"
       x="277.86331"
       y="12.821612" />
    <path
       style="display:inline;fill:#000000;fill-opacity:0.36538463;stroke-width:0.3508375"
       d="m 347.32912,12.82162 v 94.72612 h 69.46583 V 12.82162 Z m 6.31508,3.15753 h 56.83567 c 1.74401,0 3.15754,1.41353 3.15754,3.15754 v 82.09597 c 0,1.74402 -1.41353,3.15754 -3.15754,3.15754 H 353.6442 c -1.744,0 -3.15754,-1.41352 -3.15754,-3.15754 V 19.13669 c 0,-1.74401 1.41354,-3.15754 3.15754,-3.15754 z"
       id="polygon235-6-3-5-5-9-7-4"
        />
    <image

       xlink:href="card_tts_46.png"

       width="69.46582"
       height="94.726128"
       preserveAspectRatio="none"
       id="image1559-6-3-3-8"
       x="347.32913"
       y="12.821612" />
    <path
       style="display:inline;fill:#000000;fill-opacity:0.36538463;stroke-width:0.3508375"
       d="m 416.79495,12.82162 v 94.72612 h 69.46582 V 12.82162 Z m 6.31507,3.15753 h 56.83568 c 1.744,0 3.15754,1.41353 3.15754,3.15754 v 82.09597 c 0,1.74402 -1.41354,3.15755 -3.15754,3.15755 h -56.83568 c -1.74402,0 -3.15753,-1.41353 -3.15753,-3.15755 V 19.13669 c 0,-1.74401 1.41351,-3.15754 3.15753,-3.15754 z"
       id="polygon235-6-3-5-5-2-6-6-7"
        />
    <image

       xlink:href="card_tts_47.png"

       width="69.46582"
       height="94.726128"
       preserveAspectRatio="none"
       id="image1559-6-9-0-1-1"
       x="416.79495"
       y="12.821612" />
    <path
       style="display:inline;fill:#000000;fill-opacity:0.36538463;stroke-width:0.3508375"
       d="m 486.26075,12.82162 v 94.72612 h 69.46582 V 12.82162 Z m 6.31507,3.15753 h 56.83568 c 1.74403,0 3.15754,1.41353 3.15754,3.15754 v 82.09597 c 0,1.74402 -1.41351,3.15754 -3.15754,3.15754 h -56.83568 c -1.744,0 -3.15753,-1.41352 -3.15753,-3.15754 V 19.13669 c 0,-1.74401 1.41353,-3.15754 3.15753,-3.15754 z"
       id="polygon235-6-3-5-5-1-6-2-7"
        />
    <image

       xlink:href="card_tts_48.png"

       width="69.46582"
       height="94.726128"
       preserveAspectRatio="none"
       id="image1559-6-2-2-9-2"
       x="486.26077"
       y="12.821612" />
    <path
       style="display:inline;fill:#000000;fill-opacity:0.36538463;stroke-width:0.3508375"
       d="m 555.7266,12.82162 v 94.72612 h 69.46582 V 12.82162 Z m 6.31507,3.15753 h 56.83568 c 1.744,0 3.15754,1.41353 3.15754,3.15754 v 82.09597 c 0,1.74402 -1.41354,3.15754 -3.15754,3.15754 h -56.83568 c -1.74402,0 -3.15753,-1.41352 -3.15753,-3.15754 V 19.13669 c 0,-1.74401 1.41351,-3.15754 3.15753,-3.15754 z"
       id="polygon235-6-3-5-5-7-6-3-7"
        />
    <image

       xlink:href="card_tts_49.png"

       width="69.46582"
       height="94.726128"
       preserveAspectRatio="none"
       id="image1559-6-0-1-1-2"
       x="555.72662"
       y="12.821612" />
    <path
       style="display:inline;fill:#000000;fill-opacity:0.36538463;stroke-width:0.3508375"
       d="m 625.19242,12.82162 v 94.72612 h 69.46583 V 12.82162 Z m 6.31508,3.15753 h 56.83567 c 1.74401,0 3.15754,1.41353 3.15754,3.15754 v 82.09597 c 0,1.74402 -1.41353,3.15754 -3.15754,3.15754 H 631.5075 c -1.74403,0 -3.15754,-1.41352 -3.15754,-3.15754 V 19.13669 c 0,-1.74401 1.41351,-3.15754 3.15754,-3.15754 z"
       id="polygon235-6-3-5-5-9-8-9-2"
        />
    <image

       xlink:href="card_tts_50.png"

       width="69.46582"
       height="94.726128"
       preserveAspectRatio="none"
       id="image1559-6-3-7-4-6"
       x="625.19244"
       y="12.821612" />
    <path
       style="display:inline;fill:#000000;fill-opacity:0.36538463;stroke-width:0.3508375"
       d="m 3e-7,107.54774 v 94.72611 H 69.465823 v -94.72611 z m 6.315075,3.15753 H 63.150756 c 1.744009,0 3.157534,1.41353 3.157534,3.15754 v 82.09597 c 0,1.74403 -1.413525,3.15754 -3.157534,3.15754 H 6.3150753 c -1.744014,0 -3.157537,-1.41351 -3.157537,-3.15754 v -82.09597 c 0,-1.74401 1.413523,-3.15754 3.157537,-3.15754 z"
       id="polygon235-6-3-5-7-1"
        />
    <image

       xlink:href="card_tts_51.png"

       width="69.46582"
       height="94.726128"
       preserveAspectRatio="none"
       id="image1559-8-0"
       x="9.7430416e-07"
       y="107.54771" />
    <path
       style="display:inline;fill:#000000;fill-opacity:0.36538463;stroke-width:0.3508375"
       d="m 69.465823,107.54774 v 94.72611 h 69.465817 v -94.72611 z m 6.315076,3.15753 h 56.835671 c 1.74401,0 3.15754,1.41353 3.15754,3.15754 v 82.09597 c 0,1.74403 -1.41353,3.15754 -3.15754,3.15754 H 75.780899 c -1.74401,0 -3.15754,-1.41351 -3.15754,-3.15754 v -82.09597 c 0,-1.74401 1.41353,-3.15754 3.15754,-3.15754 z"
       id="polygon235-6-3-5-5-4-6"
        />
    <image

       xlink:href="card_tts_52.png"

       width="69.46582"
       height="94.726128"
       preserveAspectRatio="none"
       id="image1559-6-5-1"
       x="69.465828"
       y="107.54771" />
    <path
       style="display:inline;fill:#000000;fill-opacity:0.36538463;stroke-width:0.3508375"
       d="m 138.93165,107.54774 v 94.72611 h 69.46582 v -94.72611 z m 6.31508,3.15753 h 56.83567 c 1.74401,0 3.15754,1.41353 3.15754,3.15754 v 82.09597 c 0,1.74403 -1.41353,3.15754 -3.15754,3.15754 h -56.83567 c -1.74402,0 -3.15754,-1.41351 -3.15754,-3.15754 v -82.09597 c 0,-1.74401 1.41352,-3.15754 3.15754,-3.15754 z"
       id="polygon235-6-3-5-5-2-0-5"
        />
    <image

       xlink:href="card_tts_53.png"

       width="69.46582"
       height="94.726128"
       preserveAspectRatio="none"
       id="image1559-6-9-3-9"
       x="138.93166"
       y="107.54771" />
    <path
       style="display:inline;fill:#000000;fill-opacity:0.36538463;stroke-width:0.3508375"
       d="m 208.39746,107.54774 v 94.72611 h 69.46581 v -94.72611 z m 6.31507,3.15753 h 56.83567 c 1.74403,0 3.15756,1.41353 3.15756,3.15754 v 82.09597 c 0,1.74403 -1.41353,3.15754 -3.15756,3.15754 h -56.83567 c -1.74401,0 -3.15753,-1.41351 -3.15753,-3.15754 v -82.09597 c 0,-1.74401 1.41352,-3.15754 3.15753,-3.15754 z"
       id="polygon235-6-3-5-5-1-61-4"
        />
    <image

       xlink:href="card_tts_54.png"

       width="69.46582"
       height="94.726128"
       preserveAspectRatio="none"
       id="image1559-6-2-0-9"
       x="208.39748"
       y="107.54771" />
    <path
       style="display:inline;fill:#000000;fill-opacity:0.36538463;stroke-width:0.3508375"
       d="m 277.8633,107.54774 v 94.72611 h 69.46582 v -94.72611 z m 6.31507,3.15753 h 56.83568 c 1.744,0 3.15754,1.41353 3.15754,3.15754 v 82.09597 c 0,1.74403 -1.41354,3.15754 -3.15754,3.15754 h -56.83568 c -1.744,0 -3.15753,-1.41351 -3.15753,-3.15754 v -82.09597 c 0,-1.74401 1.41353,-3.15754 3.15753,-3.15754 z"
       id="polygon235-6-3-5-5-7-63-0"
        />
    <image

       xlink:href="card_tts_55.png"

       width="69.46582"
       height="94.726128"
       preserveAspectRatio="none"
       id="image1559-6-0-2-9"
       x="277.86331"
       y="107.54771" />
    <path
       style="display:inline;fill:#000000;fill-opacity:0.36538463;stroke-width:0.3508375"
       d="m 347.32912,107.54774 v 94.72611 h 69.46583 v -94.72611 z m 6.31508,3.15753 h 56.83567 c 1.74401,0 3.15754,1.41353 3.15754,3.15754 v 82.09597 c 0,1.74403 -1.41353,3.15754 -3.15754,3.15754 H 353.6442 c -1.744,0 -3.15754,-1.41351 -3.15754,-3.15754 v -82.09597 c 0,-1.74401 1.41354,-3.15754 3.15754,-3.15754 z"
       id="polygon235-6-3-5-5-9-0-1"
        />
    <image

       xlink:href="card_tts_56.png"

       width="69.46582"
       height="94.726128"
       preserveAspectRatio="none"
       id="image1559-6-3-6-7"
       x="347.32913"
       y="107.54771" />
    <path
       style="display:inline;fill:#000000;fill-opacity:0.36538463;stroke-width:0.3508375"
       d="m 416.79495,107.54774 v 94.72611 h 69.46582 v -94.72611 z m 6.31507,3.15754 h 56.83568 c 1.744,0 3.15754,1.41352 3.15754,3.15753 v 82.09597 c 0,1.74403 -1.41354,3.15754 -3.15754,3.15754 h -56.83568 c -1.74402,0 -3.15753,-1.41351 -3.15753,-3.15754 v -82.09597 c 0,-1.74401 1.41351,-3.15753 3.15753,-3.15753 z"
       id="polygon235-6-3-5-5-2-6-1-7"
        />
    <image

       xlink:href="card_tts_57.png"

       width="69.46582"
       height="94.726128"
       preserveAspectRatio="none"
       id="image1559-6-9-0-5-1"
       x="416.79495"
       y="107.54771" />
    <path
       style="display:inline;fill:#000000;fill-opacity:0.36538463;stroke-width:0.3508375"
       d="m 486.26075,107.54774 v 94.72611 h 69.46582 v -94.72611 z m 6.31507,3.15754 h 56.83568 c 1.74403,0 3.15754,1.41352 3.15754,3.15753 v 82.09597 c 0,1.74403 -1.41351,3.15754 -3.15754,3.15754 h -56.83568 c -1.744,0 -3.15753,-1.41351 -3.15753,-3.15754 v -82.09597 c 0,-1.74401 1.41353,-3.15753 3.15753,-3.15753 z"
       id="polygon235-6-3-5-5-1-6-5-1"
        />
    <image

       xlink:href="card_tts_58.png"

       width="69.46582"
       height="94.726128"
       preserveAspectRatio="none"
       id="image1559-6-2-2-4-5"
       x="486.26077"
       y="107.54771" />
    <path
       style="display:inline;fill:#000000;fill-opacity:0.36538463;stroke-width:0.3508375"
       d="m 555.7266,107.54774 v 94.72611 h 69.46582 v -94.72611 z m 6.31507,3.15754 h 56.83568 c 1.744,0 3.15754,1.41352 3.15754,3.15753 v 82.09597 c 0,1.74403 -1.41354,3.15754 -3.15754,3.15754 h -56.83568 c -1.74402,0 -3.15753,-1.41351 -3.15753,-3.15754 v -82.09597 c 0,-1.74401 1.41351,-3.15753 3.15753,-3.15753 z"
       id="polygon235-6-3-5-5-7-6-7-9"
        />
    <image

       xlink:href="card_tts_59.png"

       width="69.46582"
       height="94.726128"
       preserveAspectRatio="none"
       id="image1559-6-0-1-6-7"
       x="555.72662"
       y="107.54771" />
    <path
       style="display:inline;fill:#000000;fill-opacity:0.36538463;stroke-width:0.3508375"
       d="m 625.19242,107.54774 v 94.72611 h 69.46583 v -94.72611 z m 6.31508,3.15754 h 56.83567 c 1.74401,0 3.15754,1.41352 3.15754,3.15753 v 82.09597 c 0,1.74403 -1.41353,3.15754 -3.15754,3.15754 H 631.5075 c -1.74403,0 -3.15754,-1.41351 -3.15754,-3.15754 v -82.09597 c 0,-1.74401 1.41351,-3.15753 3.15754,-3.15753 z"
       id="polygon235-6-3-5-5-9-8-5-7"
        />
    <image

       xlink:href="card_tts_60.png"

       width="69.46582"
       height="94.726128"
       preserveAspectRatio="none"
       id="image1559-6-3-7-6-6"
       x="625.19244"
       y="107.54771" />
    <path
       style="display:inline;fill:#000000;fill-opacity:0.36538463;stroke-width:0.3508375"
       d="M 1.4e-6,202.27389 V 297 H 69.465824 v -94.72611 z m 6.315075,3.15753 H 63.150756 c 1.74401,0 3.157535,1.41353 3.157535,3.15754 v 82.09597 c 0,1.74403 -1.413525,3.15754 -3.157535,3.15754 H 6.3150764 c -1.744014,0 -3.157537,-1.41351 -3.157537,-3.15754 v -82.09597 c 0,-1.74401 1.413523,-3.15754 3.157537,-3.15754 z"
       id="polygon235-6-3-5-7-1-7"
        />
    <image

       xlink:href="card_tts_61.png"

       width="69.46582"
       height="94.726128"
       preserveAspectRatio="none"
       id="image1559-8-0-3"
       x="2.0629884e-08"
       y="202.27385" />
    <path
       style="display:inline;fill:#000000;fill-opacity:0.36538463;stroke-width:0.3508375"
       d="M 69.465824,202.27389 V 297 h 69.465816 v -94.72611 z m 6.315081,3.15753 h 56.835665 c 1.74401,0 3.15754,1.41353 3.15754,3.15754 v 82.09597 c 0,1.74403 -1.41353,3.15754 -3.15754,3.15754 H 75.780905 c -1.744021,0 -3.15754,-1.41351 -3.15754,-3.15754 v -82.09597 c 0,-1.74401 1.41352,-3.15754 3.15754,-3.15754 z"
       id="polygon235-6-3-5-5-4-6-6"
        />
    <image

       xlink:href="card_tts_62.png"

       width="69.46582"
       height="94.726128"
       preserveAspectRatio="none"
       id="image1559-6-5-1-5"
       x="69.465836"
       y="202.27385" />
    <path
       style="display:inline;fill:#000000;fill-opacity:0.36538463;stroke-width:0.3508375"
       d="M 138.93165,202.27389 V 297 h 69.46582 v -94.72611 z m 6.31508,3.15753 h 56.83567 c 1.74401,0 3.15754,1.41353 3.15754,3.15754 v 82.09597 c 0,1.74403 -1.41353,3.15754 -3.15754,3.15754 h -56.83567 c -1.74402,0 -3.15754,-1.41351 -3.15754,-3.15754 v -82.09597 c 0,-1.74401 1.41352,-3.15754 3.15754,-3.15754 z"
       id="polygon235-6-3-5-5-2-0-5-6"
        />
    <image

       xlink:href="card_tts_63.png"

       width="69.46582"
       height="94.726128"
       preserveAspectRatio="none"
       id="image1559-6-9-3-9-3"
       x="138.93167"
       y="202.27385" />
    <path
       style="display:inline;fill:#000000;fill-opacity:0.36538463;stroke-width:0.3508375"
       d="M 208.39746,202.27389 V 297 h 69.46581 v -94.72611 z m 6.31507,3.15753 h 56.83567 c 1.74403,0 3.15756,1.41353 3.15756,3.15754 v 82.09597 c 0,1.74403 -1.41353,3.15754 -3.15756,3.15754 h -56.83567 c -1.74401,0 -3.15753,-1.41351 -3.15753,-3.15754 v -82.09597 c 0,-1.74401 1.41352,-3.15754 3.15753,-3.15754 z"
       id="polygon235-6-3-5-5-1-61-4-9"
        />
    <image

       xlink:href="card_tts_64.png"

       width="69.46582"
       height="94.726128"
       preserveAspectRatio="none"
       id="image1559-6-2-0-9-4"
       x="208.39749"
       y="202.27385" />
    <path
       style="display:inline;fill:#000000;fill-opacity:0.36538463;stroke-width:0.3508375"
       d="M 277.8633,202.27389 V 297 h 69.46582 v -94.72611 z m 6.31507,3.15753 h 56.83568 c 1.744,0 3.15754,1.41353 3.15754,3.15754 v 82.09597 c 0,1.74403 -1.41354,3.15754 -3.15754,3.15754 h -56.83568 c -1.744,0 -3.15753,-1.41351 -3.15753,-3.15754 v -82.09597 c 0,-1.74401 1.41353,-3.15754 3.15753,-3.15754 z"
       id="polygon235-6-3-5-5-7-63-0-8"
        />
    <image

       xlink:href="card_tts_65.png"

       width="69.46582"
       height="94.726128"
       preserveAspectRatio="none"
       id="image1559-6-0-2-9-1"
       x="277.86331"
       y="202.27385" />
    <path
       style="display:inline;fill:#000000;fill-opacity:0.36538463;stroke-width:0.3508375"
       d="M 347.32912,202.27389 V 297 h 69.46583 v -94.72611 z m 6.31508,3.15753 h 56.83567 c 1.74401,0 3.15754,1.41353 3.15754,3.15754 v 82.09597 c 0,1.74403 -1.41353,3.15754 -3.15754,3.15754 H 353.6442 c -1.744,0 -3.15754,-1.41351 -3.15754,-3.15754 v -82.09597 c 0,-1.74401 1.41354,-3.15754 3.15754,-3.15754 z"
       id="polygon235-6-3-5-5-9-0-1-2"
        />
    <image

       xlink:href="card_tts_66.png"

       width="69.46582"
       height="94.726128"
       preserveAspectRatio="none"
       id="image1559-6-3-6-7-9"
       x="347.32913"
       y="202.27385" />
    <path
       style="display:inline;fill:#000000;fill-opacity:0.36538463;stroke-width:0.3508375"
       d="M 416.79495,202.27389 V 297 h 69.46582 v -94.72611 z m 6.31507,3.15754 h 56.83568 c 1.744,0 3.15754,1.41352 3.15754,3.15753 v 82.09597 c 0,1.74403 -1.41354,3.15754 -3.15754,3.15754 h -56.83568 c -1.74402,0 -3.15753,-1.41351 -3.15753,-3.15754 v -82.09597 c 0,-1.74401 1.41351,-3.15753 3.15753,-3.15753 z"
       id="polygon235-6-3-5-5-2-6-1-7-3"
        />
    <image

       xlink:href="card_tts_67.png"

       width="69.46582"
       height="94.726128"
       preserveAspectRatio="none"
       id="image1559-6-9-0-5-1-9"
       x="416.79495"
       y="202.27385" />
    <path
       style="display:inline;fill:#000000;fill-opacity:0.36538463;stroke-width:0.3508375"
       d="M 486.26075,202.27389 V 297 h 69.46582 v -94.72611 z m 6.31507,3.15754 h 56.83568 c 1.74403,0 3.15754,1.41352 3.15754,3.15753 v 82.09597 c 0,1.74403 -1.41351,3.15754 -3.15754,3.15754 h -56.83568 c -1.744,0 -3.15753,-1.41351 -3.15753,-3.15754 v -82.09597 c 0,-1.74401 1.41353,-3.15753 3.15753,-3.15753 z"
       id="polygon235-6-3-5-5-1-6-5-1-0"
        />
    <image

       xlink:href="card_tts_68.png"

       width="69.46582"
       height="94.726128"
       preserveAspectRatio="none"
       id="image1559-6-2-2-4-5-8"
       x="486.2608"
       y="202.27385" />
    <path
       style="display:inline;fill:#000000;fill-opacity:0.36538463;stroke-width:0.3508375"
       d="M 555.7266,202.27389 V 297 h 69.46582 v -94.72611 z m 6.31507,3.15754 h 56.83568 c 1.744,0 3.15754,1.41352 3.15754,3.15753 v 82.09597 c 0,1.74403 -1.41354,3.15754 -3.15754,3.15754 h -56.83568 c -1.74402,0 -3.15753,-1.41351 -3.15753,-3.15754 v -82.09597 c 0,-1.74401 1.41351,-3.15753 3.15753,-3.15753 z"
       id="polygon235-6-3-5-5-7-6-7-9-8"
        />
    <image

       xlink:href="card_tts_69.png"

       width="69.46582"
       height="94.726128"
       preserveAspectRatio="none"
       id="image1559-6-0-1-6-7-5"
       x="555.72662"
       y="202.27385" />
    <path
       style="display:inline;fill:#000000;fill-opacity:0.36538463;stroke-width:0.3508375"
       d="M 625.19242,202.27389 V 297 h 69.46583 v -94.72611 z m 6.31508,3.15754 h 56.83567 c 1.74401,0 3.15754,1.41352 3.15754,3.15753 v 82.09597 c 0,1.74403 -1.41353,3.15754 -3.15754,3.15754 H 631.5075 c -1.74403,0 -3.15754,-1.41351 -3.15754,-3.15754 v -82.09597 c 0,-1.74401 1.41351,-3.15753 3.15754,-3.15753 z"
       id="polygon235-6-3-5-5-9-8-5-7-0"
        />
    <image

       xlink:href="card_tts_70.png"

       width="69.46582"
       height="94.726128"
       preserveAspectRatio="none"
       id="image1559-6-3-7-6-6-9"
       x="625.19244"
       y="202.27385" />
  </g>
</svg>
