<?xml version="1.0" encoding="UTF-8" standalone="no"?>
<!-- Created with Inkscape (http://www.inkscape.org/) -->

<svg
   xmlns:dc="http://purl.org/dc/elements/1.1/"
   xmlns:cc="http://creativecommons.org/ns#"
   xmlns:rdf="http://www.w3.org/1999/02/22-rdf-syntax-ns#"
   xmlns:svg="http://www.w3.org/2000/svg"
   xmlns="http://www.w3.org/2000/svg"
   xmlns:xlink="http://www.w3.org/1999/xlink"
   xmlns:sodipodi="http://sodipodi.sourceforge.net/DTD/sodipodi-0.dtd"
   xmlns:inkscape="http://www.inkscape.org/namespaces/inkscape"
   width="297mm"
   height="210mm"
   viewBox="0 0 297 210"
   version="1.1"
   id="svg6300"
   inkscape:version="0.92.5 (2060ec1f9f, 2020-04-08)"
   sodipodi:docname="genesis_band_practice_board.svg"
   inkscape:export-filename="/home/sjbrown/work/misc_work/genesis/genesis_band_practice_board.png"
   inkscape:export-xdpi="145.14"
   inkscape:export-ydpi="145.14">
  <sodipodi:namedview
     id="base"
     pagecolor="#ffffff"
     bordercolor="#666666"
     borderopacity="1.0"
     inkscape:pageopacity="0.0"
     inkscape:pageshadow="2"
     inkscape:zoom="2.126746"
     inkscape:cx="627.03044"
     inkscape:cy="409.66342"
     inkscape:document-units="mm"
     inkscape:current-layer="layer1"
     showgrid="false"
     inkscape:window-width="1848"
     inkscape:window-height="1016"
     inkscape:window-x="72"
     inkscape:window-y="27"
     inkscape:window-maximized="1"
     inkscape:snap-bbox="true"
     inkscape:snap-bbox-midpoints="true"
     inkscape:snap-nodes="false" />
  <defs
     id="defs6294">
    <marker
       inkscape:isstock="true"
       style="overflow:visible"
       id="marker29646"
       refX="0"
       refY="0"
       orient="auto"
       inkscape:stockid="Arrow2Mend">
      <path
         transform="scale(-0.6)"
         d="M 8.7185878,4.0337352 -2.2072895,0.01601326 8.7185884,-4.0017078 c -1.7454984,2.3720609 -1.7354408,5.6174519 -6e-7,8.035443 z"
         style="fill:#000000;fill-opacity:1;fill-rule:evenodd;stroke:#000000;stroke-width:0.625;stroke-linejoin:round;stroke-opacity:1"
         id="path29644"
         inkscape:connector-curvature="0" />
    </marker>
    <marker
       inkscape:stockid="Arrow2Mend"
       orient="auto"
       refY="0.0"
       refX="0.0"
       id="Arrow2Mend"
       style="overflow:visible;"
       inkscape:isstock="true">
      <path
         id="path20824"
         style="fill-rule:evenodd;stroke-width:0.625;stroke-linejoin:round;stroke:#000000;stroke-opacity:1;fill:#000000;fill-opacity:1"
         d="M 8.7185878,4.0337352 L -2.2072895,0.016013256 L 8.7185884,-4.0017078 C 6.9730900,-1.6296469 6.9831476,1.6157441 8.7185878,4.0337352 z "
         transform="scale(0.6) rotate(180) translate(0,0)" />
    </marker>
    <marker
       inkscape:stockid="Arrow1Mend"
       orient="auto"
       refY="0.0"
       refX="0.0"
       id="marker21107"
       style="overflow:visible;"
       inkscape:isstock="true">
      <path
         id="path21105"
         d="M 0.0,0.0 L 5.0,-5.0 L -12.5,0.0 L 5.0,5.0 L 0.0,0.0 z "
         style="fill-rule:evenodd;stroke:#000000;stroke-width:1pt;stroke-opacity:1;fill:#000000;fill-opacity:1"
         transform="scale(0.4) rotate(180) translate(10,0)" />
    </marker>
    <marker
       inkscape:stockid="Arrow1Mend"
       orient="auto"
       refY="0.0"
       refX="0.0"
       id="Arrow1Mend"
       style="overflow:visible;"
       inkscape:isstock="true">
      <path
         id="path20806"
         d="M 0.0,0.0 L 5.0,-5.0 L -12.5,0.0 L 5.0,5.0 L 0.0,0.0 z "
         style="fill-rule:evenodd;stroke:#000000;stroke-width:1pt;stroke-opacity:1;fill:#000000;fill-opacity:1"
         transform="scale(0.4) rotate(180) translate(10,0)" />
    </marker>
    <marker
       inkscape:stockid="Arrow1Lstart"
       orient="auto"
       refY="0.0"
       refX="0.0"
       id="Arrow1Lstart"
       style="overflow:visible"
       inkscape:isstock="true">
      <path
         id="path20797"
         d="M 0.0,0.0 L 5.0,-5.0 L -12.5,0.0 L 5.0,5.0 L 0.0,0.0 z "
         style="fill-rule:evenodd;stroke:#000000;stroke-width:1pt;stroke-opacity:1;fill:#000000;fill-opacity:1"
         transform="scale(0.8) translate(12.5,0)" />
    </marker>
    <marker
       inkscape:stockid="Arrow2Mend"
       orient="auto"
       refY="0"
       refX="0"
       id="Arrow2Mend-8"
       style="overflow:visible"
       inkscape:isstock="true">
      <path
         inkscape:connector-curvature="0"
         id="path20824-6"
         style="fill:#000000;fill-opacity:1;fill-rule:evenodd;stroke:#000000;stroke-width:0.625;stroke-linejoin:round;stroke-opacity:1"
         d="M 8.7185878,4.0337352 -2.2072895,0.01601326 8.7185884,-4.0017078 c -1.7454984,2.3720609 -1.7354408,5.6174519 -6e-7,8.035443 z"
         transform="scale(-0.6)" />
    </marker>
    <marker
       inkscape:stockid="Arrow2Mend"
       orient="auto"
       refY="0"
       refX="0"
       id="Arrow2Mend-3"
       style="overflow:visible"
       inkscape:isstock="true">
      <path
         inkscape:connector-curvature="0"
         id="path20824-3"
         style="fill:#000000;fill-opacity:1;fill-rule:evenodd;stroke:#000000;stroke-width:0.625;stroke-linejoin:round;stroke-opacity:1"
         d="M 8.7185878,4.0337352 -2.2072895,0.01601326 8.7185884,-4.0017078 c -1.7454984,2.3720609 -1.7354408,5.6174519 -6e-7,8.035443 z"
         transform="scale(-0.6)" />
    </marker>
    <marker
       inkscape:stockid="Arrow2Mend"
       orient="auto"
       refY="0"
       refX="0"
       id="Arrow2Mend-4"
       style="overflow:visible"
       inkscape:isstock="true">
      <path
         inkscape:connector-curvature="0"
         id="path20824-37"
         style="fill:#000000;fill-opacity:1;fill-rule:evenodd;stroke:#000000;stroke-width:0.625;stroke-linejoin:round;stroke-opacity:1"
         d="M 8.7185878,4.0337352 -2.2072895,0.01601326 8.7185884,-4.0017078 c -1.7454984,2.3720609 -1.7354408,5.6174519 -6e-7,8.035443 z"
         transform="scale(-0.6)" />
    </marker>
    <marker
       inkscape:stockid="Arrow2Mend"
       orient="auto"
       refY="0"
       refX="0"
       id="Arrow2Mend-39"
       style="overflow:visible"
       inkscape:isstock="true">
      <path
         inkscape:connector-curvature="0"
         id="path20824-64"
         style="fill:#000000;fill-opacity:1;fill-rule:evenodd;stroke:#000000;stroke-width:0.625;stroke-linejoin:round;stroke-opacity:1"
         d="M 8.7185878,4.0337352 -2.2072895,0.01601326 8.7185884,-4.0017078 c -1.7454984,2.3720609 -1.7354408,5.6174519 -6e-7,8.035443 z"
         transform="scale(-0.6)" />
    </marker>
    <marker
       inkscape:stockid="Arrow2Mend"
       orient="auto"
       refY="0"
       refX="0"
       id="Arrow2Mend-0"
       style="overflow:visible"
       inkscape:isstock="true">
      <path
         inkscape:connector-curvature="0"
         id="path20824-2"
         style="fill:#000000;fill-opacity:1;fill-rule:evenodd;stroke:#000000;stroke-width:0.625;stroke-linejoin:round;stroke-opacity:1"
         d="M 8.7185878,4.0337352 -2.2072895,0.01601326 8.7185884,-4.0017078 c -1.7454984,2.3720609 -1.7354408,5.6174519 -6e-7,8.035443 z"
         transform="scale(-0.6)" />
    </marker>
    <marker
       inkscape:stockid="Arrow2Mend"
       orient="auto"
       refY="0"
       refX="0"
       id="Arrow2Mend-7"
       style="overflow:visible"
       inkscape:isstock="true">
      <path
         inkscape:connector-curvature="0"
         id="path20824-4"
         style="fill:#000000;fill-opacity:1;fill-rule:evenodd;stroke:#000000;stroke-width:0.625;stroke-linejoin:round;stroke-opacity:1"
         d="M 8.7185878,4.0337352 -2.2072895,0.01601326 8.7185884,-4.0017078 c -1.7454984,2.3720609 -1.7354408,5.6174519 -6e-7,8.035443 z"
         transform="scale(-0.6)" />
    </marker>
    <marker
       inkscape:stockid="Arrow2Mend"
       orient="auto"
       refY="0"
       refX="0"
       id="Arrow2Mend-49"
       style="overflow:visible"
       inkscape:isstock="true">
      <path
         inkscape:connector-curvature="0"
         id="path20824-1"
         style="fill:#000000;fill-opacity:1;fill-rule:evenodd;stroke:#000000;stroke-width:0.625;stroke-linejoin:round;stroke-opacity:1"
         d="M 8.7185878,4.0337352 -2.2072895,0.01601326 8.7185884,-4.0017078 c -1.7454984,2.3720609 -1.7354408,5.6174519 -6e-7,8.035443 z"
         transform="scale(-0.6)" />
    </marker>
    <marker
       inkscape:stockid="Arrow2Mend"
       orient="auto"
       refY="0"
       refX="0"
       id="Arrow2Mend-1"
       style="overflow:visible"
       inkscape:isstock="true">
      <path
         inkscape:connector-curvature="0"
         id="path20824-8"
         style="fill:#000000;fill-opacity:1;fill-rule:evenodd;stroke:#000000;stroke-width:0.625;stroke-linejoin:round;stroke-opacity:1"
         d="M 8.7185878,4.0337352 -2.2072895,0.01601326 8.7185884,-4.0017078 c -1.7454984,2.3720609 -1.7354408,5.6174519 -6e-7,8.035443 z"
         transform="scale(-0.6)" />
    </marker>
    <marker
       inkscape:isstock="true"
       style="overflow:visible"
       id="marker29646-1"
       refX="0"
       refY="0"
       orient="auto"
       inkscape:stockid="Arrow2Mend">
      <path
         transform="scale(-0.6)"
         d="M 8.7185878,4.0337352 -2.2072895,0.01601326 8.7185884,-4.0017078 c -1.7454984,2.3720609 -1.7354408,5.6174519 -6e-7,8.035443 z"
         style="fill:#000000;fill-opacity:1;fill-rule:evenodd;stroke:#000000;stroke-width:0.625;stroke-linejoin:round;stroke-opacity:1"
         id="path29644-0"
         inkscape:connector-curvature="0" />
    </marker>
    <marker
       inkscape:isstock="true"
       style="overflow:visible"
       id="marker29646-1-1"
       refX="0"
       refY="0"
       orient="auto"
       inkscape:stockid="Arrow2Mend">
      <path
         transform="scale(-0.6)"
         d="M 8.7185878,4.0337352 -2.2072895,0.01601326 8.7185884,-4.0017078 c -1.7454984,2.3720609 -1.7354408,5.6174519 -6e-7,8.035443 z"
         style="fill:#000000;fill-opacity:1;fill-rule:evenodd;stroke:#000000;stroke-width:0.625;stroke-linejoin:round;stroke-opacity:1"
         id="path29644-0-3"
         inkscape:connector-curvature="0" />
    </marker>
    <marker
       inkscape:isstock="true"
       style="overflow:visible"
       id="marker29646-1-0"
       refX="0"
       refY="0"
       orient="auto"
       inkscape:stockid="Arrow2Mend">
      <path
         transform="scale(-0.6)"
         d="M 8.7185878,4.0337352 -2.2072895,0.01601326 8.7185884,-4.0017078 c -1.7454984,2.3720609 -1.7354408,5.6174519 -6e-7,8.035443 z"
         style="fill:#000000;fill-opacity:1;fill-rule:evenodd;stroke:#000000;stroke-width:0.625;stroke-linejoin:round;stroke-opacity:1"
         id="path29644-0-0"
         inkscape:connector-curvature="0" />
    </marker>
    <marker
       inkscape:isstock="true"
       style="overflow:visible"
       id="marker29646-1-2"
       refX="0"
       refY="0"
       orient="auto"
       inkscape:stockid="Arrow2Mend">
      <path
         transform="scale(-0.6)"
         d="M 8.7185878,4.0337352 -2.2072895,0.01601326 8.7185884,-4.0017078 c -1.7454984,2.3720609 -1.7354408,5.6174519 -6e-7,8.035443 z"
         style="fill:#000000;fill-opacity:1;fill-rule:evenodd;stroke:#000000;stroke-width:0.625;stroke-linejoin:round;stroke-opacity:1"
         id="path29644-0-2"
         inkscape:connector-curvature="0" />
    </marker>
  </defs>
  <metadata
     id="metadata6297">
    <rdf:RDF>
      <cc:Work
         rdf:about="">
        <dc:format>image/svg+xml</dc:format>
        <dc:type
           rdf:resource="http://purl.org/dc/dcmitype/StillImage" />
        <dc:title />
      </cc:Work>
    </rdf:RDF>
  </metadata>
  <g
     transform="translate(0,-87)"
     id="layer1"
     inkscape:groupmode="layer"
     inkscape:label="Layer 1"
     style="display:inline">
    <rect
       ry="50"
       rx="50"
       y="98.184532"
       x="20.637489"
       height="190"
       width="254"
       id="rect6302"
       style="fill:#fff6d5;fill-opacity:1;stroke:none;stroke-width:0.34660414;stroke-linecap:round;stroke-linejoin:round;stroke-miterlimit:4;stroke-dasharray:none;stroke-opacity:1" />
    <rect
       style="fill:#ffffff;fill-opacity:1;stroke:#000000;stroke-width:0.34660414;stroke-linecap:round;stroke-linejoin:round;stroke-miterlimit:4;stroke-dasharray:none;stroke-opacity:1"
       id="rect6304"
       width="254"
       height="190"
       x="20.637489"
       y="98.184532"
       rx="50"
       ry="50" />
    <path
       style="fill:#ffffff;fill-opacity:1;stroke:#000000;stroke-width:0.20520458;stroke-linecap:round;stroke-linejoin:round;stroke-miterlimit:4;stroke-dasharray:none;stroke-opacity:1"
       d="m 102.05017,130.06123 h 91.17463 c 16.3996,0 29.60216,13.20257 29.60216,29.60216 v 85.03386 c 0,16.39959 -13.20256,29.60215 -29.60216,29.60215 h -91.17463 c -16.399588,0 -29.602149,-13.20256 -29.602149,-29.60215 v -85.03386 c 0,-16.39959 13.202561,-29.60216 29.602149,-29.60216 z"
       id="rect6306"
       inkscape:connector-curvature="0"
       sodipodi:nodetypes="sssssssss" />
    <path
       style="fill:#ffffff;fill-opacity:1;stroke:none;stroke-width:0.5300802;stroke-linecap:round;stroke-linejoin:round;stroke-miterlimit:4;stroke-dasharray:none;stroke-opacity:1"
       d="m 136.43082,196.71929 a 12.861817,12.861817 0 0 0 17.56956,-4.70777 12.861817,12.861817 0 0 0 -4.70776,-17.56955 12.861817,12.861817 0 0 0 -17.56956,4.70775 12.861817,12.861817 0 0 0 4.70776,17.56957 z"
       id="path8661"
       inkscape:connector-curvature="0" />
    <path
       inkscape:connector-curvature="0"
       id="path6528"
       d="m 73.879202,184.01479 c 35.618308,12.13373 109.742598,13.89508 146.730908,0"
       style="fill:none;stroke:#000000;stroke-width:0.26499999;stroke-linecap:butt;stroke-linejoin:miter;stroke-miterlimit:4;stroke-dasharray:none;stroke-dashoffset:0;stroke-opacity:1"
       sodipodi:nodetypes="cc" />
    <path
       style="fill:#ffffff;fill-opacity:1;stroke:#000000;stroke-width:0.34660414;stroke-linecap:round;stroke-linejoin:round;stroke-miterlimit:4;stroke-dasharray:none;stroke-opacity:1"
       d="m 200.9551,151.71403 a 8.4099704,8.4099704 0 0 1 -8.40998,8.40996 8.4099704,8.4099704 0 0 1 -8.40995,-8.40996 8.4099704,8.4099704 0 0 1 8.40995,-8.40996 8.4099704,8.4099704 0 0 1 8.40998,8.40996 z"
       id="path6526-6-0-6-5"
       inkscape:connector-curvature="0" />
    <path
       style="fill:#ffffff;fill-opacity:1;stroke:#000000;stroke-width:0.34660414;stroke-linecap:round;stroke-linejoin:round;stroke-miterlimit:4;stroke-dasharray:none;stroke-opacity:1"
       d="m 150.7425,139.94881 a 8.4099704,8.4099704 0 0 1 -8.40997,8.40996 8.4099704,8.4099704 0 0 1 -8.40997,-8.40996 8.4099704,8.4099704 0 0 1 8.40997,-8.40997 8.4099704,8.4099704 0 0 1 8.40997,8.40997 z"
       id="path6526-1-3-3-5"
       inkscape:connector-curvature="0" />
    <path
       style="fill:#ffffff;fill-opacity:1;stroke:#000000;stroke-width:0.34660414;stroke-linecap:round;stroke-linejoin:round;stroke-miterlimit:4;stroke-dasharray:none;stroke-opacity:1"
       d="m 124.57786,143.12919 a 8.4099704,8.4099704 0 0 1 -8.40997,8.40997 8.4099704,8.4099704 0 0 1 -8.40997,-8.40997 8.4099704,8.4099704 0 0 1 8.40997,-8.40996 8.4099704,8.4099704 0 0 1 8.40997,8.40996 z"
       id="path6526-2-6-2-4"
       inkscape:connector-curvature="0" />
    <path
       style="fill:#ffffff;fill-opacity:1;stroke:#000000;stroke-width:0.34660414;stroke-linecap:round;stroke-linejoin:round;stroke-miterlimit:4;stroke-dasharray:none;stroke-opacity:1"
       d="m 176.90714,143.12919 a 8.4099704,8.4099704 0 0 1 -8.40997,8.40997 8.4099704,8.4099704 0 0 1 -8.40997,-8.40997 8.4099704,8.4099704 0 0 1 8.40997,-8.40996 8.4099704,8.4099704 0 0 1 8.40997,8.40996 z"
       id="path6526-93-1-0-7"
       inkscape:connector-curvature="0" />
    <path
       id="path6526-3-9-0-6-6"
       d="m 100.5299,151.71403 a 8.4099704,8.4099704 0 0 1 -8.409925,8.40996 8.4099704,8.4099704 0 0 1 -8.409982,-8.40996 8.4099704,8.4099704 0 0 1 8.409982,-8.40997 8.4099704,8.4099704 0 0 1 8.409925,8.40997 z"
       style="fill:#ffffff;fill-opacity:1;stroke:#000000;stroke-width:0.34660414;stroke-linecap:round;stroke-linejoin:round;stroke-miterlimit:4;stroke-dasharray:none;stroke-opacity:1"
       inkscape:connector-curvature="0" />
    <path
       inkscape:connector-curvature="0"
       id="path7971-5"
       d="m 208.36348,172.22792 a 8.4099704,8.4099704 0 0 0 -8.40998,-8.40996 8.4099704,8.4099704 0 0 0 -8.40995,8.40996 8.4099704,8.4099704 0 0 0 8.40995,8.40996 8.4099704,8.4099704 0 0 0 8.40998,-8.40996 z"
       style="fill:#ffffff;fill-opacity:1;stroke:#000000;stroke-width:0.34660414;stroke-linecap:round;stroke-linejoin:round;stroke-miterlimit:4;stroke-dasharray:none;stroke-opacity:1" />
    <path
       inkscape:connector-curvature="0"
       id="path7973-6"
       d="m 155.19435,182.40563 a 12.861817,12.861817 0 0 0 -12.86182,-12.86181 12.861817,12.861817 0 0 0 -12.86181,12.86181 12.861817,12.861817 0 0 0 12.86181,12.86181 12.861817,12.861817 0 0 0 12.86182,-12.86181 z"
       style="fill:#ffffff;fill-opacity:1;stroke:#000000;stroke-width:0.5300802;stroke-linecap:round;stroke-linejoin:round;stroke-miterlimit:4;stroke-dasharray:none;stroke-opacity:1" />
    <path
       inkscape:connector-curvature="0"
       id="path7975-9"
       d="m 118.22782,177.10857 a 8.4099704,8.4099704 0 0 0 -8.40997,-8.40997 8.4099704,8.4099704 0 0 0 -8.40997,8.40997 8.4099704,8.4099704 0 0 0 8.40997,8.40996 8.4099704,8.4099704 0 0 0 8.40997,-8.40996 z"
       style="fill:#ffffff;fill-opacity:1;stroke:#000000;stroke-width:0.34660414;stroke-linecap:round;stroke-linejoin:round;stroke-miterlimit:4;stroke-dasharray:none;stroke-opacity:1" />
    <path
       inkscape:connector-curvature="0"
       id="path7977-3"
       d="m 183.25718,177.10857 a 8.4099704,8.4099704 0 0 0 -8.40997,-8.40997 8.4099704,8.4099704 0 0 0 -8.40997,8.40997 8.4099704,8.4099704 0 0 0 8.40997,8.40996 8.4099704,8.4099704 0 0 0 8.40997,-8.40996 z"
       style="fill:#ffffff;fill-opacity:1;stroke:#000000;stroke-width:0.34660414;stroke-linecap:round;stroke-linejoin:round;stroke-miterlimit:4;stroke-dasharray:none;stroke-opacity:1" />
    <path
       inkscape:connector-curvature="0"
       style="fill:#ffffff;fill-opacity:1;stroke:#000000;stroke-width:0.34660414;stroke-linecap:round;stroke-linejoin:round;stroke-miterlimit:4;stroke-dasharray:none;stroke-opacity:1"
       d="m 93.121559,172.22792 a 8.4099704,8.4099704 0 0 0 -8.409922,-8.40996 8.4099704,8.4099704 0 0 0 -8.409977,8.40996 8.4099704,8.4099704 0 0 0 8.409977,8.40997 8.4099704,8.4099704 0 0 0 8.409922,-8.40997 z"
       id="path7979-7" />
    <path
       style="fill:#ffffff;fill-opacity:1;stroke:#000000;stroke-width:0.6064589;stroke-linecap:round;stroke-linejoin:round;stroke-miterlimit:4;stroke-dasharray:0.60645891, 2.42583562;stroke-dashoffset:0;stroke-opacity:1"
       d="m 174.45859,159.23579 a 32.126057,6.7401069 0 0 0 -32.12606,-6.74011 32.126057,6.7401069 0 0 0 -32.12605,6.74011 32.126057,6.7401069 0 0 0 32.12605,6.7401 32.126057,6.7401069 0 0 0 32.12606,-6.7401 z"
       id="path7981-4"
       inkscape:connector-curvature="0" />
    <path
       style="fill:none;stroke:#000000;stroke-width:0.26458332px;stroke-linecap:butt;stroke-linejoin:miter;stroke-opacity:1"
       d="m 125.07724,161.76417 -6.52009,7.08706 -3.11831,-0.85045 1.7009,4.15774 8.31547,-1.13393 -3.77976,-1.13393 6.80357,-6.89806 z"
       id="path7983-5"
       inkscape:connector-curvature="0" />
    <text
       xml:space="preserve"
       style="font-style:normal;font-weight:normal;font-size:10.58333302px;line-height:1.25;font-family:sans-serif;letter-spacing:0px;word-spacing:0px;fill:#000000;fill-opacity:1;stroke:none;stroke-width:0.26458332"
       x="106.35822"
       y="180.96634"
       id="text7987-2"><tspan
         sodipodi:role="line"
         id="tspan7985-5"
         x="106.35822"
         y="180.96634"
         style="stroke-width:0.26458332">1</tspan></text>
    <text
       xml:space="preserve"
       style="font-style:normal;font-weight:normal;font-size:10.58333302px;line-height:1.25;font-family:sans-serif;letter-spacing:0px;word-spacing:0px;fill:#000000;fill-opacity:1;stroke:none;stroke-width:0.26458332"
       x="81.487022"
       y="176.15547"
       id="text7991-4"><tspan
         sodipodi:role="line"
         id="tspan7989-7"
         x="81.487022"
         y="176.15547"
         style="stroke-width:0.26458332">2</tspan></text>
    <text
       xml:space="preserve"
       style="font-style:normal;font-weight:normal;font-size:10.58333302px;line-height:1.25;font-family:sans-serif;letter-spacing:0px;word-spacing:0px;fill:#000000;fill-opacity:1;stroke:none;stroke-width:0.26458332"
       x="88.773949"
       y="155.56664"
       id="text7995-4"><tspan
         sodipodi:role="line"
         id="tspan7993-4"
         x="88.773949"
         y="155.56664"
         style="stroke-width:0.26458332">3</tspan></text>
    <text
       xml:space="preserve"
       style="font-style:normal;font-weight:normal;font-size:10.58333302px;line-height:1.25;font-family:sans-serif;letter-spacing:0px;word-spacing:0px;fill:#000000;fill-opacity:1;stroke:none;stroke-width:0.26458332"
       x="112.84004"
       y="146.98697"
       id="text7999-3"><tspan
         sodipodi:role="line"
         id="tspan7997-0"
         x="112.84004"
         y="146.98697"
         style="stroke-width:0.26458332">4</tspan></text>
    <text
       xml:space="preserve"
       style="font-style:normal;font-weight:normal;font-size:10.58333302px;line-height:1.25;font-family:sans-serif;letter-spacing:0px;word-spacing:0px;fill:#000000;fill-opacity:1;stroke:none;stroke-width:0.26458332"
       x="139.0204"
       y="143.73166"
       id="text8003-7"><tspan
         sodipodi:role="line"
         id="tspan8001-8"
         x="139.0204"
         y="143.73166"
         style="stroke-width:0.26458332">5</tspan></text>
    <text
       xml:space="preserve"
       style="font-style:normal;font-weight:normal;font-size:10.58333302px;line-height:1.25;font-family:sans-serif;letter-spacing:0px;word-spacing:0px;fill:#000000;fill-opacity:1;stroke:none;stroke-width:0.26458332"
       x="165.09465"
       y="146.98181"
       id="text8007-6"><tspan
         sodipodi:role="line"
         id="tspan8005-8"
         x="165.09465"
         y="146.98181"
         style="stroke-width:0.26458332">6</tspan></text>
    <text
       xml:space="preserve"
       style="font-style:normal;font-weight:normal;font-size:10.58333302px;line-height:1.25;font-family:sans-serif;letter-spacing:0px;word-spacing:0px;fill:#000000;fill-opacity:1;stroke:none;stroke-width:0.26458332"
       x="189.19682"
       y="155.57181"
       id="text8011-8"><tspan
         sodipodi:role="line"
         id="tspan8009-4"
         x="189.19682"
         y="155.57181"
         style="stroke-width:0.26458332">7</tspan></text>
    <text
       xml:space="preserve"
       style="font-style:normal;font-weight:normal;font-size:10.58333302px;line-height:1.25;font-family:sans-serif;letter-spacing:0px;word-spacing:0px;fill:#000000;fill-opacity:1;stroke:none;stroke-width:0.26458332"
       x="171.51958"
       y="180.96118"
       id="text8015-3"><tspan
         sodipodi:role="line"
         id="tspan8013-1"
         x="171.51958"
         y="180.96118"
         style="stroke-width:0.26458332">9</tspan></text>
    <text
       xml:space="preserve"
       style="font-style:normal;font-weight:normal;font-size:10.58333302px;line-height:1.25;font-family:sans-serif;letter-spacing:0px;word-spacing:0px;fill:#000000;fill-opacity:1;stroke:none;stroke-width:0.26458332"
       x="196.58971"
       y="176.08054"
       id="text8019-4"><tspan
         sodipodi:role="line"
         id="tspan8017-9"
         x="196.58971"
         y="176.08054"
         style="stroke-width:0.26458332">8</tspan></text>
    <text
       xml:space="preserve"
       style="font-style:normal;font-weight:normal;font-size:6.3499999px;line-height:1.25;font-family:sans-serif;letter-spacing:0px;word-spacing:0px;fill:#000000;fill-opacity:1;stroke:none;stroke-width:0.26458332"
       x="133.91583"
       y="161.12372"
       id="text8023-2"><tspan
         sodipodi:role="line"
         id="tspan8021-0"
         x="133.91583"
         y="161.12372"
         style="font-size:6.3499999px;stroke-width:0.26458332">Start</tspan></text>
    <path
       sodipodi:nodetypes="cc"
       style="fill:none;stroke:#000000;stroke-width:0.26499999;stroke-linecap:butt;stroke-linejoin:miter;stroke-miterlimit:4;stroke-dasharray:0.26499999, 1.05999995;stroke-dashoffset:0;stroke-opacity:1"
       d="m 73.879202,208.35646 c 35.618308,12.13373 109.742598,13.89508 146.730908,0"
       id="path8327"
       inkscape:connector-curvature="0" />
    <text
       xml:space="preserve"
       style="font-style:normal;font-variant:normal;font-weight:normal;font-stretch:normal;font-size:3.52777767px;line-height:1.25;font-family:'Komika Display Tight';-inkscape-font-specification:'Komika Display Tight';letter-spacing:0px;word-spacing:0px;fill:#000000;fill-opacity:1;stroke:none;stroke-width:0.26458332"
       id="text8665"><textPath
         xlink:href="#path8661"
         id="textPath8667"><tspan
   style="font-style:normal;font-variant:normal;font-weight:normal;font-stretch:normal;font-size:3.52777767px;font-family:'Komika Display Tight';-inkscape-font-specification:'Komika Display Tight';stroke-width:0.26458332"
   id="tspan8663"
   dx="1.5300001 0 0 0 0 0 0 0 0.16">spotlight</tspan></textPath></text>
    <path
       inkscape:connector-curvature="0"
       style="fill:#b3b3b3;fill-opacity:1;stroke:none;stroke-width:0.04804199;stroke-linecap:round;stroke-linejoin:round;stroke-miterlimit:4;stroke-dasharray:none;stroke-dashoffset:0;stroke-opacity:1"
       d="m 119.38382,177.27859 c -2e-5,0.84714 1.71297,1.53377 3.82604,1.53377 0.38592,-5.1e-4 1.29663,-0.22849 1.66465,-0.27506 l 2e-5,-2.51908 c -0.36827,-0.046 -1.27896,-0.27344 -1.66467,-0.27352 -2.11307,-2e-5 -3.82605,0.68676 -3.82604,1.53389 z m 6.11265,1.36155 c 4.9e-4,-9e-5 7.3e-4,-1.7e-4 9.7e-4,-2.4e-4 1.19469,0.0157 2.01174,-0.73873 2.06279,-1.30632 8.8e-4,-0.0187 0.002,-0.0368 0.003,-0.055 6.9e-4,-0.018 -9.7e-4,-0.0362 -0.003,-0.0543 -5.9e-4,-0.0171 -0.004,-0.0345 -0.007,-0.052 0,-6e-5 0,-1.5e-4 1e-5,-2.3e-4 -0.0941,-0.56056 -0.89742,-1.26945 -2.05596,-1.25422 -4.8e-4,-7e-5 -7.2e-4,-2e-4 -9.5e-4,-2.5e-4 l -1e-5,2.4e-4 z"
       id="path9099-9-8" />
    <path
       inkscape:connector-curvature="0"
       style="fill:#b3b3b3;fill-opacity:1;stroke:none;stroke-width:0.04804199;stroke-linecap:round;stroke-linejoin:round;stroke-miterlimit:4;stroke-dasharray:none;stroke-dashoffset:0;stroke-opacity:1"
       d="m 121.01307,186.36274 c 0.59901,0.59904 2.29579,-0.12671 3.78995,-1.62089 0.27254,-0.27323 0.75531,-1.07841 0.98261,-1.37158 l -1.78126,-1.78128 c -0.29292,0.2279 -1.09771,0.71102 -1.37051,0.9837 -1.49417,1.49416 -2.21981,3.19104 -1.62079,3.79005 z m 5.28505,-3.35955 c 2.9e-4,-4.1e-4 4e-4,-6.4e-4 5.3e-4,-8.5e-4 0.85587,-0.83369 0.90015,-1.94488 0.53491,-2.38232 -0.013,-0.0136 -0.0241,-0.0279 -0.0368,-0.041 -0.0119,-0.0135 -0.0264,-0.0249 -0.0406,-0.0363 -0.0125,-0.0118 -0.0272,-0.0216 -0.0416,-0.0317 -5e-5,-4e-5 -1.3e-4,-1.2e-4 -1.6e-4,-1.6e-4 -0.46292,-0.32985 -1.53221,-0.26307 -2.34065,0.56692 -4.2e-4,2.8e-4 -6.6e-4,3.8e-4 -8.6e-4,4.9e-4 l 1.6e-4,1.7e-4 z"
       id="path9099-9-0" />
    <path
       inkscape:connector-curvature="0"
       style="fill:#b3b3b3;fill-opacity:1;stroke:none;stroke-width:0.04804199;stroke-linecap:round;stroke-linejoin:round;stroke-miterlimit:4;stroke-dasharray:none;stroke-dashoffset:0;stroke-opacity:1"
       d="m 96.217584,170.52462 c -0.21928,0.81828 1.25762,1.92487 3.2987,2.47176 0.3729,0.0994 1.311576,0.1149 1.679116,0.16517 l 0.652,-2.43325 c -0.34381,-0.13972 -1.16462,-0.59513 -1.53715,-0.69505 -2.041066,-0.54691 -3.873426,-0.32689 -4.092666,0.49137 z m 5.551966,2.89723 c 5.1e-4,4e-5 7.4e-4,2e-5 0.001,2e-5 1.14992,0.32437 2.13438,-0.19288 2.3306,-0.72791 0.006,-0.0176 0.0119,-0.0348 0.0171,-0.0524 0.005,-0.0175 0.008,-0.0353 0.0111,-0.0533 0.004,-0.0167 0.005,-0.0344 0.007,-0.0519 0,-7e-5 4e-5,-1.7e-4 7e-5,-2.3e-4 0.0542,-0.56581 -0.53829,-1.45846 -1.6613,-1.7436 -4.5e-4,-2e-4 -6.6e-4,-3.7e-4 -8.4e-4,-4.9e-4 l -7e-5,2.3e-4 z"
       id="path9099-9-8-4" />
    <path
       inkscape:connector-curvature="0"
       style="fill:#b3b3b3;fill-opacity:1;stroke:none;stroke-width:0.04804199;stroke-linecap:round;stroke-linejoin:round;stroke-miterlimit:4;stroke-dasharray:none;stroke-dashoffset:0;stroke-opacity:1"
       d="m 89.999849,174.03094 c -2e-5,0.84715 1.71297,1.53378 3.82604,1.53377 0.38592,-5.1e-4 1.29663,-0.22848 1.66466,-0.27505 l 1e-5,-2.51909 c -0.36826,-0.046 -1.27897,-0.27342 -1.66467,-0.27352 -2.11307,-1e-5 -3.82605,0.68676 -3.82604,1.53389 z m 6.11265,1.36155 c 5.03e-4,-9e-5 7.41e-4,-1.8e-4 9.79e-4,-2.4e-4 1.19469,0.0157 2.01173,-0.73873 2.06279,-1.30631 0.001,-0.0186 0.003,-0.0367 0.003,-0.055 2.91e-4,-0.0182 -10e-4,-0.0363 -0.003,-0.0544 -4.5e-4,-0.0171 -0.004,-0.0345 -0.007,-0.0519 -2e-5,-7e-5 -1e-5,-1.8e-4 0,-2.4e-4 -0.0941,-0.56056 -0.89742,-1.26945 -2.05597,-1.25421 -5.03e-4,-9e-5 -7.41e-4,-1.9e-4 -9.53e-4,-2.5e-4 l -9e-6,2.4e-4 z"
       id="path9099-9-0-9" />
    <path
       inkscape:connector-curvature="0"
       style="fill:#b3b3b3;fill-opacity:1;stroke:none;stroke-width:0.04804199;stroke-linecap:round;stroke-linejoin:round;stroke-miterlimit:4;stroke-dasharray:none;stroke-dashoffset:0;stroke-opacity:1"
       d="m 87.061828,160.68574 c -0.599015,-0.59904 -2.295806,0.1267 -3.789963,1.62088 -0.272539,0.27325 -0.755297,1.07842 -0.982606,1.37157 l 1.781268,1.78128 c 0.29291,-0.22789 1.097701,-0.71103 1.370502,-0.98369 1.494158,-1.49416 2.219807,-3.19104 1.620799,-3.79004 z m -5.285061,3.35953 c -2.93e-4,4.2e-4 -3.89e-4,6.3e-4 -5.22e-4,8.5e-4 -0.855857,0.83369 -0.900146,1.94487 -0.534904,2.38232 0.01138,0.0146 0.02375,0.028 0.03678,0.041 0.01308,0.0128 0.02642,0.0245 0.04052,0.0363 0.01258,0.0117 0.02729,0.0215 0.04146,0.032 6.3e-5,3e-5 1.45e-4,10e-5 1.62e-4,1.7e-4 0.46291,0.32985 1.532217,0.26305 2.340648,-0.56693 4.06e-4,-2.9e-4 6.58e-4,-3.9e-4 8.68e-4,-4.9e-4 l -1.71e-4,-1.8e-4 z"
       id="path9099-9-8-4-0" />
    <path
       inkscape:connector-curvature="0"
       style="fill:#b3b3b3;fill-opacity:1;stroke:none;stroke-width:0.04804199;stroke-linecap:round;stroke-linejoin:round;stroke-miterlimit:4;stroke-dasharray:none;stroke-dashoffset:0;stroke-opacity:1"
       d="m 83.959134,153.54787 c -0.733648,-0.4236 -2.184777,0.71658 -3.241317,2.54657 -0.192527,0.33446 -0.450443,1.23714 -0.594121,1.57914 l 2.181592,1.25956 c 0.223966,-0.29592 0.876274,-0.9709 1.0692,-1.30487 1.056551,-1.82998 1.318296,-3.65686 0.584646,-4.0804 z m -4.235476,4.61294 c -1.68e-4,4.7e-4 -2.2e-4,7.3e-4 -2.8e-4,9.5e-4 -0.610936,1.02679 -0.366102,2.11158 0.09991,2.43958 0.01474,0.0112 0.03038,0.021 0.04604,0.03 0.01595,0.009 0.03195,0.0169 0.0486,0.0246 0.01512,0.008 0.03192,0.0137 0.04835,0.0202 7.3e-5,2e-5 1.44e-4,9e-5 1.93e-4,1.3e-4 0.532509,0.19879 1.548099,-0.14247 2.114179,-1.15342 3.19e-4,-4e-4 5.4e-4,-5.5e-4 6.81e-4,-7e-4 l -2.08e-4,-1.2e-4 z"
       id="path9099-9-0-9-5" />
    <path
       inkscape:connector-curvature="0"
       style="fill:#b3b3b3;fill-opacity:1;stroke:none;stroke-width:0.04804199;stroke-linecap:round;stroke-linejoin:round;stroke-miterlimit:4;stroke-dasharray:none;stroke-dashoffset:0;stroke-opacity:1"
       d="m 103.40186,141.21774 c 0.21928,0.81828 -1.25762,1.92487 -3.2987,2.47176 -0.372904,0.0994 -1.311578,0.1149 -1.679118,0.16517 l -0.652,-2.43325 c 0.34381,-0.13972 1.16462,-0.59513 1.537154,-0.69505 2.041064,-0.54691 3.873424,-0.32689 4.092664,0.49137 z m -5.551968,2.89723 c -5e-4,4e-5 -7.4e-4,2e-5 -10e-4,2e-5 -1.14992,0.32437 -2.13438,-0.19288 -2.3306,-0.72791 -0.006,-0.0176 -0.0119,-0.0348 -0.0171,-0.0524 -0.005,-0.0175 -0.008,-0.0353 -0.0111,-0.0533 -0.004,-0.0167 -0.005,-0.0344 -0.007,-0.0519 0,-7e-5 -4e-5,-1.7e-4 -7e-5,-2.3e-4 -0.0542,-0.56581 0.53829,-1.45846 1.6613,-1.7436 4.5e-4,-2e-4 6.6e-4,-3.7e-4 8.5e-4,-4.9e-4 l 7e-5,2.3e-4 z"
       id="path9099-9-8-4-5" />
    <path
       inkscape:connector-curvature="0"
       style="fill:#b3b3b3;fill-opacity:1;stroke:none;stroke-width:0.04804199;stroke-linecap:round;stroke-linejoin:round;stroke-miterlimit:4;stroke-dasharray:none;stroke-dashoffset:0;stroke-opacity:1"
       d="m 109.6196,145.7824 c 2e-5,0.84715 -1.71297,1.53378 -3.82604,1.53377 -0.38592,-5e-4 -1.29663,-0.22848 -1.66466,-0.27505 l -1e-5,-2.51909 c 0.36826,-0.046 1.27897,-0.27342 1.66467,-0.27352 2.11307,-1e-5 3.82605,0.68676 3.82604,1.53389 z m -6.11265,1.36155 c -5e-4,-9e-5 -7.4e-4,-1.8e-4 -9.8e-4,-2.4e-4 -1.19469,0.0157 -2.01173,-0.73873 -2.06279,-1.30631 -0.001,-0.0186 -0.003,-0.0367 -0.003,-0.055 -2.9e-4,-0.0182 0.001,-0.0363 0.003,-0.0544 4.5e-4,-0.0171 0.004,-0.0345 0.007,-0.0519 2e-5,-7e-5 1e-5,-1.8e-4 0,-2.4e-4 0.0941,-0.56056 0.89742,-1.26945 2.05597,-1.25421 5e-4,-9e-5 7.4e-4,-1.9e-4 9.5e-4,-2.5e-4 l 1e-5,2.4e-4 z"
       id="path9099-9-0-9-0" />
    <path
       inkscape:connector-curvature="0"
       style="fill:#b3b3b3;fill-opacity:1;stroke:none;stroke-width:0.04804199;stroke-linecap:round;stroke-linejoin:round;stroke-miterlimit:4;stroke-dasharray:none;stroke-dashoffset:0;stroke-opacity:1"
       d="m 132.48569,138.09969 c -0.42356,0.73366 -2.25035,0.47181 -4.08033,-0.58473 -0.33397,-0.19341 -1.00866,-0.84619 -1.30411,-1.07053 l 1.25954,-2.1816 c 0.34191,0.14431 1.24433,0.40268 1.5784,0.59546 1.82999,1.05652 2.97007,2.50777 2.5465,3.2414 z m -5.97448,-1.87718 c -3.8e-4,-3.3e-4 -5.4e-4,-5.1e-4 -7.2e-4,-7e-4 -1.04248,-0.58375 -1.37285,-1.64562 -1.13328,-2.16269 0.009,-0.0165 0.017,-0.0327 0.0249,-0.0491 0.008,-0.0161 0.0189,-0.0309 0.0298,-0.0456 0.009,-0.0146 0.0207,-0.0279 0.032,-0.0414 5e-5,-5e-5 9e-5,-1.4e-4 1.1e-4,-2.1e-4 0.36177,-0.4384 1.41192,-0.65066 2.40763,-0.0582 4.6e-4,1.8e-4 7.3e-4,2.1e-4 9.5e-4,2.6e-4 l -1.1e-4,2e-4 z"
       id="path9099-9-8-4-5-1" />
    <path
       inkscape:connector-curvature="0"
       style="fill:#b3b3b3;fill-opacity:1;stroke:none;stroke-width:0.04804199;stroke-linecap:round;stroke-linejoin:round;stroke-miterlimit:4;stroke-dasharray:none;stroke-dashoffset:0;stroke-opacity:1"
       d="m 133.65461,145.724 c -0.59902,0.59905 -2.29581,-0.12671 -3.78997,-1.62088 -0.27252,-0.27325 -0.7553,-1.07842 -0.9826,-1.37159 l 1.78126,-1.78127 c 0.29291,0.22789 1.09771,0.71102 1.37051,0.9837 1.49417,1.49416 2.21981,3.19104 1.6208,3.79004 z m -5.28507,-3.35953 c -2.9e-4,-4.3e-4 -4e-4,-6.7e-4 -5.2e-4,-8.7e-4 -0.85587,-0.83367 -0.90014,-1.94487 -0.53491,-2.38231 0.013,-0.0136 0.0241,-0.0279 0.0368,-0.041 0.0119,-0.0135 0.0263,-0.0249 0.0406,-0.0363 0.0124,-0.0117 0.0272,-0.0216 0.0416,-0.0317 5e-5,-3e-5 1.3e-4,-1.2e-4 1.6e-4,-1.7e-4 0.46291,-0.32984 1.53222,-0.26307 2.34066,0.56692 4.2e-4,2.9e-4 6.6e-4,4e-4 8.5e-4,5e-4 l -1.6e-4,1.7e-4 z"
       id="path9099-9-0-9-0-6" />
    <path
       inkscape:connector-curvature="0"
       style="fill:#b3b3b3;fill-opacity:1;stroke:none;stroke-width:0.04804199;stroke-linecap:round;stroke-linejoin:round;stroke-miterlimit:4;stroke-dasharray:none;stroke-dashoffset:0;stroke-opacity:1"
       d="m 158.48761,142.70886 c -0.42356,-0.73366 -2.25035,-0.47181 -4.08033,0.58473 -0.33397,0.19341 -1.00866,0.84619 -1.30411,1.07053 l 1.25954,2.1816 c 0.34191,-0.14431 1.24433,-0.40268 1.5784,-0.59546 1.82999,-1.05652 2.97007,-2.50777 2.5465,-3.2414 z m -5.97448,1.87718 c -3.8e-4,3.2e-4 -5.4e-4,5.1e-4 -7.2e-4,6.9e-4 -1.04248,0.58376 -1.37285,1.64563 -1.13328,2.1627 0.009,0.0165 0.017,0.0327 0.0249,0.0491 0.008,0.0161 0.0189,0.0309 0.0298,0.0456 0.009,0.0146 0.0207,0.0279 0.032,0.0414 5e-5,5e-5 9e-5,1.4e-4 1.1e-4,2.1e-4 0.36177,0.4384 1.41192,0.65066 2.40763,0.0582 4.6e-4,-1.8e-4 7.3e-4,-2.1e-4 9.5e-4,-2.6e-4 l -1.1e-4,-2e-4 z"
       id="path9099-9-8-4-5-1-0" />
    <path
       inkscape:connector-curvature="0"
       style="fill:#b3b3b3;fill-opacity:1;stroke:none;stroke-width:0.04804199;stroke-linecap:round;stroke-linejoin:round;stroke-miterlimit:4;stroke-dasharray:none;stroke-dashoffset:0;stroke-opacity:1"
       d="m 159.65653,135.08455 c -0.59902,-0.59905 -2.29581,0.12671 -3.78997,1.62088 -0.27252,0.27325 -0.7553,1.07842 -0.9826,1.37159 l 1.78126,1.78127 c 0.29291,-0.22789 1.09771,-0.71102 1.37051,-0.9837 1.49417,-1.49416 2.21981,-3.19104 1.6208,-3.79004 z m -5.28507,3.35953 c -2.9e-4,4.3e-4 -3.9e-4,6.7e-4 -5.3e-4,8.8e-4 -0.85587,0.83367 -0.90014,1.94487 -0.53491,2.38231 0.013,0.0136 0.0241,0.0279 0.0368,0.041 0.0119,0.0135 0.0263,0.0249 0.0406,0.0363 0.0124,0.0117 0.0272,0.0216 0.0416,0.0317 5e-5,3e-5 1.3e-4,1.2e-4 1.6e-4,1.7e-4 0.46291,0.32984 1.53222,0.26307 2.34066,-0.56692 4.3e-4,-2.9e-4 6.7e-4,-4e-4 8.5e-4,-5.1e-4 l -1.6e-4,-1.7e-4 z"
       id="path9099-9-0-9-0-6-2" />
    <path
       inkscape:connector-curvature="0"
       style="fill:#b3b3b3;fill-opacity:1;stroke:none;stroke-width:0.04804199;stroke-linecap:round;stroke-linejoin:round;stroke-miterlimit:4;stroke-dasharray:none;stroke-dashoffset:0;stroke-opacity:1"
       d="m 181.8797,145.18078 c 0.21928,0.81828 -1.25762,1.92487 -3.2987,2.47176 -0.3729,0.0994 -1.31158,0.1149 -1.67912,0.16517 l -0.652,-2.43325 c 0.34381,-0.13972 1.16462,-0.59513 1.53715,-0.69505 2.04107,-0.54691 3.87343,-0.32689 4.09267,0.49137 z m -5.55197,2.89723 c -5e-4,4e-5 -7.4e-4,2e-5 -0.001,2e-5 -1.14992,0.32437 -2.13438,-0.19288 -2.3306,-0.72791 -0.006,-0.0176 -0.0119,-0.0348 -0.0171,-0.0524 -0.005,-0.0175 -0.008,-0.0353 -0.0111,-0.0533 -0.004,-0.0167 -0.005,-0.0344 -0.007,-0.0519 0,-7e-5 -4e-5,-1.7e-4 -7e-5,-2.3e-4 -0.0542,-0.56581 0.53829,-1.45846 1.6613,-1.7436 4.5e-4,-2e-4 6.6e-4,-3.7e-4 8.5e-4,-4.9e-4 l 7e-5,2.3e-4 z"
       id="path9099-9-8-8" />
    <path
       inkscape:connector-curvature="0"
       style="fill:#b3b3b3;fill-opacity:1;stroke:none;stroke-width:0.04804199;stroke-linecap:round;stroke-linejoin:round;stroke-miterlimit:4;stroke-dasharray:none;stroke-dashoffset:0;stroke-opacity:1"
       d="m 185.35756,150.15489 c 2e-5,0.84715 -1.71297,1.53378 -3.82604,1.53377 -0.38592,-5e-4 -1.29663,-0.22848 -1.66466,-0.27505 l -1e-5,-2.51909 c 0.36826,-0.046 1.27897,-0.27342 1.66467,-0.27352 2.11307,-1e-5 3.82605,0.68676 3.82604,1.53389 z m -6.11265,1.36155 c -5e-4,-9e-5 -7.4e-4,-1.8e-4 -9.8e-4,-2.4e-4 -1.19469,0.0157 -2.01173,-0.73873 -2.06279,-1.30631 -0.001,-0.0186 -0.003,-0.0367 -0.003,-0.055 -2.9e-4,-0.0182 10e-4,-0.0363 0.003,-0.0544 4.5e-4,-0.0171 0.004,-0.0345 0.007,-0.0519 2e-5,-7e-5 1e-5,-1.8e-4 0,-2.4e-4 0.0941,-0.56056 0.89742,-1.26945 2.05597,-1.25421 5e-4,-9e-5 7.4e-4,-1.9e-4 9.5e-4,-2.5e-4 l 1e-5,2.4e-4 z"
       id="path9099-9-0-8" />
    <path
       inkscape:connector-curvature="0"
       style="fill:#b3b3b3;fill-opacity:1;stroke:none;stroke-width:0.04804199;stroke-linecap:round;stroke-linejoin:round;stroke-miterlimit:4;stroke-dasharray:none;stroke-dashoffset:0;stroke-opacity:1"
       d="m 204.0855,165.98413 c -0.73363,0.4236 -2.18477,-0.71658 -3.24132,-2.54656 -0.19252,-0.33447 -0.45042,-1.23716 -0.59412,-1.57916 l 2.18159,-1.25955 c 0.22395,0.29591 0.87629,0.97091 1.06921,1.30489 1.05655,1.82995 1.31827,3.65682 0.58464,4.08038 z m -4.23546,-4.61292 c -1.8e-4,-4.7e-4 -2.2e-4,-7.2e-4 -2.8e-4,-9.6e-4 -0.61095,-1.02678 -0.36611,-2.11156 0.0999,-2.43958 0.0148,-0.0112 0.0303,-0.021 0.0461,-0.03 0.016,-0.008 0.0318,-0.0168 0.0485,-0.0246 0.0149,-0.008 0.0318,-0.0137 0.0484,-0.0202 6e-5,-1e-5 1.5e-4,-9e-5 2.2e-4,-1.2e-4 0.5325,-0.1988 1.54806,0.14246 2.11415,1.1534 3.1e-4,4e-4 5.4e-4,5.5e-4 6.9e-4,7.1e-4 l -2.1e-4,1.2e-4 z"
       id="path9099-9-8-49" />
    <path
       inkscape:connector-curvature="0"
       style="fill:#b3b3b3;fill-opacity:1;stroke:none;stroke-width:0.04804199;stroke-linecap:round;stroke-linejoin:round;stroke-miterlimit:4;stroke-dasharray:none;stroke-dashoffset:0;stroke-opacity:1"
       d="m 191.57489,166.49883 c -0.81828,-0.21925 -1.03817,-2.05158 -0.49125,-4.09263 0.10036,-0.37266 0.55628,-1.19332 0.69652,-1.53676 l 2.43326,0.65197 c -0.0509,0.36763 -0.0669,1.30616 -0.16665,1.67875 -0.54688,2.04107 -1.65361,3.51793 -2.47188,3.29867 z m 0.26692,-6.25677 c 2.1e-4,-4.5e-4 3.6e-4,-6.6e-4 4.8e-4,-8.8e-4 0.29405,-1.15804 1.23423,-1.75198 1.79569,-1.6544 0.0183,0.003 0.0362,0.007 0.0538,0.0115 0.0174,0.005 0.0345,0.0106 0.0518,0.017 0.0162,0.005 0.0322,0.0129 0.0485,0.0199 5e-5,4e-5 1.6e-4,6e-5 2.1e-4,7e-5 0.51711,0.23596 0.99392,1.1954 0.67936,2.31053 -5e-5,5e-4 -1e-5,7.6e-4 -2e-5,9.8e-4 l -2.1e-4,-5e-5 z"
       id="path9099-9-0-83" />
    <path
       inkscape:connector-curvature="0"
       style="fill:#b3b3b3;fill-opacity:1;stroke:none;stroke-width:0.04804199;stroke-linecap:round;stroke-linejoin:round;stroke-miterlimit:4;stroke-dasharray:none;stroke-dashoffset:0;stroke-opacity:1"
       d="m 186.20793,178.43284 c -0.21926,-0.81828 1.25762,-1.92486 3.29871,-2.47176 0.37291,-0.0994 1.31156,-0.11489 1.67912,-0.16517 l 0.65199,2.43326 c -0.3438,0.13975 -1.16461,0.59514 -1.53714,0.69505 -2.04108,0.54691 -3.87343,0.32689 -4.09268,-0.49138 z m 5.55196,-2.89723 c 5e-4,-4e-5 7.5e-4,-1e-5 10e-4,-2e-5 1.14993,-0.32437 2.13438,0.19289 2.33062,0.72792 0.006,0.0178 0.0114,0.035 0.0171,0.0523 0.005,0.0172 0.008,0.0352 0.0112,0.0533 0.004,0.0167 0.005,0.0344 0.007,0.0519 0,8e-5 4e-5,1.7e-4 7e-5,2.3e-4 0.0542,0.56581 -0.53829,1.45847 -1.6613,1.74361 -4.5e-4,2e-4 -6.6e-4,3.7e-4 -8.5e-4,4.8e-4 l -7e-5,-2.1e-4 z"
       id="path9099-9-8-4-5-1-0-4" />
    <path
       inkscape:connector-curvature="0"
       style="fill:#b3b3b3;fill-opacity:1;stroke:none;stroke-width:0.04804199;stroke-linecap:round;stroke-linejoin:round;stroke-miterlimit:4;stroke-dasharray:none;stroke-dashoffset:0;stroke-opacity:1"
       d="m 179.99018,173.86819 c -2e-5,-0.84716 1.71298,-1.53378 3.82605,-1.53378 0.38592,5.2e-4 1.29664,0.22849 1.66466,0.27506 l 1e-5,2.51909 c -0.36827,0.046 -1.27897,0.27344 -1.66468,0.27352 -2.11306,0 -3.82605,-0.68677 -3.82604,-1.53389 z m 6.11266,-1.36155 c 5e-4,1e-4 7.4e-4,1.8e-4 9.9e-4,2.4e-4 1.19469,-0.0157 2.01173,0.73873 2.06279,1.30631 8.7e-4,0.0187 0.003,0.0368 0.003,0.055 6.9e-4,0.018 -9.5e-4,0.0363 -0.003,0.0544 -6.1e-4,0.017 -0.004,0.0345 -0.007,0.0519 -1e-5,6e-5 -2e-5,1.7e-4 0,2.3e-4 -0.0941,0.56057 -0.89743,1.26947 -2.05598,1.25423 -5e-4,1e-4 -7.6e-4,1.8e-4 -9.6e-4,2.3e-4 v -2.3e-4 z"
       id="path9099-9-0-9-0-6-2-4" />
    <path
       inkscape:connector-curvature="0"
       style="fill:#b3b3b3;fill-opacity:1;stroke:none;stroke-width:0.04804199;stroke-linecap:round;stroke-linejoin:round;stroke-miterlimit:4;stroke-dasharray:none;stroke-dashoffset:0;stroke-opacity:1"
       d="m 160.9035,177.63602 c 0.42356,0.73366 2.25035,0.47181 4.08033,-0.58473 0.33397,-0.19341 1.00866,-0.84619 1.30411,-1.07053 l -1.25954,-2.1816 c -0.34191,0.14431 -1.24433,0.40268 -1.5784,0.59546 -1.82999,1.05652 -2.97007,2.50777 -2.5465,3.2414 z m 5.97448,-1.87718 c 3.8e-4,-3.2e-4 5.4e-4,-5.1e-4 7.2e-4,-6.9e-4 1.04248,-0.58376 1.37285,-1.64563 1.13328,-2.1627 -0.009,-0.0165 -0.017,-0.0327 -0.0249,-0.0491 -0.008,-0.0161 -0.0189,-0.0309 -0.0298,-0.0456 -0.009,-0.0146 -0.0207,-0.0279 -0.032,-0.0414 -5e-5,-5e-5 -9e-5,-1.4e-4 -1.1e-4,-2.1e-4 -0.36177,-0.4384 -1.41192,-0.65066 -2.40763,-0.0582 -4.6e-4,1.8e-4 -7.3e-4,2.1e-4 -9.5e-4,2.6e-4 l 1.1e-4,2e-4 z"
       id="path9099-9-8-4-5-1-0-9" />
    <path
       inkscape:connector-curvature="0"
       style="fill:#b3b3b3;fill-opacity:1;stroke:none;stroke-width:0.04804199;stroke-linecap:round;stroke-linejoin:round;stroke-miterlimit:4;stroke-dasharray:none;stroke-dashoffset:0;stroke-opacity:1"
       d="m 156.11403,186.23886 c 0.59902,0.59905 2.29581,-0.12671 3.78997,-1.62088 0.27252,-0.27325 0.7553,-1.07842 0.9826,-1.37159 l -1.78126,-1.78127 c -0.29291,0.22789 -1.09771,0.71102 -1.37051,0.9837 -1.49417,1.49416 -2.21981,3.19104 -1.6208,3.79004 z m 5.28507,-3.35953 c 2.9e-4,-4.3e-4 4e-4,-6.7e-4 5.3e-4,-8.8e-4 0.85587,-0.83367 0.90014,-1.94487 0.53491,-2.38231 -0.013,-0.0136 -0.0241,-0.0279 -0.0368,-0.041 -0.0119,-0.0135 -0.0263,-0.0249 -0.0406,-0.0363 -0.0124,-0.0117 -0.0272,-0.0216 -0.0416,-0.0317 -5e-5,-3e-5 -1.3e-4,-1.2e-4 -1.6e-4,-1.7e-4 -0.46291,-0.32984 -1.53222,-0.26307 -2.34066,0.56692 -4.2e-4,2.9e-4 -6.6e-4,4e-4 -8.5e-4,5e-4 l 1.6e-4,1.8e-4 z"
       id="path9099-9-0-9-0-6-2-1" />
    <text
       xml:space="preserve"
       style="font-style:normal;font-variant:normal;font-weight:normal;font-stretch:normal;font-size:5.64444447px;line-height:0%;font-family:'Komika Display Tight';-inkscape-font-specification:'Komika Display Tight';letter-spacing:0px;word-spacing:0px;display:inline;fill:#b3b3b3;fill-opacity:1;stroke:none;stroke-width:0.56444442px;stroke-linecap:butt;stroke-linejoin:miter;stroke-opacity:1"
       x="128.77917"
       y="236.67784"
       id="text4308-2-3-7-9-5-2"><tspan
         style="font-size:5.64444447px;line-height:1.25;fill:#b3b3b3;stroke-width:0.56444442px"
         sodipodi:role="line"
         x="128.77917"
         y="236.67784"
         id="tspan8634-6-4">Bar</tspan></text>
    <text
       xml:space="preserve"
       style="font-style:normal;font-variant:normal;font-weight:normal;font-stretch:normal;font-size:5.64444447px;line-height:0%;font-family:'Komika Display Tight';-inkscape-font-specification:'Komika Display Tight';letter-spacing:0px;word-spacing:0px;display:inline;fill:#b3b3b3;fill-opacity:1;stroke:none;stroke-width:0.56444442px;stroke-linecap:butt;stroke-linejoin:miter;stroke-opacity:1"
       x="96.629105"
       y="195.63663"
       id="text4308-2-3-7-9-5-2-5"><tspan
         style="font-size:5.64444447px;line-height:1.25;fill:#b3b3b3;stroke-width:0.56444442px"
         sodipodi:role="line"
         x="96.629105"
         y="195.63663"
         id="tspan8634-6-4-6">Stage</tspan></text>
    <text
       xml:space="preserve"
       style="font-style:normal;font-variant:normal;font-weight:normal;font-stretch:normal;font-size:14.11111069px;line-height:0%;font-family:'Komika Display Tight';-inkscape-font-specification:'Komika Display Tight';letter-spacing:0px;word-spacing:0px;display:inline;fill:#000000;fill-opacity:1;stroke:none;stroke-width:0.56444442px;stroke-linecap:butt;stroke-linejoin:miter;stroke-opacity:1"
       x="106.21827"
       y="120.81306"
       id="text4308-2-3-7-9-5-2-3"><tspan
         style="font-size:14.11111069px;line-height:1.25;fill:#000000;stroke-width:0.56444442px"
         sodipodi:role="line"
         x="106.21827"
         y="120.81306"
         id="tspan8634-6-4-67">Band Practice!</tspan></text>
    <text
       xml:space="preserve"
       style="font-style:normal;font-variant:normal;font-weight:normal;font-stretch:normal;font-size:3.88055563px;line-height:1.79999995;font-family:'Komika Display Tight';-inkscape-font-specification:'Komika Display Tight';text-align:center;letter-spacing:0px;word-spacing:0px;text-anchor:middle;display:inline;fill:#000000;fill-opacity:1;stroke:none;stroke-width:0.56444442px;stroke-linecap:butt;stroke-linejoin:miter;stroke-opacity:1"
       x="142.35219"
       y="176.42583"
       id="text4308-2-3-7-9-5-2-5-5"><tspan
         style="font-size:3.88055563px;line-height:1.79999995;text-align:center;text-anchor:middle;fill:#000000;stroke-width:0.56444442px"
         sodipodi:role="line"
         x="142.35219"
         y="176.42583"
         id="tspan8634-6-4-6-3">Take a card</tspan><tspan
         style="font-size:3.88055563px;line-height:1.79999995;text-align:center;text-anchor:middle;fill:#000000;stroke-width:0.56444442px"
         sodipodi:role="line"
         x="142.35219"
         y="183.41083"
         id="tspan1525">Meeple moves up</tspan><tspan
         style="font-size:3.88055563px;line-height:1.79999995;text-align:center;text-anchor:middle;fill:#000000;stroke-width:0.56444442px"
         sodipodi:role="line"
         x="142.35219"
         y="190.39583"
         id="tspan1527">Flip 2 new cards</tspan></text>
    <text
       xml:space="preserve"
       style="font-style:normal;font-weight:normal;font-size:4.23333311px;line-height:1.25;font-family:sans-serif;letter-spacing:0px;word-spacing:0px;fill:#000000;fill-opacity:1;stroke:none;stroke-width:0.26458332"
       x="142.14857"
       y="186.92744"
       id="text1531"><tspan
         sodipodi:role="line"
         id="tspan1529"
         x="142.14857"
         y="186.92744"
         style="font-size:4.23333311px;stroke-width:0.26458332">/</tspan></text>
    <text
       id="text1535"
       y="180.57745"
       x="142.14857"
       style="font-style:normal;font-weight:normal;font-size:4.23333311px;line-height:1.25;font-family:sans-serif;letter-spacing:0px;word-spacing:0px;fill:#000000;fill-opacity:1;stroke:none;stroke-width:0.26458332"
       xml:space="preserve"><tspan
         style="font-size:4.23333311px;stroke-width:0.26458332"
         y="180.57745"
         x="142.14857"
         id="tspan1533"
         sodipodi:role="line">/</tspan></text>
    <path
       inkscape:connector-curvature="0"
       id="path12899"
       d="m 73.879202,240.10648 c 35.618308,12.13373 109.742598,13.89508 146.730908,0"
       style="fill:none;stroke:#000000;stroke-width:0.26499999;stroke-linecap:butt;stroke-linejoin:miter;stroke-miterlimit:4;stroke-dasharray:0.26499999, 1.05999995;stroke-dashoffset:0;stroke-opacity:1"
       sodipodi:nodetypes="cc" />
    <text
       xml:space="preserve"
       style="font-style:normal;font-variant:normal;font-weight:normal;font-stretch:normal;font-size:5.64444447px;line-height:0%;font-family:'Komika Display Tight';-inkscape-font-specification:'Komika Display Tight';letter-spacing:0px;word-spacing:0px;display:inline;fill:#b3b3b3;fill-opacity:1;stroke:none;stroke-width:0.56444442px;stroke-linecap:butt;stroke-linejoin:miter;stroke-opacity:1"
       x="170.66634"
       y="263.47171"
       id="text4308-2-3-7-9-5-2-36"><tspan
         style="font-size:5.64444447px;line-height:1.25;fill:#b3b3b3;stroke-width:0.56444442px"
         sodipodi:role="line"
         x="170.66634"
         y="263.47171"
         id="tspan8634-6-4-7">Patio</tspan></text>
  </g>
  <g
     inkscape:groupmode="layer"
     id="layer2"
     inkscape:label="band_practice"
     style="display:none">
    <rect
       ry="50"
       rx="50"
       y="11.184527"
       x="20.637489"
       height="190"
       width="254"
       id="rect11160"
       style="fill:#ffffff;fill-opacity:1;stroke:#000000;stroke-width:0.34660414;stroke-linecap:round;stroke-linejoin:round;stroke-miterlimit:4;stroke-dasharray:none;stroke-opacity:1" />
    <rect
       style="fill:#ffffff;fill-opacity:1;stroke:#000000;stroke-width:0.20520458;stroke-linecap:round;stroke-linejoin:round;stroke-miterlimit:4;stroke-dasharray:none;stroke-opacity:1"
       id="rect11162"
       width="150.37894"
       height="112.48817"
       x="72.448021"
       y="49.940445"
       rx="29.602154"
       ry="29.602154" />
    <path
       inkscape:connector-curvature="0"
       id="path11206"
       d="m 136.43082,116.5985 a 12.861817,12.861817 0 0 0 17.56956,-4.70777 12.861817,12.861817 0 0 0 -4.70776,-17.569551 12.861817,12.861817 0 0 0 -17.56956,4.70775 12.861817,12.861817 0 0 0 4.70776,17.569571 z"
       style="fill:#ffffff;fill-opacity:1;stroke:none;stroke-width:0.5300802;stroke-linecap:round;stroke-linejoin:round;stroke-miterlimit:4;stroke-dasharray:none;stroke-opacity:1" />
    <path
       sodipodi:nodetypes="cc"
       style="fill:none;stroke:#000000;stroke-width:0.26499999;stroke-linecap:butt;stroke-linejoin:miter;stroke-miterlimit:4;stroke-dasharray:none;stroke-dashoffset:0;stroke-opacity:1"
       d="m 73.879202,103.894 c 35.618308,12.13373 109.742598,13.89508 146.730908,0"
       id="path11208"
       inkscape:connector-curvature="0" />
    <path
       inkscape:connector-curvature="0"
       id="path11210"
       d="m 200.9551,71.593239 a 8.4099704,8.4099704 0 0 1 -8.40998,8.40996 8.4099704,8.4099704 0 0 1 -8.40995,-8.40996 8.4099704,8.4099704 0 0 1 8.40995,-8.40996 8.4099704,8.4099704 0 0 1 8.40998,8.40996 z"
       style="fill:#ffffff;fill-opacity:1;stroke:#000000;stroke-width:0.34660414;stroke-linecap:round;stroke-linejoin:round;stroke-miterlimit:4;stroke-dasharray:none;stroke-opacity:1" />
    <path
       inkscape:connector-curvature="0"
       id="path11212"
       d="m 150.7425,59.828019 a 8.4099704,8.4099704 0 0 1 -8.40997,8.40996 8.4099704,8.4099704 0 0 1 -8.40997,-8.40996 8.4099704,8.4099704 0 0 1 8.40997,-8.40997 8.4099704,8.4099704 0 0 1 8.40997,8.40997 z"
       style="fill:#ffffff;fill-opacity:1;stroke:#000000;stroke-width:0.34660414;stroke-linecap:round;stroke-linejoin:round;stroke-miterlimit:4;stroke-dasharray:none;stroke-opacity:1" />
    <path
       inkscape:connector-curvature="0"
       id="path11214"
       d="m 124.57786,63.008399 a 8.4099704,8.4099704 0 0 1 -8.40997,8.40997 8.4099704,8.4099704 0 0 1 -8.40997,-8.40997 8.4099704,8.4099704 0 0 1 8.40997,-8.40996 8.4099704,8.4099704 0 0 1 8.40997,8.40996 z"
       style="fill:#ffffff;fill-opacity:1;stroke:#000000;stroke-width:0.34660414;stroke-linecap:round;stroke-linejoin:round;stroke-miterlimit:4;stroke-dasharray:none;stroke-opacity:1" />
    <path
       inkscape:connector-curvature="0"
       id="path11216"
       d="m 176.90714,63.008399 a 8.4099704,8.4099704 0 0 1 -8.40997,8.40997 8.4099704,8.4099704 0 0 1 -8.40997,-8.40997 8.4099704,8.4099704 0 0 1 8.40997,-8.40996 8.4099704,8.4099704 0 0 1 8.40997,8.40996 z"
       style="fill:#ffffff;fill-opacity:1;stroke:#000000;stroke-width:0.34660414;stroke-linecap:round;stroke-linejoin:round;stroke-miterlimit:4;stroke-dasharray:none;stroke-opacity:1" />
    <path
       inkscape:connector-curvature="0"
       style="fill:#ffffff;fill-opacity:1;stroke:#000000;stroke-width:0.34660414;stroke-linecap:round;stroke-linejoin:round;stroke-miterlimit:4;stroke-dasharray:none;stroke-opacity:1"
       d="m 100.5299,71.593239 a 8.4099704,8.4099704 0 0 1 -8.409925,8.40996 8.4099704,8.4099704 0 0 1 -8.409982,-8.40996 8.4099704,8.4099704 0 0 1 8.409982,-8.40997 8.4099704,8.4099704 0 0 1 8.409925,8.40997 z"
       id="path11218" />
    <path
       style="fill:#ffffff;fill-opacity:1;stroke:#000000;stroke-width:0.34660414;stroke-linecap:round;stroke-linejoin:round;stroke-miterlimit:4;stroke-dasharray:none;stroke-opacity:1"
       d="m 208.36348,92.107129 a 8.4099704,8.4099704 0 0 0 -8.40998,-8.40996 8.4099704,8.4099704 0 0 0 -8.40995,8.40996 8.4099704,8.4099704 0 0 0 8.40995,8.409961 8.4099704,8.4099704 0 0 0 8.40998,-8.409961 z"
       id="path11220"
       inkscape:connector-curvature="0" />
    <path
       style="fill:#ffffff;fill-opacity:1;stroke:#000000;stroke-width:0.5300802;stroke-linecap:round;stroke-linejoin:round;stroke-miterlimit:4;stroke-dasharray:none;stroke-opacity:1"
       d="m 155.19435,102.28484 a 12.861817,12.861817 0 0 0 -12.86182,-12.861811 12.861817,12.861817 0 0 0 -12.86181,12.861811 12.861817,12.861817 0 0 0 12.86181,12.86181 12.861817,12.861817 0 0 0 12.86182,-12.86181 z"
       id="path11222"
       inkscape:connector-curvature="0" />
    <path
       style="fill:#ffffff;fill-opacity:1;stroke:#000000;stroke-width:0.34660414;stroke-linecap:round;stroke-linejoin:round;stroke-miterlimit:4;stroke-dasharray:none;stroke-opacity:1"
       d="m 118.22782,96.987779 a 8.4099704,8.4099704 0 0 0 -8.40997,-8.40997 8.4099704,8.4099704 0 0 0 -8.40997,8.40997 8.4099704,8.4099704 0 0 0 8.40997,8.409961 8.4099704,8.4099704 0 0 0 8.40997,-8.409961 z"
       id="path11224"
       inkscape:connector-curvature="0" />
    <path
       style="fill:#ffffff;fill-opacity:1;stroke:#000000;stroke-width:0.34660414;stroke-linecap:round;stroke-linejoin:round;stroke-miterlimit:4;stroke-dasharray:none;stroke-opacity:1"
       d="m 183.25718,96.987779 a 8.4099704,8.4099704 0 0 0 -8.40997,-8.40997 8.4099704,8.4099704 0 0 0 -8.40997,8.40997 8.4099704,8.4099704 0 0 0 8.40997,8.409961 8.4099704,8.4099704 0 0 0 8.40997,-8.409961 z"
       id="path11226"
       inkscape:connector-curvature="0" />
    <path
       id="path11228"
       d="m 93.121559,92.107129 a 8.4099704,8.4099704 0 0 0 -8.409922,-8.40996 8.4099704,8.4099704 0 0 0 -8.409977,8.40996 8.4099704,8.4099704 0 0 0 8.409977,8.409971 8.4099704,8.4099704 0 0 0 8.409922,-8.409971 z"
       style="fill:#ffffff;fill-opacity:1;stroke:#000000;stroke-width:0.34660414;stroke-linecap:round;stroke-linejoin:round;stroke-miterlimit:4;stroke-dasharray:none;stroke-opacity:1"
       inkscape:connector-curvature="0" />
    <path
       inkscape:connector-curvature="0"
       id="path11230"
       d="m 174.45859,79.114999 a 32.126057,6.7401069 0 0 0 -32.12606,-6.74011 32.126057,6.7401069 0 0 0 -32.12605,6.74011 32.126057,6.7401069 0 0 0 32.12605,6.7401 32.126057,6.7401069 0 0 0 32.12606,-6.7401 z"
       style="fill:#ffffff;fill-opacity:1;stroke:#000000;stroke-width:0.6064589;stroke-linecap:round;stroke-linejoin:round;stroke-miterlimit:4;stroke-dasharray:0.60645891, 2.42583562;stroke-dashoffset:0;stroke-opacity:1" />
    <path
       inkscape:connector-curvature="0"
       id="path11232"
       d="m 125.07724,81.643379 -6.52009,7.08706 -3.11831,-0.85045 1.7009,4.15774 8.31547,-1.13393 -3.77976,-1.13393 6.80357,-6.89806 z"
       style="fill:none;stroke:#000000;stroke-width:0.26458332px;stroke-linecap:butt;stroke-linejoin:miter;stroke-opacity:1" />
    <text
       id="text11236"
       y="100.84541"
       x="106.35822"
       style="font-style:normal;font-weight:normal;font-size:10.58333302px;line-height:1.25;font-family:sans-serif;letter-spacing:0px;word-spacing:0px;fill:#000000;fill-opacity:1;stroke:none;stroke-width:0.26458332"
       xml:space="preserve"><tspan
         style="stroke-width:0.26458332"
         y="100.84541"
         x="106.35822"
         id="tspan11234"
         sodipodi:role="line">1</tspan></text>
    <text
       id="text11240"
       y="96.034546"
       x="81.487022"
       style="font-style:normal;font-weight:normal;font-size:10.58333302px;line-height:1.25;font-family:sans-serif;letter-spacing:0px;word-spacing:0px;fill:#000000;fill-opacity:1;stroke:none;stroke-width:0.26458332"
       xml:space="preserve"><tspan
         style="stroke-width:0.26458332"
         y="96.034546"
         x="81.487022"
         id="tspan11238"
         sodipodi:role="line">2</tspan></text>
    <text
       id="text11244"
       y="75.445709"
       x="88.773949"
       style="font-style:normal;font-weight:normal;font-size:10.58333302px;line-height:1.25;font-family:sans-serif;letter-spacing:0px;word-spacing:0px;fill:#000000;fill-opacity:1;stroke:none;stroke-width:0.26458332"
       xml:space="preserve"><tspan
         style="stroke-width:0.26458332"
         y="75.445709"
         x="88.773949"
         id="tspan11242"
         sodipodi:role="line">3</tspan></text>
    <text
       id="text11248"
       y="66.866043"
       x="112.84004"
       style="font-style:normal;font-weight:normal;font-size:10.58333302px;line-height:1.25;font-family:sans-serif;letter-spacing:0px;word-spacing:0px;fill:#000000;fill-opacity:1;stroke:none;stroke-width:0.26458332"
       xml:space="preserve"><tspan
         style="stroke-width:0.26458332"
         y="66.866043"
         x="112.84004"
         id="tspan11246"
         sodipodi:role="line">4</tspan></text>
    <text
       id="text11252"
       y="63.610733"
       x="139.0204"
       style="font-style:normal;font-weight:normal;font-size:10.58333302px;line-height:1.25;font-family:sans-serif;letter-spacing:0px;word-spacing:0px;fill:#000000;fill-opacity:1;stroke:none;stroke-width:0.26458332"
       xml:space="preserve"><tspan
         style="stroke-width:0.26458332"
         y="63.610733"
         x="139.0204"
         id="tspan11250"
         sodipodi:role="line">5</tspan></text>
    <text
       id="text11256"
       y="66.860886"
       x="165.09465"
       style="font-style:normal;font-weight:normal;font-size:10.58333302px;line-height:1.25;font-family:sans-serif;letter-spacing:0px;word-spacing:0px;fill:#000000;fill-opacity:1;stroke:none;stroke-width:0.26458332"
       xml:space="preserve"><tspan
         style="stroke-width:0.26458332"
         y="66.860886"
         x="165.09465"
         id="tspan11254"
         sodipodi:role="line">6</tspan></text>
    <text
       id="text11260"
       y="75.450882"
       x="189.19682"
       style="font-style:normal;font-weight:normal;font-size:10.58333302px;line-height:1.25;font-family:sans-serif;letter-spacing:0px;word-spacing:0px;fill:#000000;fill-opacity:1;stroke:none;stroke-width:0.26458332"
       xml:space="preserve"><tspan
         style="stroke-width:0.26458332"
         y="75.450882"
         x="189.19682"
         id="tspan11258"
         sodipodi:role="line">7</tspan></text>
    <text
       id="text11264"
       y="100.84026"
       x="171.51958"
       style="font-style:normal;font-weight:normal;font-size:10.58333302px;line-height:1.25;font-family:sans-serif;letter-spacing:0px;word-spacing:0px;fill:#000000;fill-opacity:1;stroke:none;stroke-width:0.26458332"
       xml:space="preserve"><tspan
         style="stroke-width:0.26458332"
         y="100.84026"
         x="171.51958"
         id="tspan11262"
         sodipodi:role="line">9</tspan></text>
    <text
       id="text11268"
       y="95.95961"
       x="196.58971"
       style="font-style:normal;font-weight:normal;font-size:10.58333302px;line-height:1.25;font-family:sans-serif;letter-spacing:0px;word-spacing:0px;fill:#000000;fill-opacity:1;stroke:none;stroke-width:0.26458332"
       xml:space="preserve"><tspan
         style="stroke-width:0.26458332"
         y="95.95961"
         x="196.58971"
         id="tspan11266"
         sodipodi:role="line">8</tspan></text>
    <text
       id="text11272"
       y="82.590271"
       x="131.79919"
       style="font-style:normal;font-weight:normal;font-size:10.58333302px;line-height:1.25;font-family:sans-serif;letter-spacing:0px;word-spacing:0px;fill:#000000;fill-opacity:1;stroke:none;stroke-width:0.26458332"
       xml:space="preserve"><tspan
         style="stroke-width:0.26458332"
         y="82.590271"
         x="131.79919"
         id="tspan11270"
         sodipodi:role="line">start</tspan></text>
    <text
       id="text11392"
       style="font-style:normal;font-variant:normal;font-weight:normal;font-stretch:normal;font-size:3.52777767px;line-height:1.25;font-family:'Komika Display Tight';-inkscape-font-specification:'Komika Display Tight';letter-spacing:0px;word-spacing:0px;fill:#000000;fill-opacity:1;stroke:none;stroke-width:0.26458332"
       xml:space="preserve"
       y="-87"
       transform="translate(0,-86.254172)"><textPath
         id="textPath11390"
         xlink:href="#path8661"><tspan
   dx="1.5300001 0 0 0 0 0 0 0 0.16"
   id="tspan11388"
   style="font-style:normal;font-variant:normal;font-weight:normal;font-stretch:normal;font-size:3.52777767px;font-family:'Komika Display Tight';-inkscape-font-specification:'Komika Display Tight';stroke-width:0.26458332">spotlight</tspan></textPath></text>
    <path
       id="path11394"
       d="m 121.48151,97.715919 c -0.21928,0.81828 1.25762,1.92487 3.2987,2.471761 0.3729,0.0994 1.31158,0.1149 1.67912,0.16517 l 0.652,-2.433251 c -0.34381,-0.13972 -1.16462,-0.59513 -1.53715,-0.69505 -2.04107,-0.54691 -3.87343,-0.32689 -4.09267,0.49137 z m 5.55197,2.897231 c 5e-4,4e-5 7.5e-4,2e-5 0.001,2e-5 1.14992,0.32437 2.13438,-0.19288 2.3306,-0.727911 0.006,-0.0176 0.0119,-0.0348 0.0171,-0.0524 0.005,-0.0175 0.008,-0.0353 0.0111,-0.0533 0.004,-0.0167 0.005,-0.0344 0.007,-0.0519 0,-7e-5 4e-5,-1.7e-4 7e-5,-2.3e-4 0.0542,-0.56581 -0.53829,-1.45846 -1.6613,-1.7436 -4.6e-4,-2e-4 -6.6e-4,-3.7e-4 -8.6e-4,-4.9e-4 l -7e-5,2.3e-4 z"
       style="fill:#b3b3b3;fill-opacity:1;stroke:none;stroke-width:0.04804199;stroke-linecap:round;stroke-linejoin:round;stroke-miterlimit:4;stroke-dasharray:none;stroke-dashoffset:0;stroke-opacity:1"
       inkscape:connector-curvature="0" />
    <path
       id="path11396"
       d="m 118.00365,102.69003 c -2e-5,0.84715 1.71297,1.53378 3.82604,1.53377 0.38592,-5e-4 1.29663,-0.22848 1.66466,-0.27505 l 1e-5,-2.51909 c -0.36826,-0.046 -1.27897,-0.27342 -1.66467,-0.27352 -2.11307,-10e-6 -3.82605,0.68676 -3.82604,1.53389 z m 6.11265,1.36155 c 5e-4,-9e-5 7.3e-4,-1.8e-4 9.8e-4,-2.4e-4 1.19469,0.0157 2.01173,-0.73873 2.06279,-1.30631 0.001,-0.0186 0.003,-0.0367 0.003,-0.055 3e-4,-0.0182 -0.001,-0.0363 -0.003,-0.0544 -4.4e-4,-0.0171 -0.004,-0.0345 -0.007,-0.0519 -2e-5,-7e-5 -10e-6,-1.8e-4 0,-2.4e-4 -0.0941,-0.56056 -0.89742,-1.26945 -2.05597,-1.25421 -4.9e-4,-9e-5 -7.3e-4,-1.9e-4 -9.5e-4,-2.5e-4 l -1e-5,2.4e-4 z"
       style="fill:#b3b3b3;fill-opacity:1;stroke:none;stroke-width:0.04804199;stroke-linecap:round;stroke-linejoin:round;stroke-miterlimit:4;stroke-dasharray:none;stroke-dashoffset:0;stroke-opacity:1"
       inkscape:connector-curvature="0" />
    <path
       id="path11398"
       d="m 96.217584,90.403829 c -0.21928,0.81828 1.25762,1.92487 3.2987,2.47176 0.3729,0.0994 1.311576,0.1149 1.679116,0.16517 l 0.652,-2.43325 c -0.34381,-0.13972 -1.16462,-0.59513 -1.53715,-0.69505 -2.041066,-0.54691 -3.873426,-0.32689 -4.092666,0.49137 z m 5.551966,2.89723 c 5.1e-4,4e-5 7.4e-4,2e-5 0.001,2e-5 1.14992,0.32437 2.13438,-0.19288 2.3306,-0.72791 0.006,-0.0176 0.0119,-0.0348 0.0171,-0.0524 0.005,-0.0175 0.008,-0.0353 0.0111,-0.0533 0.004,-0.0167 0.005,-0.0344 0.007,-0.0519 0,-7e-5 4e-5,-1.7e-4 7e-5,-2.3e-4 0.0542,-0.56581 -0.53829,-1.45846 -1.6613,-1.7436 -4.5e-4,-2e-4 -6.6e-4,-3.7e-4 -8.4e-4,-4.9e-4 l -7e-5,2.3e-4 z"
       style="fill:#b3b3b3;fill-opacity:1;stroke:none;stroke-width:0.04804199;stroke-linecap:round;stroke-linejoin:round;stroke-miterlimit:4;stroke-dasharray:none;stroke-dashoffset:0;stroke-opacity:1"
       inkscape:connector-curvature="0" />
    <path
       id="path11400"
       d="m 89.999849,93.910149 c -2e-5,0.84715 1.71297,1.53378 3.82604,1.53377 0.38592,-5.1e-4 1.29663,-0.22848 1.66466,-0.27505 l 1e-5,-2.51909 c -0.36826,-0.046 -1.27897,-0.27342 -1.66467,-0.27352 -2.11307,-1e-5 -3.82605,0.68676 -3.82604,1.53389 z m 6.11265,1.36155 c 5.03e-4,-9e-5 7.41e-4,-1.8e-4 9.79e-4,-2.4e-4 1.19469,0.0157 2.01173,-0.73873 2.06279,-1.30631 0.001,-0.0186 0.003,-0.0367 0.003,-0.055 2.91e-4,-0.0182 -10e-4,-0.0363 -0.003,-0.0544 -4.5e-4,-0.0171 -0.004,-0.0345 -0.007,-0.0519 -2e-5,-7e-5 -1e-5,-1.8e-4 0,-2.4e-4 -0.0941,-0.56056 -0.89742,-1.26945 -2.05597,-1.25421 -5.03e-4,-9e-5 -7.41e-4,-1.9e-4 -9.53e-4,-2.5e-4 l -9e-6,2.4e-4 z"
       style="fill:#b3b3b3;fill-opacity:1;stroke:none;stroke-width:0.04804199;stroke-linecap:round;stroke-linejoin:round;stroke-miterlimit:4;stroke-dasharray:none;stroke-dashoffset:0;stroke-opacity:1"
       inkscape:connector-curvature="0" />
    <path
       id="path11402"
       d="m 87.061828,80.564949 c -0.599015,-0.59904 -2.295806,0.1267 -3.789963,1.62088 -0.272539,0.27325 -0.755297,1.07842 -0.982606,1.37157 l 1.781268,1.78128 c 0.29291,-0.22789 1.097701,-0.71103 1.370502,-0.98369 1.494158,-1.49416 2.219807,-3.19104 1.620799,-3.79004 z m -5.285061,3.35953 c -2.93e-4,4.2e-4 -3.89e-4,6.3e-4 -5.22e-4,8.5e-4 -0.855857,0.83369 -0.900146,1.94487 -0.534904,2.38232 0.01138,0.0146 0.02375,0.028 0.03678,0.041 0.01308,0.0128 0.02642,0.0245 0.04052,0.0363 0.01258,0.0117 0.02729,0.0215 0.04146,0.032 6.3e-5,3e-5 1.45e-4,1e-4 1.62e-4,1.7e-4 0.46291,0.32985 1.532217,0.26305 2.340648,-0.56693 4.06e-4,-2.9e-4 6.58e-4,-3.9e-4 8.68e-4,-4.9e-4 l -1.71e-4,-1.8e-4 z"
       style="fill:#b3b3b3;fill-opacity:1;stroke:none;stroke-width:0.04804199;stroke-linecap:round;stroke-linejoin:round;stroke-miterlimit:4;stroke-dasharray:none;stroke-dashoffset:0;stroke-opacity:1"
       inkscape:connector-curvature="0" />
    <path
       id="path11404"
       d="m 83.959134,73.427079 c -0.733648,-0.4236 -2.184777,0.71658 -3.241317,2.54657 -0.192527,0.33446 -0.450443,1.23714 -0.594121,1.57914 l 2.181592,1.25956 c 0.223966,-0.29592 0.876274,-0.9709 1.0692,-1.30487 1.056551,-1.82998 1.318296,-3.65686 0.584646,-4.0804 z m -4.235476,4.61294 c -1.68e-4,4.7e-4 -2.2e-4,7.3e-4 -2.8e-4,9.5e-4 -0.610936,1.02679 -0.366102,2.11158 0.09991,2.43958 0.01474,0.0112 0.03038,0.021 0.04604,0.03 0.01595,0.009 0.03195,0.0169 0.0486,0.0246 0.01512,0.008 0.03192,0.0137 0.04835,0.0202 7.3e-5,2e-5 1.44e-4,9e-5 1.93e-4,1.3e-4 0.532509,0.19879 1.548099,-0.14247 2.114179,-1.15342 3.19e-4,-4e-4 5.4e-4,-5.5e-4 6.81e-4,-7e-4 l -2.08e-4,-1.2e-4 z"
       style="fill:#b3b3b3;fill-opacity:1;stroke:none;stroke-width:0.04804199;stroke-linecap:round;stroke-linejoin:round;stroke-miterlimit:4;stroke-dasharray:none;stroke-dashoffset:0;stroke-opacity:1"
       inkscape:connector-curvature="0" />
    <path
       id="path11406"
       d="m 103.40186,61.096949 c 0.21928,0.81828 -1.25762,1.92487 -3.2987,2.47176 -0.372904,0.0994 -1.311578,0.1149 -1.679118,0.16517 l -0.652,-2.43325 c 0.34381,-0.13972 1.16462,-0.59513 1.537154,-0.69505 2.041064,-0.54691 3.873424,-0.32689 4.092664,0.49137 z m -5.551968,2.89723 c -5e-4,4e-5 -7.4e-4,2e-5 -10e-4,2e-5 -1.14992,0.32437 -2.13438,-0.19288 -2.3306,-0.72791 -0.006,-0.0176 -0.0119,-0.0348 -0.0171,-0.0524 -0.005,-0.0175 -0.008,-0.0353 -0.0111,-0.0533 -0.004,-0.0167 -0.005,-0.0344 -0.007,-0.0519 0,-7e-5 -4e-5,-1.7e-4 -7e-5,-2.3e-4 -0.0542,-0.56581 0.53829,-1.45846 1.6613,-1.7436 4.5e-4,-2e-4 6.6e-4,-3.7e-4 8.5e-4,-4.9e-4 l 7e-5,2.3e-4 z"
       style="fill:#b3b3b3;fill-opacity:1;stroke:none;stroke-width:0.04804199;stroke-linecap:round;stroke-linejoin:round;stroke-miterlimit:4;stroke-dasharray:none;stroke-dashoffset:0;stroke-opacity:1"
       inkscape:connector-curvature="0" />
    <path
       id="path11408"
       d="m 109.6196,65.661609 c 2e-5,0.84715 -1.71297,1.53378 -3.82604,1.53377 -0.38592,-5e-4 -1.29663,-0.22848 -1.66466,-0.27505 l -1e-5,-2.51909 c 0.36826,-0.046 1.27897,-0.27342 1.66467,-0.27352 2.11307,-1e-5 3.82605,0.68676 3.82604,1.53389 z m -6.11265,1.36155 c -5e-4,-9e-5 -7.4e-4,-1.8e-4 -9.8e-4,-2.4e-4 -1.19469,0.0157 -2.01173,-0.73873 -2.06279,-1.30631 -0.001,-0.0186 -0.003,-0.0367 -0.003,-0.055 -2.9e-4,-0.0182 0.001,-0.0363 0.003,-0.0544 4.5e-4,-0.0171 0.004,-0.0345 0.007,-0.0519 2e-5,-7e-5 1e-5,-1.8e-4 0,-2.4e-4 0.0941,-0.56056 0.89742,-1.26945 2.05597,-1.25421 5e-4,-9e-5 7.4e-4,-1.9e-4 9.5e-4,-2.5e-4 l 1e-5,2.4e-4 z"
       style="fill:#b3b3b3;fill-opacity:1;stroke:none;stroke-width:0.04804199;stroke-linecap:round;stroke-linejoin:round;stroke-miterlimit:4;stroke-dasharray:none;stroke-dashoffset:0;stroke-opacity:1"
       inkscape:connector-curvature="0" />
    <path
       id="path11410"
       d="m 132.48569,57.978899 c -0.42356,0.73366 -2.25035,0.47181 -4.08033,-0.58473 -0.33397,-0.19341 -1.00866,-0.84619 -1.30411,-1.07053 l 1.25954,-2.1816 c 0.34191,0.14431 1.24433,0.40268 1.5784,0.59546 1.82999,1.05652 2.97007,2.50777 2.5465,3.2414 z m -5.97448,-1.87718 c -3.8e-4,-3.3e-4 -5.4e-4,-5.1e-4 -7.2e-4,-7e-4 -1.04248,-0.58375 -1.37285,-1.64562 -1.13328,-2.16269 0.009,-0.0165 0.017,-0.0327 0.0249,-0.0491 0.008,-0.0161 0.0189,-0.0309 0.0298,-0.0456 0.009,-0.0146 0.0207,-0.0279 0.032,-0.0414 5e-5,-5e-5 9e-5,-1.4e-4 1.1e-4,-2.1e-4 0.36177,-0.4384 1.41192,-0.65066 2.40763,-0.0582 4.6e-4,1.8e-4 7.3e-4,2.1e-4 9.5e-4,2.6e-4 l -1.1e-4,2e-4 z"
       style="fill:#b3b3b3;fill-opacity:1;stroke:none;stroke-width:0.04804199;stroke-linecap:round;stroke-linejoin:round;stroke-miterlimit:4;stroke-dasharray:none;stroke-dashoffset:0;stroke-opacity:1"
       inkscape:connector-curvature="0" />
    <path
       id="path11412"
       d="m 133.65461,65.603209 c -0.59902,0.59905 -2.29581,-0.12671 -3.78997,-1.62088 -0.27252,-0.27325 -0.7553,-1.07842 -0.9826,-1.37159 l 1.78126,-1.78127 c 0.29291,0.22789 1.09771,0.71102 1.37051,0.9837 1.49417,1.49416 2.21981,3.19104 1.6208,3.79004 z m -5.28507,-3.35953 c -2.9e-4,-4.3e-4 -4e-4,-6.7e-4 -5.2e-4,-8.7e-4 -0.85587,-0.83367 -0.90014,-1.94487 -0.53491,-2.38231 0.013,-0.0136 0.0241,-0.0279 0.0368,-0.041 0.0119,-0.0135 0.0263,-0.0249 0.0406,-0.0363 0.0124,-0.0117 0.0272,-0.0216 0.0416,-0.0317 5e-5,-3e-5 1.3e-4,-1.2e-4 1.6e-4,-1.7e-4 0.46291,-0.32984 1.53222,-0.26307 2.34066,0.56692 4.2e-4,2.9e-4 6.6e-4,4e-4 8.5e-4,5e-4 l -1.6e-4,1.7e-4 z"
       style="fill:#b3b3b3;fill-opacity:1;stroke:none;stroke-width:0.04804199;stroke-linecap:round;stroke-linejoin:round;stroke-miterlimit:4;stroke-dasharray:none;stroke-dashoffset:0;stroke-opacity:1"
       inkscape:connector-curvature="0" />
    <path
       id="path11414"
       d="m 158.48761,62.588069 c -0.42356,-0.73366 -2.25035,-0.47181 -4.08033,0.58473 -0.33397,0.19341 -1.00866,0.84619 -1.30411,1.07053 l 1.25954,2.1816 c 0.34191,-0.14431 1.24433,-0.40268 1.5784,-0.59546 1.82999,-1.05652 2.97007,-2.50777 2.5465,-3.2414 z m -5.97448,1.87718 c -3.8e-4,3.2e-4 -5.4e-4,5.1e-4 -7.2e-4,6.9e-4 -1.04248,0.58376 -1.37285,1.64563 -1.13328,2.1627 0.009,0.0165 0.017,0.0327 0.0249,0.0491 0.008,0.0161 0.0189,0.0309 0.0298,0.0456 0.009,0.0146 0.0207,0.0279 0.032,0.0414 5e-5,5e-5 9e-5,1.4e-4 1.1e-4,2.1e-4 0.36177,0.4384 1.41192,0.65066 2.40763,0.0582 4.6e-4,-1.8e-4 7.3e-4,-2.1e-4 9.5e-4,-2.6e-4 l -1.1e-4,-2e-4 z"
       style="fill:#b3b3b3;fill-opacity:1;stroke:none;stroke-width:0.04804199;stroke-linecap:round;stroke-linejoin:round;stroke-miterlimit:4;stroke-dasharray:none;stroke-dashoffset:0;stroke-opacity:1"
       inkscape:connector-curvature="0" />
    <path
       id="path11416"
       d="m 159.65653,54.963759 c -0.59902,-0.59905 -2.29581,0.12671 -3.78997,1.62088 -0.27252,0.27325 -0.7553,1.07842 -0.9826,1.37159 l 1.78126,1.78127 c 0.29291,-0.22789 1.09771,-0.71102 1.37051,-0.9837 1.49417,-1.49416 2.21981,-3.19104 1.6208,-3.79004 z m -5.28507,3.35953 c -2.9e-4,4.3e-4 -3.9e-4,6.7e-4 -5.3e-4,8.8e-4 -0.85587,0.83367 -0.90014,1.94487 -0.53491,2.38231 0.013,0.0136 0.0241,0.0279 0.0368,0.041 0.0119,0.0135 0.0263,0.0249 0.0406,0.0363 0.0124,0.0117 0.0272,0.0216 0.0416,0.0317 5e-5,3e-5 1.3e-4,1.2e-4 1.6e-4,1.7e-4 0.46291,0.32984 1.53222,0.26307 2.34066,-0.56692 4.3e-4,-2.9e-4 6.7e-4,-4e-4 8.5e-4,-5.1e-4 l -1.6e-4,-1.7e-4 z"
       style="fill:#b3b3b3;fill-opacity:1;stroke:none;stroke-width:0.04804199;stroke-linecap:round;stroke-linejoin:round;stroke-miterlimit:4;stroke-dasharray:none;stroke-dashoffset:0;stroke-opacity:1"
       inkscape:connector-curvature="0" />
    <path
       id="path11418"
       d="m 181.8797,65.059989 c 0.21928,0.81828 -1.25762,1.92487 -3.2987,2.47176 -0.3729,0.0994 -1.31158,0.1149 -1.67912,0.16517 l -0.652,-2.43325 c 0.34381,-0.13972 1.16462,-0.59513 1.53715,-0.69505 2.04107,-0.54691 3.87343,-0.32689 4.09267,0.49137 z m -5.55197,2.89723 c -5e-4,4e-5 -7.4e-4,2e-5 -0.001,2e-5 -1.14992,0.32437 -2.13438,-0.19288 -2.3306,-0.72791 -0.006,-0.0176 -0.0119,-0.0348 -0.0171,-0.0524 -0.005,-0.0175 -0.008,-0.0353 -0.0111,-0.0533 -0.004,-0.0167 -0.005,-0.0344 -0.007,-0.0519 0,-7e-5 -4e-5,-1.7e-4 -7e-5,-2.3e-4 -0.0542,-0.56581 0.53829,-1.45846 1.6613,-1.7436 4.5e-4,-2e-4 6.6e-4,-3.7e-4 8.5e-4,-4.9e-4 l 7e-5,2.3e-4 z"
       style="fill:#b3b3b3;fill-opacity:1;stroke:none;stroke-width:0.04804199;stroke-linecap:round;stroke-linejoin:round;stroke-miterlimit:4;stroke-dasharray:none;stroke-dashoffset:0;stroke-opacity:1"
       inkscape:connector-curvature="0" />
    <path
       id="path11420"
       d="m 185.35756,70.034099 c 2e-5,0.84715 -1.71297,1.53378 -3.82604,1.53377 -0.38592,-5e-4 -1.29663,-0.22848 -1.66466,-0.27505 l -1e-5,-2.51909 c 0.36826,-0.046 1.27897,-0.27342 1.66467,-0.27352 2.11307,-1e-5 3.82605,0.68676 3.82604,1.53389 z m -6.11265,1.36155 c -5e-4,-9e-5 -7.4e-4,-1.8e-4 -9.8e-4,-2.4e-4 -1.19469,0.0157 -2.01173,-0.73873 -2.06279,-1.30631 -0.001,-0.0186 -0.003,-0.0367 -0.003,-0.055 -2.9e-4,-0.0182 10e-4,-0.0363 0.003,-0.0544 4.5e-4,-0.0171 0.004,-0.0345 0.007,-0.0519 2e-5,-7e-5 1e-5,-1.8e-4 0,-2.4e-4 0.0941,-0.56056 0.89742,-1.26945 2.05597,-1.25421 5e-4,-9e-5 7.4e-4,-1.9e-4 9.5e-4,-2.5e-4 l 1e-5,2.4e-4 z"
       style="fill:#b3b3b3;fill-opacity:1;stroke:none;stroke-width:0.04804199;stroke-linecap:round;stroke-linejoin:round;stroke-miterlimit:4;stroke-dasharray:none;stroke-dashoffset:0;stroke-opacity:1"
       inkscape:connector-curvature="0" />
    <path
       id="path11422"
       d="m 204.0855,85.863339 c -0.73363,0.4236 -2.18477,-0.71658 -3.24132,-2.54656 -0.19252,-0.33447 -0.45042,-1.23716 -0.59412,-1.57916 l 2.18159,-1.25955 c 0.22395,0.29591 0.87629,0.97091 1.06921,1.30489 1.05655,1.82995 1.31827,3.65682 0.58464,4.08038 z m -4.23546,-4.61292 c -1.8e-4,-4.7e-4 -2.2e-4,-7.2e-4 -2.8e-4,-9.6e-4 -0.61095,-1.02678 -0.36611,-2.11156 0.0999,-2.43958 0.0148,-0.0112 0.0303,-0.021 0.0461,-0.03 0.016,-0.008 0.0318,-0.0168 0.0485,-0.0246 0.0149,-0.008 0.0318,-0.0137 0.0484,-0.0202 6e-5,-1e-5 1.5e-4,-9e-5 2.2e-4,-1.2e-4 0.5325,-0.1988 1.54806,0.14246 2.11415,1.1534 3.1e-4,4e-4 5.4e-4,5.5e-4 6.9e-4,7.1e-4 l -2.1e-4,1.2e-4 z"
       style="fill:#b3b3b3;fill-opacity:1;stroke:none;stroke-width:0.04804199;stroke-linecap:round;stroke-linejoin:round;stroke-miterlimit:4;stroke-dasharray:none;stroke-dashoffset:0;stroke-opacity:1"
       inkscape:connector-curvature="0" />
    <path
       id="path11424"
       d="m 191.57489,86.378039 c -0.81828,-0.21925 -1.03817,-2.05158 -0.49125,-4.09263 0.10036,-0.37266 0.55628,-1.19332 0.69652,-1.53676 l 2.43326,0.65197 c -0.0509,0.36763 -0.0669,1.30616 -0.16665,1.67875 -0.54688,2.04107 -1.65361,3.51793 -2.47188,3.29867 z m 0.26692,-6.25677 c 2.1e-4,-4.5e-4 3.6e-4,-6.6e-4 4.8e-4,-8.8e-4 0.29405,-1.15804 1.23423,-1.75198 1.79569,-1.6544 0.0183,0.003 0.0362,0.007 0.0538,0.0115 0.0174,0.005 0.0345,0.0106 0.0518,0.017 0.0162,0.005 0.0322,0.0129 0.0485,0.0199 5e-5,4e-5 1.6e-4,6e-5 2.1e-4,7e-5 0.51711,0.23596 0.99392,1.1954 0.67936,2.31053 -5e-5,5e-4 -1e-5,7.6e-4 -2e-5,9.8e-4 l -2.1e-4,-5e-5 z"
       style="fill:#b3b3b3;fill-opacity:1;stroke:none;stroke-width:0.04804199;stroke-linecap:round;stroke-linejoin:round;stroke-miterlimit:4;stroke-dasharray:none;stroke-dashoffset:0;stroke-opacity:1"
       inkscape:connector-curvature="0" />
    <path
       id="path11426"
       d="m 186.20793,98.312049 c -0.21926,-0.81828 1.25762,-1.92486 3.29871,-2.47176 0.37291,-0.0994 1.31156,-0.11489 1.67912,-0.16517 l 0.65199,2.43326 c -0.3438,0.13975 -1.16461,0.59514 -1.53714,0.69505 -2.04108,0.54691 -3.87343,0.32689 -4.09268,-0.49138 z m 5.55196,-2.89723 c 5e-4,-4e-5 7.5e-4,-10e-6 10e-4,-2e-5 1.14993,-0.32437 2.13438,0.19289 2.33062,0.72792 0.006,0.0178 0.0114,0.035 0.0171,0.0523 0.005,0.0172 0.008,0.0352 0.0112,0.0533 0.004,0.0167 0.005,0.0344 0.007,0.0519 0,8e-5 4e-5,1.7e-4 7e-5,2.3e-4 0.0542,0.56581 -0.53829,1.45847 -1.6613,1.74361 -4.5e-4,2e-4 -6.6e-4,3.7e-4 -8.5e-4,4.8e-4 l -7e-5,-2.1e-4 z"
       style="fill:#b3b3b3;fill-opacity:1;stroke:none;stroke-width:0.04804199;stroke-linecap:round;stroke-linejoin:round;stroke-miterlimit:4;stroke-dasharray:none;stroke-dashoffset:0;stroke-opacity:1"
       inkscape:connector-curvature="0" />
    <path
       id="path11428"
       d="m 179.99018,93.747399 c -2e-5,-0.84716 1.71298,-1.53378 3.82605,-1.53378 0.38592,5.2e-4 1.29664,0.22849 1.66466,0.27506 l 1e-5,2.51909 c -0.36827,0.046 -1.27897,0.27344 -1.66468,0.27352 -2.11306,0 -3.82605,-0.68677 -3.82604,-1.53389 z m 6.11266,-1.36155 c 5e-4,1e-4 7.4e-4,1.8e-4 9.9e-4,2.4e-4 1.19469,-0.0157 2.01173,0.73873 2.06279,1.30631 8.7e-4,0.0187 0.003,0.0368 0.003,0.055 6.9e-4,0.018 -9.5e-4,0.0363 -0.003,0.0544 -6.1e-4,0.017 -0.004,0.0345 -0.007,0.0519 -1e-5,6e-5 -2e-5,1.7e-4 0,2.3e-4 -0.0941,0.56057 -0.89743,1.26947 -2.05598,1.25423 -5e-4,1e-4 -7.6e-4,1.8e-4 -9.6e-4,2.3e-4 v -2.3e-4 z"
       style="fill:#b3b3b3;fill-opacity:1;stroke:none;stroke-width:0.04804199;stroke-linecap:round;stroke-linejoin:round;stroke-miterlimit:4;stroke-dasharray:none;stroke-dashoffset:0;stroke-opacity:1"
       inkscape:connector-curvature="0" />
    <path
       id="path11430"
       d="m 160.9035,101.72912 c 0.42356,-0.73366 2.25035,-0.47181 4.08033,0.58473 0.33397,0.19341 1.00866,0.84619 1.30411,1.07053 l -1.25954,2.1816 c -0.34191,-0.14431 -1.24433,-0.40268 -1.5784,-0.59546 -1.82999,-1.05652 -2.97007,-2.50777 -2.5465,-3.2414 z m 5.97448,1.87718 c 3.8e-4,3.2e-4 5.4e-4,5.1e-4 7.2e-4,6.9e-4 1.04248,0.58376 1.37285,1.64563 1.13328,2.1627 -0.009,0.0165 -0.017,0.0327 -0.0249,0.0491 -0.008,0.0161 -0.0189,0.0309 -0.0298,0.0456 -0.009,0.0146 -0.0207,0.0279 -0.032,0.0414 -5e-5,5e-5 -9e-5,1.4e-4 -1.1e-4,2.1e-4 -0.36177,0.4384 -1.41192,0.65066 -2.40763,0.0582 -4.6e-4,-1.8e-4 -7.3e-4,-2.1e-4 -9.5e-4,-2.6e-4 l 1.1e-4,-2e-4 z"
       style="fill:#b3b3b3;fill-opacity:1;stroke:none;stroke-width:0.04804199;stroke-linecap:round;stroke-linejoin:round;stroke-miterlimit:4;stroke-dasharray:none;stroke-dashoffset:0;stroke-opacity:1"
       inkscape:connector-curvature="0" />
    <path
       id="path11432"
       d="m 156.11403,93.126279 c 0.59902,-0.59905 2.29581,0.12671 3.78997,1.62088 0.27252,0.27325 0.7553,1.07842 0.9826,1.37159 l -1.78126,1.78127 c -0.29291,-0.22789 -1.09771,-0.71102 -1.37051,-0.9837 -1.49417,-1.49416 -2.21981,-3.19104 -1.6208,-3.79004 z m 5.28507,3.35953 c 2.9e-4,4.3e-4 4e-4,6.7e-4 5.3e-4,8.8e-4 0.85587,0.83367 0.90014,1.94487 0.53491,2.38231 -0.013,0.0136 -0.0241,0.0279 -0.0368,0.041 -0.0119,0.0135 -0.0263,0.0249 -0.0406,0.0363 -0.0124,0.0117 -0.0272,0.0216 -0.0416,0.0317 -5e-5,3e-5 -1.3e-4,1.2e-4 -1.6e-4,1.7e-4 -0.46291,0.32984 -1.53222,0.26307 -2.34066,-0.56692 -4.2e-4,-2.9e-4 -6.6e-4,-4e-4 -8.5e-4,-5e-4 l 1.6e-4,-1.8e-4 z"
       style="fill:#b3b3b3;fill-opacity:1;stroke:none;stroke-width:0.04804199;stroke-linecap:round;stroke-linejoin:round;stroke-miterlimit:4;stroke-dasharray:none;stroke-dashoffset:0;stroke-opacity:1"
       inkscape:connector-curvature="0" />
    <text
       id="text11500"
       y="156.5569"
       x="139.36252"
       style="font-style:normal;font-variant:normal;font-weight:normal;font-stretch:normal;font-size:5.64444447px;line-height:0%;font-family:'Komika Display Tight';-inkscape-font-specification:'Komika Display Tight';letter-spacing:0px;word-spacing:0px;display:inline;fill:#b3b3b3;fill-opacity:1;stroke:none;stroke-width:0.56444442px;stroke-linecap:butt;stroke-linejoin:miter;stroke-opacity:1"
       xml:space="preserve"><tspan
         id="tspan11498"
         y="156.5569"
         x="139.36252"
         sodipodi:role="line"
         style="font-size:5.64444447px;line-height:1.25;fill:#b3b3b3;stroke-width:0.56444442px">Bar</tspan></text>
    <g
       id="g32810"
       transform="matrix(0.48467673,0,0,0.48467673,-13.540899,70.021696)">
      <rect
         style="display:inline;opacity:1;fill:none;fill-opacity:1;stroke:#000000;stroke-width:1.33280611;stroke-linecap:butt;stroke-linejoin:miter;stroke-miterlimit:4;stroke-dasharray:none;stroke-dashoffset:0;stroke-opacity:1"
         id="rect11204"
         width="23.999449"
         height="34.782974"
         x="315.87909"
         y="-36.427517"
         rx="1.9626228"
         ry="1.9843223"
         transform="matrix(0.96584906,0.25910538,-0.25853299,0.96600243,0,0)" />
      <rect
         ry="1.7228224"
         rx="1.5919051"
         y="-34.135612"
         x="318.14578"
         height="30.199173"
         width="19.466221"
         id="rect11206"
         style="display:inline;opacity:1;fill:#b3b3b3;fill-opacity:1;stroke:#666666;stroke-width:1.33280611;stroke-linecap:butt;stroke-linejoin:miter;stroke-miterlimit:4;stroke-dasharray:none;stroke-dashoffset:0;stroke-opacity:1"
         transform="matrix(0.96584906,0.25910538,-0.25853299,0.96600243,0,0)" />
    </g>
  </g>
</svg>
