<?xml version="1.0" encoding="UTF-8" standalone="no"?>
<!-- Created with Inkscape (http://www.inkscape.org/) -->

<svg
   xmlns:dc="http://purl.org/dc/elements/1.1/"
   xmlns:cc="http://creativecommons.org/ns#"
   xmlns:rdf="http://www.w3.org/1999/02/22-rdf-syntax-ns#"
   xmlns:svg="http://www.w3.org/2000/svg"
   xmlns="http://www.w3.org/2000/svg"
   xmlns:sodipodi="http://sodipodi.sourceforge.net/DTD/sodipodi-0.dtd"
   xmlns:inkscape="http://www.inkscape.org/namespaces/inkscape"
   width="22mm"
   height="22mm"
   viewBox="0 0 22 22"
   version="1.1"
   id="svg16873"
   inkscape:version="0.92.5 (2060ec1f9f, 2020-04-08)"
   sodipodi:docname="song_part_chits.svg">
  <defs
     id="defs16867" />
  <sodipodi:namedview
     id="base"
     pagecolor="#ffffff"
     bordercolor="#666666"
     borderopacity="1.0"
     inkscape:pageopacity="0.0"
     inkscape:pageshadow="2"
     inkscape:zoom="4"
     inkscape:cx="7.132468"
     inkscape:cy="49.428011"
     inkscape:document-units="mm"
     inkscape:current-layer="layer9"
     showgrid="false"
     inkscape:window-width="1920"
     inkscape:window-height="1016"
     inkscape:window-x="0"
     inkscape:window-y="27"
     inkscape:window-maximized="1"
     inkscape:snap-bbox="true"
     inkscape:snap-bbox-midpoints="true" />
  <metadata
     id="metadata16870">
    <rdf:RDF>
      <cc:Work
         rdf:about="">
        <dc:format>image/svg+xml</dc:format>
        <dc:type
           rdf:resource="http://purl.org/dc/dcmitype/StillImage" />
        <dc:title />
      </cc:Work>
    </rdf:RDF>
  </metadata>
  <g
     inkscape:label="template_cut"
     inkscape:groupmode="layer"
     id="layer1"
     transform="translate(0,-275)"
     sodipodi:insensitive="true"
     style="display:none">
    <path
       d="m 4.1755529,289.66198 c 0,1.74674 1.413482,3.16247 3.157444,3.16247 H 64.167001 c 1.743964,0 3.157445,-1.41573 3.157445,-3.16247 v -82.22397 c 0,-1.74673 -1.413481,-3.16246 -3.157445,-3.16246 H 7.3329969 c -1.743962,0 -3.157444,1.41573 -3.157444,3.16246 z"
       id="path1556"
       inkscape:connector-curvature="0"
       style="display:inline;fill:none;stroke:#ec1e28;stroke-width:0.35110575" />
  </g>
  <g
     inkscape:groupmode="layer"
     id="layer13"
     inkscape:label="front_bg"
     style="display:inline">
    <rect
       transform="translate(0,-16)"
       ry="2"
       rx="2"
       y="16"
       x="0"
       height="22"
       width="22"
       id="rect33980"
       style="display:inline;fill:#0000ff;fill-opacity:1;stroke:none;stroke-width:0.60000002;stroke-miterlimit:4;stroke-dasharray:none;stroke-opacity:1" />
    <rect
       transform="translate(0,-16)"
       ry="2.0000012"
       rx="2"
       y="16.5"
       x="0.5"
       height="21"
       width="21"
       id="rect33982"
       style="display:inline;fill:#cdffff;fill-opacity:1;stroke:none;stroke-width:0.60000002;stroke-miterlimit:4;stroke-dasharray:none;stroke-opacity:1" />
    <path
       transform="translate(0,-16)"
       inkscape:connector-curvature="0"
       id="path33984"
       d="m 5.0205065,16.480954 c 0.8639892,3.22524 1.3430705,6.77409 1.3430705,10.500651 0,3.726146 -0.4787466,7.274793 -1.3425537,10.499617 H 5.640107 c 0.8521308,-3.236526 1.3234334,-6.781297 1.3234334,-10.499617 0,-3.71869 -0.4711417,-7.263865 -1.3234334,-10.500651 z"
       style="display:inline;fill:#ffffff;fill-opacity:1;stroke:none;stroke-width:0.60000002;stroke-miterlimit:4;stroke-dasharray:none;stroke-opacity:1" />
    <path
       transform="translate(0,-16)"
       inkscape:connector-curvature="0"
       id="path33986"
       d="m 8.9683645,16.480954 c 0.4907364,3.353136 0.7529258,6.871961 0.7529258,10.500651 0,3.628507 -0.2622373,7.146917 -0.7529258,10.499617 h 0.6077148 c 0.4862297,-3.355779 0.7451737,-6.873958 0.7451737,-10.499617 0,-3.626025 -0.258849,-7.144567 -0.7451737,-10.500651 z"
       style="display:inline;fill:#ffffff;fill-opacity:1;stroke:none;stroke-width:0.60000002;stroke-miterlimit:4;stroke-dasharray:none;stroke-opacity:1" />
    <path
       transform="translate(0,-16)"
       sodipodi:nodetypes="ccsccsc"
       inkscape:connector-curvature="0"
       id="path33988"
       d="m 1.4165924,16.934673 c -0.1933703,0.07678 0.1579681,-0.129823 0,0 1.0226143,2.991265 1.6071368,6.411577 1.6071368,10.046932 0,3.635355 -0.5845225,7.055235 -1.6071368,10.045898 0.1578115,0.129694 -0.1931488,-0.07676 0,0 1.0709087,-3.08503 2.2071002,-6.29996 2.2071002,-10.045898 0,-3.745696 -1.1363207,-6.961439 -2.2071002,-10.046932 z"
       style="display:inline;fill:#ffffff;fill-opacity:1;stroke:none;stroke-width:0.60000002;stroke-miterlimit:4;stroke-dasharray:none;stroke-opacity:1" />
    <path
       transform="translate(0,-16)"
       inkscape:connector-curvature="0"
       style="display:inline;fill:#ffffff;fill-opacity:1;stroke:none;stroke-width:0.60000002;stroke-miterlimit:4;stroke-dasharray:none;stroke-opacity:1"
       d="m 13.447382,16.480954 c 0.490737,3.353136 0.752926,6.871961 0.752926,10.500651 0,3.628507 -0.262237,7.146917 -0.752926,10.499617 h 0.607715 c 0.48623,-3.355779 0.745174,-6.873958 0.745174,-10.499617 0,-3.626025 -0.258849,-7.144567 -0.745174,-10.500651 z"
       id="path33990" />
    <path
       transform="translate(0,-16)"
       id="path33992"
       d="m 18.209882,16.480954 c 0.490737,3.353136 0.752926,6.871961 0.752926,10.500651 0,3.628507 -0.262237,7.146917 -0.752926,10.499617 h 0.607715 c 0.48623,-3.355779 0.745174,-6.873958 0.745174,-10.499617 0,-3.626025 -0.258849,-7.144567 -0.745174,-10.500651 z"
       style="display:inline;fill:#ffffff;fill-opacity:1;stroke:none;stroke-width:0.60000002;stroke-miterlimit:4;stroke-dasharray:none;stroke-opacity:1"
       inkscape:connector-curvature="0" />
    <path
       transform="translate(0,-16)"
       id="path33994"
       d="m 13.71465,16.480954 c 0.490737,3.353136 0.752926,6.871961 0.752926,10.500651 0,3.628507 -0.262237,7.146917 -0.752926,10.499617 h 0.607715 c 0.48623,-3.355779 0.745174,-6.873958 0.745174,-10.499617 0,-3.626025 -0.258849,-7.144567 -0.745174,-10.500651 z"
       style="display:inline;fill:#ffffff;fill-opacity:1;stroke:none;stroke-width:0.60000002;stroke-miterlimit:4;stroke-dasharray:none;stroke-opacity:1"
       inkscape:connector-curvature="0" />
    <path
       transform="translate(0,-16)"
       inkscape:connector-curvature="0"
       style="display:inline;fill:#ffffff;fill-opacity:1;stroke:none;stroke-width:0.60000002;stroke-miterlimit:4;stroke-dasharray:none;stroke-opacity:1"
       d="m 9.2194217,16.480954 c 0.4907364,3.353136 0.7529256,6.871961 0.7529256,10.500651 0,3.628507 -0.2622371,7.146917 -0.7529256,10.499617 H 9.8271365 C 10.313366,34.125443 10.57231,30.607264 10.57231,26.981605 c 0,-3.626025 -0.258849,-7.144567 -0.7451735,-10.500651 z"
       id="path33996" />
    <path
       transform="translate(0,-16)"
       inkscape:connector-curvature="0"
       style="display:inline;fill:#ffffff;fill-opacity:1;stroke:none;stroke-width:0.60000002;stroke-miterlimit:4;stroke-dasharray:none;stroke-opacity:1"
       d="m 18.744418,16.480954 c 0.490737,3.353136 0.752926,6.871961 0.752926,10.500651 0,3.628507 -0.262237,7.146917 -0.752926,10.499617 h 0.607715 c 0.48623,-3.355779 0.745174,-6.873958 0.745174,-10.499617 0,-3.626025 -0.258849,-7.144567 -0.745174,-10.500651 z"
       id="path33998" />
  </g>
  <g
     inkscape:groupmode="layer"
     id="layer2"
     inkscape:label="back_bg"
     transform="translate(0,-16)"
     style="display:inline">
    <rect
       style="fill:#0000ff;fill-opacity:1;stroke:none;stroke-width:0.60000002;stroke-miterlimit:4;stroke-dasharray:none;stroke-opacity:1"
       id="rect17428"
       width="22"
       height="22"
       x="0"
       y="16"
       rx="2"
       ry="2" />
    <rect
       style="fill:#cdffff;fill-opacity:1;stroke:none;stroke-width:0.60000002;stroke-miterlimit:4;stroke-dasharray:none;stroke-opacity:1"
       id="rect17430"
       width="21"
       height="21"
       x="0.5"
       y="16.5"
       rx="2"
       ry="2.0000012" />
    <path
       style="display:inline;fill:#ffffff;fill-opacity:1;stroke:none;stroke-width:0.60000002;stroke-miterlimit:4;stroke-dasharray:none;stroke-opacity:1"
       d="m 5.0205065,16.480954 c 0.8639892,3.22524 1.3430705,6.77409 1.3430705,10.500651 0,3.726146 -0.4787466,7.274793 -1.3425537,10.499617 H 5.640107 c 0.8521308,-3.236526 1.3234334,-6.781297 1.3234334,-10.499617 0,-3.71869 -0.4711417,-7.263865 -1.3234334,-10.500651 z"
       id="path27359"
       inkscape:connector-curvature="0" />
    <path
       style="display:inline;fill:#ffffff;fill-opacity:1;stroke:none;stroke-width:0.60000002;stroke-miterlimit:4;stroke-dasharray:none;stroke-opacity:1"
       d="m 8.9683645,16.480954 c 0.4907364,3.353136 0.7529258,6.871961 0.7529258,10.500651 0,3.628507 -0.2622373,7.146917 -0.7529258,10.499617 h 0.6077148 c 0.4862297,-3.355779 0.7451737,-6.873958 0.7451737,-10.499617 0,-3.626025 -0.258849,-7.144567 -0.7451737,-10.500651 z"
       id="path27357"
       inkscape:connector-curvature="0" />
    <path
       style="display:inline;fill:#ffffff;fill-opacity:1;stroke:none;stroke-width:0.60000002;stroke-miterlimit:4;stroke-dasharray:none;stroke-opacity:1"
       d="m 1.4165924,16.934673 c -0.1933703,0.07678 0.1579681,-0.129823 0,0 1.0226143,2.991265 1.6071368,6.411577 1.6071368,10.046932 0,3.635355 -0.5845225,7.055235 -1.6071368,10.045898 0.1578115,0.129694 -0.1931488,-0.07676 0,0 1.0709087,-3.08503 2.2071002,-6.29996 2.2071002,-10.045898 0,-3.745696 -1.1363207,-6.961439 -2.2071002,-10.046932 z"
       id="rect17430-3"
       inkscape:connector-curvature="0"
       sodipodi:nodetypes="ccsccsc" />
    <path
       id="path27361"
       d="m 13.447382,16.480954 c 0.490737,3.353136 0.752926,6.871961 0.752926,10.500651 0,3.628507 -0.262237,7.146917 -0.752926,10.499617 h 0.607715 c 0.48623,-3.355779 0.745174,-6.873958 0.745174,-10.499617 0,-3.626025 -0.258849,-7.144567 -0.745174,-10.500651 z"
       style="display:inline;fill:#ffffff;fill-opacity:1;stroke:none;stroke-width:0.60000002;stroke-miterlimit:4;stroke-dasharray:none;stroke-opacity:1"
       inkscape:connector-curvature="0" />
    <path
       inkscape:connector-curvature="0"
       style="display:inline;fill:#ffffff;fill-opacity:1;stroke:none;stroke-width:0.60000002;stroke-miterlimit:4;stroke-dasharray:none;stroke-opacity:1"
       d="m 18.209882,16.480954 c 0.490737,3.353136 0.752926,6.871961 0.752926,10.500651 0,3.628507 -0.262237,7.146917 -0.752926,10.499617 h 0.607715 c 0.48623,-3.355779 0.745174,-6.873958 0.745174,-10.499617 0,-3.626025 -0.258849,-7.144567 -0.745174,-10.500651 z"
       id="path27363" />
    <path
       inkscape:connector-curvature="0"
       style="display:inline;fill:#ffffff;fill-opacity:1;stroke:none;stroke-width:0.60000002;stroke-miterlimit:4;stroke-dasharray:none;stroke-opacity:1"
       d="m 13.71465,16.480954 c 0.490737,3.353136 0.752926,6.871961 0.752926,10.500651 0,3.628507 -0.262237,7.146917 -0.752926,10.499617 h 0.607715 c 0.48623,-3.355779 0.745174,-6.873958 0.745174,-10.499617 0,-3.626025 -0.258849,-7.144567 -0.745174,-10.500651 z"
       id="path27365" />
    <path
       id="path27367"
       d="m 9.2194217,16.480954 c 0.4907364,3.353136 0.7529256,6.871961 0.7529256,10.500651 0,3.628507 -0.2622371,7.146917 -0.7529256,10.499617 H 9.8271365 C 10.313366,34.125443 10.57231,30.607264 10.57231,26.981605 c 0,-3.626025 -0.258849,-7.144567 -0.7451735,-10.500651 z"
       style="display:inline;fill:#ffffff;fill-opacity:1;stroke:none;stroke-width:0.60000002;stroke-miterlimit:4;stroke-dasharray:none;stroke-opacity:1"
       inkscape:connector-curvature="0" />
    <path
       id="path27369"
       d="m 18.744418,16.480954 c 0.490737,3.353136 0.752926,6.871961 0.752926,10.500651 0,3.628507 -0.262237,7.146917 -0.752926,10.499617 h 0.607715 c 0.48623,-3.355779 0.745174,-6.873958 0.745174,-10.499617 0,-3.626025 -0.258849,-7.144567 -0.745174,-10.500651 z"
       style="display:inline;fill:#ffffff;fill-opacity:1;stroke:none;stroke-width:0.60000002;stroke-miterlimit:4;stroke-dasharray:none;stroke-opacity:1"
       inkscape:connector-curvature="0" />
  </g>
  <g
     inkscape:groupmode="layer"
     id="layer3"
     inkscape:label="chitblank1"
     style="display:none"
     transform="translate(0,-16)" />
  <g
     inkscape:groupmode="layer"
     id="layer12"
     inkscape:label="back_chitblank"
     sodipodi:insensitive="true"
     style="display:none" />
  <g
     inkscape:groupmode="layer"
     id="layer4"
     inkscape:label="chitbeats1"
     transform="translate(0,-16)"
     style="display:none">
    <g
       id="g1383-8-4-5"
       style="display:inline"
       transform="matrix(0.21370746,0,0,0.21370746,-184.39343,-77.63708)">
      <path
         style="display:inline;opacity:1;fill:#ffffff;fill-opacity:1;stroke:#000000;stroke-width:1;stroke-linecap:round;stroke-linejoin:round;stroke-miterlimit:4;stroke-dasharray:none;stroke-dashoffset:0;stroke-opacity:1"
         d="m 865.48918,469.32033 v 40.61462 h 30.36621 c 11.25876,4.5e-4 20.38624,-9.09095 20.38697,-20.30639 2.9e-4,-11.21616 -9.12749,-20.30868 -20.38697,-20.30823 z"
         id="path1373-61-7-9"
         inkscape:connector-curvature="0"
         sodipodi:nodetypes="cccccc" />
      <g
         id="g1381-15-5-8"
         transform="translate(107.41797,16.848343)">
        <g
           transform="translate(508.99946,-32.576563)"
           id="g1379-9-4-7"
           style="display:inline">
          <path
             style="display:inline;fill:none;fill-rule:evenodd;stroke:#000000;stroke-width:1px;stroke-linecap:butt;stroke-linejoin:miter;stroke-opacity:1"
             d="m 259.47265,501.34641 h 29.95139"
             id="path1375-8-8-2"
             inkscape:connector-curvature="0" />
          <path
             inkscape:connector-curvature="0"
             id="path1377-48-1-8"
             d="m 259.47265,509.36531 h 29.95139"
             style="display:inline;fill:none;fill-rule:evenodd;stroke:#000000;stroke-width:1px;stroke-linecap:butt;stroke-linejoin:miter;stroke-opacity:1" />
        </g>
      </g>
    </g>
  </g>
  <g
     inkscape:groupmode="layer"
     id="layer5"
     inkscape:label="back_chitbeats"
     style="display:none">
    <g
       id="g23519"
       transform="translate(-12.202068,-36.567268)">
      <g
         transform="matrix(0.21370746,0,0,0.21370746,-172.14366,-56.98189)"
         style="display:inline"
         id="g1383-8-4-5-9">
        <path
           sodipodi:nodetypes="cccccc"
           inkscape:connector-curvature="0"
           id="path1373-61-7-9-6"
           d="m 865.48918,469.32033 v 40.61462 h 30.36621 c 11.25876,4.5e-4 20.38624,-9.09095 20.38697,-20.30639 2.9e-4,-11.21616 -9.12749,-20.30868 -20.38697,-20.30823 z"
           style="display:inline;opacity:1;fill:#ffffff;fill-opacity:1;stroke:#000000;stroke-width:1;stroke-linecap:round;stroke-linejoin:round;stroke-miterlimit:4;stroke-dasharray:none;stroke-dashoffset:0;stroke-opacity:1" />
        <g
           transform="translate(107.41797,16.848343)"
           id="g1381-15-5-8-0">
          <g
             style="display:inline"
             id="g1379-9-4-7-6"
             transform="translate(508.99946,-32.576563)">
            <path
               inkscape:connector-curvature="0"
               id="path1375-8-8-2-2"
               d="m 259.47265,501.34641 h 29.95139"
               style="display:inline;fill:none;fill-rule:evenodd;stroke:#000000;stroke-width:1px;stroke-linecap:butt;stroke-linejoin:miter;stroke-opacity:1" />
            <path
               style="display:inline;fill:none;fill-rule:evenodd;stroke:#000000;stroke-width:1px;stroke-linecap:butt;stroke-linejoin:miter;stroke-opacity:1"
               d="m 259.47265,509.36531 h 29.95139"
               id="path1377-48-1-8-6"
               inkscape:connector-curvature="0" />
          </g>
        </g>
      </g>
      <path
         inkscape:connector-curvature="0"
         id="path2926-0"
         d="m 18.78514,44.76102 -0.0496,0.15555 c -0.08,-0.009 -0.14819,-0.0165 -0.20464,-0.0212 -0.0517,-0.005 -0.0917,-0.007 -0.11989,-0.007 h -0.22583 c -0.47978,0 -0.86793,0.12737 -1.16427,0.38137 -0.31514,0.26812 -0.47284,0.63706 -0.47284,1.10743 0,0.46097 0.17185,0.82082 0.51522,1.07952 0.17247,0.1262 0.44842,0.25452 0.81649,0.38447 l 0.79995,-0.95601 0.091,-0.13539 c -0.0314,-0.0114 -0.0586,-0.0227 -0.0915,-0.0341 -0.33396,-0.11288 -0.50126,-0.21598 -0.50126,-0.31006 0,-0.15051 0.11322,-0.22582 0.339,-0.22582 0.127,0 0.31501,0.0425 0.5643,0.12712 0.22108,0.0753 0.40202,0.15259 0.54312,0.23254 l 0.43047,-1.53117 z"
         style="font-style:normal;font-variant:normal;font-weight:normal;font-stretch:normal;font-size:7.05555534px;line-height:1.25;font-family:Nougat;-inkscape-font-specification:Nougat;letter-spacing:0px;word-spacing:0px;fill:#000000;fill-opacity:1;stroke:none;stroke-width:0.26458332" />
      <path
         inkscape:connector-curvature="0"
         id="path2915-2"
         d="m 18.67972,47.4141 -0.67541,1.17047 c 0.26513,0.0999 0.40566,0.19932 0.40566,0.29921 0,0.15052 -0.10614,0.22582 -0.31781,0.22582 -0.18344,0 -0.40177,-0.049 -0.65577,-0.14779 L 16.808,48.68637 16.42715,50.08319 c 0.56445,0.31044 1.12646,0.46612 1.6862,0.46612 0.53622,0 0.97846,-0.139 1.32654,-0.41651 0.3763,-0.30574 0.5643,-0.71968 0.5643,-1.24179 0,-0.45626 -0.16931,-0.81611 -0.50798,-1.07952 -0.16707,-0.12851 -0.44265,-0.26108 -0.81649,-0.39739 z"
         style="font-style:normal;font-variant:normal;font-weight:normal;font-stretch:normal;font-size:7.05555534px;line-height:1.25;font-family:Nougat;-inkscape-font-specification:Nougat;letter-spacing:0px;word-spacing:0px;fill:#000000;fill-opacity:1;stroke:none;stroke-width:0.26458332" />
    </g>
  </g>
  <g
     inkscape:groupmode="layer"
     id="layer6"
     inkscape:label="chitmelody1"
     style="display:none">
    <g
       transform="matrix(0.21370746,0,0,0.21370746,-83.592052,-69.666091)"
       id="g1411-4-10"
       style="display:inline">
      <path
         style="display:inline;opacity:1;fill:#ffffff;fill-opacity:1;stroke:#000000;stroke-width:1;stroke-linecap:round;stroke-linejoin:round;stroke-miterlimit:4;stroke-dasharray:none;stroke-dashoffset:0;stroke-opacity:1"
         d="m 394.03317,357.56447 v 40.61463 h 30.36621 c 11.25876,4.5e-4 20.38624,-9.09095 20.38697,-20.30639 2.9e-4,-11.21617 -9.12749,-20.30869 -20.38697,-20.30824 z"
         id="path1407-8-4"
         inkscape:connector-curvature="0"
         sodipodi:nodetypes="cccccc" />
      <path
         inkscape:connector-curvature="0"
         id="path1409-8-0"
         d="m 409.46686,367.92165 19.8858,19.90028 v -9.33597"
         style="display:inline;fill:none;fill-rule:evenodd;stroke:#000000;stroke-width:1px;stroke-linecap:butt;stroke-linejoin:miter;stroke-opacity:1" />
    </g>
  </g>
  <g
     inkscape:groupmode="layer"
     id="layer10"
     inkscape:label="chitmelody2"
     style="display:none">
    <g
       transform="matrix(0.21370746,0,0,0.21370746,-129.86765,-78.853993)"
       id="g1403-3-9"
       style="display:inline">
      <path
         sodipodi:nodetypes="cccccc"
         inkscape:connector-curvature="0"
         id="path1399-3-8"
         d="m 610.34707,400.14594 v 40.61462 h 30.3662 c 11.2587,4.5e-4 20.3862,-9.09095 20.3869,-20.30639 3e-4,-11.21616 -9.1275,-20.30868 -20.3869,-20.30823 z"
         style="display:inline;opacity:1;fill:#ffffff;fill-opacity:1;stroke:#000000;stroke-width:1;stroke-linecap:round;stroke-linejoin:round;stroke-miterlimit:4;stroke-dasharray:none;stroke-dashoffset:0;stroke-opacity:1" />
      <path
         style="display:inline;fill:none;fill-rule:evenodd;stroke:#000000;stroke-width:1px;stroke-linecap:butt;stroke-linejoin:miter;stroke-opacity:1"
         d="m 625.35437,430.47666 19.8857,-19.90025 h -9.3291"
         id="path1401-8-1"
         inkscape:connector-curvature="0" />
    </g>
  </g>
  <g
     inkscape:groupmode="layer"
     id="layer7"
     inkscape:label="back_chitmelody1"
     style="display:none">
    <g
       id="g33234"
       transform="matrix(0.79176946,0,0,0.78782638,-18.395703,32.914593)">
      <path
         sodipodi:nodetypes="cccccc"
         inkscape:connector-curvature="0"
         id="path30267"
         d="m 23.387725,-33.547708 v 11.462348 l 8.570019,8e-6 c 3.177471,1.3e-4 5.753452,-2.565675 5.753661,-5.730912 8.5e-5,-3.165453 -2.575978,-5.731566 -5.753658,-5.731431 z"
         style="display:inline;opacity:1;fill:#ffffff;fill-opacity:1;stroke:#000000;stroke-width:0.28222224;stroke-linecap:round;stroke-linejoin:round;stroke-miterlimit:4;stroke-dasharray:none;stroke-dashoffset:0;stroke-opacity:1" />
      <ellipse
         style="display:inline;opacity:1;fill:#ffffff;fill-opacity:1;stroke:#000000;stroke-width:0.28222224;stroke-linecap:round;stroke-linejoin:round;stroke-miterlimit:4;stroke-dasharray:none;stroke-dashoffset:0;stroke-opacity:1"
         id="ellipse30269"
         cx="-34.160141"
         cy="-44.314678"
         rx="5.7534266"
         ry="5.7312884"
         transform="rotate(90)" />
      <path
         inkscape:connector-curvature="0"
         id="path30271"
         d="m 27.21555,-30.887968 5.612213,5.616292 8e-6,-2.634818"
         style="display:inline;fill:none;fill-rule:evenodd;stroke:#000000;stroke-width:0.28222224px;stroke-linecap:butt;stroke-linejoin:miter;stroke-opacity:1" />
      <g
         style="display:inline"
         id="g30277"
         transform="matrix(0.56603559,0,0,0.56603559,-163.46009,-324.61865)">
        <rect
           ry="0.66283178"
           rx="0.65823174"
           y="505.37955"
           x="361.28625"
           height="15.531532"
           width="11.567808"
           id="rect30273"
           style="opacity:1;fill:#ffffff;fill-opacity:1;stroke:#000000;stroke-width:1;stroke-linecap:butt;stroke-linejoin:miter;stroke-miterlimit:4;stroke-dasharray:none;stroke-dashoffset:0;stroke-opacity:1" />
        <circle
           r="2.6924605"
           cy="515.76678"
           cx="367.07016"
           id="circle30275"
           style="opacity:1;fill:#ffffff;fill-opacity:1;stroke:#000000;stroke-width:1;stroke-linecap:butt;stroke-linejoin:miter;stroke-miterlimit:4;stroke-dasharray:none;stroke-dashoffset:0;stroke-opacity:1" />
      </g>
    </g>
  </g>
  <g
     inkscape:groupmode="layer"
     id="layer11"
     inkscape:label="back_chitmelody2"
     style="display:none">
    <g
       id="g33189"
       transform="matrix(0.79176946,0,0,0.78782638,-18.395703,25.544926)">
      <path
         style="display:inline;opacity:1;fill:#ffffff;fill-opacity:1;stroke:#000000;stroke-width:0.28222224;stroke-linecap:round;stroke-linejoin:round;stroke-miterlimit:4;stroke-dasharray:none;stroke-dashoffset:0;stroke-opacity:1"
         d="m 23.387724,-24.193272 v 11.462348 l 8.57002,5e-6 c 3.177471,1.3e-4 5.753452,-2.565675 5.753661,-5.730909 8.5e-5,-3.165454 -2.575978,-5.731565 -5.753659,-5.731431 z"
         id="path13301-3-2-0"
         inkscape:connector-curvature="0"
         sodipodi:nodetypes="cccccc" />
      <ellipse
         transform="rotate(90)"
         ry="5.7312884"
         rx="5.7534266"
         cy="-44.314678"
         cx="-13.164042"
         id="path4855-8-8-5-2-2-4-6-8"
         style="display:inline;opacity:1;fill:#ffffff;fill-opacity:1;stroke:#000000;stroke-width:0.28222224;stroke-linecap:round;stroke-linejoin:round;stroke-miterlimit:4;stroke-dasharray:none;stroke-dashoffset:0;stroke-opacity:1" />
      <path
         style="display:inline;fill:none;fill-rule:evenodd;stroke:#000000;stroke-width:0.28222224px;stroke-linecap:butt;stroke-linejoin:miter;stroke-opacity:1"
         d="m 27.672405,-15.646069 5.616296,-5.612214 -2.634819,-6e-6"
         id="path7579-5-5-9"
         inkscape:connector-curvature="0" />
      <g
         transform="matrix(0.56603559,0,0,0.56603559,-163.46009,-303.62255)"
         id="g7886-6-1-0-3"
         style="display:inline">
        <rect
           style="opacity:1;fill:#ffffff;fill-opacity:1;stroke:#000000;stroke-width:1;stroke-linecap:butt;stroke-linejoin:miter;stroke-miterlimit:4;stroke-dasharray:none;stroke-dashoffset:0;stroke-opacity:1"
           id="rect9330-6-7-8-1"
           width="11.567808"
           height="15.531532"
           x="361.28625"
           y="505.37955"
           rx="0.65823174"
           ry="0.66283178" />
        <circle
           style="opacity:1;fill:#ffffff;fill-opacity:1;stroke:#000000;stroke-width:1;stroke-linecap:butt;stroke-linejoin:miter;stroke-miterlimit:4;stroke-dasharray:none;stroke-dashoffset:0;stroke-opacity:1"
           id="path9332-0-5-5-4"
           cx="367.07016"
           cy="515.76678"
           r="2.6924605" />
      </g>
    </g>
  </g>
  <g
     inkscape:groupmode="layer"
     id="layer8"
     inkscape:label="chitfront1"
     style="display:none">
    <g
       transform="matrix(0.21370746,0,0,0.21370746,-180.7798,-35.450175)"
       style="display:inline"
       id="g11460-2-3-9-5-6">
      <g
         transform="translate(109.88279,-8.437029)"
         id="g11331-6-1-9-0-4">
        <ellipse
           style="display:inline;opacity:1;fill:#ffffff;fill-opacity:1;stroke:#000000;stroke-width:1;stroke-linecap:round;stroke-linejoin:round;stroke-miterlimit:4;stroke-dasharray:none;stroke-dashoffset:0;stroke-opacity:1"
           id="path4855-8-8-5-2-2-4-8-0-0-5-0"
           cx="787.75714"
           cy="200.73288"
           rx="20.386156"
           ry="20.307714" />
        <path
           style="display:inline;opacity:1;fill:#000000;fill-opacity:1;stroke:none;stroke-width:1;stroke-linecap:round;stroke-linejoin:round;stroke-miterlimit:4;stroke-dasharray:none;stroke-dashoffset:0;stroke-opacity:1"
           d="m 785.06699,188.19263 0.002,-9e-5 0.11154,13.43043 1.90191,0.22987 -1.88066,0.19679 -6.06061,13.35677 h 2.03521 l 6.55812,-9.82891 6.7902,9.82891 h 1.84845 l -7.23318,-13.67204 1.48316,-2.2466 c 0.67072,0.91721 0.63042,1.72642 0.6185,2.59417 0,0.57452 0.44042,1.04026 0.98371,1.04026 0.54328,0 0.9837,-0.46574 0.9837,-1.04026 -0.89655,-1.18008 -1.20451,-2.37785 -1.66675,-3.98633 l 0.25582,-0.38751 -2.36124,-1.75003 c 0.30006,-0.37432 0.46799,-0.87377 0.46868,-1.39371 -3e-5,-1.11155 -0.74925,-2.01262 -1.67348,-2.0126 -0.3547,5e-4 -0.68202,0.20052 -0.95005,0.50097 -0.13396,0.15021 -0.25323,0.32556 -0.35364,0.51367 -0.10052,0.18808 0.40963,2.45172 0.35078,2.65293 l -0.73558,-2.37659 -0.51014,-0.40711 -0.10219,-5.61279 c 0.26996,-0.26961 0.42426,-0.65275 0.42482,-1.05487 -0.77114,-2.07612 -2.30056,1.03183 -1.28906,1.42467 z"
           id="path9360-3-6-0-2-7-9-6-8-9-0"
           inkscape:connector-curvature="0"
           sodipodi:nodetypes="ccccccccccccccccccccsscccccc" />
      </g>
    </g>
  </g>
  <g
     inkscape:groupmode="layer"
     id="layer9"
     inkscape:label="back_chitfront"
     style="display:none">
    <g
       id="g33144"
       transform="translate(-21.952292,0.08792805)">
      <path
         style="display:inline;opacity:1;fill:#ffffff;fill-opacity:1;stroke:#000000;stroke-width:0.22305517;stroke-linecap:round;stroke-linejoin:round;stroke-miterlimit:4;stroke-dasharray:none;stroke-dashoffset:0;stroke-opacity:1"
         d="m 28.47907,21.879506 h 9.04185 l 3e-6,-6.786409 c 1.02e-4,-2.51617 -2.023882,-4.556033 -4.52072,-4.556194 -2.497004,-6.7e-5 -4.521233,2.039859 -4.521131,4.55619 z"
         id="path13301-3"
         inkscape:connector-curvature="0"
         sodipodi:nodetypes="cccccc" />
      <g
         id="text9353-8"
         style="font-style:normal;font-variant:normal;font-weight:normal;font-stretch:normal;font-size:12.80000019px;line-height:0%;font-family:Coolvetica;-inkscape-font-specification:Coolvetica;letter-spacing:0px;word-spacing:0px;display:inline;fill:#000000;fill-opacity:1;stroke:none;stroke-width:1.0666666px;stroke-linecap:butt;stroke-linejoin:miter;stroke-opacity:1"
         transform="matrix(0.22374671,0,0,0.53121414,-67.286375,-42.044069)"
         aria-label="~">
        <path
           inkscape:connector-curvature="0"
           id="path29848"
           style="font-size:36.61772919px;line-height:1.25;stroke-width:1.0666666px"
           d="m 457.36826,106.25329 c -1.50133,2.01397 -3.14913,2.74633 -5.19972,2.74633 -2.41677,0 -4.7603,-2.08721 -8.27561,-2.08721 -2.23368,0 -3.77162,1.20838 -4.83354,2.45339 v 3.69839 c 1.46471,-1.86751 2.96604,-2.78295 4.98002,-2.78295 2.56324,0 4.98001,2.12383 7.90943,2.12383 2.23368,0 3.88147,-0.76898 5.41942,-2.45339 z" />
      </g>
      <g
         transform="matrix(0.2226256,0,0,0.22348555,-142.36987,-39.552988)"
         id="g11331">
        <ellipse
           style="display:inline;opacity:1;fill:#ffffff;fill-opacity:1;stroke:#000000;stroke-width:1;stroke-linecap:round;stroke-linejoin:round;stroke-miterlimit:4;stroke-dasharray:none;stroke-dashoffset:0;stroke-opacity:1"
           id="path4855-8-8-5-2-2-4"
           cx="787.75714"
           cy="200.73288"
           rx="20.386156"
           ry="20.307714" />
        <path
           style="display:inline;opacity:1;fill:#000000;fill-opacity:1;stroke:none;stroke-width:1;stroke-linecap:round;stroke-linejoin:round;stroke-miterlimit:4;stroke-dasharray:none;stroke-dashoffset:0;stroke-opacity:1"
           d="m 785.06699,188.19263 0.002,-9e-5 0.11154,13.43043 1.90191,0.22987 -1.88066,0.19679 -6.06061,13.35677 h 2.03521 l 6.55812,-9.82891 6.7902,9.82891 h 1.84845 l -7.23318,-13.67204 1.48316,-2.2466 c 0.67072,0.91721 0.63042,1.72642 0.6185,2.59417 0,0.57452 0.44042,1.04026 0.98371,1.04026 0.54328,0 0.9837,-0.46574 0.9837,-1.04026 -0.89655,-1.18008 -1.20451,-2.37785 -1.66675,-3.98633 l 0.25582,-0.38751 -2.36124,-1.75003 c 0.30006,-0.37432 0.46799,-0.87377 0.46868,-1.39371 -3e-5,-1.11155 -0.74925,-2.01262 -1.67348,-2.0126 -0.3547,5e-4 -0.68202,0.20052 -0.95005,0.50097 -0.13396,0.15021 -0.25323,0.32556 -0.35364,0.51367 -0.10052,0.18808 0.40963,2.45172 0.35078,2.65293 l -0.73558,-2.37659 -0.51014,-0.40711 -0.10219,-5.61279 c 0.26996,-0.26961 0.42426,-0.65275 0.42482,-1.05487 -0.77114,-2.07612 -2.30056,1.03183 -1.28906,1.42467 z"
           id="path9360-3-6-0-2-7"
           inkscape:connector-curvature="0"
           sodipodi:nodetypes="ccccccccccccccccccccsscccccc" />
      </g>
    </g>
  </g>
</svg>
