<?xml version="1.0" encoding="UTF-8" standalone="no"?>
<!-- Created with Inkscape (http://www.inkscape.org/) -->

<svg
   xmlns:dc="http://purl.org/dc/elements/1.1/"
   xmlns:cc="http://creativecommons.org/ns#"
   xmlns:rdf="http://www.w3.org/1999/02/22-rdf-syntax-ns#"
   xmlns:svg="http://www.w3.org/2000/svg"
   xmlns="http://www.w3.org/2000/svg"
   xmlns:sodipodi="http://sodipodi.sourceforge.net/DTD/sodipodi-0.dtd"
   xmlns:inkscape="http://www.inkscape.org/namespaces/inkscape"
   width="210mm"
   height="297mm"
   viewBox="0 0 744.09448819 1052.3622047"
   id="svg2"
   version="1.1"
   inkscape:version="0.91 r13725"
   sodipodi:docname="pain_scratch_wound.svg">
  <defs
     id="defs4" />
  <sodipodi:namedview
     id="base"
     pagecolor="#ffffff"
     bordercolor="#666666"
     borderopacity="1.0"
     inkscape:pageopacity="0.0"
     inkscape:pageshadow="2"
     inkscape:zoom="0.9271459"
     inkscape:cx="267.46838"
     inkscape:cy="1018.3918"
     inkscape:document-units="px"
     inkscape:current-layer="layer1"
     showgrid="false"
     inkscape:snap-bbox="true"
     inkscape:bbox-nodes="false"
     inkscape:object-nodes="true"
     showguides="true"
     inkscape:guide-bbox="true"
     inkscape:snap-smooth-nodes="true"
     inkscape:snap-bbox-midpoints="true"
     inkscape:window-width="1600"
     inkscape:window-height="876"
     inkscape:window-x="0"
     inkscape:window-y="24"
     inkscape:window-maximized="1" />
  <metadata
     id="metadata7">
    <rdf:RDF>
      <cc:Work
         rdf:about="">
        <dc:format>image/svg+xml</dc:format>
        <dc:type
           rdf:resource="http://purl.org/dc/dcmitype/StillImage" />
        <dc:title />
      </cc:Work>
    </rdf:RDF>
  </metadata>
  <g
     inkscape:label="Layer 1"
     inkscape:groupmode="layer"
     id="layer1">
    <path
       style="opacity:1;fill:#800000;fill-opacity:1;stroke:none;stroke-width:0.177;stroke-linecap:round;stroke-linejoin:miter;stroke-miterlimit:4;stroke-dasharray:none;stroke-opacity:1"
       d="m 166.6555,86.988598 c -0.66479,0 -1.19998,0.53521 -1.19998,1.200025 l 0,61.379367 c 0,0.66481 0.53519,1.20002 1.19998,1.20002 l 61.37957,0 c 0.66479,0 1.19998,-0.5352 1.19998,-1.20002 l 0,-54.076101 c 0,0 -4.694,-2.936472 -8.43738,-0.0048 -2.83472,2.220248 -1.83919,7.792491 -3.45932,9.412691 -1.66047,1.66052 -4.35351,1.66052 -6.01397,0 -1.66048,-1.66052 -1.66048,-4.35365 0,-6.014187 1.62039,-1.620464 6.78894,-1.054089 9.41002,-3.464134 3.57894,-3.290825 -0.002,-8.432982 -0.002,-8.432981 l -54.07655,0 z"
       id="rect8018-70"
       inkscape:connector-curvature="0" />
    <path
       style="opacity:1;fill:#800080;fill-opacity:1;stroke:none;stroke-width:0.177;stroke-linecap:round;stroke-linejoin:miter;stroke-miterlimit:4;stroke-dasharray:none;stroke-opacity:1"
       d="m 93.101815,86.98848 c -0.664789,0 -1.199982,0.535212 -1.199982,1.200027 l 0,61.379473 c 0,0.66482 0.535192,1.20003 1.199982,1.20003 l 61.379555,0 c 0.66479,0 1.19999,-0.53521 1.19999,-1.20003 l 0,-54.076189 -2.23122,-0.876583 -5.70928,3.157101 -3.96089,-2.52662 -3.1523,4.186029 2.0906,-6.548581 4.55384,0.353912 0.86718,-3.803984 -0.96092,-2.444585 -54.076555,0 z"
       id="rect8018-7-9"
       inkscape:connector-curvature="0" />
    <path
       style="opacity:1;fill:#cccccc;fill-opacity:1;stroke:none;stroke-width:0.177;stroke-linecap:round;stroke-linejoin:miter;stroke-miterlimit:4;stroke-dasharray:none;stroke-opacity:1"
       d="m 19.548135,86.988483 c -0.66479,0 -1.199982,0.535212 -1.199982,1.200027 l 0,61.37947 c 0,0.66482 0.535192,1.20003 1.199982,1.20003 l 61.379563,0 c 0.66479,0 1.199983,-0.53521 1.199983,-1.20003 l 0,-54.076186 -2.49137,-0.979714 a 4.2519057,4.2520621 0 0 1 -4.160095,3.379767 4.2519057,4.2520621 0 0 1 -4.251499,-4.251658 4.2519057,4.2520621 0 0 1 3.381981,-4.157895 l -0.982016,-2.493811 -54.076547,0 z"
       id="rect8018-5-3"
       inkscape:connector-curvature="0" />
    <path
       style="opacity:1;fill:#ff00ff;fill-opacity:1;stroke:none;stroke-width:0.177;stroke-linecap:round;stroke-linejoin:miter;stroke-miterlimit:4;stroke-dasharray:none;stroke-opacity:1"
       d="m 19.387423,45.81604 c 5e-6,2.07826 0.463549,3.75194 1.03908,3.75194 l 61.701178,0 c 0.575517,1e-5 1.039054,-1.67368 1.039061,-3.75195 l -1.9e-5,-251.42382 c -1e-6,-2.07826 -0.463544,-3.75195 -1.039063,-3.75195 l -61.701173,0 c -0.575519,-1e-5 -1.039061,1.67368 -1.039061,3.75195 l -3e-6,251.42383 z m 20.87305,-106.564455 1e-6,-1.806638 8.974608,-2e-6 -4.716797,-5.361328 -10e-7,-2.294921 5.117188,5.800781 5.820312,-6.044922 10e-7,2.343751 -5.341797,5.55664 5.341797,10e-7 0,1.806638 -15.195312,0 z m 0,-34.101561 0,-1.69922 1.49414,10e-7 0,1.71875 c 10e-7,0.64453 0.130209,1.09375 0.390629,1.347655 0.260411,0.247401 0.729168,0.371091 1.406247,0.371108 l 0.966795,10e-7 0,-2.958985 1.396485,0 10e-7,2.958985 9.541015,-10e-7 -10e-7,1.806641 -9.541015,10e-7 10e-7,1.718749 -1.396485,10e-7 1e-6,-1.718751 -0.761718,0 c -1.21745,10e-7 -2.102865,-0.283204 -2.656252,-0.849609 -0.559898,-0.566404 -0.839841,-1.464845 -0.839843,-2.695312 z m 0,-47.929684 0,-1.79688 15.195312,0 0,1.79688 -1.640623,0 c 0.651042,0.3776 1.136066,0.85612 1.455076,1.43555 0.312496,0.57292 0.468749,1.26302 0.468748,2.07031 0,1.32162 -0.527343,2.39909 -1.582031,3.23242 -1.054688,0.82682 -2.441407,1.24023 -4.160156,1.24023 -1.718751,0 -3.10547,-0.41341 -4.160157,-1.24023 -1.054688,-0.83333 -1.582031,-1.91081 -1.58203,-3.23242 -2e-6,-0.80729 0.159504,-1.49739 0.478514,-2.07031 0.312501,-0.57943 0.794272,-1.05794 1.445309,-1.43555 l -5.917969,0 z m 0.615228,120.595708 4e-6,-4.052736 c -2e-6,-2.825516 0.589193,-4.899087 1.76758,-6.220718 1.171872,-1.321607 3.007811,-1.982419 5.507812,-1.98242 2.513019,7e-6 4.358721,0.664067 5.537109,1.99219 1.178385,1.328123 1.767577,3.398442 1.767579,6.210945 l 2e-6,4.052723 -14.580085,1.4e-5 z m 1.6211,-1.972671 11.337889,4e-6 2e-6,-2.382817 c 1e-6,-2.011717 -0.455729,-3.483064 -1.367187,-4.41406 -0.911461,-0.937495 -2.35026,-1.40625 -4.31641,-1.40624 -1.953121,-1.2e-5 -3.382158,0.468741 -4.287107,1.406249 -0.911459,0.930987 -1.367187,2.402336 -1.367186,4.414056 l -1e-6,2.382808 z m 1.757812,-17.919915 c 0,-1.471354 0.475261,-2.633463 1.425781,-3.486329 0.944013,-0.859372 2.229794,-1.289105 3.857424,-1.289063 l 0.878906,0 -1e-6,8.261719 c 1.23698,-0.07813 2.180989,-0.449218 2.832031,-1.113283 0.644534,-0.670569 0.966797,-1.60156 0.966797,-2.792967 -10e-7,-0.690105 -0.08463,-1.357423 -0.253906,-2.001953 -0.16927,-0.651042 -0.423178,-1.295572 -0.761719,-1.933595 l 1.699219,10e-7 c 0.273444,0.644529 0.48177,1.305339 0.624996,1.982424 0.143232,0.677083 0.214843,1.363932 0.214844,2.060545 -2e-6,1.744793 -0.507814,3.128256 -1.52344,4.150393 -1.015625,1.015626 -2.389322,1.523436 -4.121093,1.523435 -1.790364,10e-7 -3.209636,-0.481768 -4.257812,-1.445311 -1.054691,-0.97005 -1.582032,-2.275391 -1.582032,-3.916015 z m 10e-7,-12.441407 c -10e-7,-0.553386 0.05859,-1.093751 0.175781,-1.621093 0.110678,-0.527346 0.279901,-1.038423 0.507815,-1.533202 l 1.679689,-10e-7 c -0.279953,0.507811 -0.488278,1.018882 -0.625003,1.533203 -0.143211,0.507817 -0.214847,1.022134 -0.214843,1.54297 10e-7,1.165362 0.371093,2.070312 1.113282,2.714843 0.735677,0.644532 1.770835,0.966793 3.105468,0.966797 1.334637,-2e-6 2.373049,-0.322266 3.115235,-0.966798 0.735676,-0.644531 1.103516,-1.549479 1.103517,-2.714843 -1e-6,-0.520833 -0.06836,-1.035155 -0.205079,-1.54297 -0.143198,-0.514331 -0.354821,-1.02539 -0.634767,-1.533201 l 1.660157,-10e-7 c 0.234382,0.501299 0.410157,1.022136 0.527344,1.562499 0.117185,0.533855 0.175782,1.103516 0.175781,1.708984 -10e-7,1.647136 -0.517577,2.95573 -1.552735,3.925783 -1.035151,0.970055 -2.431642,1.455073 -4.189451,1.455078 -1.783855,0 -3.186851,-0.488282 -4.208985,-1.464844 -1.022135,-0.983073 -1.533203,-2.327475 -1.533203,-4.033203 z m -10e-7,-28.505859 c 10e-7,-1.5625 0.507812,-2.789714 1.523439,-3.681642 1.015624,-0.891926 2.421874,-1.33789 4.21875,-1.337891 1.790363,10e-7 3.196613,0.445965 4.218749,1.337892 1.015627,0.891926 1.523438,2.11914 1.523438,3.68164 0,1.569011 -0.507812,2.79948 -1.523438,3.691407 -1.022132,0.88542 -2.428384,1.328128 -4.21875,1.328125 -1.796875,10e-7 -3.203125,-0.442708 -4.218749,-1.328124 -1.015629,-0.891925 -1.523437,-2.122398 -1.523439,-3.691407 z m 10e-7,-26.103516 c -10e-7,-0.55339 0.05859,-1.09375 0.175781,-1.62109 0.110676,-0.52735 0.279949,-1.03841 0.507813,-1.53321 l 1.679687,0 c -0.279948,0.50782 -0.488281,1.01888 -0.624999,1.53321 -0.143233,0.50781 -0.214845,1.02213 -0.214845,1.54297 -10e-7,1.16536 0.371095,2.07031 1.11328,2.71484 0.735678,0.64453 1.770838,0.96679 3.10547,0.9668 1.334637,0 2.373047,-0.32227 3.115234,-0.9668 0.735678,-0.64453 1.103516,-1.54948 1.103515,-2.71484 0,-0.52084 -0.06836,-1.03516 -0.205077,-1.54297 -0.143198,-0.51433 -0.354821,-1.02539 -0.634766,-1.53321 l 1.660157,0 c 0.234373,0.50131 0.410156,1.02214 0.527343,1.5625 0.117185,0.53386 0.175781,1.10352 0.175782,1.70899 0,1.64713 -0.517579,2.95573 -1.552735,3.92578 -1.035156,0.97005 -2.43164,1.45508 -4.189453,1.45508 -1.783853,0 -3.186849,-0.48828 -4.208984,-1.46485 -1.022135,-0.98307 -1.533203,-2.32747 -1.533203,-4.0332 z m 0,-10.13672 c -10e-7,-1.58203 0.410156,-2.76367 1.230468,-3.54492 0.820311,-0.78125 2.063803,-1.17187 3.730469,-1.17188 l 6.240233,0 0,1.79688 -1.660155,0 c 0.66406,0.41016 1.155598,0.92122 1.474611,1.5332 0.312497,0.61198 0.46875,1.36068 0.468749,2.24609 1e-6,1.1198 -0.312499,2.01172 -0.9375,2.67578 -0.631511,0.65756 -1.474609,0.98633 -2.529296,0.98633 -1.230469,0 -2.158203,-0.41015 -2.783202,-1.23046 -0.625,-0.82683 -0.937501,-2.0573 -0.937501,-3.69141 l 0,-2.51953 -0.175782,-1e-5 c -0.826823,0 -1.464843,0.27344 -1.914062,0.82032 -0.455726,0.54036 -0.683594,1.30208 -0.683592,2.28515 -2e-6,0.625 0.07487,1.23373 0.224608,1.82617 0.149739,0.59245 0.374351,1.16211 0.673828,1.70899 l -1.660157,0 c -0.253908,-0.65755 -0.442703,-1.29558 -0.566405,-1.91406 -0.130204,-0.61849 -0.195311,-1.22071 -0.195311,-1.80665 z m -10e-7,-13.84765 c 4e-6,-0.12371 0.0098,-0.26042 0.0293,-0.41016 0.01303,-0.14974 0.03581,-0.31576 0.06836,-0.49805 l 1.845704,-0.01 c -0.117193,0.20182 -0.201829,0.42318 -0.253907,0.66406 -0.0586,0.23438 -0.08789,0.4948 -0.08789,0.78125 0,1.01563 0.332031,1.79688 0.996094,2.34375 0.657549,0.54037 1.604817,0.81055 2.841795,0.81055 l 5.761718,0 0,1.80664 -10.937499,0 0,-1.80664 1.699218,0 c -0.664054,-0.37761 -1.155598,-0.86914 -1.474608,-1.47461 -0.325525,-0.60546 -0.488281,-1.34114 -0.488279,-2.20703 z m 10e-7,-18.64258 c -10e-7,-0.66406 0.04883,-1.28906 0.146484,-1.875 0.09766,-0.58594 0.244141,-1.1263 0.439453,-1.62109 l 1.699219,0 c -0.260415,0.50781 -0.455729,1.03515 -0.585938,1.58203 -0.130208,0.54687 -0.195311,1.11328 -0.195311,1.69922 -1e-6,0.89192 0.136719,1.5625 0.410156,2.01172 0.273437,0.4427 0.683593,0.66406 1.230468,0.66406 0.416668,0 0.745445,-0.1595 0.98633,-0.47852 0.234373,-0.31901 0.458985,-0.96028 0.673827,-1.92383 l 0.136719,-0.61523 c 0.273437,-1.27604 0.660807,-2.18099 1.16211,-2.71484 0.494794,-0.54036 1.188149,-0.81055 2.080077,-0.81055 1.015625,0 1.819661,0.40364 2.41211,1.21094 0.592447,0.80078 0.888672,1.90429 0.888712,3.31053 0,0.58594 -0.05859,1.19792 -0.175782,1.83594 -0.110677,0.63151 -0.279949,1.29883 -0.507812,2.00195 l -1.855469,0 c 0.345049,-0.66406 0.605469,-1.31836 0.78125,-1.96289 0.169274,-0.64453 0.253906,-1.28255 0.253905,-1.91406 1e-6,-0.84635 -0.143228,-1.49739 -0.429687,-1.95313 -0.292965,-0.45573 -0.703124,-0.68359 -1.230468,-0.68359 -0.488281,0 -0.862631,0.16601 -1.123047,0.49805 -0.26042,0.32552 -0.51107,1.04492 -0.751953,2.1582 l -0.146484,0.625 c -0.234376,1.11328 -0.592449,1.91732 -1.07422,2.41211 -0.488283,0.49479 -1.1556,0.74219 -2.001952,0.74219 -1.028646,0 -1.822917,-0.36458 -2.382814,-1.09375 -0.559895,-0.72917 -0.839841,-1.76432 -0.83987,-3.10546 z m 1.503905,12.04102 c 0,0.95052 0.377607,1.69921 1.132813,2.24609 0.748698,0.54036 1.783854,0.81054 3.10547,0.81054 1.321614,0 2.360025,-0.27018 3.115231,-0.81054 0.748698,-0.54688 1.123048,-1.29558 1.123047,-2.2461 10e-7,-0.95052 -0.374346,-1.69922 -1.123047,-2.24609 -0.755206,-0.54688 -1.793619,-0.82032 -3.115233,-0.82031 -1.321614,0 -2.356772,0.27343 -3.105472,0.8203 -0.755203,0.54688 -1.132811,1.29558 -1.132811,2.2461 z m 0.01953,97.61718 c 10e-7,1.002604 0.283203,1.80664 0.84961,2.412109 0.566403,0.59896 1.363931,0.944011 2.392577,1.035157 l -0.0098,-6.406251 c -0.983074,0.01302 -1.767578,0.289715 -2.353516,0.830078 -0.585939,0.533854 -0.878907,1.24349 -0.878906,2.128907 z m 0,-40.927733 c 0,0.963541 0.377607,1.725259 1.132813,2.285155 0.748697,0.559896 1.777342,0.839843 3.085936,0.839846 1.308594,0 2.340495,-0.276693 3.095704,-0.830079 0.748697,-0.559895 1.123047,-1.324868 1.123046,-2.294921 1e-6,-0.957033 -0.377608,-1.715492 -1.132812,-2.275391 -0.75521,-0.559896 -1.783854,-0.839844 -3.085937,-0.839847 -1.295572,10e-7 -2.320962,0.279948 -3.07617,0.839848 -0.761719,0.559898 -1.142579,1.31836 -1.142578,2.275392 z m 4.179688,-37.373047 c -1e-6,1.45182 0.166015,2.45768 0.498045,3.01758 0.332033,0.55989 0.898436,0.83984 1.699219,0.83984 0.638022,0 1.145834,-0.20833 1.523438,-0.625 0.371094,-0.42318 0.556641,-0.99609 0.556643,-1.71875 0,-0.99609 -0.351563,-1.79362 -1.054688,-2.39258 -0.709637,-0.60546 -1.65039,-0.9082 -2.822265,-0.9082 l -0.40039,0 -10e-7,1.78711 z"
       id="rect4136"
       inkscape:connector-curvature="0" />
  </g>
</svg>
