<?xml version="1.0" encoding="UTF-8" standalone="no"?>
<!-- Created with Inkscape (http://www.inkscape.org/) -->

<svg
   xmlns:dc="http://purl.org/dc/elements/1.1/"
   xmlns:cc="http://creativecommons.org/ns#"
   xmlns:rdf="http://www.w3.org/1999/02/22-rdf-syntax-ns#"
   xmlns:svg="http://www.w3.org/2000/svg"
   xmlns="http://www.w3.org/2000/svg"
   xmlns:sodipodi="http://sodipodi.sourceforge.net/DTD/sodipodi-0.dtd"
   xmlns:inkscape="http://www.inkscape.org/namespaces/inkscape"
   width="210mm"
   height="297mm"
   viewBox="0 0 744.09448819 1052.3622047"
   id="svg2"
   version="1.1"
   inkscape:version="0.91 r13725"
   sodipodi:docname="tokens.svg">
  <defs
     id="defs4" />
  <sodipodi:namedview
     id="base"
     pagecolor="#ffffff"
     bordercolor="#666666"
     borderopacity="1.0"
     inkscape:pageopacity="0.0"
     inkscape:pageshadow="2"
     inkscape:zoom="0.88526077"
     inkscape:cx="-18.703963"
     inkscape:cy="926.46516"
     inkscape:document-units="px"
     inkscape:current-layer="layer1"
     showgrid="false"
     inkscape:snap-bbox="true"
     inkscape:bbox-nodes="false"
     inkscape:object-nodes="true"
     showguides="true"
     inkscape:guide-bbox="true"
     inkscape:snap-smooth-nodes="false"
     inkscape:snap-bbox-midpoints="true"
     inkscape:window-width="1600"
     inkscape:window-height="876"
     inkscape:window-x="0"
     inkscape:window-y="24"
     inkscape:window-maximized="1"
     inkscape:snap-object-midpoints="false"
     inkscape:snap-global="true" />
  <metadata
     id="metadata7">
    <rdf:RDF>
      <cc:Work
         rdf:about="">
        <dc:format>image/svg+xml</dc:format>
        <dc:type
           rdf:resource="http://purl.org/dc/dcmitype/StillImage" />
        <dc:title />
      </cc:Work>
    </rdf:RDF>
  </metadata>
  <g
     inkscape:label="Layer 1"
     inkscape:groupmode="layer"
     id="layer1">
    <path
       style="opacity:1;fill:#800000;fill-opacity:1;stroke:none;stroke-width:0.177;stroke-linecap:round;stroke-linejoin:miter;stroke-miterlimit:4;stroke-dasharray:none;stroke-opacity:1"
       d="m 166.6555,86.988598 c -0.66479,0 -1.19998,0.53521 -1.19998,1.200025 l 0,61.379367 c 0,0.66481 0.53519,1.20002 1.19998,1.20002 l 61.37957,0 c 0.66479,0 1.19998,-0.5352 1.19998,-1.20002 l 0,-54.076101 c 0,0 -4.694,-2.936472 -8.43738,-0.0048 -2.83472,2.220248 -1.83919,7.792491 -3.45932,9.412691 -1.66047,1.66052 -4.35351,1.66052 -6.01397,0 -1.66048,-1.66052 -1.66048,-4.35365 0,-6.014187 1.62039,-1.620464 6.78894,-1.054089 9.41002,-3.464134 3.57894,-3.290825 -0.002,-8.432982 -0.002,-8.432981 l -54.07655,0 z"
       id="rect8018-70"
       inkscape:connector-curvature="0" />
    <path
       style="opacity:1;fill:#800080;fill-opacity:1;stroke:none;stroke-width:0.177;stroke-linecap:round;stroke-linejoin:miter;stroke-miterlimit:4;stroke-dasharray:none;stroke-opacity:1"
       d="m 93.101815,86.98848 c -0.664789,0 -1.199982,0.535212 -1.199982,1.200027 l 0,61.379473 c 0,0.66482 0.535192,1.20003 1.199982,1.20003 l 61.379555,0 c 0.66479,0 1.19999,-0.53521 1.19999,-1.20003 l 0,-54.076189 -2.23122,-0.876583 -5.70928,3.157101 -3.96089,-2.52662 -3.1523,4.186029 2.0906,-6.548581 4.55384,0.353912 0.86718,-3.803984 -0.96092,-2.444585 -54.076555,0 z"
       id="rect8018-7-9"
       inkscape:connector-curvature="0" />
    <path
       style="opacity:1;fill:#cccccc;fill-opacity:1;stroke:none;stroke-width:0.177;stroke-linecap:round;stroke-linejoin:miter;stroke-miterlimit:4;stroke-dasharray:none;stroke-opacity:1"
       d="m 19.548135,86.988483 c -0.66479,0 -1.199982,0.535212 -1.199982,1.200027 l 0,61.37947 c 0,0.66482 0.535192,1.20003 1.199982,1.20003 l 61.379563,0 c 0.66479,0 1.199983,-0.53521 1.199983,-1.20003 l 0,-54.076186 -2.49137,-0.979714 a 4.2519057,4.2520621 0 0 1 -4.160095,3.379767 4.2519057,4.2520621 0 0 1 -4.251499,-4.251658 4.2519057,4.2520621 0 0 1 3.381981,-4.157895 l -0.982016,-2.493811 -54.076547,0 z"
       id="rect8018-5-3"
       inkscape:connector-curvature="0" />
    <path
       style="opacity:1;fill:#ff00ff;fill-opacity:1;stroke:none;stroke-width:0.177;stroke-linecap:round;stroke-linejoin:miter;stroke-miterlimit:4;stroke-dasharray:none;stroke-opacity:1"
       d="m 244.38503,-36.778017 c 0,2.07826 0.46354,3.75194 1.03908,3.75194 l 61.70117,0 c 0.57552,1e-5 1.03906,-1.67368 1.03906,-3.75195 l -10e-6,-251.423823 c -1e-5,-2.07826 -0.46355,-3.75195 -1.03907,-3.75195 l -61.70117,0 c -0.57552,-10e-6 -1.03906,1.67368 -1.03906,3.75195 l 0,251.423833 z m 20.87305,-106.564453 0,-1.80664 8.9746,0 -4.71679,-5.36133 0,-2.29492 5.11718,5.80078 5.82032,-6.04492 0,2.34375 -5.3418,5.55664 5.3418,0 0,1.80664 -15.19531,0 z m 0,-34.10156 0,-1.69922 1.49414,0 0,1.71875 c 0,0.64453 0.1302,1.09375 0.39062,1.34765 0.26042,0.2474 0.72917,0.37109 1.40625,0.37111 l 0.9668,0 0,-2.95898 1.39648,0 0,2.95898 9.54102,0 0,1.80664 -9.54102,0 0,1.71875 -1.39648,0 0,-1.71875 -0.76172,0 c -1.21745,0 -2.10286,-0.2832 -2.65625,-0.84961 -0.5599,-0.5664 -0.83984,-1.46484 -0.83984,-2.69531 z m 0,-47.92969 0,-1.79688 15.19531,0 0,1.79688 -1.64063,0 c 0.65105,0.3776 1.13607,0.85612 1.45508,1.43555 0.3125,0.57292 0.46875,1.26302 0.46875,2.07031 0,1.32162 -0.52734,2.39909 -1.58203,3.23242 -1.05469,0.82682 -2.44141,1.24023 -4.16016,1.24023 -1.71875,0 -3.10547,-0.41341 -4.16016,-1.24023 -1.05468,-0.83333 -1.58203,-1.91081 -1.58203,-3.23242 0,-0.80729 0.15951,-1.49739 0.47852,-2.07031 0.3125,-0.57943 0.79427,-1.05794 1.44531,-1.43555 l -5.91797,0 z m 0.61522,120.59571 1e-5,-4.05273 c 0,-2.82552 0.58919,-4.89909 1.76758,-6.22072 1.17187,-1.32161 3.00781,-1.98242 5.50781,-1.98242 2.51302,0 4.35872,0.66406 5.53711,1.99219 1.17838,1.32812 1.76758,3.39844 1.76758,6.21094 l 0,4.05273 -14.58009,1e-5 z m 1.6211,-1.97267 11.33789,0 0,-2.38281 c 10e-6,-2.01172 -0.45572,-3.48307 -1.36718,-4.41406 -0.91146,-0.9375 -2.35026,-1.40625 -4.31641,-1.40624 -1.95312,-1e-5 -3.38216,0.46874 -4.28711,1.40625 -0.91146,0.93098 -1.36719,2.40233 -1.36719,4.41405 l 0,2.38281 z m 1.75782,-17.91991 c 0,-1.47136 0.47526,-2.63347 1.42578,-3.48633 0.94401,-0.85938 2.22979,-1.28911 3.85742,-1.28907 l 0.87891,0 0,8.26172 c 1.23698,-0.0781 2.18098,-0.44922 2.83203,-1.11328 0.64453,-0.67057 0.96679,-1.60156 0.96679,-2.79297 0,-0.6901 -0.0846,-1.35742 -0.2539,-2.00195 -0.16927,-0.65104 -0.42318,-1.29557 -0.76172,-1.9336 l 1.69922,1e-5 c 0.27344,0.64452 0.48177,1.30533 0.62499,1.98242 0.14324,0.67708 0.21485,1.36393 0.21485,2.06054 0,1.7448 -0.50782,3.12826 -1.52344,4.1504 -1.01563,1.01562 -2.38932,1.52343 -4.1211,1.52343 -1.79036,0 -3.20963,-0.48177 -4.25781,-1.44531 -1.05469,-0.97005 -1.58203,-2.27539 -1.58203,-3.91601 z m 0,-12.44141 c 0,-0.55339 0.0586,-1.09375 0.17578,-1.62109 0.11068,-0.52735 0.2799,-1.03843 0.50781,-1.53321 l 1.67969,0 c -0.27995,0.50781 -0.48828,1.01888 -0.625,1.53321 -0.14321,0.50781 -0.21485,1.02213 -0.21484,1.54297 0,1.16536 0.37109,2.07031 1.11328,2.71484 0.73567,0.64453 1.77083,0.96679 3.10547,0.9668 1.33463,-1e-5 2.37304,-0.32227 3.11523,-0.9668 0.73568,-0.64453 1.10352,-1.54948 1.10352,-2.71485 0,-0.52083 -0.0684,-1.03515 -0.20508,-1.54297 -0.1432,-0.51433 -0.35482,-1.02539 -0.63477,-1.5332 l 1.66016,0 c 0.23438,0.5013 0.41016,1.02214 0.52734,1.5625 0.11719,0.53386 0.17578,1.10352 0.17578,1.70899 0,1.64713 -0.51757,2.95573 -1.55273,3.92578 -1.03515,0.97005 -2.43164,1.45507 -4.18945,1.45508 -1.78386,0 -3.18685,-0.48829 -4.20899,-1.46485 -1.02213,-0.98307 -1.5332,-2.32747 -1.5332,-4.0332 z m 0,-28.50586 c 0,-1.5625 0.50781,-2.78971 1.52343,-3.68164 1.01563,-0.89193 2.42188,-1.33789 4.21875,-1.33789 1.79037,0 3.19662,0.44596 4.21875,1.33789 1.01563,0.89192 1.52344,2.11914 1.52344,3.68164 0,1.56901 -0.50781,2.79948 -1.52344,3.69141 -1.02213,0.88542 -2.42838,1.32812 -4.21875,1.32812 -1.79687,0 -3.20312,-0.44271 -4.21875,-1.32812 -1.01562,-0.89193 -1.52343,-2.1224 -1.52343,-3.69141 z m 0,-26.10352 c 0,-0.55339 0.0586,-1.09375 0.17578,-1.62109 0.11067,-0.52735 0.27995,-1.03841 0.50781,-1.53321 l 1.67969,0 c -0.27995,0.50782 -0.48828,1.01888 -0.625,1.53321 -0.14323,0.50781 -0.21485,1.02213 -0.21485,1.54297 0,1.16536 0.3711,2.07031 1.11328,2.71484 0.73568,0.64453 1.77084,0.96679 3.10547,0.9668 1.33464,0 2.37305,-0.32227 3.11524,-0.9668 0.73568,-0.64453 1.10351,-1.54948 1.10351,-2.71484 0,-0.52084 -0.0684,-1.03516 -0.20507,-1.54297 -0.1432,-0.51433 -0.35483,-1.02539 -0.63477,-1.53321 l 1.66016,0 c 0.23437,0.50131 0.41015,1.02214 0.52734,1.5625 0.11718,0.53386 0.17578,1.10352 0.17578,1.70899 0,1.64713 -0.51758,2.95573 -1.55273,3.92578 -1.03516,0.97005 -2.43164,1.45508 -4.18946,1.45508 -1.78385,0 -3.18685,-0.48828 -4.20898,-1.46485 -1.02214,-0.98307 -1.5332,-2.32747 -1.5332,-4.0332 z m 0,-10.13672 c 0,-1.58203 0.41015,-2.76367 1.23046,-3.54492 0.82032,-0.78125 2.06381,-1.17187 3.73047,-1.17188 l 6.24024,0 0,1.79688 -1.66016,0 c 0.66406,0.41016 1.1556,0.92122 1.47461,1.5332 0.3125,0.61198 0.46875,1.36068 0.46875,2.24609 0,1.1198 -0.3125,2.01172 -0.9375,2.67578 -0.63151,0.65756 -1.47461,0.98633 -2.52929,0.98633 -1.23047,0 -2.15821,-0.41015 -2.78321,-1.23046 -0.625,-0.82683 -0.9375,-2.0573 -0.9375,-3.69141 l 0,-2.51953 -0.17578,-1e-5 c -0.82682,0 -1.46484,0.27344 -1.91406,0.82032 -0.45573,0.54036 -0.6836,1.30208 -0.68359,2.28515 -1e-5,0.625 0.0749,1.23373 0.2246,1.82617 0.14974,0.59245 0.37436,1.16211 0.67383,1.70899 l -1.66015,0 c -0.25391,-0.65755 -0.44271,-1.29558 -0.56641,-1.91406 -0.1302,-0.61849 -0.19531,-1.22071 -0.19531,-1.80665 z m 0,-13.84765 c 0,-0.12371 0.01,-0.26042 0.0293,-0.41016 0.013,-0.14974 0.0358,-0.31576 0.0684,-0.49805 l 1.8457,-0.01 c -0.11719,0.20182 -0.20183,0.42318 -0.25391,0.66406 -0.0586,0.23438 -0.0879,0.4948 -0.0879,0.78125 0,1.01563 0.33203,1.79688 0.9961,2.34375 0.65755,0.54037 1.60481,0.81055 2.84179,0.81055 l 5.76172,0 0,1.80664 -10.9375,0 0,-1.80664 1.69922,0 c -0.66406,-0.37761 -1.1556,-0.86914 -1.47461,-1.47461 -0.32552,-0.60546 -0.48828,-1.34114 -0.48828,-2.20703 z m 0,-18.64258 c 0,-0.66406 0.0488,-1.28906 0.14648,-1.875 0.0977,-0.58594 0.24414,-1.1263 0.43945,-1.62109 l 1.69922,0 c -0.26041,0.50781 -0.45573,1.03515 -0.58594,1.58203 -0.1302,0.54687 -0.19531,1.11328 -0.19531,1.69922 0,0.89192 0.13672,1.5625 0.41016,2.01172 0.27344,0.4427 0.68359,0.66406 1.23047,0.66406 0.41667,0 0.74544,-0.1595 0.98633,-0.47852 0.23437,-0.31901 0.45898,-0.96028 0.67382,-1.92383 l 0.13672,-0.61523 c 0.27344,-1.27604 0.66081,-2.18099 1.16211,-2.71484 0.4948,-0.54036 1.18815,-0.81055 2.08008,-0.81055 1.01563,0 1.81966,0.40364 2.41211,1.21094 0.59245,0.80078 0.88867,1.90429 0.88871,3.31053 0,0.58594 -0.0586,1.19792 -0.17578,1.83594 -0.11068,0.63151 -0.27995,1.29883 -0.50781,2.00195 l -1.85547,0 c 0.34505,-0.66406 0.60547,-1.31836 0.78125,-1.96289 0.16927,-0.64453 0.25391,-1.28255 0.2539,-1.91406 1e-5,-0.84635 -0.14322,-1.49739 -0.42968,-1.95313 -0.29297,-0.45573 -0.70313,-0.68359 -1.23047,-0.68359 -0.48828,0 -0.86263,0.16601 -1.12305,0.49805 -0.26042,0.32552 -0.51107,1.04492 -0.75195,2.1582 l -0.14648,0.625 c -0.23438,1.11328 -0.59245,1.91732 -1.07422,2.41211 -0.48829,0.49479 -1.1556,0.74219 -2.00196,0.74219 -1.02864,0 -1.82291,-0.36458 -2.38281,-1.09375 -0.5599,-0.72917 -0.83984,-1.76432 -0.83987,-3.10546 z m 1.5039,12.04102 c 0,0.95052 0.37761,1.69921 1.13281,2.24609 0.7487,0.54036 1.78386,0.81054 3.10547,0.81054 1.32162,0 2.36003,-0.27018 3.11524,-0.81054 0.74869,-0.54688 1.12304,-1.29558 1.12304,-2.2461 0,-0.95052 -0.37434,-1.69922 -1.12304,-2.24609 -0.75521,-0.54688 -1.79362,-0.82032 -3.11524,-0.82031 -1.32161,0 -2.35677,0.27343 -3.10547,0.8203 -0.7552,0.54688 -1.13281,1.29558 -1.13281,2.2461 z m 0.0195,97.61718 c 0,1.00261 0.2832,1.80664 0.84961,2.41211 0.5664,0.59896 1.36393,0.94401 2.39258,1.03516 l -0.01,-6.40625 c -0.98308,0.013 -1.76758,0.28971 -2.35352,0.83008 -0.58594,0.53385 -0.8789,1.24349 -0.8789,2.1289 z m 0,-40.92773 c 0,0.96354 0.37761,1.72526 1.13281,2.28516 0.7487,0.55989 1.77735,0.83984 3.08594,0.83984 1.30859,0 2.3405,-0.27669 3.0957,-0.83008 0.7487,-0.55989 1.12305,-1.32487 1.12305,-2.29492 0,-0.95703 -0.37761,-1.71549 -1.13281,-2.27539 -0.75521,-0.5599 -1.78386,-0.83984 -3.08594,-0.83985 -1.29557,0 -2.32096,0.27995 -3.07617,0.83985 -0.76172,0.5599 -1.14258,1.31836 -1.14258,2.27539 z m 4.17969,-37.37305 c 0,1.45182 0.16601,2.45768 0.49804,3.01758 0.33204,0.55989 0.89844,0.83984 1.69922,0.83984 0.63803,0 1.14584,-0.20833 1.52344,-0.625 0.3711,-0.42318 0.55664,-0.99609 0.55664,-1.71875 0,-0.99609 -0.35156,-1.79362 -1.05468,-2.39258 -0.70964,-0.60546 -1.65039,-0.9082 -2.82227,-0.9082 l -0.40039,0 0,1.78711 z"
       id="rect4136"
       inkscape:connector-curvature="0" />
    <circle
       style="opacity:1;fill:#ff00ff;fill-opacity:1;stroke:none;stroke-width:0.177;stroke-linecap:round;stroke-linejoin:miter;stroke-miterlimit:4;stroke-dasharray:none;stroke-opacity:1"
       id="path4137-3"
       cx="276.27457"
       cy="-323.84357"
       r="31.889763" />
    <path
       inkscape:connector-curvature="0"
       style="opacity:1;fill:#ff7f2a;fill-opacity:1;stroke:none;stroke-width:0.177;stroke-linecap:round;stroke-linejoin:miter;stroke-miterlimit:4;stroke-dasharray:none;stroke-opacity:1"
       d="m 243.20081,91.344999 0,11.589931 a 31.889763,31.889763 0 0 0 5.01051,38.52074 31.889763,31.889763 0 0 0 38.59947,4.96217 l 10e-6,-11.46288 11.48634,0.001 a 31.889763,31.889763 0 0 0 -4.98705,-38.599459 31.889763,31.889763 0 0 0 -38.56217,-5.010518 l -11.5471,-0.0014 z m 25.05534,25.055331 a 3.5433071,3.5433071 0 0 1 5.01051,0 3.5433071,3.5433071 0 0 1 -10e-6,5.0105 3.5433071,3.5433071 0 0 1 -5.01189,10e-4 3.5433071,3.5433071 0 0 1 0.001,-5.01189 z"
       id="path4137-3-5-3" />
    <path
       style="opacity:1;fill:#c80000;fill-opacity:1;stroke:none;stroke-width:0.177;stroke-linecap:round;stroke-linejoin:miter;stroke-miterlimit:4;stroke-dasharray:none;stroke-opacity:1"
       d="M 19.347656 170.76758 C 18.793656 170.76758 18.347656 171.21358 18.347656 171.76758 L 18.347656 233.54688 C 18.347656 234.10088 18.793656 234.54688 19.347656 234.54688 L 81.126953 234.54688 C 81.680953 234.54688 82.126953 234.10088 82.126953 233.54688 L 82.126953 171.76758 C 82.126953 171.21358 81.680953 170.76758 81.126953 170.76758 L 19.347656 170.76758 z M 53.517578 190.14062 C 57.802778 190.17003 60.50163 193.3322 61.625 197.08203 L 60.292969 197.7207 C 59.611109 195.49331 58.059255 193.85261 56.320312 192.85938 L 53.978516 196.28906 C 56.161576 197.57397 57.630829 199.94184 57.630859 202.6582 C 57.627859 203.18957 57.567689 203.71788 57.451172 204.23633 L 50.544922 203.23828 L 53.355469 209.35938 C 54.669529 208.75002 55.776339 207.76971 56.537109 206.53711 L 57.867188 207 C 57.454878 208.20985 57.002295 208.53375 56.046875 209.38281 L 59.986328 213.78711 C 60.540498 213.47772 62.7769 211.76089 63.40625 208.08203 L 64.740234 208.66016 C 63.169644 215.95015 55.994464 217.70936 51.90625 216.4043 L 51.585938 213.83008 C 54.077789 214.59984 56.386778 213.50855 57.046875 213.1582 L 54.939453 210.26172 C 54.290753 210.76008 53.562609 211.14787 52.787109 211.4082 L 52.244141 209.76953 L 48.435547 205.17578 L 45.201172 210.625 C 46.288903 211.19681 47.49608 211.43224 48.683594 211.32617 C 48.523079 211.44256 48.633393 213.12481 48.460938 213.22461 C 47.110993 214.00199 44.638281 213.09089 43.6875 212.31641 L 44.949219 207.82617 L 44.947266 207.81445 C 43.648389 206.4823 42.845723 204.66574 42.845703 202.6582 C 42.845743 198.57545 46.155531 195.26568 50.238281 195.26562 C 51.115281 195.26565 51.951902 195.42673 52.732422 195.70703 L 53.90625 193.4668 C 52.86764 192.96015 51.848006 192.88403 50.847656 193.22852 L 50.972656 190.46289 C 51.875106 190.23728 52.724018 190.1352 53.517578 190.14062 z "
       id="rect4139" />
    <path
       style="opacity:1;fill:#ff00ff;fill-opacity:0.73913042;stroke:none;stroke-width:0.177;stroke-linecap:round;stroke-linejoin:miter;stroke-miterlimit:4;stroke-dasharray:none;stroke-opacity:1"
       d="m 31.31044,-31.15077 0,7.08789 8.85742,0 0,-3.54492 8.85938,0 0,-3.54297 -17.7168,0 z m 8.20117,0.29101 0.84375,0 0,0.17969 -0.64648,0 0,0.39063 c 0.0312,-0.0106 0.0625,-0.0185 0.0937,-0.0234 0.0312,-0.006 0.0625,-0.008 0.0937,-0.008 0.17751,0 0.31821,0.0473 0.42188,0.14453 0.10365,0.0973 0.15429,0.23033 0.15429,0.39648 0,0.17112 -0.0517,0.30329 -0.1582,0.39844 -0.10651,0.0944 -0.25733,0.14258 -0.45117,0.14258 -0.0668,0 -0.1355,-0.006 -0.20508,-0.0176 -0.0689,-0.0114 -0.13905,-0.0281 -0.21289,-0.0508 l 0,-0.2168 c 0.0639,0.0348 0.1291,0.0611 0.19726,0.0781 0.0682,0.017 0.14083,0.0254 0.2168,0.0254 0.12284,0 0.2193,-0.0331 0.29102,-0.0977 0.0717,-0.0646 0.10742,-0.15095 0.10742,-0.26172 0,-0.11077 -0.0357,-0.19906 -0.10742,-0.26367 -0.0717,-0.0646 -0.16818,-0.0977 -0.29102,-0.0977 -0.0575,0 -0.11631,0.007 -0.17383,0.0195 -0.0568,0.0128 -0.11418,0.0336 -0.17383,0.0605 l 0,-0.79883 z m 8.41797,0.78711 0.2168,0 0,1.40821 0.35156,0 0,0.18164 -0.91601,0 0,-0.18164 0.35156,0 0,-1.21289 -0.38281,0.0762 0,-0.19531 0.3789,-0.0762 z m -15.66211,1.66407 c 0.16473,0 0.29655,0.0426 0.39453,0.125 0.098,0.0824 0.14649,0.19233 0.14649,0.33007 0,0.0653 -0.0123,0.12662 -0.0371,0.18555 -0.0241,0.0582 -0.0682,0.12751 -0.13281,0.20703 -0.0177,0.0206 -0.0748,0.079 -0.16992,0.17774 -0.0951,0.098 -0.2291,0.2353 -0.40235,0.41211 l 0.75,0 0,0.18164 -1.00781,0 0,-0.18164 c 0.0817,-0.0845 0.19144,-0.1959 0.33203,-0.33789 0.1413,-0.14272 0.23137,-0.23617 0.26758,-0.27735 0.0689,-0.0774 0.1156,-0.14206 0.14258,-0.19531 0.0277,-0.054 0.041,-0.10637 0.041,-0.1582 0,-0.0845 -0.0282,-0.15378 -0.0879,-0.20704 -0.0589,-0.0532 -0.13727,-0.0801 -0.23242,-0.0801 -0.0675,0 -0.13763,0.0117 -0.21289,0.0351 -0.0746,0.0234 -0.15504,0.0598 -0.24023,0.10742 l 0,-0.21875 c 0.0866,-0.0348 0.16692,-0.0604 0.24218,-0.0781 0.0753,-0.0178 0.14455,-0.0273 0.20703,-0.0273 z"
       id="rect4247"
       inkscape:connector-curvature="0" />
    <path
       style="opacity:1;fill:#00710c;fill-opacity:1;stroke:none;stroke-width:0.177;stroke-linecap:round;stroke-linejoin:miter;stroke-miterlimit:4;stroke-dasharray:none;stroke-opacity:1"
       d="M 114.19141 169.07227 C 113.63741 169.07227 113.19141 169.51827 113.19141 170.07227 L 113.19141 231.85352 C 113.19141 232.40406 113.63245 232.84604 114.18164 232.85156 L 175.98047 232.85156 C 176.52966 232.84604 176.9707 232.40406 176.9707 231.85352 L 176.9707 170.07227 C 176.9707 169.51827 176.5247 169.07227 175.9707 169.07227 L 114.19141 169.07227 z M 148.625 186.86133 A 14.553602 14.553602 0 0 1 159.17773 197.41992 L 153.67773 197.41992 A 9.3032522 9.3032522 0 0 0 148.625 192.36523 L 148.625 186.86133 z M 141.53906 186.86719 L 141.53906 192.36914 A 9.3032522 9.3032522 0 0 0 136.48438 197.42188 L 130.98047 197.42188 A 14.553602 14.553602 0 0 1 141.53906 186.86719 z M 130.98438 204.50781 L 136.48633 204.50781 A 9.3032522 9.3032522 0 0 0 141.53906 209.5625 L 141.53906 215.06641 A 14.553602 14.553602 0 0 1 130.98438 204.50781 z M 153.67969 204.50781 L 159.18359 204.50781 A 14.553602 14.553602 0 0 1 148.625 215.06055 L 148.625 209.56055 A 9.3032522 9.3032522 0 0 0 153.67969 204.50781 z "
       id="rect4139-5" />
    <rect
       style="opacity:1;fill:#ff6600;fill-opacity:0.73913042;stroke:none;stroke-width:0.177;stroke-linecap:round;stroke-linejoin:miter;stroke-miterlimit:4;stroke-dasharray:none;stroke-opacity:1"
       id="rect4334"
       width="63.779526"
       height="63.779526"
       x="-75.88176"
       y="10.107367"
       rx="1"
       ry="1" />
  </g>
</svg>
