<?xml version="1.0" encoding="utf-8"?>
<!-- Generator: Adobe Illustrator 21.0.0, SVG Export Plug-In . SVG Version: 6.00 Build 0)  -->
<svg version="1.1" id="Layer_1" xmlns="http://www.w3.org/2000/svg" xmlns:xlink="http://www.w3.org/1999/xlink" x="0px" y="0px"
	 viewBox="0 0 1366 768" style="enable-background:new 0 0 1366 768;" xml:space="preserve">
<style type="text/css">
	.st0{enable-background:new    ;}
</style>
<g class="st0">
	<path d="M143.4,221.2c-0.4,0.8-0.9,1.5-1.3,2.1c-0.4,0.6-0.9,1.1-1.5,1.5c-0.6,0.4-1.3,0.9-2,1.4c-0.8,0.5-1.7,1-2.8,1.6
		c-1.2,0.7-2.3,1-3.4,1.1c-1.1,0.1-2.4-0.1-4-0.6c-0.4-0.1-1.4-0.3-3-0.7c-1.5-0.3-3.2-0.7-5-1.1c-1.8-0.4-3.6-0.7-5.2-1
		c-1.7-0.3-2.8-0.5-3.4-0.6c-0.7-0.1-1.4-0.2-2-0.3c-0.7-0.1-1.4-0.2-2.1-0.2c-0.9-0.1-1.4,0-1.6,0.4c-0.2,0.4-0.3,1.2-0.3,2.4
		c0.1,1.5,0.1,3.2,0.1,4.9c0,1.7,0.1,3.2,0.1,4.6c0.1,2.3,0.1,4.1,0,5.5c0,1.3-0.2,2.4-0.5,3.2c-0.3,0.8-0.7,1.3-1.3,1.7
		c-0.6,0.4-1.4,0.7-2.3,1c-1.2,0.4-2.1,0.5-2.9,0.2c-0.8-0.3-1.4-0.8-1.7-1.6c-0.7-1.3-1.1-2.5-1.2-3.5c-0.1-1-0.1-2.4,0-4.3
		c0.1-1.5,0.2-3.3,0.3-5.5c0.1-2.2,0.1-4.4,0.1-6.7c0-1.1-0.1-1.8-0.4-2.1c-0.2-0.3-0.8-0.4-1.7-0.4c-3.8,0-7.6,0.1-11.5,0.4
		c-3.8,0.3-7.5,0.7-10.9,1.2c-0.7,0.1-1.6,0.3-2.5,0.5c-1,0.2-1.9,0.4-2.9,0.7c-1,0.3-1.9,0.6-2.8,0.8c-0.9,0.3-1.7,0.6-2.3,0.9
		c-0.5,0.2-1,0.4-1.7,0.5c-0.6,0.1-1.2,0.1-1.8-0.1c-0.5-0.1-1-0.4-1.4-0.8c-0.4-0.4-0.5-1-0.5-1.9c0.1-0.7,0.3-1.5,0.8-2.3
		c0.5-0.8,1.5-1.8,3.1-2.9c1.2-0.9,2.2-1.4,3-1.5c0.8-0.1,1.6,0,2.4,0.4c1.5,0.7,3.5,0.9,6.1,0.7c4-0.3,7.8-0.6,11.4-0.8
		c3.6-0.2,7.3-0.4,11.1-0.5c1-0.1,1.7-0.2,2-0.4c0.3-0.2,0.5-0.9,0.5-1.9v-2.8c0-1-0.1-1.6-0.4-1.8c-0.3-0.3-0.8-0.4-1.6-0.4h-3.3
		c-1.6,0-3.2,0.1-4.6,0.3c-1.4,0.2-2.5,0.5-3.1,0.8c-1.8,0.8-3,0.7-3.5-0.4c-0.3-0.6-0.6-0.8-0.9-0.7c-0.3,0.1-0.7,0.4-1.2,0.7
		c-1.2,0.7-2.3,1.2-3.5,1.7c-1.2,0.4-2.5,0.8-3.7,1c-1.9,0.4-3.2,0.2-3.9-0.4s-0.5-1.3,0.5-2c1.4-1.1,2.6-2.1,3.7-3c1.1-1,2.1-2,3-3
		c0.9-1.1,1.7-2.2,2.4-3.4c0.7-1.2,1.4-2.5,2.1-4c0.9-2.1,1.9-3.3,3-3.5c1.1-0.3,2.6,0.1,4.6,1c0.8,0.4,1.4,1.2,1.7,2.3
		c0.3,1.1,0.2,2.3-0.4,3.5c-0.2,0.4-0.4,0.8-0.6,1.3c-0.2,0.4-0.5,0.8-0.8,1.2c-0.5,0.8-0.8,1.3-0.8,1.5c0,0.2,0.4,0.4,1,0.4
		c0.3,0,0.7,0,1.1,0c0.4,0,0.9,0,1.4,0c0.9-0.1,1.8-0.1,2.7-0.1s1.8,0,2.5-0.1c1-0.1,1.7-0.2,2-0.5s0.4-0.8,0.3-1.7
		c-0.1-1.5-0.2-2.8-0.2-4c0-1.2-0.1-2.2-0.2-2.9c-0.2-1.9,0-3.2,0.7-4c0.7-0.7,1.9-1,3.7-0.8c2.6,0.3,4.3,1,5,2
		c0.7,1,0.9,2.5,0.5,4.4c-0.1,0.4-0.2,0.9-0.2,1.6c0,0.7-0.1,1.9-0.1,3.5c-0.1,1,0,1.6,0.3,1.9c0.2,0.2,0.9,0.4,1.9,0.4h2.5
		c1.6,0,3.7,0,6.4,0c2.7,0,5.3,0.1,7.8,0.1c0.8,0,1.4,0.2,1.7,0.6c0.4,0.4,0.5,1.1,0.5,2.1c-0.1,0.8-0.4,1.4-1,1.8
		c-0.6,0.4-1.3,0.6-2.1,0.6c-3.1,0.1-5.9,0.1-8.5,0c-2.6,0-5.2,0-7.8,0c-0.7,0-1.2,0.1-1.4,0.2c-0.2,0.1-0.3,0.4-0.3,0.8v4
		c0,0.7,0.1,1.2,0.4,1.5c0.2,0.3,0.9,0.4,1.9,0.4c2,0,4.1,0,6.4,0c2.2,0,4.4,0.1,6.4,0.1c2,0,3.8,0.1,5.3,0.1
		c1.5,0.1,2.5,0.1,3.1,0.2c0.6,0.1,1.5,0.1,2.8,0.1c1.3,0,2.6,0,4,0c1.4,0,2.6,0,3.8,0c1.2,0,1.9,0,2.3,0
		C143.4,219.3,144,219.9,143.4,221.2z"/>
</g>
<g class="st0">
	<path d="M128.4,356.3c-0.1,0.6-0.2,1.4-0.2,2.4c0,1,0,1.8,0,2.3c0,0.8-0.3,1.6-0.9,2.4c-0.6,0.7-1.4,1.1-2.4,1.2
		c-2.1,0.1-3.2-0.8-3.2-2.9c0-1.2,0-2.3-0.1-3.1c-0.1-0.8-0.2-1.9-0.4-3.2c-0.1-0.7-0.4-1.2-0.8-1.5c-0.4-0.3-1.2-0.5-2.4-0.6
		c-3-0.4-7.9-0.4-14.7-0.3c-0.6,0-1,0.1-1.2,0.3c-0.2,0.2-0.3,0.7-0.5,1.4c-0.1,0.7-0.1,1.1,0.1,1.3c0.2,0.2,0.6,0.3,1.4,0.2
		c1.9-0.2,3.6-0.3,5.1-0.4c1.5-0.1,2.5-0.2,3.2-0.2c1.5-0.1,2.4-0.1,2.9-0.1c0.5,0.1,0.9,0.3,1.4,0.7c0.5,0.5,0.6,0.9,0.5,1.4
		c-0.2,0.4-0.9,0.7-2,0.8c-2.4,0.3-4.6,0.6-6.5,0.8c-1.9,0.2-3.7,0.5-5.2,0.8c-0.6,0.1-1,0.3-1.1,0.5c-0.1,0.2-0.1,0.6,0.1,1
		c0.3,1,1.5,1.4,3.6,1.4c1.4,0,2.9-0.2,4.5-0.5c1.6-0.3,3.2-0.8,4.9-1.5c1-0.4,1.7-0.6,2.3-0.4c0.5,0.1,0.9,0.4,1.1,0.8
		c0.2,0.4,0.2,0.9,0,1.5s-0.5,1.2-1.1,1.8c-0.4,0.4-1,0.8-2,1.2c-0.9,0.4-2.1,0.8-3.5,1.1c-1.4,0.3-2.9,0.5-4.5,0.7
		c-1.6,0.1-3.3,0.2-5,0.1c-2.6-0.1-4.5-0.6-5.5-1.5c-1.1-0.9-1.8-2-2.1-3.5c-0.2-0.6-0.4-1-0.7-1.1c-0.3-0.1-0.7-0.1-1.4,0
		c-0.8,0.2-1.4,0.3-2,0.5c-0.5,0.1-1,0.3-1.5,0.5c-1.7,0.7-2.9,1.1-3.7,1.3c-0.8,0.2-1.5,0.3-2.2,0.1c-1.3-0.2-2.1-0.9-2.3-1.9
		c-0.2-1,0.3-2.1,1.5-3.3c0.5-0.5,1.3-0.9,2.2-1.2s2.5-0.5,4.7-0.6c0.7-0.1,1.3-0.1,2-0.1c0.7,0,1.3,0,1.9-0.1c0.4,0,0.7-0.1,1-0.4
		c0.2-0.2,0.3-0.8,0.3-1.6c0-1-0.5-1.5-1.4-1.5c-2,0.1-4.1,0.1-6.3,0.3c-2.2,0.1-4.4,0.3-6.4,0.4c-0.5,0.1-0.9,0.2-1.1,0.3
		c-0.2,0.1-0.3,0.6-0.2,1.4c0.1,1.8,0.2,3.6,0.3,5.5c0.1,1.9,0.1,3.6,0,5.2c-0.1,2.3-0.2,4.2-0.4,5.8c-0.2,1.6-0.5,3-0.9,4.2
		c-0.4,1.2-0.9,2.4-1.5,3.4c-0.6,1-1.4,2.1-2.4,3.3c-1.6,2-3.4,3.5-5.1,4.5c-1.8,1-3.5,1.7-5.1,1.8c-1.6,0.2-3.1-0.1-4.5-0.8
		c-1.3-0.7-2.4-1.7-3.1-3.2c-0.5-0.9-0.6-1.5-0.4-1.9c0.2-0.4,1-0.7,2.2-0.8c1.8-0.3,3.5-0.9,5.2-1.7c1.7-0.8,3.3-1.9,4.7-3.1
		c1.4-1.2,2.5-2.7,3.5-4.3c0.9-1.6,1.5-3.3,1.6-5.2c0.2-2.7,0.2-5.1-0.1-7.2c-0.3-2.1-0.8-3.8-1.5-5.1c-0.5-1-0.9-1.7-1.2-2.4
		c-0.2-0.6-0.3-1.2-0.3-1.7c0.1-0.5,0.3-1,0.7-1.5c0.4-0.5,1-1.1,1.8-1.8c0.7-0.6,1.5-0.9,2.6-0.8c1.1,0,2,0.3,2.7,0.8
		c0.5,0.3,0.9,0.5,1.2,0.6c0.3,0.1,0.7,0.1,1.2,0.1c2-0.1,4.2-0.2,6.6-0.3c2.4-0.1,4.5-0.2,6.3-0.2c0.6,0,1-0.1,1.2-0.3
		c0.2-0.2,0.3-0.6,0.3-1.2c0-0.7,0-1.3,0-2c0-0.7-0.1-1.3-0.1-2c-0.3-3.2,0.1-5.4,1.2-6.4s2.5-1.3,4.1-0.6c1.1,0.5,1.9,1,2.4,1.6
		c0.5,0.6,0.8,1.3,0.8,2.1c0.1,0.6,0.2,1,0.4,1.1c0.2,0.1,0.6,0.2,1.2,0.2c1-0.1,2.1-0.1,3.3-0.1c1.2,0,2-0.1,2.5-0.2
		c1.7-0.1,3.4-0.1,5,0c1.6,0.1,2.8,0.2,3.6,0.4c1.2,0.2,1.9,0.5,2.1,0.8c0.3,0.3,0.3,0.9,0.2,1.8c-0.1,0.6-0.4,1-0.9,1.2
		c-0.5,0.2-1.4,0.3-2.7,0.2c-1.8-0.1-3.9-0.1-6.4,0c-2.5,0.1-4.9,0.3-7.2,0.4c-1,0.1-1.5,0.6-1.5,1.5c-0.1,0.4,0,0.6,0.2,0.8
		c0.2,0.1,0.7,0.2,1.3,0.2c1.6,0,3.3,0,5,0c1.7,0,3.1,0.1,4.3,0.2c2.1,0.1,3.8,0.2,5,0.2c1.2,0,2.2,0,2.8,0c0.7,0,1.2-0.1,1.5-0.2
		c0.3-0.1,0.6-0.2,0.8-0.4c0.5-0.3,1.3-0.3,2.3,0c1.1,0.3,2,1.1,2.9,2.4c0.2,0.3,0.4,1,0.5,2C128.6,354,128.5,355.1,128.4,356.3z
		 M144.4,377.3c-0.1,2.5-0.9,4.9-2.2,7.3c-1.4,2.4-3,4.3-5,5.6c-1.7,1.2-3.7,1.9-6.1,2.1c-2.4,0.2-4.9,0-7.6-0.6
		c-2.2-0.5-4.2-1-5.7-1.4c-1.6-0.4-2.9-0.8-4-1.1c-1.1-0.4-2.1-0.7-3-1c-0.8-0.3-1.7-0.7-2.5-1.1c-1.1-0.5-2-1.1-2.7-1.7
		c-0.7-0.6-1.3-1.3-1.7-2.2c-0.4-0.9-0.6-2-0.7-3.3c-0.1-1.3,0-3,0.2-5.1c0.1-0.5-0.1-1-0.4-1.3c-0.3-0.4-0.7-0.5-1.2-0.5
		c-1.4-0.1-2.9-0.1-4.6,0c-0.5,0.1-0.8,0.2-1,0.4c-0.2,0.2-0.2,0.6-0.2,1.2c0,2.8-0.6,5.2-1.8,7.1c-1.2,2-2.4,3.4-3.6,4.2
		c-3.6,2.4-6.8,3.6-9.8,3.7c-2.9,0.1-5.1-0.8-6.4-2.5c-0.7-1-0.9-1.9-0.6-2.6c0.3-0.7,1-1,1.9-1c0.7,0,1.5-0.1,2.4-0.3
		c0.9-0.2,1.9-0.4,2.9-0.7c1-0.3,1.9-0.6,2.7-0.9c0.8-0.4,1.5-0.7,2-1.1c2-1.5,3.2-3,3.7-4.4c0.5-1.4,0.5-3.2,0-5.5
		c-0.2-1-0.1-1.8,0.3-2.5c0.5-0.7,1.1-1,2-1.1c1.5-0.1,2.5,0.2,3.3,1.1c0.4,0.5,0.7,0.8,1,0.9c0.2,0.1,0.5,0.2,1,0.2
		c1.8,0,3.3,0,4.3,0c1.1,0,1.9,0,2.5,0c0.6,0,1-0.1,1.3-0.2s0.5-0.2,0.7-0.3c0.4-0.2,0.8-0.3,1.3-0.4c0.5-0.1,1-0.1,1.5,0
		c0.5,0.1,0.9,0.2,1.3,0.4c0.4,0.2,0.7,0.5,0.8,0.9c0.4,1.5,0.4,2.9,0,4.1c-0.5,1.2-0.5,2.5,0,4c0.5,1.5,1.4,2.4,2.8,2.9
		c2.1,0.8,4.4,1.3,6.9,1.6c2.5,0.3,5,0.2,7.6-0.1c2.5-0.3,5-1,7.4-1.9c2.4-0.9,4.5-2.2,6.3-3.8c1.2-1,1.9-1.4,2.4-1.3
		C144.3,375.2,144.5,375.9,144.4,377.3z"/>
</g>
<g class="st0">
	<path d="M146,535.5c-0.2,1.2-0.7,2.5-1.4,3.8c-0.7,1.3-1.5,2.6-2.4,3.9c-0.9,1.2-1.9,2.4-2.9,3.5c-1,1.1-1.9,1.9-2.8,2.5
		c-1,0.8-2.2,1.4-3.6,1.7c-1.4,0.4-3,0.5-4.9,0.4c-1.9-0.1-4-0.4-6.3-1.1c-2.4-0.6-5.1-1.6-8.1-2.8c-3.6-1.5-6.5-3-8.7-4.4
		c-2.2-1.4-3.8-2.8-4.8-4.3c-1-1.5-1.6-3.1-1.6-4.9c-0.1-1.8,0.2-3.8,0.9-6.1c0.4-1,0.4-1.5,0-1.5c-0.2-0.1-0.4,0-0.6,0.1
		c-0.2,0.1-0.3,0.2-0.4,0.4c-2,4.2-4.4,7.7-7.1,10.4c-2.8,2.7-5.9,5.1-9.4,7.1c-2.4,1.3-4.8,2.4-7.3,3.2c-2.5,0.8-4.9,1.3-7.1,1.5
		c-2.2,0.2-4.3,0-6.1-0.5c-1.9-0.5-3.3-1.5-4.2-2.9c-0.8-1.2-1.2-2-1-2.5c0.2-0.5,1.2-0.7,2.9-0.5c0.8,0.1,2.1-0.1,3.8-0.4
		c1.7-0.3,3.5-0.7,5.4-1.1c1.9-0.4,3.7-1,5.5-1.5c1.8-0.6,3.1-1.1,4-1.6c1.8-1,3.3-1.8,4.7-2.6c1.4-0.8,2.6-1.6,3.6-2.5
		c1.1-0.8,2-1.7,2.7-2.5c0.7-0.9,1.3-1.8,1.8-2.8c0.2-0.3,0.2-0.5,0-0.8c-0.2-0.2-0.4-0.3-0.8-0.2c-1.5,0.1-2.9,0.2-4.4,0.4
		c-1.5,0.1-2.9,0.2-4.2,0.4c-0.3,0-0.5,0.1-0.5,0.4c-0.3,0.6-0.7,1-1.2,1.1c-0.5,0.1-1.1,0.3-1.9,0.3c-1,0.1-1.9-0.2-2.5-0.8
		c-0.6-0.6-1-1.4-1.1-2.4c-0.1-1.2-0.3-2.5-0.4-3.8c-0.2-1.3-0.3-2.3-0.4-3.1c-0.2-1.2-0.2-2.4,0.1-3.6c0.1-0.4,0-0.6-0.2-0.8
		s-0.9-0.1-1.8,0c-2.8,0.5-4.9,0.6-6.3,0.1c-1.4-0.4-2.6-1.5-3.4-3.1c-0.4-0.7-0.5-1.5-0.1-2.2c0.4-0.8,1.1-1.1,2.1-1
		c1.1,0.1,2.9,0,5.5-0.4c2.6-0.4,5.6-1,9.1-2.1c2.5-0.7,4.8-1.4,6.6-2.1c1.9-0.7,3.5-1.3,4.8-1.8c1.3-0.6,2.4-1.1,3.3-1.7
		c0.9-0.6,1.6-1.2,2.1-1.8c0.9-1,2-1.5,3.1-1.7c1.2-0.1,2.3,0.2,3.4,1c1.3,1.1,1.5,2.4,0.5,3.9c-0.5,0.7-0.3,1,0.5,1.2
		c1.6,0.1,2.9,0,3.9-0.2c1.8-0.4,3-0.5,3.8-0.2c0.8,0.3,1.5,1,2.2,2.2c0.6,1,0.6,1.9,0,2.7c-0.6,0.8-2.1,1.6-4.4,2.5
		c-0.4,0.1-0.7,0.3-0.9,0.4c-0.2,0.2-0.5,0.4-0.8,0.6c-0.3,0.2-0.4,0.5-0.4,0.8c0.1,0.3,0.3,0.4,0.7,0.5c0.8,0.1,1.6,0.1,2.3,0.2
		c0.7,0.1,1.3,0.1,1.8,0.3c2.1,0.4,3.6,0.6,4.5,0.6c0.9,0,1.6-0.3,2.1-0.8c1-1,2.5-0.8,4.6,0.5c1.3,0.8,2,1.7,2.3,2.6
		c0.2,0.9,0.1,1.9-0.4,2.9c-0.4,0.8-0.6,1.6-0.8,2.6c-0.2,1-0.3,1.8-0.4,2.6c-0.1,1.5-0.7,2.6-1.8,3.1c-1.1,0.5-2.6,0.6-4.5,0.1
		c-1-0.2-2.2-0.4-3.8-0.6c-1.6-0.1-3.3-0.3-5.3-0.3c-0.3,0-0.5,0.2-0.6,0.5c-1.5,3.7-1.5,6.5,0,8.4c1.4,1.8,4.3,3,8.6,3.5
		c3,0.3,5.7,0.5,8.1,0.5c2.5,0,4.8-0.1,7-0.5c2.2-0.4,4.4-0.9,6.6-1.7c2.2-0.8,4.4-1.8,6.8-2.9c0.9-0.5,1.6-0.7,2-0.5
		C146.2,533.8,146.3,534.4,146,535.5z M98.3,510.8c0.9-1.1,1.2-1.9,1-2.4c-0.2-0.5-1.5-0.8-3.6-0.9c-1.4,0-2.9,0.3-4.6,1
		c-1.8,0.7-3.6,1.3-5.6,2c-2,0.7-3.9,1.4-5.7,2c-0.7,0.2-0.8,0.6-0.3,1.2c0.2,0.1,0.3,0.3,0.5,0.5c0.2,0.2,0.4,0.4,0.7,0.4
		c2.7-0.4,5.1-0.7,7.4-0.9c2.3-0.2,4.4-0.4,6.3-0.6c0.9-0.1,1.6-0.3,2.1-0.6C97.1,512.2,97.7,511.7,98.3,510.8z M92.6,518.3
		c0.1-0.5-0.2-0.8-0.7-0.8c-1.9,0.1-3.8,0.2-5.5,0.3c-1.8,0.1-3.4,0.3-4.8,0.5c-0.4,0.1-0.6,0.3-0.6,0.7c-0.1,0.5-0.1,1,0,1.5
		c0,0.5,0,1,0,1.5c0,0.5,0.3,0.7,0.9,0.7c1.6-0.1,3.2-0.2,4.8-0.3c1.6-0.1,3.3-0.1,5-0.3c0.3,0,0.5-0.2,0.6-0.5
		c0.1-0.5,0.2-1.1,0.2-1.6C92.5,519.6,92.5,519,92.6,518.3z M116.2,520.2c0.1-0.8,0-1.4-0.5-1.8c-0.5-0.4-1.5-0.7-3-0.8
		c-1.2-0.1-2.7-0.2-4.5-0.3c-1.8-0.1-3.7-0.1-5.7-0.1c-0.3,0-0.5,0.2-0.6,0.5c-0.2,0.5-0.5,1.1-0.6,1.7c-0.2,0.6-0.4,1.1-0.5,1.7
		c-0.2,0.6,0,0.9,0.7,0.9c2.3-0.1,4.3-0.2,6-0.2s3,0.1,3.8,0.2c1.6,0.1,2.8,0.1,3.6-0.2C115.6,521.6,116.1,521.1,116.2,520.2z
		 M119.7,532.8c1.2,1,1.1,1.8-0.5,2.4c-1,0.4-2.3,0.5-3.8,0.3c-1.5-0.2-2.8-0.9-3.8-2c-0.8-0.8-1.2-1.7-1.3-2.8
		c-0.1-1.1,0.3-2,1.2-2.8c0.7-0.7,1.6-0.8,2.7-0.6c1.1,0.3,2,0.9,2.6,1.9c0.4,0.6,0.8,1.2,1.2,1.8
		C118.5,531.7,119.1,532.3,119.7,532.8z"/>
</g>
<g class="st0">
	<path d="M364.3,85.8c-1.2,2.8-2.6,5.2-4.2,7.2c-1.6,2-3.2,3.4-5,4.2c-1.9,1-4,1.4-6.3,1.4c-2.2,0-5.1-0.7-8.5-2.1
		c-1.2-0.4-2.2-0.8-3-1.2c-0.9-0.4-1.7-0.7-2.7-1.1c-0.9-0.4-2-0.7-3.1-1.2c-1.2-0.4-2.6-0.9-4.4-1.5c-1.9-0.7-3.4-1.3-4.6-1.9
		c-1.2-0.6-2.2-1.2-2.9-2c-0.7-0.7-1.2-1.5-1.5-2.4c-0.3-0.9-0.5-1.9-0.5-3.1c0-0.5-0.3-0.6-1-0.4c-0.8,0.3-1.4,0.5-1.9,0.6
		c-0.5,0.1-1,0.2-1.6,0.2c-0.8,0.1-1.5,0.1-1.9-0.2c-0.4-0.2-0.7-0.6-0.9-1.1c-0.3-0.7-0.3-1.2-0.1-1.5c0.2-0.3,0.8-0.7,1.9-1.1
		c0.8-0.3,1.7-0.6,2.5-1c0.8-0.4,1.7-0.8,2.6-1.2c0.5-0.3,0.9-0.6,1.1-0.8c0.2-0.3,0.3-0.7,0.5-1.4c0.1-0.5,0.2-1,0.4-1.6
		c0.1-0.6,0.2-1.2,0.4-1.8c0.5-2.1,0.9-3.8,1.1-5.1c0.3-1.3,0.5-2.3,0.8-3.1c0.3-0.8,0.4-1.4,0.4-1.7c0-0.3-0.2-0.4-0.4-0.4
		c-0.5,0-0.9,0.1-1.1,0.4c-0.3,0.2-0.6,0.7-0.9,1.3c-0.3,0.8-0.7,1.6-1.2,2.5c-0.5,0.9-1,1.9-1.5,2.8c-1.8,3.5-3.6,6.5-5.2,9.1
		c-1.7,2.5-3.5,4.7-5.5,6.6c-2,1.9-4.3,3.5-6.8,5s-5.6,2.8-9.1,4.1c-1.8,0.7-3.4,1-4.9,1.1c-1.5,0.1-2.8-0.1-3.9-0.5
		c-1.1-0.4-2-1-2.7-1.7c-0.7-0.7-1.1-1.6-1.3-2.5c-0.1-0.7,0-1.1,0.2-1.3c0.3-0.2,1-0.5,2.3-0.8c5.8-1.2,11-3,15.6-5.5
		c4.6-2.5,8.4-5.6,11.3-9.3c1-1.2,2-2.7,2.8-4.4c0.8-1.7,1.5-3.3,2-4.8c0.3-0.8,0.3-1.4,0.1-1.6c-0.2-0.2-0.7-0.4-1.6-0.4
		c-1.9,0-3.8,0.1-5.6,0.2c-1.8,0.1-3.3,0.3-4.5,0.6c-2.1,0.4-4.1,0.7-6,1.1c-1.9,0.4-3.5,0.7-4.5,1c-1.6,0.4-2.7,0.2-3.5-0.7
		c-0.6-0.8-0.8-1.6-0.6-2.4c0.2-0.8,0.9-1.8,2.1-3c1.4-1.4,2.5-2.2,3.2-2.5c0.7-0.3,1.5-0.3,2.3,0c0.4,0.1,1,0.2,2,0.3
		c0.9,0.1,1.7,0.1,2.4,0c0.8-0.1,2.4-0.2,5-0.2c2.5,0,5.5,0,9,0c0.9,0,1.5-0.1,1.7-0.3c0.2-0.2,0.3-0.6,0.4-1.2
		c0.1-1,0.2-2.1,0.2-3.2c0-1.1,0-2-0.1-2.7c-0.1-1.4-0.1-2.3,0.1-2.7c0.2-0.4,0.5-0.8,0.9-1.1c0.8-0.5,1.6-0.8,2.3-0.8
		c0.7,0,1.6,0.4,2.8,1.1c1,0.7,1.7,1.4,2.1,2.3s0.5,2.1,0.4,3.7c-0.1,1.2-0.2,2.4-0.3,3.5c-0.1,0.6,0,1,0.2,1.2
		c0.2,0.2,0.6,0.3,1.3,0.3c2.8,0.1,5.6,0.1,8.3,0.1c2.8,0,5.3,0.1,7.7,0.1c2.4,0.1,4.5,0.1,6.4,0.1c1.8,0,3.3,0.1,4.2,0.1
		c1.3,0.1,2.2,0.4,2.7,0.8c0.5,0.4,0.6,1,0.4,1.9c-0.2,1.2-1.1,1.8-2.6,1.9c-3.8,0.1-7.3,0.2-10.6,0.3c-3.3,0.1-6.7,0.2-10.2,0.2
		c-0.7,0-1.1,0-1.2,0.1c-0.1,0.1-0.1,0.2,0,0.4c0.2,0.2,0.3,0.6,0.3,1.1c0,0.5-0.3,1.3-1,2.3c-0.5,0.7-0.9,1.5-1.2,2.5
		c-0.3,1-0.6,2-0.8,3.1c-0.1,0.8-0.1,1.2,0,1.3c0.2,0.1,0.7-0.2,1.5-0.8c1.3-0.9,2.5-1.7,3.5-2.5c1-0.8,1.6-1.4,2-1.9
		c0.8-1.1,1.7-1.8,2.6-2.3c0.9-0.4,1.9-0.5,2.9-0.2c1.5,0.5,2.3,1.6,2.5,3.3c0.1,1.2-0.1,2.2-0.7,3c-0.6,0.7-1.8,1.6-3.7,2.6
		c-1.7,0.9-3.3,1.7-4.8,2.5c-1.5,0.8-2.9,1.5-4.2,2.1c-0.9,0.4-1.4,0.8-1.5,1.1c-0.2,0.3-0.2,0.8,0,1.4c0.2,1.2,1.2,2.3,2.8,3.3
		c1.6,1,4.3,1.9,8,2.5c1.2,0.2,2.9,0.3,5.3,0.3c2.4,0,4.9,0,7.5-0.2c2.6-0.1,5.1-0.4,7.5-0.7c2.4-0.3,4.1-0.7,5.3-1.2
		c1.2-0.5,2-0.6,2.4-0.3C364.8,83.9,364.8,84.6,364.3,85.8z M342.8,46.4c0.9,1.1,0.8,2.5-0.4,4c-0.7,1-1.9,1.7-3.8,2
		c-1.9,0.3-4,0.3-6.6-0.1c-1.2-0.2-1.7-0.5-1.8-1c0-0.5,0.4-1,1.2-1.4c0.2-0.1,0.6-0.3,1-0.6c0.4-0.3,0.8-0.6,1.3-0.9
		c0.4-0.3,0.8-0.7,1.2-1c0.4-0.3,0.7-0.6,0.9-0.8c1-1.2,2.2-1.8,3.6-1.8C340.9,44.7,342,45.3,342.8,46.4z"/>
</g>
<g class="st0">
	<path d="M319.1,244.4c0.5,2.1-0.1,3.4-1.6,4.1c-0.5,0.3-1.3,0.2-2.2-0.2c-0.9-0.4-1.7-1-2.1-1.7c-0.3-0.5-0.6-1-0.9-1.5
		c-0.3-0.5-0.6-1.1-0.9-1.6c-0.3-0.5-0.7-0.6-1.2-0.4c-2.1,0.8-4.2,1.5-6.4,2.2c-2.2,0.7-4.3,1.4-6.5,2c-2.1,0.6-4.2,1.1-6.1,1.6
		c-1.9,0.5-3.7,0.8-5.2,1.1c-1.1,0.2-2,0.1-2.8-0.2c-0.8-0.3-1.4-1.1-1.8-2.3c-0.2-0.5-0.3-1.1-0.2-2c0-0.9,0.3-1.6,0.8-2.3
		c0.5-0.7,1.1-1,1.8-1.1c0.7-0.1,1.9-0.2,3.5-0.2c0.7-0.1,1.8-0.2,3.5-0.3c1.7-0.1,3.6-0.3,5.7-0.6c0.5-0.1,0.8-0.4,0.8-0.9v-6.6
		c0-0.4-0.1-0.7-0.3-0.8c-0.2-0.1-0.5-0.1-1.1-0.1h-2.5c-0.3,0-0.5,0.1-0.7,0.4c-0.2,0.4-0.4,0.6-0.8,0.7c-0.3,0.1-0.7,0.2-1,0.2
		c-1.1-0.1-1.9-0.4-2.3-1.1c-0.5-0.7-0.8-1.7-1.1-3.1c-0.2-0.8-0.4-1.9-0.6-3.1c-0.2-1.2-0.4-2.5-0.6-3.7c-0.2-1.2-0.4-2.4-0.5-3.5
		c-0.2-1.1-0.3-2-0.3-2.6c-0.1-0.5,0.1-1.1,0.6-1.9c0.5-0.8,1.1-1.3,1.9-1.4c1.1-0.1,2-0.1,2.6,0c0.7,0.1,1.5,0.6,2.5,1.2
		c0.2,0.1,0.6,0.2,1.3,0.2c0.7,0,1.3,0,1.8,0c0.4,0,0.6-0.1,0.7-0.2c0.1-0.1,0.1-0.4,0.1-0.7c-0.1-1.2-0.1-2.6-0.1-4
		c0-1.4-0.1-2.9-0.2-4.5c-0.1-0.8,0.2-1.6,0.7-2.3c0.5-0.7,1.2-1.1,2-1.2c0.6-0.1,1.3-0.1,2,0.1c0.8,0.2,1.4,0.5,2,0.9
		c0.6,0.4,1.1,0.9,1.5,1.5c0.4,0.6,0.5,1.2,0.5,1.8c-0.1,1.3-0.2,2.6-0.3,3.8c-0.1,1.2-0.1,2.5-0.2,3.7c0,0.6,0.3,0.9,0.9,0.9
		c0.5,0,0.9,0,1.1,0c0.3,0,0.5,0,0.6,0c0.7-0.1,1.2-0.1,1.6-0.3c0.4-0.1,1.1-0.3,1.9-0.6c0.4-0.2,0.9-0.2,1.4-0.1
		c0.5,0.1,1,0.4,1.4,0.8c0.4,0.4,0.7,0.9,1,1.5c0.2,0.6,0.3,1.2,0.1,2c-0.1,0.7-0.2,1.4-0.3,2.3c-0.1,0.9-0.2,1.8-0.2,2.7
		c0,0.9-0.1,1.7-0.1,2.5c0,0.8,0,1.3,0,1.7c0.1,2-0.3,3.5-1.2,4.6c-0.9,1.1-1.9,1.6-3.1,1.4c-0.2,0-0.5,0-0.8-0.1
		c-0.4-0.1-0.8-0.1-1.2-0.2c-0.5-0.1-0.9-0.2-1.4-0.2c-0.5-0.1-0.8-0.1-1.1-0.1c-0.7,0-1.1,0.3-1.1,0.8c-0.1,0.9-0.1,1.8-0.1,2.8
		c0,1,0,1.9-0.1,2.9c0,0.7,0.4,1,1.1,0.9c0.5-0.1,1-0.2,1.5-0.3c0.5-0.1,1-0.1,1.5-0.2c0.9-0.1,1.1-0.8,0.5-2.2
		c-0.5-1.4-0.2-2.3,0.9-2.7c0.8-0.3,1.6-0.3,2.3,0c0.7,0.3,1.3,0.7,2,1.3c0.5,0.5,1,1.1,1.6,1.8c0.6,0.7,1.1,1.5,1.6,2.4
		c0.5,0.8,0.9,1.7,1.3,2.5C318.7,243.1,318.9,243.8,319.1,244.4z M297.3,227.2c0-1.1,0-2.3,0-3.4c0-1.2-0.1-2.3-0.1-3.5
		c0-0.7-0.3-1-0.9-1c-0.4,0-0.9,0-1.3,0c-0.4,0-0.9,0-1.4,0c-0.6,0-0.9,0.3-0.9,1c-0.1,1-0.1,2,0,3c0.1,1,0.2,2.2,0.3,3.6
		c0,0.5,0.2,0.7,0.5,0.8c0.8,0.2,1.6,0.4,2.5,0.4c0.6,0,1,0,1.1-0.1C297.2,227.9,297.3,227.6,297.3,227.2z M309.4,219.9
		c-0.1-0.5-0.3-0.8-0.9-0.8c-0.5-0.1-1.5-0.1-2.9,0c-0.7,0-1.1,0.3-1.1,1c-0.1,1.1-0.1,2.3-0.1,3.5c0,1.2-0.1,2.4-0.1,3.6
		c0,0.6,0.3,0.9,0.9,0.9h2c0.7,0,1.2-0.1,1.5-0.4s0.5-0.7,0.6-1.3c0.1-1.2,0.2-2.3,0.2-3.4C309.6,221.7,309.5,220.7,309.4,219.9z
		 M359.5,225c-0.2,1.4-0.5,2.5-0.8,3.3s-1,1.4-1.8,1.7c-0.8,0.3-1.5,0.4-2.1,0.3c-0.6-0.1-0.9-0.8-1-2c-0.1-1.8-0.1-3.3-0.1-4.5
		c0-1.1-0.1-2-0.2-2.7c-0.1-0.7-0.2-1.2-0.3-1.6c-0.1-0.4-0.3-0.7-0.5-1c-0.3-0.4-0.7-0.7-1.1-0.9c-0.5-0.3-1.5-0.5-3.1-0.6
		c-1.5-0.1-2.8-0.2-4-0.3c-1.1-0.1-2.4-0.1-3.7-0.1c-1.4,0-3,0-5,0.1c-2,0.1-4.6,0.1-7.8,0.3c-1.3,0.1-2.4,0.3-3,0.8
		c-0.7,0.5-1.3,1.2-1.8,2.1c-0.2,0.5-0.5,1.4-0.7,2.9c-0.2,1.4-0.5,3.3-0.8,5.7c-0.1,0.7-0.4,1.3-0.9,1.7c-0.5,0.4-0.9,0.6-1.4,0.7
		c-0.5,0.1-1,0-1.4-0.3c-0.5-0.2-0.7-0.7-0.9-1.2c-0.1-0.4-0.2-1.2-0.3-2.3c-0.1-1.1-0.1-2.3-0.1-3.6c0-1.3,0-2.6,0-3.9
		c0-1.3,0.1-2.3,0.2-3.2c0.1-1.5,0.3-2.5,0.5-3.1c0.2-0.6,0.7-1.2,1.3-1.7c0.7-0.7,1.4-1,2.2-1.1s1.4,0,1.7,0.3
		c0.2,0.2,0.8,0.4,1.8,0.8c1,0.3,2,0.4,2.9,0.3c0.5-0.1,1-0.1,1.6-0.1c0.6,0,1.2,0,2,0c0.4,0,0.7-0.1,0.8-0.2
		c0.1-0.1,0.1-0.4,0.1-0.8c-0.1-1.3-0.2-2.3-0.3-2.9c-0.1-0.7-0.1-1.4-0.2-2.2c-0.1-0.9,0.3-1.7,1-2.5c0.7-0.8,1.7-1.3,3-1.5
		c0.8-0.1,1.9,0.1,3.1,0.8c1.2,0.6,2.3,1.7,3.3,3.3c0.4,0.7,0.2,2.4-0.6,5c-0.3,0.8,0,1.2,0.8,1.2c1.5,0.1,2.9,0.1,4.4,0.2
		c1.5,0.1,2.9,0.1,4.2,0.3c0.4,0.1,0.9,0.1,1.5,0c0.7-0.1,1.2-0.2,1.5-0.4c1-0.5,1.9-0.7,2.5-0.6c0.7,0.1,1.5,0.7,2.5,1.6
		c0.8,0.8,1.3,2.2,1.4,4C360.1,218.3,359.9,221.1,359.5,225z M368.8,242c-0.5,3.2-1.7,5.8-3.5,8c-1.8,2.2-3.6,3.9-5.5,5
		c-1.4,1-3.2,1.4-5.4,1.4c-2.2,0-5.1-0.4-8.8-1.2c-1.5-0.4-2.8-0.7-3.9-0.9c-1.1-0.3-2-0.5-2.9-0.8c-0.9-0.3-1.7-0.5-2.5-0.8
		c-0.8-0.3-1.7-0.7-2.7-1.2c-1.5-0.6-2.7-1.2-3.6-1.8c-0.9-0.6-1.7-1.3-2.3-2.1c-0.6-0.8-1-1.7-1.3-2.9c-0.3-1.1-0.5-2.5-0.7-4.2
		c-0.1-0.9-0.2-1.8-0.2-2.7c0-0.9,0-2,0-3.2c0.1-1.2,0.2-2.6,0.4-4.2c0.2-1.6,0.5-3.6,0.9-5.9c0.4-2.9,1.6-4.3,3.5-4.1
		c1.2,0.1,2.1,0.7,2.6,1.7c0.5,1,0.7,2,0.5,2.9c-0.1,0.5-0.2,1-0.3,1.5c-0.1,0.5-0.2,1-0.3,1.6c-0.2,1,0.2,1.3,1.1,1.2
		c1-0.2,1.9-0.5,2.7-0.8s1.6-0.6,2.5-1c0.8-0.4,1.7-0.9,2.6-1.4c0.9-0.5,2-1.2,3.2-2c1.1-0.7,2-1,2.6-0.8c0.6,0.1,1.3,0.8,2,2
		c0.5,0.9,0.6,1.9,0.2,3c-0.4,1.1-1.4,1.9-3,2.3c-3.1,0.8-5.7,1.4-7.9,1.7c-2.2,0.3-4,0.4-5.7,0.2c-0.7-0.1-1,0.1-1,0.8
		c-0.1,1.4-0.1,2.8,0,4c0.1,1.2,0.3,2.2,0.5,3.1c1.3,4,5.7,5.9,13.2,5.7c2.7-0.1,5.1-0.3,7.1-0.5c2-0.2,3.9-0.5,5.6-0.9
		c1.7-0.4,3.3-0.9,4.7-1.5c1.5-0.6,2.9-1.4,4.5-2.4C368.7,240.4,369,240.8,368.8,242z"/>
</g>
<g class="st0">
	<path d="M341.9,385.2c0,1.7-1.4,2.6-4.2,2.9c-1.9,0.2-4.3,0.4-7.2,0.5c-2.9,0.2-6,0.3-9.4,0.4c-2.4,0.1-4.8,0.1-7.3,0.2
		c-2.5,0.1-4.9,0.1-7.2,0.2c-2.3,0.1-4.5,0.2-6.5,0.3c-2,0.1-3.7,0.2-5.1,0.4c-1.6,0.2-2.9,0.3-4,0.5c-1.1,0.1-2.1,0.3-3.1,0.6
		c-1,0.2-1.8,0.4-2.4,0.5s-1.4,0.1-2.4,0c-1.2-0.1-2.2-0.5-2.9-1.3c-0.7-0.8-0.9-1.6-0.6-2.4c0.3-1,0.8-1.7,1.4-2.3
		c0.6-0.6,1.3-1,2.1-1.3c1.4-0.5,2.6-0.7,3.7-0.8c1.1-0.1,2.1,0.1,3.1,0.4c1.2,0.3,2.3,0.5,3.4,0.5c1.1,0,2.3,0,3.7-0.1
		c4.9-0.3,9.1-0.5,12.6-0.7c3.5-0.2,6.7-0.3,9.6-0.3c2.9,0,5.8,0,8.6,0c2.8,0.1,6,0.1,9.6,0.3c1.8,0.1,2.9,0.2,3.5,0.5
		C341.6,384.3,341.9,384.7,341.9,385.2z M360.1,381.8c-0.3,1.8-0.7,3.7-1.3,5.6c-0.6,1.9-1.3,3.6-2.1,5.2c-0.9,1.6-1.8,3-2.9,4.1
		c-1.1,1.2-2.2,2-3.5,2.5c-2.7,1-5.3,1.5-7.7,1.5c-2.4,0-4.5-0.6-6.1-1.7c-1.5-1.1-2.6-2-3.1-2.8c-0.6-0.8-0.9-1.4-1-2
		c-0.1-0.8,0-1.2,0.2-1.4s0.8-0.2,1.5,0c3.4,0.8,6.4,1,9,0.4c2.6-0.5,4.4-1.8,5.4-3.9c0.5-0.8,0.9-2,1.4-3.5
		c0.4-1.5,0.7-3.1,0.9-4.9c0.1-1.2-0.3-2.1-1.1-2.9c-0.9-0.7-2.7-1.1-5.6-1.2c-1.9-0.1-3.9-0.1-6.2-0.1c-2.2,0-4.5,0-6.9,0
		c-2.3,0-4.6,0-6.9,0.1c-2.2,0.1-4.3,0.1-6.1,0.1c-1.9,0-3.4,0.1-4.7,0.1c-1.3,0.1-2.2,0.1-2.7,0.2c-0.7,0.1-1.5,0.3-2.2,0.4
		c-0.8,0.2-1.7,0.4-3,0.8c-1.1,0.4-2,0.4-2.9,0.3c-0.8-0.2-1.5-0.5-1.9-1c-0.5-0.5-0.7-1.1-0.8-1.9c-0.1-0.7,0-1.5,0.3-2.3
		c0.4-1.1,0.8-2.1,1.1-3c0.3-0.9,0.6-1.7,0.8-2.6c0.2-0.9,0.4-1.8,0.5-2.8c0.1-1,0.2-2.3,0.3-3.7c0.1-1.8,0.4-3,0.8-3.7
		c0.4-0.7,1.2-1.1,2.5-1.1c0.7,0,1.4,0.1,2.1,0.4c0.7,0.3,1.3,0.6,1.8,1.1c0.5,0.4,0.8,1,1.1,1.5c0.2,0.6,0.3,1.1,0.2,1.6
		c-0.3,1.2-0.5,2.3-0.7,3.4c-0.2,1.1-0.4,2.5-0.7,4.1c-0.2,1.5-0.3,2.4-0.1,2.7c0.2,0.3,0.8,0.4,1.9,0.3c2.6-0.2,5.4-0.4,8.4-0.5
		c3-0.1,6-0.2,9.1-0.2c0.4,0,0.6-0.1,0.8-0.2c0.2-0.1,0.3-0.5,0.5-0.9c0.9-5.4,1.4-8.9,1.4-10.7c0-1.5-0.2-2.5-0.7-3.1
		c-0.5-0.6-1.3-1-2.4-1.1c-1.5-0.2-3.3-0.3-5.3-0.4c-2-0.1-4.1-0.1-6.3-0.1c-2.2,0-4.4,0.1-6.5,0.3c-2.2,0.1-4.1,0.3-6,0.6
		c-1.2,0.2-2.3,0.4-3.2,0.5c-0.9,0.2-1.8,0.4-2.6,0.5c-0.8,0.2-1.5,0.4-2.2,0.6c-0.7,0.2-1.4,0.4-2.1,0.7c-1.7,0.6-2.9,0.6-3.6-0.1
		c-0.7-0.7-0.8-1.8-0.3-3.3c0.4-1,1.3-1.9,2.5-2.7c1.2-0.8,2.6-1.4,4-1.9c1.2-0.4,2.2-0.6,2.9-0.7c0.7,0,1.5,0.2,2.5,0.6
		c0.4,0.2,1,0.3,1.6,0.3c0.7,0,1.6-0.1,2.9-0.3c0.7-0.1,2-0.2,3.7-0.3c1.8-0.1,3.7-0.1,5.9-0.1c2.2,0,4.4,0,6.6,0
		c2.2,0,4.2,0.1,6,0.1c1,0.1,1.8,0,2.4-0.1c0.6-0.1,1.3-0.4,2-0.7c0.7-0.3,1.7-0.4,2.8-0.2c1.2,0.1,2.2,0.6,3.3,1.4
		c1.2,0.8,1.8,1.7,1.9,2.6c0.1,0.9,0,2.1-0.5,3.5c-0.3,0.9-0.5,1.7-0.7,2.5c-0.2,0.7-0.3,1.6-0.5,2.6c-0.2,1-0.3,2.2-0.4,3.6
		c-0.1,1.4-0.2,3.2-0.4,5.4c-0.1,0.6,0,1,0.1,1.2c0.1,0.2,0.4,0.3,0.8,0.3c0.7,0,1.5,0,2.4,0c0.9,0,1.7,0.1,2.6,0.1
		c0.8,0,1.6,0,2.3,0c0.7,0,1.2,0,1.5,0c0.9,0.1,1.8,0,2.5-0.1c0.8-0.1,1.5-0.3,2.2-0.5c0.8-0.3,1.8-0.2,2.8,0.2c1,0.4,1.8,1,2.3,1.9
		c0.9,1.4,1.5,2.8,1.7,4.3C360.4,378.4,360.4,380,360.1,381.8z"/>
</g>
<g class="st0">
	<path d="M366.4,538.6c-0.4,1-1.1,2.1-2,3.4c-0.9,1.2-1.8,2.2-2.6,2.8c-2.2,1.5-4.5,2.4-6.6,2.8c-2.2,0.4-4.7,0.1-7.5-0.9
		c-2.9-1-6-1.9-9.2-2.5c-3.2-0.7-6.6-1.2-10.3-1.6c-0.9-0.1-1.5-0.1-1.7,0c-0.2,0.1-0.4,0.5-0.4,1.1c0.1,1.9,0.1,3.7,0.1,5.3
		c0,1.6,0,3.1,0.1,4.5c0,1.2-0.1,2.3-0.2,3.1c-0.1,0.8-0.4,1.5-0.8,2.1c-0.4,0.5-0.9,1-1.6,1.3c-0.7,0.3-1.6,0.6-2.8,0.8
		c-1.8,0.5-3.2,0.4-4.1-0.3c-0.9-0.7-1.3-2.2-1.3-4.7c0.1-2.3,0.1-4.4,0.1-6.4c0-2,0.1-3.9,0.1-5.7c0-0.7-0.1-1.1-0.4-1.3
		c-0.3-0.2-0.9-0.4-1.9-0.4c-1.2,0.1-2.5,0.1-3.8,0.1c-1.3,0-2.6,0.1-3.9,0.2c-4.1,0.2-7.9,0.8-11.5,1.8c-3.6,1-6.7,2-9.2,3.2
		c-1.2,0.5-2.2,0.9-3,1.1c-0.8,0.2-1.4,0.2-2,0c-0.5-0.1-0.9-0.5-1.1-0.9c-0.2-0.5-0.5-1.1-0.6-1.8c-0.1-0.7,0.1-1.5,0.7-2.6
		c0.6-1.1,1.5-2.1,2.6-3.1c0.6-0.5,1.3-0.9,2.2-1.2c0.9-0.3,1.8-0.4,2.9-0.4c1.2,0.1,2.4,0.1,3.8,0c1.4,0,2.9-0.1,4.4-0.2
		c1.5-0.1,3-0.3,4.5-0.4c1.5-0.2,3-0.4,4.4-0.6c0.8-0.1,2.1-0.2,3.8-0.3c1.7-0.1,3.7-0.1,6-0.3c0.9-0.1,1.5-0.3,1.8-0.8
		c0.3-0.5,0.5-1.5,0.6-3.1c0.1-1,0.1-1.7-0.1-1.9c-0.2-0.3-0.7-0.4-1.3-0.3c-2.1,0.1-3.9,0.1-5.2,0.2c-1.3,0.1-2.5,0.1-3.4,0.2
		c-0.9,0.1-1.7,0.2-2.2,0.3c-0.6,0.1-1.1,0.3-1.7,0.4c-2.2,0.7-3.8,1-4.7,0.9s-1.8-0.6-2.5-1.6c-0.4-0.5-0.5-1.2-0.3-2
		c0.2-0.8,0.9-1.6,2.1-2.4c0.7-0.5,1.6-0.9,2.5-1.1c1-0.2,1.9-0.2,2.8,0c0.5,0.1,1.1,0.2,1.7,0.3c0.7,0.1,1.4,0.1,2.3,0
		c1.2-0.1,2.4-0.2,3.8-0.2s2.7,0,4.1-0.1c1.1-0.1,1.8-0.2,2.2-0.5c0.4-0.3,0.6-1,0.6-2.1c0.1-1,0-1.5-0.3-1.8
		c-0.3-0.2-0.8-0.4-1.7-0.4c-2.9,0.1-5.6,0.1-8.1,0.1c-2.5,0-4.7,0.1-6.9,0.2c-0.5,0-1.2,0.1-2,0.2c-0.8,0.1-1.6,0.3-2.3,0.4
		c-0.8,0.1-1.5,0.3-2.2,0.5c-0.7,0.2-1.3,0.4-1.7,0.5c-1.2,0.5-2.1,0.7-2.7,0.5c-0.6-0.1-1.1-0.5-1.5-1.2c-0.5-0.7-0.7-1.4-0.6-2.1
		c0.1-0.8,0.7-1.5,1.9-2.2c1.6-1,2.8-1.5,3.7-1.6c0.9-0.1,1.6,0,2.1,0.3c0.7,0.4,1.8,0.7,3.3,0.8c1.5,0.1,2.8,0,3.9-0.3
		c0.7-0.1,1.4-0.2,2.1-0.4c0.8-0.1,1.6-0.2,2.5-0.4c1.6-0.2,1.6-0.5,0.2-1.1c-1.3-0.5-2.3-0.9-3-1.4c-0.8-0.4-1.3-0.9-1.7-1.3
		c-0.4-0.4-0.6-0.9-0.6-1.4c0-0.5,0-1.1,0.1-1.7c0.2-1.1,0.7-1.9,1.6-2.5s2-1,3.4-1.1c1.6-0.1,2.7,0.1,3.4,0.7
		c0.7,0.6,1.1,1.4,1.1,2.5c0.1,1.1,0.2,2,0.5,2.8c0.3,0.8,0.9,1.7,1.7,2.6c0.5,0.7,1,1.1,1.5,1.2c0.4,0.2,1,0.2,1.6,0.2
		c0.6-0.1,1.4-0.1,2.4-0.1c1,0,1.9,0,2.9,0c1,0,1.9,0,2.8,0c0.9,0,1.6,0,2,0c1.1,0,1.8-0.1,2.2-0.3c0.4-0.2,0.8-0.6,1.3-1.3
		c1.2-1.7,1.9-3.3,2.3-4.9c0.3-1.3,0.9-2.3,1.8-2.9c0.9-0.6,1.8-0.8,2.8-0.7c1.1,0.2,2,0.6,2.7,1.2c0.7,0.6,1.2,1.3,1.5,2.1
		c0.2,0.8,0.2,1.6-0.1,2.5c-0.3,0.9-1,1.6-2.1,2.2c-0.5,0.2-1,0.5-1.5,0.7c-0.5,0.2-1,0.5-1.5,0.8c-0.4,0.2-0.5,0.4-0.5,0.5
		s0.3,0.3,1,0.3c2.1,0.1,4.4,0.1,6.7,0.2c2.4,0.1,4.8,0.1,7.2,0.3c1,0.1,1.7,0.2,2,0.5c0.3,0.3,0.4,0.8,0.3,1.4
		c-0.2,0.8-0.6,1.4-1.3,1.7c-0.7,0.3-1.7,0.5-2.9,0.5c-4.1,0-7.9,0-11.4,0c-3.5,0-6.6,0-9.4,0.1c-0.7,0-1.2,0.1-1.4,0.3
		c-0.2,0.2-0.3,0.7-0.3,1.5c0,1.3,0.1,2.2,0.4,2.5c0.3,0.4,0.7,0.6,1.4,0.6c2.3,0.1,4.2,0.1,5.7,0.1c1.5,0,2.8,0.1,3.8,0.1
		c1,0,1.9,0.1,2.5,0.1c0.7,0.1,1.3,0.1,2,0.2c1.3,0.1,2.1,0.3,2.6,0.6c0.5,0.3,0.7,0.7,0.6,1.3c-0.1,1.3-1,2.1-2.7,2.3
		c-0.3,0.1-0.8,0.1-1.6,0.1c-0.8,0-1.6,0-2.4,0c-0.9,0-1.7,0-2.5,0c-0.8,0-1.4,0-1.7,0c-0.9-0.1-1.8-0.1-3-0.1c-1.1,0-2.3,0-3.4,0
		c-0.9,0-1.4,0.1-1.5,0.4c-0.2,0.3-0.3,1-0.3,2.1c0,1.5,0.1,2.5,0.4,3s0.9,0.7,2,0.7c3.3,0,6.5,0,9.4,0.1c2.9,0.1,5.7,0.1,8.5,0.1
		c2.8,0,5.5,0.1,8.4,0.2c2.8,0.1,5.8,0.2,8.9,0.3c1.5,0.1,2.4,0.2,2.7,0.4C366.5,537.8,366.6,538.1,366.4,538.6z"/>
</g>
<g class="st0">
	<path d="M602.2,80.7c-0.7,1.3-1.4,2.3-2,2.9c-0.7,0.7-1.7,1.3-2.9,2c-0.9,0.4-1.7,0.6-2.5,0.7c-0.8,0-2-0.2-3.6-0.8
		c-1.4-0.5-3.1-0.9-5-1.3c-2-0.4-4-0.8-6-1.1c-0.5-0.1-0.9,0-1.1,0.1c-0.2,0.1-0.3,0.5-0.5,1.1c-0.4,1.4-0.9,2.8-1.7,4.2
		c-0.8,1.4-1.6,2.6-2.6,3.8c-1,1.2-2,2.3-3,3.2c-1.1,1-2.1,1.7-3,2.2c-1.4,0.8-2.9,1.3-4.6,1.6c-1.7,0.3-3.2,0.1-4.7-0.5
		c-1.2-0.5-2.1-0.4-2.7,0.4c-0.3,0.4-0.7,0.8-1.1,1.1c-0.5,0.3-1,0.6-1.7,1c-1.8,0.8-2.9,0.6-3.5-0.8c-0.5-1.4-0.7-3.3-0.5-5.9
		c0.2-2.9,0.3-5.4,0.5-7.5c0.2-2.2,0.3-4.3,0.4-6.3c0.1-2,0.2-4,0.2-6c0.1-2,0.1-4.2,0.1-6.7c0-0.5-0.1-0.9-0.4-1.2
		c-0.2-0.2-0.9-0.4-1.8-0.5c-1.6-0.2-2.9-0.6-3.6-1.1c-0.8-0.5-1.4-1.2-1.9-2.2c-0.3-0.7-0.8-0.7-1.5-0.3c-0.5,0.3-0.7,0.6-0.7,0.8
		c0,0.2,0.1,0.6,0.4,1.1c0.6,1.2,1.2,2.6,1.6,4c0.5,1.4,0.9,2.8,1.3,4.1c0.4,1.3,0.7,2.6,0.9,3.9c0.2,1.2,0.3,2.3,0.3,3.2
		c0.2,5.8-0.5,10.5-2.1,14.1c-1.6,3.6-4.4,6.1-8.4,7.5c-0.8,0.3-1.6,0.4-2.5,0.4c-0.9-0.1-1.8-0.3-2.6-0.7c-0.8-0.4-1.6-1-2.2-1.6
		c-0.7-0.7-1.2-1.4-1.5-2.2c-0.3-0.7-0.4-1.1-0.2-1.3c0.2-0.2,0.6-0.4,1.4-0.4c1.8-0.2,3.3-0.5,4.6-1.1c1.3-0.6,2.4-1.4,3.2-2.6
		c0.8-1.2,1.5-2.7,1.9-4.6c0.4-1.9,0.6-4.3,0.6-7c0-0.7-0.1-1.1-0.2-1.2c-0.2-0.1-0.5,0.2-1,0.7c-1.5,1.8-3.2,3.5-5,4.9
		c-1.8,1.4-4,2.8-6.6,4.2c-1.9,1.2-3.5,1.8-4.8,1.7c-1.3,0-2.5-0.6-3.6-1.8c-0.7-0.7-1-1.4-0.9-2.1c0.1-0.7,0.6-1.2,1.6-1.5
		c1.3-0.4,2.7-1,4.3-1.8c1.6-0.9,3.2-1.9,4.8-3s3.3-2.5,4.9-4c1.6-1.5,3.2-3,4.5-4.6c0.5-0.7,0.7-1.1,0.8-1.4c0-0.3,0-0.8-0.2-1.4
		c-0.2-0.6-0.4-0.9-0.5-1c-0.2-0.1-0.5,0-0.9,0.3c-1.6,1-3.2,1.9-4.9,2.8c-1.7,0.8-3.4,1.6-5,2.2c-1.3,0.5-2.5,0.6-3.7,0.3
		c-1.2-0.3-2-1-2.5-2.2c-0.3-0.6-0.3-1.1-0.1-1.5c0.2-0.4,0.9-0.7,2-1c1.6-0.5,3.4-1.2,5.4-2.3c1.9-1.1,3.8-2.2,5.5-3.5
		c0.5-0.4,0.8-0.7,0.9-0.9c0-0.2-0.2-0.5-0.7-1.1c-1.1-1.1-2.3-2-3.6-2.9c-1.5-1.1-2.4-1.9-2.7-2.5c-0.3-0.6-0.2-1.1,0.3-1.6
		c0.4-0.4,0.9-0.6,1.5-0.7c0.6-0.1,1.5,0,2.7,0.4c1.3,0.5,2.4,1,3.5,1.5c1,0.5,2,1.2,2.8,2.1c0.3,0.3,0.6,0.4,0.8,0.4
		c0.2,0,0.5-0.3,0.8-0.8c0.7-1,1.3-1.9,1.8-2.8c0.5-0.9,0.7-1.7,0.8-2.5c0-0.6,0.2-1.1,0.7-1.4c0.5-0.3,1-0.5,1.6-0.5
		c0.6,0,1.3,0.1,2,0.4c0.7,0.3,1.3,0.8,1.8,1.5c0.7,1,1,1.9,1.1,2.8c0.1,0.9-0.2,2-0.9,3.3c-0.5,0.8-0.3,1.1,0.5,0.8
		c1.6-0.7,3.4-1.6,5.4-2.9c1.9-1.3,4.2-3.1,6.7-5.4c0.5-0.4,1-0.7,1.5-0.7c0.5-0.1,1,0,1.4,0.3c0.4,0.3,0.7,0.7,0.9,1.3
		c0.2,0.6,0.2,1.3-0.1,2.1c-0.3,0.8-0.8,1.6-1.4,2.6c-0.6,1-1.3,1.9-2.1,2.9c-1.1,1.2-1.7,2.4-1.7,3.4c-0.1,1.4-0.1,2.6-0.1,3.7
		c0,1.1,0,2.2,0,3.4s0,2.4,0,3.7c0,1.3,0,2.8,0,4.4c0,0.8,0.2,1.4,0.5,1.8c0.4,0.4,0.8,0.4,1.4,0.1c0.7-0.4,1.5-0.6,2.2-0.4
		c1.6,0.1,3,0.2,4.2,0.3c1.2,0.1,2.2,0,2.9-0.1c0.4-0.1,0.7-0.1,1-0.1c0.3,0,0.7-0.1,1-0.1c1-0.1,1.5-0.8,1.5-2.1c0-0.2,0-0.5,0-0.7
		c0-0.2,0-0.4,0-0.6c0-0.7-0.2-1-0.5-1c-0.3,0-0.9,0.2-1.8,0.7c-0.5,0.3-1,0.6-1.6,0.8c-0.6,0.3-1.2,0.5-1.8,0.8
		c-1,0.4-2,0.6-2.8,0.4c-0.9-0.1-1.7-0.6-2.5-1.3c-0.5-0.5-0.7-0.9-0.5-1.4c0.1-0.4,0.5-0.8,1.2-1c0.5-0.2,1.2-0.5,1.8-1
		c0.7-0.5,1.3-1,2-1.7c0.7-0.6,1.4-1.3,2-2c0.7-0.7,1.2-1.4,1.7-2c0.6-0.8,0.4-1.2-0.6-1.2c-1.4,0.1-2.5,0.1-3.4,0.2
		c-0.9,0.1-1.7,0.3-2.3,0.6c-1.5,0.5-2.5,0.4-3-0.1c-0.5-0.6-0.7-1.4-0.5-2.5c0.2-1,0.8-1.8,1.6-2.5c0.8-0.7,1.7-1,2.6-0.9
		c0.5,0,1,0,1.4,0c0.4,0,0.7,0,1,0s0.5,0,0.8,0c0.3,0,0.6,0.1,1,0.1c0.7,0.1,1.7,0.2,2.8,0.1c1.1,0,2.1-0.1,3-0.2
		c0.5-0.1,1-0.3,1.4-0.6c0.4-0.3,0.8-0.9,1.3-1.7c0.3-0.5,0.3-1.1-0.1-1.7c-0.4-0.6-0.9-0.8-1.4-0.8c-1.1,0-2.1,0.1-3,0.2
		c-0.9,0.1-2.2,0.4-3.7,0.8c-1.2,0.3-2,0.3-2.4,0c-0.4-0.3-0.5-0.8-0.5-1.7c-0.1-0.7,0-1.2,0.2-1.6c0.2-0.4,0.7-0.9,1.3-1.7
		c1-1,1.8-1.6,2.5-1.9c0.7-0.3,1.4-0.4,2.3-0.2c1.2,0.3,2.4,0.5,3.6,0.5c1.2,0.1,2.2,0,3.1-0.2c0.8-0.3,1.6-0.4,2.2-0.4
		c0.6,0,1.4,0.3,2.2,0.8c1.3,0.8,2.1,1.5,2.2,2.1c0.2,0.6,0,1.3-0.5,1.9c-0.5,0.6-0.9,1.2-1.2,1.8c-0.3,0.6-0.6,1.2-0.8,1.8
		c-0.5,1.5-0.4,2.2,0.5,2.2c1.9-0.1,3.6-0.1,5.1-0.1s2.6,0,3.5,0c1.8,0.1,2.9,0.3,3.3,0.7c0.5,0.3,0.7,0.9,0.6,1.8
		c-0.1,0.6-0.1,1.1-0.2,1.4c-0.1,0.4-0.3,0.6-0.6,0.8c-0.3,0.2-0.7,0.3-1.2,0.3c-0.5,0-1.2,0-2.1,0c-2.7-0.1-5.1-0.1-7.2,0
		c-2.1,0.1-3.9,0.1-5.5,0.1c-0.7,0-1.1,0-1.2,0.1c-0.2,0.1-0.2,0.4-0.2,0.8c0,0.3,0,0.6,0,0.9c0,0.3-0.1,0.6-0.2,1
		c-0.2,0.5-0.2,0.8-0.1,0.9c0.1,0.1,0.3,0.2,0.7,0.2c2.3-0.1,4.3-0.1,6-0.2c1.7-0.1,2.9-0.1,3.6,0c1.8,0.1,2.9,0.3,3.4,0.6
		c0.5,0.3,0.7,1,0.6,1.9c-0.1,0.8-0.4,1.3-0.9,1.7c-0.5,0.3-1.5,0.6-3.1,0.7c-0.7,0.1-1.6,0.1-2.5,0.1c-1,0-2.1,0-3.5,0
		c-0.5,0.1-0.8,0.1-1,0.3c-0.2,0.1-0.2,0.4-0.1,1v1.3c0,0.5,0.1,1,0.2,1.2c0.2,0.3,0.5,0.4,1,0.4c2.4,0.1,5.2,0.2,8.3,0.3
		c3.1,0.1,6.9,0.4,11.5,0.8c1,0.1,1.6,0.3,1.8,0.4C602.6,79.8,602.5,80.2,602.2,80.7z M571.1,84.1c0.2-0.8,0.2-1.3,0.1-1.5
		c-0.1-0.1-0.4-0.2-0.9-0.2c-2.4,0.1-4.3,0.4-5.9,0.7c-1.5,0.4-3.2,0.9-5,1.5c-1.5,0.7-2.2,1.4-2.2,2.3c0,0.7,0,1.3,0,2
		c0,0.7,0.1,1.4,0.1,2c0,1.4,0.2,2.2,0.7,2.5c0.5,0.3,1.1,0.4,1.7,0.3c2.9-0.7,5.2-1.7,7.1-3.1c1.8-1.4,3.1-3.1,3.7-5
		c0.1-0.2,0.2-0.5,0.2-0.7C571,84.7,571,84.4,571.1,84.1z M595.8,100.2c-0.3,0.5-0.8,0.7-1.5,0.6c-0.7-0.1-2-0.6-3.7-1.5
		c-1.2-0.6-2.2-1.1-3-1.7c-0.9-0.5-1.7-1.1-2.5-1.7c-0.8-0.6-1.6-1.3-2.3-2c-0.8-0.7-1.6-1.6-2.5-2.6c-0.4-0.4-0.7-0.9-1-1.5
		c-0.2-0.6-0.3-1.2-0.4-1.8c0-0.6,0-1.2,0.2-1.7c0.2-0.5,0.5-0.9,0.8-1.1c0.8-0.6,1.8-0.8,2.7-0.6c1,0.2,2,0.9,3,2
		c1.3,1.6,2.7,3.1,4.2,4.6c1.5,1.5,2.9,2.7,4.2,3.8c0.9,0.7,1.5,1.5,1.9,2.7C596.2,98.9,596.2,99.7,595.8,100.2z"/>
</g>
<g class="st0">
	<path d="M549.9,218.2c-0.9,2.7-1.8,5-2.6,6.9c-0.9,1.9-1.8,3.7-2.7,5.4c-0.4,0.7-0.6,1.1-0.6,1.2c0,0.2,0.1,0.5,0.5,0.9
		c0.7,0.8,1.3,1.5,2,2.3c0.6,0.7,1.3,1.4,1.9,2.1c1.5,1.7,1.5,2.9,0.1,3.7c-1.2,0.7-2.5,0.4-4-0.7c-0.6-0.5-1.2-0.9-1.8-1.3
		c-0.6-0.4-1.1-0.9-1.7-1.3c-0.3-0.3-0.6-0.4-0.8-0.4c-0.2,0.1-0.6,0.4-1,0.9c-1.5,1.8-2.9,3.3-4.1,4.6c-1.2,1.3-2.4,2.4-3.4,3.2
		c-1.1,0.9-2.1,1.5-3.1,2.1c-1,0.5-2,0.9-3.1,1.2c-1.3,0.4-2.7,0.4-4,0c-1.4-0.3-2.5-1-3.3-2c-0.6-0.7-1.1-1.2-1.5-1.8
		c-0.4-0.5-0.7-1-0.9-1.3c-0.8-1.3-0.5-2.1,0.7-2.3c1.5-0.4,2.9-0.7,4-1c1.2-0.3,2.2-0.6,3.1-1s1.8-0.7,2.5-1.1
		c0.8-0.4,1.6-0.8,2.5-1.4c0.8-0.6,1.7-1.2,2.5-1.8c0.8-0.6,1.7-1.3,2.5-1.9c0.5-0.5,0.8-0.8,0.9-1c0-0.2-0.2-0.5-0.7-0.9
		c-0.7-0.6-1.4-1.2-2.1-1.9c-0.7-0.7-1.4-1.3-2-2c-2.2-2.1-2.2-4,0.1-5.8c1.2-1,2.3-1.4,3.3-1.2c1,0.2,2,1,3,2.2
		c0.3,0.3,0.7,0.7,1.1,1.2c0.4,0.5,0.9,1,1.4,1.6c0.5,0.5,0.8,0.8,1,0.8c0.2,0,0.5-0.2,0.8-0.7c0.6-0.9,1.1-1.7,1.4-2.5
		c0.3-0.7,0.6-1.4,0.8-2.1c0.3-1.1,0.3-1.9,0.1-2.2c-0.2-0.4-0.9-0.6-2-0.6c-1.5-0.1-2.7-0.1-3.6-0.1c-0.9,0-1.7,0-2.4,0
		c-0.6,0.1-1.2,0.1-1.6,0.2c-0.4,0.1-0.8,0.2-1.2,0.4c-1.4,0.6-2.6,1.1-3.5,1.6c-1,0.5-2,1.2-3,2c-1,0.8-1.9,1-2.7,0.8
		c-0.8-0.2-1.3-1-1.3-2.1c0-1,0.1-1.9,0.3-2.7c0.2-0.8,0.8-1.9,1.8-3.2c1.4-1.8,2.8-2.6,4.2-2.3c0.8,0.2,1.6,0.3,2.3,0.4
		c0.7,0.1,1.4,0.1,2.1,0.1h9.8c0.6-0.1,1.2-0.2,1.8-0.4c0.6-0.2,1.4-0.4,2.3-0.8c1-0.4,2.2,0,3.6,1.2
		C550.4,214.4,550.6,216,549.9,218.2z M580,246.8c-0.1,1-0.4,1.7-0.8,2c-0.4,0.3-1.3,0.4-2.6,0.4c-1.6,0-3.7,0-6.5,0.1
		c-2.8,0.1-5.6,0.1-8.5,0.2c-2.9,0.1-5.5,0.2-8,0.3c-2.5,0.1-4.1,0.2-5,0.3c-1,0.1-1.8,0.2-2.3,0.3c-0.5,0.1-1,0.2-1.5,0.4
		c-1.3,0.5-2.3,0.7-2.8,0.6c-0.5-0.1-1.1-0.6-1.8-1.4c-0.3-0.4-0.3-1.1,0-2.2c0.3-1,1-2,2.1-2.9c0.9-0.8,1.7-1.2,2.4-1.4
		c0.7-0.1,1.3,0,2,0.3c0.6,0.3,1.2,0.5,1.7,0.7c0.5,0.1,1.5,0.2,2.7,0.1c2.3-0.1,4.7-0.1,7.3-0.2c2.6-0.1,5-0.1,7.3-0.1
		c2.3,0,4.4,0,6.2,0s3.1,0,3.9,0.1c1.6,0.1,2.7,0.4,3.3,0.8C579.9,245.7,580.1,246.2,580,246.8z M596.7,241
		c-0.2,0.7-0.4,1.6-0.6,2.9c-0.2,1.3-0.5,3-0.8,5.3c-0.2,1.4-0.5,2.7-1,3.9c-0.5,1.2-1.2,2.5-2.3,3.9c-1.6,2.1-3.7,3.5-6.1,4.1
		c-2.4,0.7-4.7,0.9-6.9,0.6c-2.9-0.4-5.5-1-7.7-2.1c-2.2-1-3.8-2.2-4.9-3.5c-0.7-0.8-0.9-1.5-0.7-2c0.2-0.5,0.8-0.6,1.7-0.4
		c2.9,0.7,5.2,1.1,7,1.2c1.8,0.1,3.2,0.1,4.3,0c1.5-0.2,2.8-0.6,3.7-1c1-0.4,1.8-1.1,2.4-1.9c0.6-0.8,1.1-1.8,1.5-3.1
		c0.4-1.3,0.8-2.9,1.1-4.8c0.2-1.2,0.2-2-0.2-2.5c-0.4-0.4-1-0.7-2-0.8c-1.7-0.2-3.5-0.3-5.5-0.4c-2-0.1-4-0.2-6-0.3
		c-2-0.1-4-0.1-5.9,0c-1.9,0-3.7,0.1-5.2,0.2c-1.4,0.1-2.4,0.3-3.1,0.5c-0.7,0.2-1.5,0.5-2.3,0.8c-1.5,0.5-2.6,0.2-3.4-0.7
		c-0.6-0.8-0.9-1.5-1-2.1c-0.1-0.6,0.1-1.4,0.5-2.4c0.1-0.2,0.2-0.8,0.3-1.8c0.1-1,0.1-2.1,0.2-3.5c0.1-1.3,0.1-2.8,0-4.3
		c0-1.5,0-2.9,0-4.2c0-1.3,0-2.4-0.1-3.4c-0.1-1-0.1-1.5-0.2-1.7c-0.5-1.2-0.6-2.3-0.3-3.2c0.3-1,1-1.5,2.2-1.8
		c0.7-0.1,1.3-0.1,1.9-0.1c0.6,0.1,1.1,0.2,1.6,0.4c0.3,0.2,0.6,0.4,1,0.5c0.3,0.2,0.7,0.3,1,0.3h1.5c0.4,0,0.7-0.1,0.9-0.2
		c0.2-0.1,0.3-0.4,0.4-0.9c0.1-0.5,0.2-0.9,0.2-1.3c0-0.4,0-0.9,0.1-1.5c0.1-1,0.6-1.9,1.7-2.8c1.1-0.8,2.5-1,4.4-0.6
		c1.6,0.4,2.7,0.9,3.1,1.6c0.4,0.7,0.4,1.4,0,2.1c-0.3,0.5-0.6,1-0.8,1.3c-0.2,0.4-0.5,0.7-0.9,1.2c-0.7,0.7-0.5,1,0.6,1
		c1.5-0.1,2.7-0.1,3.8-0.1c1.1,0,1.8-0.1,2.3-0.2c1.2-0.1,2.2-0.3,2.8-0.5c0.7-0.2,1.3-0.5,2-0.8c0.3-0.1,0.8-0.1,1.4,0
		c0.6,0.1,1.4,0.5,2.2,1.1c0.6,0.5,1,1,1.3,1.5c0.2,0.5,0.4,1.7,0.4,3.4c0.1,1.7,0,3.4-0.3,5c-0.3,1.6-0.7,3.1-1.4,4.5
		c-0.8,1.7-1.8,3.1-3,4.1c-1.2,1-2.5,1.7-3.9,2.2c-1.4,0.4-2.8,0.6-4.1,0.5c-1.4-0.1-2.6-0.4-3.7-1c-0.8-0.4-1.1-0.9-1-1.5
		c0.1-0.7,0.5-1,1.2-1.2c2.6-0.4,4.4-1,5.5-2.1c0.7-0.8,1.3-2,1.7-3.4c0.4-1.5,0.5-3,0.4-4.5c-0.1-1.1-0.4-1.8-0.8-2.2
		c-0.4-0.4-1.1-0.6-2-0.7c-1.6-0.1-3-0.2-4.1-0.2c-1.1,0-2.1,0-3.1,0c-1,0-2,0-3,0c-1.1,0-2.4,0.1-3.9,0.1c-1.1,0.1-1.6,0.7-1.6,1.8
		c0,2.6,0,5,0,7.2c0,2.2,0,4-0.1,5.4c0,0.9,0,1.6,0.1,2.1c0.1,0.5,0.3,0.8,0.5,1.1c0.3,0.3,0.6,0.4,1,0.5c0.4,0.1,1,0.1,1.6,0.1
		c0.5,0,1.5,0,2.7,0c1.3,0,2.7,0,4.3,0c1.6,0,3.3,0,5,0s3.3,0,4.8,0c1.5,0,2.7-0.1,3.8-0.1c1,0,1.6-0.1,1.8-0.1
		c1.1-0.2,2-0.4,2.7-0.5c0.7-0.1,1.3-0.2,1.9-0.2c0.5,0,1,0.1,1.4,0.2c0.4,0.1,0.9,0.3,1.5,0.5C596.6,236.6,597.5,238.5,596.7,241z
		 M574.7,227.9c-0.3,0.3-0.7,0.5-1.2,0.6c-0.5,0.1-1.3,0-2.5-0.3c-1-0.2-2.1-0.6-3.3-1c-1.2-0.4-2.2-1-3.3-1.6
		c-0.9-0.5-1.3-1.1-1.5-1.7c-0.1-0.7,0.1-1.6,0.5-2.6c0.5-1.2,1.3-1.9,2.4-2.1c1-0.1,1.8,0.1,2.5,0.8c1.3,1.4,2.3,2.4,3,3
		c0.7,0.7,1.3,1.2,1.9,1.7c1.1,0.8,1.7,1.5,1.8,2C575.3,227,575.1,227.5,574.7,227.9z"/>
</g>
<g class="st0">
	<path d="M546.2,349.5c1.3,2,1.2,4-0.4,6c-0.8,1-1.6,2-2.4,2.9c-0.8,0.9-1.7,1.8-2.6,2.5c-0.6,0.5-1,0.9-1,1.4
		c-0.1,0.4,0,1.2,0.4,2.2c0.2,0.6,0.4,1.4,0.6,2.5c0.2,1.1,0.5,2.2,0.7,3.4c0.2,1.2,0.4,2.4,0.5,3.5c0.2,1.2,0.2,2.1,0.2,2.9
		c0,3.4-0.1,6.3-0.4,8.7c-0.3,2.4-0.7,4.5-1.4,6.2c-0.6,1.7-1.4,3-2.4,4.1c-1,1-2.2,1.9-3.6,2.5c-1.8,0.7-3.5,0.9-5.2,0.5
		c-1.7-0.4-3-1.2-3.8-2.6c-0.7-1-0.3-1.7,1.2-2.1c1.3-0.4,2.5-1,3.5-1.6c1-0.7,1.9-1.6,2.6-2.7c0.7-1.2,1.2-2.6,1.5-4.4
		c0.3-1.8,0.5-4,0.5-6.6c0-1-0.1-1.5-0.3-1.6c-0.2-0.1-0.6,0.2-1.1,0.9c-2.2,2.4-4.5,4.6-7,6.5c-2.5,1.9-4.6,3.3-6.4,4.1
		c-4.5,2-7.7,1.5-9.6-1.5c-0.4-0.6-0.4-1.1-0.1-1.4c0.3-0.4,1-0.8,2.2-1.2c2-0.7,3.8-1.5,5.5-2.5c1.7-1,3.3-2,4.8-3.2
		c1.5-1.2,3-2.5,4.4-3.9c1.4-1.4,2.8-3,4.2-4.7c0.7-1,1.2-1.6,1.4-2c0.2-0.4,0.3-0.8,0.1-1.1c-0.1-0.3-0.3-0.5-0.6-0.5
		c-0.3,0-0.9,0.2-1.7,0.6c-2.1,1-4,1.7-5.9,2.2c-1,0.3-1.8,0.5-2.5,0.6c-0.7,0.1-1.2,0.1-1.7,0.1c-0.5-0.1-1-0.2-1.4-0.4
		c-0.5-0.2-0.9-0.4-1.4-0.8c-0.8-0.5-1.1-1.2-0.9-2.1c0.2-0.8,0.8-1.4,2-1.7c1.8-0.4,3.4-0.9,4.9-1.5c1.5-0.6,2.9-1.2,4.3-1.9
		c0.7-0.4,1.1-0.7,1.2-1c0.1-0.3-0.2-0.8-0.8-1.5c-1.2-1.5-2.4-2.6-3.6-3.3c-1.2-0.7-2-1.2-2.3-1.7c-0.3-0.4-0.4-1.1-0.4-1.8
		c0.1-0.6,0.5-1,1.2-1.3c0.8-0.3,1.9-0.3,3.3,0.1c3.2,0.7,5.8,1.9,7.8,3.8c0.7,0.6,1.2,0.9,1.5,0.9c0.3,0,0.8-0.4,1.5-1.1
		c1.7-2,2.9-3.9,3.7-5.9c0.4-1.1,1.2-1.6,2.2-1.6C544.3,347.5,545.2,348.2,546.2,349.5z M591.5,361.3c-0.1,0.4-0.2,1.2-0.3,2.5
		c-0.1,1.3-0.1,2.8-0.2,4.4c-0.1,1.6-0.1,3.3-0.1,5c0,1.7,0,3.2,0.1,4.5c0.1,1.3,0,2.8-0.1,4.5c-0.1,1.7-0.2,3.2-0.4,4.4
		c-0.2,1.4-0.6,2.8-1.1,4.1c-0.6,1.3-1.3,2.6-2.3,3.7c-0.9,1.2-2,2.2-3.3,3c-1.3,0.9-2.7,1.5-4.4,1.9c-1.9,0.5-3.8,0.7-5.5,0.7
		c-1.7,0-3.3-0.2-4.8-0.6c-1.5-0.4-2.9-0.9-4.1-1.6c-1.2-0.7-2.4-1.5-3.3-2.4c-0.7-0.7-1-1.3-0.7-1.9c0.2-0.6,0.9-0.8,2-0.5
		c0.8,0.2,1.9,0.4,3.3,0.5c1.4,0.1,2.7,0.1,4,0c4-0.4,6.9-1.8,8.8-4.5c1.8-2.6,3-6.5,3.3-11.8c0.1-1,0.1-2.1,0.1-3.3
		c0-1.2,0-2.4,0-3.7c0-1.2-0.1-2.4-0.2-3.6c-0.1-1.2-0.2-2.2-0.4-3.1c-0.2-1.5-0.6-2.5-1-2.9c-0.4-0.4-1.1-0.6-2-0.7
		c-1.9-0.1-3.7-0.1-5.3-0.1c-1.6,0-3.1-0.1-4.5-0.1c-1.4,0-2.8,0-4.1,0c-1.3,0-2.7,0.1-4.2,0.1c-1,0.1-1.7,0.2-2,0.3
		c-0.4,0.1-0.9,0.6-1.6,1.2c-1.5,1.3-2.8,2.4-4.1,3.4c-1.3,1-2.7,1.8-4,2.4c-2,1-3.4,1.5-4.1,1.5c-0.8,0-1.4-0.5-2-1.3
		c-0.3-0.5-0.3-1-0.1-1.4c0.2-0.5,0.9-1,1.9-1.7c1.3-0.8,2.6-1.9,4-3.3c1.4-1.4,2.8-2.8,4-4.4c1.3-1.6,2.4-3.2,3.4-4.8
		c1-1.6,1.6-3.1,2-4.4c0.3-1.2,1-2,2-2.4c1-0.4,2.3-0.2,3.9,0.6c1.3,0.7,2,1.7,2.2,2.9c0.2,1.2-0.1,2.5-0.7,3.8
		c-0.5,0.8-0.7,1.4-0.6,1.7c0.1,0.3,0.6,0.5,1.6,0.5c1.8,0.1,3.2,0.1,4.2,0.2c1,0.1,1.8,0.1,2.5,0.1c0.7,0,1.3,0.1,2,0.1
		c0.6,0,1.4,0.1,2.5,0.1c2.1,0.1,3.7-0.1,4.7-0.5c1.6-0.6,3.1-0.9,4.4-0.8c1.3,0.1,2.4,0.4,3.2,1c0.8,0.6,1.4,1.5,1.7,2.6
		C591.9,358.6,591.8,359.9,591.5,361.3z M577.7,373.4c-0.5,2.4-0.8,4.6-0.8,6.6c0,1.6-0.2,2.9-0.6,3.9c-0.4,1-1,1.7-1.6,2.1
		c-0.6,0.4-1.3,0.7-2.1,0.7c-0.8,0-1.5-0.2-2.1-0.5c-0.4-0.2-1-0.4-1.6-0.6c-0.7-0.1-1.5-0.3-2.6-0.3c-1.2-0.1-2.2-0.1-3.2,0
		c-1,0.1-2.2,0.1-3.5,0.3c-0.2,0-0.4,0.1-0.7,0.2c-0.3,0.1-0.6,0.2-1,0.4c-0.3,0.1-0.7,0.2-1,0.4c-0.3,0.1-0.5,0.2-0.5,0.3
		c-0.7,0.5-1.6,0.6-2.6,0.4c-0.9-0.1-1.4-0.4-1.6-0.7c-0.2-0.4-0.4-1.1-0.4-2.1c0-1.2,0-2.3,0-3.3c0-1-0.1-1.9-0.1-2.9
		c-0.1-1-0.1-2-0.1-3.1c0-1-0.1-1.8-0.2-2.3c-0.3-1.3-0.3-2.5,0-3.6c0.3-1.1,1-2,2.3-2.9c0.5-0.4,1.1-0.6,1.7-0.7
		c0.6,0,1.2,0.3,1.6,1c0.4,0.5,0.7,0.7,1,0.8c0.3,0.1,0.8,0,1.6-0.1c1.3-0.2,2.5-0.3,3.4-0.4c0.9-0.1,1.8-0.1,2.5-0.1
		c0.7,0,1.4,0.1,2,0.2c0.6,0.1,1.3,0.3,2,0.4c0.9,0.2,2,0.1,3.2-0.4c0.4-0.2,1.1-0.2,2-0.1c0.9,0.1,1.7,0.4,2.4,0.9
		c0.7,0.5,1.1,1.2,1.2,2.1C578.1,370.8,578,371.9,577.7,373.4z M570.4,377.9c0.1-0.5,0.1-1.2,0.1-2.1c0-0.8,0-1.5-0.1-2.1
		c0.1-0.4-0.1-0.8-0.5-1.2c-0.4-0.4-0.9-0.7-1.5-0.8c-1.9-0.3-4.9-0.3-8.9,0.1c-0.8,0.1-1.3,0.3-1.4,0.6c-0.2,0.3-0.2,0.9-0.2,2
		c0,0.7,0,1.3,0,2.1s0,1.4,0.1,2.1c0.1,1.1,0.2,1.7,0.3,1.9c0.2,0.2,0.4,0.3,0.8,0.3c2,0.1,3.7,0,5-0.1c1.3-0.1,2.5-0.3,3.7-0.4
		c0.8-0.1,1.5-0.4,2-0.9C570.1,378.9,570.4,378.4,570.4,377.9z"/>
</g>
<g class="st0">
	<path d="M601.8,518.3c-0.5,2-1.4,3.6-2.6,4.6c-1.3,1.1-3.1,1.8-5.4,2.3c-1.6,0.4-2.9,0.5-3.9,0.4c-1-0.1-2.2-0.4-3.5-1
		c-1.2-0.5-2.5-1-4.2-1.4c-1.6-0.5-3.2-0.9-4.8-1.2c-0.8-0.2-1.4-0.1-1.9,0.4c-1,0.7-1.9,1.4-2.9,2.2c-0.9,0.7-1.7,1.4-2.4,1.9
		c-0.3,0.2-0.6,0.5-0.9,0.7c-0.3,0.2-0.7,0.4-1.2,0.6c-0.3,0.1-0.4,0.3-0.4,0.4c0,0.2,0.2,0.3,0.5,0.3c1.8,0,3.2,0,4.4,0.1
		c1.2,0.1,1.9,0.2,2.2,0.3c0.1,0.1,0.3,0.1,0.6,0.1c0.3,0,0.7,0,1.1,0c0.4,0,0.8-0.1,1.2-0.1c0.4,0,0.7-0.1,0.9-0.2
		c1.1-0.4,2-0.6,2.8-0.7c0.8,0,1.7,0.2,3,0.8c2.7,1.2,3.6,3.6,2.7,7.2c-0.1,0.5-0.2,1.1-0.3,2c-0.1,0.9-0.2,1.9-0.2,3
		c-0.1,1.2-0.1,2.4-0.1,3.7c0,1.3,0,2.7,0,4.1c0.1,1.4-0.2,2.6-0.8,3.6c-0.6,1-1.3,1.7-2.1,2c-1.8,0.7-3.5,0.4-5.2-0.8
		c-0.6-0.4-2.2-0.8-4.7-1.1c-2.5-0.3-5.9-0.4-10.2-0.2c-0.7,0-1.4,0.3-2,0.9c-1.3,1.2-2.8,1.4-4.6,0.4c-0.7-0.4-1.1-0.9-1.4-1.5
		s-0.4-1.8-0.4-3.5c0-1.5,0-3.4,0-5.6c0-2.3,0-5-0.1-8.2c0-0.7-0.4-0.9-1.1-0.7c-0.5,0.2-1.2,0.4-2,0.7c-0.8,0.3-1.6,0.6-2.5,0.9
		c-1,0.4-1.9,0.7-2.6,0.7c-0.7,0.1-1.4,0-2-0.1c-0.5-0.1-0.9,0.1-0.9,0.8c-0.4,3.4-1.3,6.3-2.6,8.7c-1.3,2.4-3.2,4.3-5.8,5.7
		c-2.8,1.5-5.3,2.2-7.6,2c-2.3-0.1-4.3-1.2-6-3.2c-0.4-0.4-0.5-0.8-0.4-1.2c0.1-0.4,0.5-0.6,1.1-0.6c2.2-0.3,4.1-0.8,5.7-1.5
		c1.6-0.7,3-1.7,4.1-3c1.1-1.3,2-2.9,2.6-4.9c0.6-2,1-4.3,1.2-7.1c0-0.5,0-1.1,0-1.6c0-0.5,0.1-1,0.1-1.5c0.1-0.4,0-0.7-0.2-0.7
		c-0.2-0.1-0.4,0-0.6,0.2c-2.3,2.3-4.6,4.1-6.8,5.7c-2.2,1.5-4.2,2.6-6,3.3c-2.2,1-4.3,1.3-6.1,1c-1.9-0.4-3.1-1.3-3.8-2.9
		c-0.5-1.1-0.2-1.8,0.9-2.2c5-1.9,9.1-3.8,12.5-5.8c3.4-1.9,6.2-4.1,8.6-6.5c0.4-0.4,0.6-0.7,0.6-0.9c0.1-0.3,0-0.6-0.2-1.1
		c-0.1-0.4-0.3-0.5-0.6-0.6c-0.3,0-0.6,0-0.9,0.1c-1.5,0.7-3.1,1.2-4.8,1.7c-1.8,0.4-3.7,0.9-5.7,1.3c-1.4,0.3-2.4,0.3-3,0.1
		c-0.6-0.2-1.2-0.8-1.6-1.7c-0.3-0.7-0.4-1.1-0.2-1.5c0.2-0.3,0.8-0.6,1.8-0.9c3.5-1.1,6.7-2.4,9.6-3.7c0.7-0.4,0.8-0.9,0.4-1.3
		c-0.5-0.5-1-1-1.6-1.5c-0.6-0.5-1.2-1.1-1.9-1.7c-1.3-1.1-2.1-2-2.3-2.5c-0.2-0.6,0-1.1,0.5-1.6c0.3-0.3,1.1-0.4,2.3-0.2
		c1.2,0.2,2.3,0.6,3.4,1.2c1.8,1.1,3.2,2.3,4.5,3.4c0.7,0.6,1.2,0.7,1.7,0.3c2.5-1.8,4.3-3.7,5.2-5.6c0.5-1.2,1.3-1.9,2.2-1.9
		c0.9,0,2.1,0.8,3.6,2.5c0.7,0.8,1,1.7,0.9,2.8c-0.1,1.1-0.7,2-1.7,2.9c-1,0.9-2,1.7-3,2.5c-1,0.7-2,1.5-3,2.2
		c-0.5,0.4-0.7,0.8-0.4,1.4c0.9,1.7,1.6,3.6,2.1,5.7c0.5,2.1,0.8,4.4,1.1,7c0,0.3,0.1,0.5,0.2,0.7c0.2,0.2,0.5,0.2,1,0.1
		c3.5-0.7,7.3-1.7,11.4-3c4.1-1.4,7.9-3,11.5-4.9c0.5-0.3,0.8-0.6,0.8-0.8c0-0.2-0.3-0.4-0.8-0.4c-1.8,0-3.7,0.1-5.5,0.2
		c-1.9,0.1-3.7,0.3-5.4,0.5c-1.7,0.2-3.3,0.5-4.7,0.8c-1.4,0.3-2.6,0.6-3.5,1c-1.8,0.7-2.9,1.1-3.5,1c-0.5,0-1-0.5-1.5-1.3
		c-0.4-0.7-0.3-1.5,0.2-2.6c0.5-1.1,1.3-2,2.5-2.6c1.5-0.8,2.8-1.2,3.8-1.4c1-0.2,1.7-0.2,2-0.1c1.1,0.3,2,0.5,2.8,0.5
		c0.8,0.1,1.8,0,3-0.1c0.5-0.1,1-0.1,1.5-0.1c0.5,0,1.1-0.1,1.8-0.1c0.8-0.1,1.2-0.4,1.4-1.1c0.1-0.5,0.1-0.9,0-1.3
		c0-0.4,0-0.9,0-1.3c0-0.2-0.2-0.4-0.6-0.7c-0.4-0.3-0.7-0.4-1-0.4c-1.8,0.1-3.3,0.2-4.3,0.3c-1.1,0.1-2,0.3-2.9,0.5
		c-3.2,0.8-4.7,0.3-4.7-1.3c0-0.3,0.1-0.6,0.3-1c0.2-0.4,0.8-0.9,1.7-1.5c1-0.7,1.8-1.2,2.5-1.3c0.6-0.2,1.4-0.1,2.3,0.2
		c1.3,0.4,2.7,0.5,4.2,0.3c0.1-0.1,0.3-0.1,0.5-0.1c0.2,0,0.4,0,0.6,0c0.5,0,0.9-0.1,1.1-0.2c0.2-0.1,0.2-0.4,0.2-0.8
		c-0.2-3.6,0.5-5.6,2.2-6.2c1-0.4,2.1-0.4,3.1-0.2c1.1,0.2,2,0.7,2.7,1.4c1.2,1.2,1.8,2.8,1.9,4.8c0,0.3,0.1,0.5,0.2,0.7
		c0.2,0.2,0.5,0.3,1,0.3c0.7,0,1.3,0,2,0c0.7,0,1.3,0,2,0c1,0,1.7,0.1,2,0.4c0.3,0.3,0.5,0.8,0.5,1.5c0,0.5-0.1,1-0.2,1.4
		c-0.2,0.4-0.5,0.7-1,0.9c-0.5,0.2-1.2,0.3-2.1,0.4c-0.9,0-2.1,0-3.5-0.1c-0.8-0.1-1.2,0.1-1.3,0.7c-0.1,0.5-0.2,0.9-0.2,1.3
		c0,0.4,0,0.9,0,1.3c0,0.3,0.1,0.5,0.4,0.7c0.3,0.1,0.9,0.2,1.9,0.2c1,0,1.8-0.1,2.3-0.2c0.5-0.1,0.9-0.3,1.2-0.6
		c0.8-0.8,1.5-1.5,2-2.3c0.6-0.7,1.1-1.6,1.7-2.5c0.5-0.9,1-1.4,1.4-1.7c0.4-0.2,1-0.3,1.9-0.3c1.9,0,2.9,1,2.9,2.9
		c0,0.7-0.2,1.2-0.5,1.8c-0.3,0.5-1,1.2-2.1,2.1c-0.7,0.5-0.7,0.8,0,0.8c2.8,0.1,5.5,0.1,8.1,0.3c2.6,0.1,5.1,0.3,7.5,0.4
		c0.7,0,1.1,0.1,1.2,0.4C601.8,517.4,601.8,517.8,601.8,518.3z M578.9,544.3c0-1-0.1-1.6-0.3-1.9c-0.2-0.3-0.7-0.5-1.3-0.5
		c-2.1-0.2-4.2-0.3-6.4-0.3c-2.1,0-4.5,0-7,0.1c-0.5,0.1-0.9,0.2-1.1,0.5c-0.2,0.3-0.3,1.1-0.3,2.4c0,1.2,0.4,1.8,1.2,1.8
		c2.1,0.1,4.1,0.1,5.8,0.3c1.8,0.1,3.1,0.2,4,0.4c1.8,0.3,3.1,0.1,4-0.5C578.4,545.9,578.9,545.2,578.9,544.3z M578.7,535.4
		c0-0.7-0.2-1.1-0.5-1.4c-0.4-0.3-1-0.5-1.8-0.6c-1.5-0.1-3.3-0.2-5.2-0.3c-2-0.1-4.5,0-7.5,0.1c-0.5,0.1-0.8,0.2-0.9,0.4
		c-0.1,0.2-0.2,0.6-0.2,1.2c0,0.9,0.1,1.5,0.3,1.8c0.2,0.3,0.5,0.4,1,0.4l13.4,0.5c0.6,0,1-0.1,1.2-0.4
		C578.6,537,578.7,536.4,578.7,535.4z"/>
</g>
<g class="st0">
	<path d="M87.7,81.8c-1.4,0.3-2.9,0.4-4.5,0.4c-1.6-0.1-3.3-0.3-4.9-0.7c-0.1,0-0.2,0-0.2,0c0,0-0.1,0-0.2,0
		c0.1,0.4,0.1,0.8,0.1,1.3c0,0.4,0,0.9,0,1.4c0.8-0.4,1.8-0.3,3.2,0.4c1.4,0.7,2.7,1.3,3.9,1.7c1.2,0.4,2.1,0.7,2.7,0.8
		c1.4,0.1,2.1,0.6,2.1,1.3c0,0.7-0.7,1.3-2.3,1.7c-1.4,0.3-2.9,0.4-4.5,0.4c-1.6-0.1-3.3-0.3-4.9-0.7h-0.1v2.1
		c0,1.2,0.2,1.9,0.5,2.1c0.3,0.2,1,0.3,2,0.2c1.8-0.3,3.5-0.6,5-0.9c1.5-0.3,3.1-0.7,4.7-1.1c0.8-0.2,1.3,0,1.5,0.4
		c0.2,0.5-0.1,1-0.7,1.6c-0.7,0.7-1.5,1.4-2.5,2c-0.9,0.6-2.1,1.3-3.5,2.1c-1.5,0.7-3.3,1.6-5.4,2.5c-2.2,0.9-4.9,2-8.1,3.2
		c-2.1,0.8-3.7,1-4.8,0.8c-1.1-0.3-2.1-1.2-3-2.7c-0.7-1.2-0.8-2.5-0.3-3.8c0.5-1.3,1.7-2.3,3.6-3c1.2-0.4,2.1-1.1,2.8-2.4
		c0.7-1.2,1.2-2.7,1.4-4.3c0.2-1.7,0.2-3.4,0.1-5.2c-0.2-1.8-0.5-3.4-1-5c-0.5-1.4-0.5-2.4-0.2-3c0.4-0.7,1.1-1.1,2.3-1.4
		c1-0.3,2.1-0.2,3.1,0.2c1.1,0.4,1.7,1.4,2,2.9c1.1-1,2.5-1.1,4.1-0.3c1.4,0.7,2.7,1.3,3.9,1.7c1.2,0.4,2.1,0.7,2.7,0.8
		c1.4,0.1,2.1,0.6,2.1,1.3C90,80.9,89.2,81.4,87.7,81.8z M125.5,52.6c0.5,0.8,0.7,1.6,0.7,2.4c0,0.8-0.4,1.9-1,3.3
		c-0.4,0.7-0.6,1.8-0.8,3.2c-0.2,1.4-0.3,3.5-0.5,6.4c-0.1,2.1-0.9,3.5-2.3,3.9c-1.4,0.5-3,0.4-4.7-0.3c-0.5-0.2-1.1-0.3-1.6-0.4
		c-0.5-0.1-1.3-0.2-2.4-0.3c-1.1-0.1-2.6-0.1-4.5-0.1c-1.9,0-4.6,0-8,0c-3.4,0-6.3,0-8.8,0.1c-2.5,0.1-4.6,0.2-6.3,0.3
		c-1.7,0.1-3.1,0.3-4.1,0.4c-1,0.2-1.8,0.4-2.3,0.5c-1.9,0.8-3.3,0.9-4.1,0.4c-0.8-0.5-1.2-1.7-1.2-3.4c0-0.5-0.1-1.3-0.2-2.2
		c-0.2-1-0.3-1.9-0.5-2.9c-0.2-1-0.4-1.9-0.6-2.7c-0.2-0.8-0.5-1.4-0.6-1.7c-0.3-0.5-0.5-1.1-0.5-1.8c-0.1-0.7,0.1-1.8,0.4-3.1
		c0.1-0.7,0.4-1.2,0.9-1.6c0.5-0.3,1-0.5,1.5-0.6c0.6-0.1,1.2,0,1.8,0.1c0.6,0.2,1.2,0.4,1.6,0.8c0.4,0.4,1.1,0.6,2,0.7
		s1.9,0.1,3-0.1c1.1-0.1,2.3-0.4,3.5-0.8c1.2-0.4,2.3-1,3.4-1.6c0.6-0.4,1.3-0.7,2.1-0.7c0.8-0.1,1.6,0,2.3,0.2
		c0.7,0.2,1.3,0.5,1.9,0.9c0.5,0.4,0.8,0.8,0.9,1.4c0.1,0.5,0,0.9-0.1,1.3c-0.1,0.4-0.5,0.7-1,1c-0.5,0.3-1.3,0.5-2.4,0.7
		c-1,0.2-2.4,0.3-4.2,0.4c-2.1,0.1-3.8,0.1-4.9,0.2c-1.2,0.1-2,0.2-2.5,0.4c-0.5,0.1-0.9,0.3-0.9,0.6c-0.1,0.2-0.1,0.5,0,0.9
		c0.1,0.5,0.3,0.8,0.5,1c0.2,0.2,0.6,0.3,1.3,0.3c1,0,2,0,3.2,0c1.2,0,2.2-0.1,3.3-0.1c1,0,2-0.1,2.8-0.1c0.8,0,1.5,0,1.9,0
		c1-0.1,1.7,0,2,0.2c0.3,0.2,0.4,0.7,0.4,1.5c0,0.7-0.4,1.2-1.1,1.6c-0.7,0.4-1.7,0.7-2.8,0.8c-0.5,0.1-1.7,0.2-3.4,0.2
		c-1.7,0-3.6,0.1-5.5,0.1c-0.7,0-1.2,0.1-1.4,0.3c-0.2,0.2-0.3,0.5-0.1,1.1c0.1,0.6,0.3,1,0.7,1.2c0.3,0.2,1,0.3,1.9,0.2
		c0.7,0,1.9,0,3.6,0s3.6,0,5.6,0c2,0,3.9,0,5.7,0s3.2,0,4,0c1.6,0.1,2.9,0.1,4.1,0.1c1.2,0,2.2,0,3.1,0c0.9,0,1.8,0,2.6,0
		c0.8,0,1.6-0.1,2.5-0.1c0.5-0.1,0.9-0.2,1.2-0.4c0.3-0.2,0.5-0.8,0.7-1.6c0.1-0.6,0.1-1,0-1.2c-0.2-0.2-0.6-0.3-1.3-0.3
		c-2.4-0.1-4.6,0-6.6,0s-3.4,0.2-4.2,0.4c-1.2,0.2-2.2,0.1-3-0.4c-0.8-0.5-1.1-1.2-1-2.1c0.1-0.7,0.6-1.2,1.5-1.7
		c0.8-0.5,2.1-0.6,3.6-0.3c0.2,0.1,0.6,0.1,1.4,0.1c0.7,0,1.6,0.1,2.5,0.1c1,0,2,0,3.1,0s2.1,0,3,0c0.7,0,1.1-0.1,1.3-0.3
		c0.2-0.2,0.2-0.6,0.2-1.2c-0.1-0.5-0.2-0.9-0.3-1.1c-0.2-0.2-0.4-0.3-0.6-0.3c-1.4-0.1-3.1-0.1-5.1,0s-3.8,0.3-5.4,0.6
		c-1.5,0.3-2.7,0.4-3.6,0.3c-0.9-0.1-1.6-0.4-2.1-0.8c-0.5-0.4-0.7-0.9-0.7-1.5c0-0.6,0.2-1.2,0.6-1.8c0.5-0.7,1.2-1.2,2.2-1.6
		c1-0.4,2-0.4,3-0.1c3.2,1,5.9,1.4,8.3,1.4c2.4,0,3.9-0.3,4.6-1c1.1-1,2.4-1.5,4-1.4C123.6,50.8,124.8,51.4,125.5,52.6z M110.9,82.5
		c-1.4,0.3-2.9,0.4-4.4,0.4c-1.5-0.1-3.1-0.3-4.7-0.6c0,0.4,0,0.8,0,1.2c0,0.4,0,0.7,0,1.1c0.7-0.1,1.6,0.1,2.5,0.6
		c1.4,0.7,2.7,1.3,3.9,1.7c1.2,0.4,2.1,0.7,2.7,0.8c1.4,0.1,2.1,0.6,2.1,1.3c0,0.7-0.7,1.3-2.3,1.7c-2.9,0.7-5.9,0.6-9.2-0.3
		c0,0.3,0,0.6,0,0.9c0,0.3,0,0.6,0,0.9c-0.1,1.2,0,1.9,0.5,2.2c0.4,0.3,1.1,0.3,2,0.1c2.1-0.4,3.8-0.8,5.2-1.2
		c1.4-0.4,2.9-1,4.6-1.6c1.8-0.7,2.2-0.2,1.3,1.6c-0.4,0.7-1.1,1.5-2.1,2.5c-1.1,0.9-2.4,1.9-4,2.8c-1.6,1-3.4,1.9-5.3,2.7
		c-2,0.9-4,1.6-6.1,2.2c-3.5,1-6.1,0.6-7.7-1.1c-0.9-0.8-1.2-1.6-1.1-2.3c0.1-0.7,0.7-1.6,1.7-2.8c0.8-1,1.5-1.8,2-2.6
		c0.5-0.8,0.8-1.9,1-3.2c0.2-1.3,0.3-3.1,0.2-5.4c0-2.3-0.1-5.4-0.2-9.3c-0.1-3.1,0.7-4.8,2.5-5.1c0.7-0.2,1.5-0.2,2.2-0.2
		c0.7,0.1,1.4,0.3,2,0.6c0.6,0.4,1,0.9,1.4,1.6c0.4,0.7,0.6,1.7,0.6,2.9c0.8-0.2,1.7,0,2.8,0.5c1.4,0.7,2.7,1.3,3.9,1.7
		c1.2,0.4,2.1,0.7,2.7,0.8c1.4,0.1,2.1,0.6,2.1,1.3C113.2,81.6,112.4,82.1,110.9,82.5z M145.4,94.2c-0.6,2.3-1.4,4.1-2.5,5.5
		c-1.1,1.4-2.6,2.7-4.7,3.8c-2.4,1.3-5.3,1.7-8.6,1.2s-6.5-2.4-9.6-5.5c-1-1-1.8-1.9-2.4-2.8c-0.5-0.9-1.1-2-1.7-3.5
		c-1.8-4.5-2.7-8.2-2.7-11.2c0-3,0.5-5.2,1.5-6.8c0.8-1.2,1.4-1.9,1.8-2.2c0.4-0.3,1-0.3,1.6-0.2c1.4,0.3,1.9,1.1,1.5,2.5
		c-0.7,2.3-0.8,4.6-0.3,7c0.5,2.4,2,4.7,4.5,6.9c0.8,0.8,1.8,1.4,2.7,2c1,0.6,2.1,1,3.4,1.4c0.9,0.3,1.9,0.5,3.1,0.7
		c1.2,0.1,2.3,0.2,3.6,0.2c1.2,0,2.5-0.1,3.7-0.2c1.2-0.1,2.4-0.3,3.4-0.6c1-0.3,1.5-0.3,1.7-0.1C145.8,92.5,145.7,93.2,145.4,94.2z
		"/>
</g>
<g class="st0">
	<path d="M186.1,232.5c-0.8,0.4-2.3,0.8-4.3,0.8c-4.6,0-8-2.9-8-8.2c0-5.1,3.4-8.5,8.4-8.5c2,0,3.3,0.4,3.8,0.7l-0.5,1.7
		c-0.8-0.4-1.9-0.7-3.3-0.7c-3.8,0-6.3,2.4-6.3,6.7c0,4,2.3,6.5,6.2,6.5c1.3,0,2.6-0.3,3.4-0.7L186.1,232.5z"/>
	<path d="M198.9,227.1c0,4.3-3,6.2-5.8,6.2c-3.1,0-5.6-2.3-5.6-6c0-3.9,2.5-6.2,5.8-6.2C196.7,221.1,198.9,223.5,198.9,227.1z
		 M189.7,227.2c0,2.5,1.5,4.5,3.5,4.5c2,0,3.5-1.9,3.5-4.5c0-2-1-4.5-3.5-4.5S189.7,225,189.7,227.2z"/>
	<path d="M202.3,221.4l1.5,5.9c0.3,1.3,0.6,2.5,0.9,3.7h0.1c0.3-1.2,0.6-2.4,1-3.7l1.9-5.9h1.8l1.8,5.8c0.4,1.4,0.8,2.6,1,3.8h0.1
		c0.2-1.2,0.5-2.4,0.9-3.8l1.7-5.8h2.1l-3.7,11.6h-1.9l-1.8-5.5c-0.4-1.3-0.7-2.4-1-3.8h0c-0.3,1.4-0.6,2.6-1.1,3.8l-1.9,5.5h-1.9
		l-3.5-11.6H202.3z"/>
</g>
<g class="st0">
	<path d="M176.3,361v3.3h3v1.6h-3v6.3c0,1.4,0.4,2.3,1.6,2.3c0.6,0,1-0.1,1.2-0.1l0.1,1.6c-0.4,0.2-1.1,0.3-1.9,0.3
		c-1,0-1.8-0.3-2.3-0.9c-0.6-0.6-0.8-1.7-0.8-3V366h-1.8v-1.6h1.8v-2.8L176.3,361z"/>
	<path d="M184,361.1c0,0.7-0.5,1.3-1.3,1.3c-0.7,0-1.3-0.6-1.3-1.3c0-0.7,0.6-1.3,1.3-1.3C183.5,359.8,184,360.4,184,361.1z
		 M181.7,376v-11.6h2.1V376H181.7z"/>
	<path d="M197.3,364.4c0,0.8-0.1,1.8-0.1,3.2v6.7c0,2.7-0.5,4.3-1.7,5.3c-1.1,1.1-2.8,1.4-4.2,1.4c-1.4,0-2.9-0.3-3.9-1l0.5-1.6
		c0.8,0.5,2,0.9,3.4,0.9c2.2,0,3.7-1.1,3.7-4.1V374h0c-0.6,1.1-1.9,1.9-3.7,1.9c-2.9,0-4.9-2.4-4.9-5.7c0-3.9,2.6-6.2,5.2-6.2
		c2,0,3.1,1.1,3.6,2h0l0.1-1.8H197.3z M195.1,369c0-0.4,0-0.7-0.1-1c-0.4-1.2-1.4-2.2-3-2.2c-2,0-3.5,1.7-3.5,4.4
		c0,2.3,1.2,4.2,3.4,4.2c1.3,0,2.5-0.8,2.9-2.2c0.1-0.4,0.2-0.8,0.2-1.1V369z"/>
	<path d="M201.9,370.6c0,2.9,1.9,4,4,4c1.5,0,2.4-0.3,3.2-0.6l0.4,1.5c-0.7,0.3-2,0.7-3.9,0.7c-3.6,0-5.7-2.4-5.7-5.9
		c0-3.5,2.1-6.3,5.4-6.3c3.8,0,4.8,3.3,4.8,5.5c0,0.4,0,0.8-0.1,1H201.9z M208.1,369.1c0-1.3-0.6-3.4-2.9-3.4c-2.1,0-3.1,2-3.2,3.4
		H208.1z"/>
	<path d="M212.8,368c0-1.4,0-2.5-0.1-3.6h1.8l0.1,2.3h0.1c0.5-1.6,1.8-2.5,3.2-2.5c0.2,0,0.4,0,0.6,0.1v2c-0.2,0-0.4-0.1-0.7-0.1
		c-1.5,0-2.5,1.1-2.8,2.7c0,0.3-0.1,0.6-0.1,1v6.2h-2.1V368z"/>
</g>
<g class="st0">
	<path d="M178.8,531c0-1.4,0-2.5-0.1-3.6h1.8l0.1,2.3h0.1c0.5-1.6,1.8-2.5,3.2-2.5c0.2,0,0.4,0,0.6,0.1v2c-0.2,0-0.4-0.1-0.7-0.1
		c-1.5,0-2.5,1.1-2.8,2.7c0,0.3-0.1,0.6-0.1,1v6.2h-2.1V531z"/>
	<path d="M192.9,539l-0.2-1.5h-0.1c-0.6,0.9-1.9,1.7-3.6,1.7c-2.4,0-3.6-1.7-3.6-3.3c0-2.8,2.5-4.3,7-4.3v-0.2c0-1-0.3-2.7-2.6-2.7
		c-1.1,0-2.2,0.3-3,0.9l-0.5-1.4c1-0.6,2.4-1,3.8-1c3.6,0,4.4,2.4,4.4,4.8v4.3c0,1,0,2,0.2,2.8H192.9z M192.6,533.1
		c-2.3,0-4.9,0.4-4.9,2.6c0,1.4,0.9,2,2,2c1.5,0,2.5-1,2.8-1.9c0.1-0.2,0.1-0.5,0.1-0.7V533.1z"/>
	<path d="M198,539c0-0.8,0.1-2,0.1-3v-14h2.1v7.3h0c0.7-1.3,2.1-2.1,4-2.1c2.9,0,4.9,2.4,4.9,5.9c0,4.2-2.6,6.2-5.2,6.2
		c-1.7,0-3-0.6-3.9-2.2h-0.1l-0.1,1.9H198z M200.1,534.3c0,0.3,0,0.5,0.1,0.8c0.4,1.5,1.6,2.5,3.2,2.5c2.2,0,3.5-1.8,3.5-4.5
		c0-2.3-1.2-4.3-3.5-4.3c-1.4,0-2.8,1-3.2,2.6c0,0.2-0.1,0.5-0.1,0.9V534.3z"/>
	<path d="M211.6,539c0-0.8,0.1-2,0.1-3v-14h2.1v7.3h0c0.7-1.3,2.1-2.1,4-2.1c2.9,0,4.9,2.4,4.9,5.9c0,4.2-2.6,6.2-5.2,6.2
		c-1.7,0-3-0.6-3.9-2.2h-0.1l-0.1,1.9H211.6z M213.8,534.3c0,0.3,0,0.5,0.1,0.8c0.4,1.5,1.6,2.5,3.2,2.5c2.2,0,3.5-1.8,3.5-4.5
		c0-2.3-1.2-4.3-3.5-4.3c-1.4,0-2.8,1-3.2,2.6c0,0.2-0.1,0.5-0.1,0.9V534.3z"/>
	<path d="M227.7,524.1c0,0.7-0.5,1.3-1.3,1.3c-0.7,0-1.3-0.6-1.3-1.3c0-0.7,0.6-1.3,1.3-1.3C227.2,522.8,227.7,523.4,227.7,524.1z
		 M225.4,539v-11.6h2.1V539H225.4z"/>
	<path d="M233.5,524v3.3h3v1.6h-3v6.3c0,1.4,0.4,2.3,1.6,2.3c0.6,0,1-0.1,1.2-0.1l0.1,1.6c-0.4,0.2-1.1,0.3-1.9,0.3
		c-1,0-1.8-0.3-2.3-0.9c-0.6-0.6-0.8-1.7-0.8-3V529h-1.8v-1.6h1.8v-2.8L233.5,524z"/>
</g>
<g class="st0">
	<path d="M398.8,60v14c0,1,0,2.2,0.1,3H397l-0.1-2h0c-0.6,1.3-2.1,2.3-4,2.3c-2.8,0-5-2.4-5-5.9c0-3.9,2.4-6.2,5.2-6.2
		c1.8,0,3,0.8,3.5,1.8h0V60H398.8z M396.7,70.1c0-0.3,0-0.6-0.1-0.9c-0.3-1.3-1.5-2.4-3-2.4c-2.2,0-3.5,1.9-3.5,4.5
		c0,2.4,1.2,4.3,3.4,4.3c1.4,0,2.7-0.9,3.1-2.5c0.1-0.3,0.1-0.6,0.1-0.9V70.1z"/>
	<path d="M402.3,69c0-1.4,0-2.5-0.1-3.6h1.8l0.1,2.3h0.1c0.5-1.6,1.8-2.5,3.2-2.5c0.2,0,0.4,0,0.6,0.1v2c-0.2,0-0.4-0.1-0.7-0.1
		c-1.5,0-2.5,1.1-2.8,2.7c0,0.3-0.1,0.6-0.1,1V77h-2.1V69z"/>
	<path d="M416.4,77l-0.2-1.5h-0.1c-0.6,0.9-1.9,1.7-3.6,1.7c-2.4,0-3.6-1.7-3.6-3.3c0-2.8,2.5-4.3,7-4.3v-0.2c0-1-0.3-2.7-2.6-2.7
		c-1.1,0-2.2,0.3-3,0.9l-0.5-1.4c1-0.6,2.4-1,3.8-1c3.6,0,4.4,2.4,4.4,4.8v4.3c0,1,0,2,0.2,2.8H416.4z M416.1,71.1
		c-2.3,0-4.9,0.4-4.9,2.6c0,1.4,0.9,2,2,2c1.5,0,2.5-1,2.8-1.9c0.1-0.2,0.1-0.5,0.1-0.7V71.1z"/>
	<path d="M431.6,65.4c0,0.8-0.1,1.8-0.1,3.2v6.7c0,2.7-0.5,4.3-1.7,5.3c-1.1,1.1-2.8,1.4-4.2,1.4c-1.4,0-2.9-0.3-3.9-1l0.5-1.6
		c0.8,0.5,2,0.9,3.4,0.9c2.2,0,3.7-1.1,3.7-4.1V75h0c-0.6,1.1-1.9,1.9-3.7,1.9c-2.9,0-4.9-2.4-4.9-5.7c0-3.9,2.6-6.2,5.2-6.2
		c2,0,3.1,1.1,3.6,2h0l0.1-1.8H431.6z M429.4,70c0-0.4,0-0.7-0.1-1c-0.4-1.2-1.4-2.2-3-2.2c-2,0-3.5,1.7-3.5,4.4
		c0,2.3,1.2,4.2,3.4,4.2c1.3,0,2.5-0.8,2.9-2.2c0.1-0.4,0.2-0.8,0.2-1.1V70z"/>
	<path d="M445.5,71.1c0,4.3-3,6.2-5.8,6.2c-3.1,0-5.6-2.3-5.6-6c0-3.9,2.5-6.2,5.8-6.2C443.3,65.1,445.5,67.5,445.5,71.1z
		 M436.3,71.2c0,2.5,1.5,4.5,3.5,4.5c2,0,3.5-1.9,3.5-4.5c0-2-1-4.5-3.5-4.5S436.3,69,436.3,71.2z"/>
	<path d="M448.2,68.5c0-1.2,0-2.2-0.1-3.1h1.9l0.1,1.9h0c0.6-1.1,1.9-2.2,3.8-2.2c1.6,0,4.1,1,4.1,4.9V77H456v-6.7
		c0-1.9-0.7-3.4-2.7-3.4c-1.4,0-2.5,1-2.8,2.2c-0.1,0.3-0.1,0.6-0.1,1v7h-2.1V68.5z"/>
</g>
<g class="st0">
	<path d="M398.5,235.8c0.6,0.4,1.7,0.8,2.8,0.8c1.5,0,2.3-0.8,2.3-1.7c0-1-0.6-1.6-2.2-2.1c-2.1-0.7-3.1-1.9-3.1-3.3
		c0-1.9,1.5-3.4,4-3.4c1.2,0,2.2,0.3,2.9,0.7l-0.5,1.5c-0.5-0.3-1.3-0.7-2.4-0.7c-1.2,0-1.9,0.7-1.9,1.6c0,1,0.7,1.4,2.2,2
		c2,0.8,3,1.8,3,3.5c0,2-1.6,3.5-4.3,3.5c-1.3,0-2.4-0.3-3.3-0.8L398.5,235.8z"/>
	<path d="M408.3,229.5c0-1.2,0-2.2-0.1-3.1h1.9l0.1,1.9h0c0.6-1.1,1.9-2.2,3.8-2.2c1.6,0,4.1,1,4.1,4.9v6.9H416v-6.7
		c0-1.9-0.7-3.4-2.7-3.4c-1.4,0-2.5,1-2.8,2.2c-0.1,0.3-0.1,0.6-0.1,1v7h-2.1V229.5z"/>
	<path d="M428,238l-0.2-1.5h-0.1c-0.6,0.9-1.9,1.7-3.6,1.7c-2.4,0-3.6-1.7-3.6-3.3c0-2.8,2.5-4.3,7-4.3v-0.2c0-1-0.3-2.7-2.6-2.7
		c-1.1,0-2.2,0.3-3,0.9l-0.5-1.4c1-0.6,2.4-1,3.8-1c3.6,0,4.4,2.4,4.4,4.8v4.3c0,1,0,2,0.2,2.8H428z M427.7,232.1
		c-2.3,0-4.9,0.4-4.9,2.6c0,1.4,0.9,2,2,2c1.5,0,2.5-1,2.8-1.9c0.1-0.2,0.1-0.5,0.1-0.7V232.1z"/>
	<path d="M435.2,231.7L435.2,231.7c0.3-0.4,0.7-0.9,1.1-1.3l3.4-4h2.5l-4.5,4.8l5.1,6.8h-2.6l-4-5.6l-1.1,1.2v4.4h-2.1v-17h2.1
		V231.7z"/>
	<path d="M445.6,232.6c0,2.9,1.9,4,4,4c1.5,0,2.4-0.3,3.2-0.6l0.4,1.5c-0.7,0.3-2,0.7-3.9,0.7c-3.6,0-5.7-2.4-5.7-5.9
		c0-3.5,2.1-6.3,5.4-6.3c3.8,0,4.8,3.3,4.8,5.5c0,0.4,0,0.8-0.1,1H445.6z M451.8,231.1c0-1.3-0.6-3.4-2.9-3.4c-2.1,0-3.1,2-3.2,3.4
		H451.8z"/>
</g>
<g class="st0">
	<path d="M395.8,360h2.1v7.2h0c0.3-0.6,0.9-1.1,1.5-1.5c0.6-0.4,1.4-0.6,2.2-0.6c1.6,0,4.1,1,4.1,5v6.9h-2.1v-6.7
		c0-1.9-0.7-3.5-2.7-3.5c-1.4,0-2.4,1-2.8,2.1c-0.1,0.3-0.1,0.6-0.1,1v7h-2.1V360z"/>
	<path d="M419.6,371.1c0,4.3-3,6.2-5.8,6.2c-3.1,0-5.6-2.3-5.6-6c0-3.9,2.5-6.2,5.8-6.2C417.3,365.1,419.6,367.5,419.6,371.1z
		 M410.4,371.2c0,2.5,1.5,4.5,3.5,4.5c2,0,3.5-1.9,3.5-4.5c0-2-1-4.5-3.5-4.5S410.4,369,410.4,371.2z"/>
	<path d="M422.2,369c0-1.4,0-2.5-0.1-3.6h1.8l0.1,2.3h0.1c0.5-1.6,1.8-2.5,3.2-2.5c0.2,0,0.4,0,0.6,0.1v2c-0.2,0-0.4-0.1-0.7-0.1
		c-1.5,0-2.5,1.1-2.8,2.7c0,0.3-0.1,0.6-0.1,1v6.2h-2.1V369z"/>
	<path d="M429.8,374.8c0.6,0.4,1.7,0.8,2.8,0.8c1.5,0,2.3-0.8,2.3-1.7c0-1-0.6-1.6-2.2-2.1c-2.1-0.7-3.1-1.9-3.1-3.3
		c0-1.9,1.5-3.4,4-3.4c1.2,0,2.2,0.3,2.9,0.7l-0.5,1.5c-0.5-0.3-1.3-0.7-2.4-0.7c-1.2,0-1.9,0.7-1.9,1.6c0,1,0.7,1.4,2.2,2
		c2,0.8,3,1.8,3,3.5c0,2-1.6,3.5-4.3,3.5c-1.3,0-2.4-0.3-3.3-0.8L429.8,374.8z"/>
	<path d="M440.8,371.6c0,2.9,1.9,4,4,4c1.5,0,2.4-0.3,3.2-0.6l0.4,1.5c-0.7,0.3-2,0.7-3.9,0.7c-3.6,0-5.7-2.4-5.7-5.9
		c0-3.5,2.1-6.3,5.4-6.3c3.8,0,4.8,3.3,4.8,5.5c0,0.4,0,0.8-0.1,1H440.8z M447,370.1c0-1.3-0.6-3.4-2.9-3.4c-2.1,0-3.1,2-3.2,3.4
		H447z"/>
</g>
<g class="st0">
	<path d="M410.8,521.4c0,0.8-0.1,1.8-0.1,3.2v6.7c0,2.7-0.5,4.3-1.7,5.3c-1.1,1.1-2.8,1.4-4.2,1.4c-1.4,0-2.9-0.3-3.9-1l0.5-1.6
		c0.8,0.5,2,0.9,3.4,0.9c2.2,0,3.7-1.1,3.7-4.1V531h0c-0.6,1.1-1.9,1.9-3.7,1.9c-2.9,0-4.9-2.4-4.9-5.7c0-3.9,2.6-6.2,5.2-6.2
		c2,0,3.1,1.1,3.6,2h0l0.1-1.8H410.8z M408.6,526c0-0.4,0-0.7-0.1-1c-0.4-1.2-1.4-2.2-3-2.2c-2,0-3.5,1.7-3.5,4.4
		c0,2.3,1.2,4.2,3.4,4.2c1.3,0,2.5-0.8,2.9-2.2c0.1-0.4,0.2-0.8,0.2-1.1V526z"/>
	<path d="M424.7,527.1c0,4.3-3,6.2-5.8,6.2c-3.1,0-5.6-2.3-5.6-6c0-3.9,2.5-6.2,5.8-6.2C422.4,521.1,424.7,523.5,424.7,527.1z
		 M415.5,527.2c0,2.5,1.5,4.5,3.5,4.5c2,0,3.5-1.9,3.5-4.5c0-2-1-4.5-3.5-4.5S415.5,525,415.5,527.2z"/>
	<path d="M433.8,533l-0.2-1.5h-0.1c-0.6,0.9-1.9,1.7-3.6,1.7c-2.4,0-3.6-1.7-3.6-3.3c0-2.8,2.5-4.3,7-4.3v-0.2c0-1-0.3-2.7-2.6-2.7
		c-1.1,0-2.2,0.3-3,0.9l-0.5-1.4c1-0.6,2.4-1,3.8-1c3.6,0,4.4,2.4,4.4,4.8v4.3c0,1,0,2,0.2,2.8H433.8z M433.5,527.1
		c-2.3,0-4.9,0.4-4.9,2.6c0,1.4,0.9,2,2,2c1.5,0,2.5-1,2.8-1.9c0.1-0.2,0.1-0.5,0.1-0.7V527.1z"/>
	<path d="M441.4,518v3.3h3v1.6h-3v6.3c0,1.4,0.4,2.3,1.6,2.3c0.6,0,1-0.1,1.2-0.1l0.1,1.6c-0.4,0.2-1.1,0.3-1.9,0.3
		c-1,0-1.8-0.3-2.3-0.9c-0.6-0.6-0.8-1.7-0.8-3V523h-1.8v-1.6h1.8v-2.8L441.4,518z"/>
</g>
<g class="st0">
	<path d="M631.8,62.7c0-1.3,0-2.4-0.1-3.5h1.8l0.1,2.1h0.1c0.6-1.2,1.7-2.3,3.6-2.3c1.6,0,2.8,1.1,3.3,2.6h0
		c0.4-0.7,0.8-1.3,1.3-1.7c0.7-0.6,1.5-0.9,2.6-0.9c1.5,0,3.8,1.1,3.8,5.5V72h-2.1v-7.2c0-2.5-0.8-3.9-2.5-3.9c-1.2,0-2.1,1-2.5,2.1
		c-0.1,0.3-0.2,0.7-0.2,1.2V72H639v-7.7c0-2-0.8-3.5-2.4-3.5c-1.3,0-2.3,1.2-2.6,2.3c-0.1,0.3-0.2,0.7-0.2,1.1V72h-2.1V62.7z"/>
	<path d="M662.3,65.5c0,4.7-3,6.8-5.8,6.8c-3.1,0-5.6-2.5-5.6-6.6c0-4.3,2.5-6.8,5.8-6.8C660,58.9,662.3,61.6,662.3,65.5z
		 M653.1,65.6c0,2.8,1.5,4.9,3.5,4.9c2,0,3.5-2.1,3.5-5c0-2.2-1-4.9-3.5-4.9S653.1,63.2,653.1,65.6z"/>
	<path d="M664.9,62.7c0-1.3,0-2.4-0.1-3.5h1.9l0.1,2.1h0c0.6-1.2,1.9-2.4,3.8-2.4c1.6,0,4.1,1.1,4.1,5.4V72h-2.1v-7.4
		c0-2.1-0.7-3.8-2.7-3.8c-1.4,0-2.5,1.1-2.8,2.4c-0.1,0.3-0.1,0.7-0.1,1.1V72h-2.1V62.7z"/>
	<path d="M680.4,65.1L680.4,65.1c0.3-0.4,0.7-1,1.1-1.5l3.4-4.4h2.5l-4.5,5.3L688,72h-2.6l-4-6.1l-1.1,1.3V72h-2.1V53.3h2.1V65.1z"
		/>
	<path d="M690.7,66c0,3.1,1.9,4.4,4,4.4c1.5,0,2.4-0.3,3.2-0.7l0.4,1.7c-0.7,0.4-2,0.8-3.9,0.8c-3.6,0-5.7-2.6-5.7-6.4
		c0-3.9,2.1-6.9,5.4-6.9c3.8,0,4.8,3.7,4.8,6c0,0.5,0,0.8-0.1,1.1H690.7z M696.9,64.4c0-1.5-0.6-3.8-2.9-3.8c-2.1,0-3.1,2.2-3.2,3.8
		H696.9z"/>
	<path d="M702.3,59.2l2.5,7.5c0.3,0.8,0.6,1.8,0.7,2.6h0c0.2-0.8,0.5-1.7,0.7-2.7l2.3-7.5h2.2l-3.2,9.1c-1.5,4.4-2.5,6.6-4,8
		c-1,1-2.1,1.4-2.6,1.5l-0.5-2c0.5-0.2,1.2-0.6,1.8-1.1c0.6-0.5,1.3-1.4,1.8-2.6c0.1-0.2,0.2-0.4,0.2-0.6s0-0.3-0.1-0.6L700,59.2
		H702.3z"/>
</g>
<g class="st0">
	<path d="M638,236.5c-0.6,0.3-1.8,0.7-3.3,0.7c-3.5,0-5.8-2.6-5.8-6.5c0-3.9,2.4-6.8,6.2-6.8c1.2,0,2.4,0.3,2.9,0.7l-0.5,1.8
		c-0.5-0.3-1.3-0.6-2.4-0.6c-2.7,0-4.1,2.2-4.1,4.8c0,3,1.7,4.8,4,4.8c1.2,0,2-0.3,2.6-0.6L638,236.5z"/>
	<path d="M640.5,218.3h2.1v8h0c0.3-0.7,0.9-1.2,1.5-1.6c0.6-0.4,1.4-0.7,2.2-0.7c1.6,0,4.1,1.1,4.1,5.5v7.6h-2.1v-7.3
		c0-2.1-0.7-3.8-2.7-3.8c-1.4,0-2.4,1.1-2.8,2.3c-0.1,0.3-0.1,0.7-0.1,1.1v7.7h-2.1V218.3z"/>
	<path d="M656.2,220.6c0,0.8-0.5,1.4-1.3,1.4c-0.7,0-1.3-0.6-1.3-1.4c0-0.8,0.6-1.5,1.3-1.5C655.7,219.2,656.2,219.8,656.2,220.6z
		 M653.8,237v-12.8h2.1V237H653.8z"/>
	<path d="M667.7,236.5c-0.6,0.3-1.8,0.7-3.3,0.7c-3.5,0-5.8-2.6-5.8-6.5c0-3.9,2.4-6.8,6.2-6.8c1.2,0,2.4,0.3,2.9,0.7l-0.5,1.8
		c-0.5-0.3-1.3-0.6-2.4-0.6c-2.7,0-4.1,2.2-4.1,4.8c0,3,1.7,4.8,4,4.8c1.2,0,2-0.3,2.6-0.6L667.7,236.5z"/>
	<path d="M672.3,230.1L672.3,230.1c0.3-0.4,0.7-1,1.1-1.5l3.4-4.4h2.5l-4.5,5.3l5.1,7.5h-2.6l-4-6.1l-1.1,1.3v4.8h-2.1v-18.7h2.1
		V230.1z"/>
	<path d="M682.6,231c0,3.1,1.9,4.4,4,4.4c1.5,0,2.4-0.3,3.2-0.7l0.4,1.7c-0.7,0.4-2,0.8-3.9,0.8c-3.6,0-5.7-2.6-5.7-6.4
		c0-3.9,2.1-6.9,5.4-6.9c3.8,0,4.8,3.7,4.8,6c0,0.5,0,0.8-0.1,1.1H682.6z M688.8,229.4c0-1.5-0.6-3.8-2.9-3.8
		c-2.1,0-3.1,2.2-3.2,3.8H688.8z"/>
	<path d="M693.5,227.7c0-1.3,0-2.4-0.1-3.5h1.9l0.1,2.1h0c0.6-1.2,1.9-2.4,3.8-2.4c1.6,0,4.1,1.1,4.1,5.4v7.6h-2.1v-7.4
		c0-2.1-0.7-3.8-2.7-3.8c-1.4,0-2.5,1.1-2.8,2.4c-0.1,0.3-0.1,0.7-0.1,1.1v7.7h-2.1V227.7z"/>
</g>
<g class="st0">
	<path d="M644.8,357.3v15.4c0,1.1,0,2.4,0.1,3.3H643l-0.1-2.2h0c-0.6,1.4-2.1,2.5-4,2.5c-2.8,0-5-2.6-5-6.5c0-4.2,2.4-6.9,5.2-6.9
		c1.8,0,3,0.9,3.5,2h0v-7.6H644.8z M642.7,368.4c0-0.3,0-0.7-0.1-1c-0.3-1.5-1.5-2.7-3-2.7c-2.2,0-3.5,2.1-3.5,4.9
		c0,2.6,1.2,4.7,3.4,4.7c1.4,0,2.7-1,3.1-2.8c0.1-0.3,0.1-0.6,0.1-1V368.4z"/>
	<path d="M658.8,369.5c0,4.7-3,6.8-5.8,6.8c-3.1,0-5.6-2.5-5.6-6.6c0-4.3,2.5-6.8,5.8-6.8C656.5,362.9,658.8,365.6,658.8,369.5z
		 M649.6,369.6c0,2.8,1.5,4.9,3.5,4.9c2,0,3.5-2.1,3.5-5c0-2.2-1-4.9-3.5-4.9S649.6,367.2,649.6,369.6z"/>
	<path d="M671.5,363.2c0,0.9-0.1,2-0.1,3.5v7.4c0,2.9-0.5,4.7-1.7,5.8c-1.1,1.2-2.8,1.5-4.2,1.5c-1.4,0-2.9-0.4-3.9-1.1l0.5-1.8
		c0.8,0.5,2,1,3.4,1c2.2,0,3.7-1.2,3.7-4.5v-1.4h0c-0.6,1.2-1.9,2.1-3.7,2.1c-2.9,0-4.9-2.7-4.9-6.2c0-4.3,2.6-6.8,5.2-6.8
		c2,0,3.1,1.2,3.6,2.2h0l0.1-1.9H671.5z M669.3,368.3c0-0.4,0-0.7-0.1-1.1c-0.4-1.3-1.4-2.5-3-2.5c-2,0-3.5,1.9-3.5,4.8
		c0,2.5,1.2,4.6,3.4,4.6c1.3,0,2.5-0.9,2.9-2.4c0.1-0.4,0.2-0.8,0.2-1.2V368.3z"/>
</g>
<g class="st0">
	<path d="M633.8,521.4c0-1.6,0-3-0.1-4.2h1.9l0.1,2.2h0c0.9-1.6,2.2-2.5,4.1-2.5c2.8,0,4.9,2.6,4.9,6.5c0,4.6-2.5,6.9-5.3,6.9
		c-1.5,0-2.9-0.7-3.6-2h0v6.9h-2.1V521.4z M635.8,524.8c0,0.3,0,0.7,0.1,1c0.4,1.6,1.7,2.7,3.2,2.7c2.2,0,3.5-2,3.5-4.9
		c0-2.6-1.2-4.8-3.5-4.8c-1.4,0-2.8,1.1-3.2,2.9c-0.1,0.3-0.1,0.6-0.1,1V524.8z"/>
	<path d="M649.8,513.6c0,0.8-0.5,1.4-1.3,1.4c-0.7,0-1.3-0.6-1.3-1.4c0-0.8,0.6-1.5,1.3-1.5C649.3,512.2,649.8,512.8,649.8,513.6z
		 M647.4,530v-12.8h2.1V530H647.4z"/>
	<path d="M663,517.2c0,0.9-0.1,2-0.1,3.5v7.4c0,2.9-0.5,4.7-1.7,5.8c-1.1,1.2-2.8,1.5-4.2,1.5c-1.4,0-2.9-0.4-3.9-1.1l0.5-1.8
		c0.8,0.5,2,1,3.4,1c2.2,0,3.7-1.2,3.7-4.5v-1.4h0c-0.6,1.2-1.9,2.1-3.7,2.1c-2.9,0-4.9-2.7-4.9-6.2c0-4.3,2.6-6.8,5.2-6.8
		c2,0,3.1,1.2,3.6,2.2h0l0.1-1.9H663z M660.8,522.3c0-0.4,0-0.7-0.1-1.1c-0.4-1.3-1.4-2.5-3-2.5c-2,0-3.5,1.9-3.5,4.8
		c0,2.5,1.2,4.6,3.4,4.6c1.3,0,2.5-0.9,2.9-2.4c0.1-0.4,0.2-0.8,0.2-1.2V522.3z"/>
</g>
<g class="st0">
	<path d="M167.8,74c0-1.4,0-2.5-0.1-3.6h1.8l0.1,2.3h0.1c0.5-1.6,1.8-2.5,3.2-2.5c0.2,0,0.4,0,0.6,0.1v2c-0.2,0-0.4-0.1-0.7-0.1
		c-1.5,0-2.5,1.1-2.8,2.7c0,0.3-0.1,0.6-0.1,1V82h-2.1V74z"/>
	<path d="M181.9,82l-0.2-1.5h-0.1c-0.6,0.9-1.9,1.7-3.6,1.7c-2.4,0-3.6-1.7-3.6-3.3c0-2.8,2.5-4.3,7-4.3v-0.2c0-1-0.3-2.7-2.6-2.7
		c-1.1,0-2.2,0.3-3,0.9l-0.5-1.4c1-0.6,2.4-1,3.8-1c3.6,0,4.4,2.4,4.4,4.8v4.3c0,1,0,2,0.2,2.8H181.9z M181.6,76.1
		c-2.3,0-4.9,0.4-4.9,2.6c0,1.4,0.9,2,2,2c1.5,0,2.5-1,2.8-1.9c0.1-0.2,0.1-0.5,0.1-0.7V76.1z"/>
	<path d="M189.5,67v3.3h3V72h-3v6.3c0,1.4,0.4,2.3,1.6,2.3c0.6,0,1-0.1,1.2-0.1l0.1,1.6c-0.4,0.2-1.1,0.3-1.9,0.3
		c-1,0-1.8-0.3-2.3-0.9c-0.6-0.6-0.8-1.7-0.8-3V72h-1.8v-1.6h1.8v-2.8L189.5,67z"/>
</g>
</svg>
