<?xml version="1.0" encoding="UTF-8" standalone="no"?>
<!-- Created with Inkscape (http://www.inkscape.org/) -->

<svg
   xmlns:dc="http://purl.org/dc/elements/1.1/"
   xmlns:cc="http://creativecommons.org/ns#"
   xmlns:rdf="http://www.w3.org/1999/02/22-rdf-syntax-ns#"
   xmlns:svg="http://www.w3.org/2000/svg"
   xmlns="http://www.w3.org/2000/svg"
   xmlns:sodipodi="http://sodipodi.sourceforge.net/DTD/sodipodi-0.dtd"
   xmlns:inkscape="http://www.inkscape.org/namespaces/inkscape"
   width="210mm"
   height="297mm"
   viewBox="0 0 744.09448819 1052.3622047"
   id="svg2"
   version="1.1"
   inkscape:version="0.91 r13725"
   sodipodi:docname="circle_requirements.svg">
  <defs
     id="defs4" />
  <sodipodi:namedview
     id="base"
     pagecolor="#ffffff"
     bordercolor="#666666"
     borderopacity="1.0"
     inkscape:pageopacity="0.0"
     inkscape:pageshadow="2"
     inkscape:zoom="0.42486697"
     inkscape:cx="464.97183"
     inkscape:cy="441.79634"
     inkscape:document-units="px"
     inkscape:current-layer="layer1"
     showgrid="false"
     inkscape:snap-bbox="true"
     inkscape:snap-bbox-midpoints="true"
     inkscape:window-width="1920"
     inkscape:window-height="1056"
     inkscape:window-x="0"
     inkscape:window-y="24"
     inkscape:window-maximized="1" />
  <metadata
     id="metadata7">
    <rdf:RDF>
      <cc:Work
         rdf:about="">
        <dc:format>image/svg+xml</dc:format>
        <dc:type
           rdf:resource="http://purl.org/dc/dcmitype/StillImage" />
        <dc:title></dc:title>
      </cc:Work>
    </rdf:RDF>
  </metadata>
  <g
     inkscape:label="Layer 1"
     inkscape:groupmode="layer"
     id="layer1">
    <circle
       style="fill:#ffffff;fill-opacity:1;stroke:#00a000;stroke-width:30;stroke-miterlimit:4;stroke-dasharray:none;stroke-dashoffset:0;stroke-opacity:1"
       id="path4136"
       cx="112.87634"
       cy="242.41272"
       r="85.714287" />
    <circle
       r="85.714287"
       cy="242.41272"
       cx="312.87634"
       id="circle4140"
       style="fill:#ffffff;fill-opacity:1;stroke:#00a000;stroke-width:30;stroke-miterlimit:4;stroke-dasharray:none;stroke-dashoffset:0;stroke-opacity:1" />
    <g
       transform="matrix(5.4283058,0,0,5.4283058,-1813.5547,-3999.4976)"
       style="font-style:normal;font-variant:normal;font-weight:normal;font-stretch:semi-condensed;font-size:40px;line-height:125%;font-family:Symbola;-inkscape-font-specification:'Symbola Semi-Condensed';letter-spacing:0px;word-spacing:0px;fill:#000000;fill-opacity:1;stroke:none;stroke-width:1px;stroke-linecap:butt;stroke-linejoin:miter;stroke-opacity:1"
       id="text4142-3">
      <path
         inkscape:connector-curvature="0"
         d="m 362.07373,784.86078 q 0,0.46875 -0.33203,0.85937 -0.3125,0.3711 -0.78125,0.3711 -0.27344,0 -0.50781,-0.17578 l -5.03907,-3.55469 0.58594,6.23047 q 0,0.95703 -1.11328,0.95703 -1.09375,0 -1.09375,-0.95703 l 0,-0.0977 0.56641,-6.13281 -5.01953,3.55469 q -0.25391,0.17578 -0.52735,0.17578 -0.44922,0 -0.78125,-0.3711 -0.33203,-0.39062 -0.33203,-0.85937 0,-0.60547 0.52734,-0.83984 l 5.60547,-2.57813 -5.60547,-2.57812 q -0.52734,-0.25391 -0.52734,-0.85938 0,-0.44922 0.33203,-0.83984 0.33203,-0.39063 0.78125,-0.39063 0.27344,0 0.52735,0.17578 l 5.01953,3.57422 -0.56641,-6.23047 q 0,-0.95703 1.09375,-0.95703 1.11328,0 1.11328,0.95703 l 0,0.0977 -0.58594,6.13281 5.03907,-3.57422 q 0.23437,-0.17578 0.50781,-0.17578 0.46875,0 0.78125,0.39063 0.33203,0.39062 0.33203,0.83984 0,0.60547 -0.50781,0.85938 l -5.60547,2.57812 5.60547,2.57813 q 0.50781,0.23437 0.50781,0.83984 z"
         id="path4163-7" />
    </g>
    <g
       id="g4183"
       style="font-style:normal;font-variant:normal;font-weight:normal;font-stretch:semi-condensed;font-size:40px;line-height:125%;font-family:Symbola;-inkscape-font-specification:'Symbola Semi-Condensed';letter-spacing:0px;word-spacing:0px;fill:#000000;fill-opacity:1;stroke:none;stroke-width:1px;stroke-linecap:butt;stroke-linejoin:miter;stroke-opacity:1"
       transform="matrix(5.4283058,0,0,5.4283058,-1613.5547,-3999.4977)">
      <path
         id="path4185"
         d="m 362.07373,784.86078 q 0,0.46875 -0.33203,0.85937 -0.3125,0.3711 -0.78125,0.3711 -0.27344,0 -0.50781,-0.17578 l -5.03907,-3.55469 0.58594,6.23047 q 0,0.95703 -1.11328,0.95703 -1.09375,0 -1.09375,-0.95703 l 0,-0.0977 0.56641,-6.13281 -5.01953,3.55469 q -0.25391,0.17578 -0.52735,0.17578 -0.44922,0 -0.78125,-0.3711 -0.33203,-0.39062 -0.33203,-0.85937 0,-0.60547 0.52734,-0.83984 l 5.60547,-2.57813 -5.60547,-2.57812 q -0.52734,-0.25391 -0.52734,-0.85938 0,-0.44922 0.33203,-0.83984 0.33203,-0.39063 0.78125,-0.39063 0.27344,0 0.52735,0.17578 l 5.01953,3.57422 -0.56641,-6.23047 q 0,-0.95703 1.09375,-0.95703 1.11328,0 1.11328,0.95703 l 0,0.0977 -0.58594,6.13281 5.03907,-3.57422 q 0.23437,-0.17578 0.50781,-0.17578 0.46875,0 0.78125,0.39063 0.33203,0.39062 0.33203,0.83984 0,0.60547 -0.50781,0.85938 l -5.60547,2.57812 5.60547,2.57813 q 0.50781,0.23437 0.50781,0.83984 z"
         inkscape:connector-curvature="0" />
    </g>
    <g
       style="font-style:normal;font-weight:normal;font-size:167.5905304px;line-height:125%;font-family:sans-serif;letter-spacing:0px;word-spacing:0px;fill:#000000;fill-opacity:1;stroke:none;stroke-width:1px;stroke-linecap:butt;stroke-linejoin:miter;stroke-opacity:1"
       id="text4187"
       transform="translate(-207.12366,-107.09235)">
      <path
         d="m 688.32047,280.64402 13.91132,0 -42.55228,137.72211 -13.91132,0 42.55228,-137.72211 z"
         id="path4192"
         inkscape:connector-curvature="0" />
    </g>
    <circle
       r="85.714287"
       cy="242.41269"
       cx="630.87634"
       id="circle4140-8"
       style="fill:#ffffff;fill-opacity:1;stroke:#00a000;stroke-width:30;stroke-miterlimit:4;stroke-dasharray:none;stroke-dashoffset:0;stroke-opacity:1" />
    <text
       xml:space="preserve"
       style="font-style:normal;font-variant:normal;font-weight:500;font-stretch:normal;font-size:110.83886719px;line-height:125%;font-family:OptimusPrinceps;-inkscape-font-specification:'OptimusPrinceps Medium';letter-spacing:0px;word-spacing:0px;fill:#000000;fill-opacity:1;stroke:none;stroke-width:1px;stroke-linecap:butt;stroke-linejoin:miter;stroke-opacity:1"
       x="572.47809"
       y="283.09055"
       id="text4209"
       sodipodi:linespacing="125%"><tspan
         sodipodi:role="line"
         id="tspan4211"
         x="572.47809"
         y="283.09055">W</tspan></text>
  </g>
</svg>
