<?xml version="1.0" encoding="UTF-8" standalone="no"?>
<!-- Generator: Adobe Illustrator 15.0.0, SVG Export Plug-In . SVG Version: 6.00 Build 0)  -->

<svg
   xmlns:dc="http://purl.org/dc/elements/1.1/"
   xmlns:cc="http://creativecommons.org/ns#"
   xmlns:rdf="http://www.w3.org/1999/02/22-rdf-syntax-ns#"
   xmlns:svg="http://www.w3.org/2000/svg"
   xmlns="http://www.w3.org/2000/svg"
   xmlns:xlink="http://www.w3.org/1999/xlink"
   xmlns:sodipodi="http://sodipodi.sourceforge.net/DTD/sodipodi-0.dtd"
   xmlns:inkscape="http://www.inkscape.org/namespaces/inkscape"
   version="1.1"
   x="0px"
   y="0px"
   width="216px"
   height="216px"
   viewBox="0 0 216 216"
   enable-background="new 0 0 216 216"
   xml:space="preserve"
   id="svg2"
   inkscape:version="0.91 r13725"
   sodipodi:docname="greencard_front.svg"><metadata
     id="metadata496"><rdf:RDF><cc:Work
         rdf:about=""><dc:format>image/svg+xml</dc:format><dc:type
           rdf:resource="http://purl.org/dc/dcmitype/StillImage" /><dc:title /></cc:Work></rdf:RDF></metadata><defs
     id="defs494"><linearGradient
       inkscape:collect="always"
       id="linearGradient4796"><stop
         style="stop-color:#5f9c00;stop-opacity:1"
         offset="0"
         id="stop4798" /><stop
         style="stop-color:#005117;stop-opacity:1"
         offset="1"
         id="stop4800" /></linearGradient><linearGradient
       inkscape:collect="always"
       xlink:href="#linearGradient4796"
       id="linearGradient5912"
       x1="97.751755"
       y1="92.60479"
       x2="103.05542"
       y2="109.92422"
       gradientUnits="userSpaceOnUse" /><radialGradient
       inkscape:collect="always"
       xlink:href="#linearGradient4796"
       id="radialGradient6451"
       cx="107.99982"
       cy="107.99985"
       fx="107.99982"
       fy="107.99985"
       r="92.070374"
       gradientUnits="userSpaceOnUse" /></defs><sodipodi:namedview
     pagecolor="#ffffff"
     bordercolor="#666666"
     borderopacity="1"
     objecttolerance="10"
     gridtolerance="10"
     guidetolerance="10"
     inkscape:pageopacity="0"
     inkscape:pageshadow="2"
     inkscape:window-width="1600"
     inkscape:window-height="876"
     id="namedview492"
     showgrid="false"
     inkscape:snap-bbox="true"
     inkscape:snap-bbox-midpoints="true"
     inkscape:zoom="0.90346454"
     inkscape:cx="338.12805"
     inkscape:cy="-52.235941"
     inkscape:window-x="0"
     inkscape:window-y="24"
     inkscape:window-maximized="1"
     inkscape:current-layer="layer1"
     inkscape:object-nodes="true"
     inkscape:snap-nodes="false"
     inkscape:snap-object-midpoints="true"
     inkscape:snap-center="true"
     inkscape:bbox-nodes="true" /><g
     inkscape:groupmode="layer"
     id="layer2"
     inkscape:label="bg"
     style="display:inline"><path
       inkscape:connector-curvature="0"
       style="display:none;opacity:1;fill:#ffffff;fill-opacity:1;stroke:none;stroke-width:8.69620609;stroke-linecap:round;stroke-linejoin:miter;stroke-miterlimit:4;stroke-dasharray:none;stroke-opacity:1"
       d="M 0,-5e-6 0,216 216.00001,216 216.00001,-4e-6 0,-4e-6 Z"
       id="path5573" /><rect
       style="opacity:1;fill:#ffffff;fill-opacity:1;stroke:none;stroke-width:40;stroke-linecap:round;stroke-linejoin:miter;stroke-miterlimit:4;stroke-dasharray:none;stroke-dashoffset:4.5999999;stroke-opacity:1"
       id="rect6453"
       width="216.87686"
       height="216.87686"
       x="-0.43861294"
       y="-0.4385767" /></g><g
     inkscape:groupmode="layer"
     id="layer1"
     inkscape:label="Layer 1"
     style="display:inline"><rect
       style="opacity:1;fill:url(#radialGradient6451);fill-opacity:1.0;stroke:none;stroke-width:40;stroke-linecap:round;stroke-linejoin:miter;stroke-miterlimit:4;stroke-dasharray:none;stroke-dashoffset:4.5999999;stroke-opacity:1"
       id="rect6429"
       width="184.14075"
       height="184.14075"
       x="15.929444"
       y="15.929481"
       rx="14.765625"
       ry="14.765625" /><path
       style="opacity:1;fill:#00710c;fill-opacity:1;stroke:none;stroke-width:0.177;stroke-linecap:round;stroke-linejoin:miter;stroke-miterlimit:4;stroke-dasharray:none;stroke-opacity:1"
       d="m 118.49462,66.226056 0,16.303363 a 27.557604,27.557604 0 0 1 14.96694,14.972725 l 16.29181,0 A 43.109914,43.109914 0 0 0 118.49462,66.226056 Z m -20.989594,0.01748 A 43.109914,43.109914 0 0 0 66.228911,97.50795 l 16.303381,0 A 27.557604,27.557604 0 0 1 97.505026,82.541001 l 0,-16.297587 z M 66.240481,118.49752 a 43.109914,43.109914 0 0 0 31.264545,31.27613 l 0,-16.30339 A 27.557604,27.557604 0 0 1 82.538077,118.49752 l -16.297596,0 z m 67.226849,0 a 27.557604,27.557604 0 0 1 -14.97271,14.96696 l 0,16.29181 a 43.109914,43.109914 0 0 0 31.2761,-31.25877 l -16.30339,0 z"
       id="path8626"
       inkscape:connector-curvature="0" /><g
       id="g4181"
       inkscape:transform-center-x="-71.293562"
       inkscape:transform-center-y="-71.478064"><path
         sodipodi:nodetypes="ccccccccczccccccccccccccc"
         inkscape:connector-curvature="0"
         id="path4163"
         d="m 188.01197,25.800967 c -1.50856,-1.525706 -3.02118,0.316931 -4.02828,1.424264 -0.67076,0.758419 -1.237,-0.738543 -1.85294,-1.089325 -1.03986,-1.166847 -2.36915,-2.057801 -3.29241,-3.319819 -0.7338,-1.45852 -4.42255,-1.137549 -4.8133,1.111487 -0.0174,2.516541 4.84569,3.820447 6.31011,5.669467 -4.51621,2.160846 -9.74018,0.26336 -13.61962,-2.366698 -1.98123,-1.226703 -2.83168,2.187053 -1.67738,3.383033 1.47157,2.113543 4.16822,2.797331 6.494,3.517423 1.69868,0.689046 2.88871,0.142511 4.21021,1.725372 1.32149,1.58286 -0.52395,2.512399 0.57963,4.125852 0.85578,2.211596 2.02676,4.332926 2.84919,6.468125 0.8867,2.649594 3.37695,4.988338 6.32841,4.626925 1.56277,-0.281922 4.15807,-0.899226 4.94449,-2.45773 -0.79315,-3.063987 -8.6072,-5.163923 -9.62522,-9.484503 -0.24538,-1.881161 2.25033,0.386189 3.42903,0.302972 1.36349,0.604636 3.39928,0.835064 4.07772,-0.852556 0.38464,-1.044061 -0.34094,-2.220386 0.90665,-0.760164 1.1848,0.826907 2.00298,2.642783 3.63018,2.503763 2.58479,-0.998451 -0.0333,-3.439881 -1.19796,-4.468378 -1.77996,-1.319373 2.27864,0.415806 2.29779,-1.634974 0.60105,-1.724651 -1.44389,-3.109948 -2.7916,-2.809125 -1.04909,-0.358642 -3.19701,-0.383043 -3.16941,0.675257 -1.22953,-0.867016 -1.55323,-1.673725 -0.1473,-2.448624 1.13503,-0.950939 1.05408,-2.78167 0.15801,-3.842044 z"
         style="color:#000000;font-style:normal;font-variant:normal;font-weight:normal;font-stretch:normal;font-size:medium;line-height:normal;font-family:sans-serif;text-indent:0;text-align:start;text-decoration:none;text-decoration-line:none;text-decoration-style:solid;text-decoration-color:#000000;letter-spacing:normal;word-spacing:normal;text-transform:none;direction:ltr;block-progression:tb;writing-mode:lr-tb;baseline-shift:baseline;text-anchor:start;white-space:normal;clip-rule:nonzero;display:inline;overflow:visible;visibility:visible;opacity:1;isolation:auto;mix-blend-mode:normal;color-interpolation:sRGB;color-interpolation-filters:linearRGB;solid-color:#000000;solid-opacity:1;fill:#008000;fill-opacity:1;fill-rule:nonzero;stroke:none;stroke-width:3.54330707;stroke-linecap:butt;stroke-linejoin:miter;stroke-miterlimit:4;stroke-dasharray:none;stroke-dashoffset:0;stroke-opacity:1;color-rendering:auto;image-rendering:auto;shape-rendering:auto;text-rendering:auto;enable-background:accumulate" /><path
         id="path4165"
         d="m 188.30496,48.473022 c -0.94187,0.376747 -1.83664,0.612213 -2.68432,0.7064 -0.84768,0.09419 -1.55408,0.04709 -2.1663,-0.188373 -0.68285,-0.21192 -1.27152,-0.612213 -1.81309,-1.153787 -0.51802,-0.518026 -1.03605,-1.365706 -1.50698,-2.495945 -0.18838,-0.376747 -0.32966,-0.7064 -0.42384,-0.98896 -0.11774,-0.306106 -0.23547,-0.565119 -0.37675,-0.894773 -0.11773,-0.306106 -0.30611,-0.635759 -0.44739,-1.012506 -0.18837,-0.376746 -0.40029,-0.824133 -0.68285,-1.389252 -0.28256,-0.612214 -0.49448,-1.106693 -0.63576,-1.530533 -0.14128,-0.42384 -0.23547,-0.800586 -0.21192,-1.153786 0,-0.329653 0.0706,-0.63576 0.21192,-0.91832 0.14128,-0.28256 0.32965,-0.56512 0.61221,-0.847679 0.11774,-0.117734 0.0706,-0.21192 -0.14128,-0.329654 -0.25901,-0.117733 -0.44738,-0.21192 -0.58866,-0.306106 -0.14128,-0.09419 -0.28256,-0.188373 -0.42384,-0.329653 -0.21192,-0.164827 -0.37675,-0.329654 -0.4003,-0.49448 -0.0471,-0.14128 -0.0235,-0.306107 0.0471,-0.470933 0.0942,-0.235467 0.21192,-0.3532 0.32965,-0.376747 0.11773,-0.02355 0.3532,0.02355 0.7064,0.188373 0.25901,0.117734 0.54157,0.259014 0.82413,0.3532 0.28256,0.09419 0.58867,0.21192 0.89478,0.329654 0.18837,0.04709 0.3532,0.07064 0.44738,0.07064 0.11774,-0.02355 0.23547,-0.09419 0.44739,-0.211919 0.14128,-0.09419 0.28256,-0.188374 0.47093,-0.28256 0.16483,-0.117734 0.32966,-0.235467 0.51802,-0.329649 0.61222,-0.376746 1.1067,-0.682853 1.4599,-0.941866 0.37674,-0.235467 0.6593,-0.42384 0.91832,-0.541573 0.25901,-0.117733 0.42384,-0.235467 0.49448,-0.306107 0.0706,-0.07064 0.0471,-0.14128 0,-0.188373 -0.11774,-0.117733 -0.23547,-0.188373 -0.3532,-0.164826 -0.11774,-0.02355 -0.30611,0.02355 -0.51803,0.09419 -0.25901,0.117733 -0.54157,0.21192 -0.87123,0.306107 -0.32965,0.09419 -0.68285,0.21192 -1.0125,0.306106 -1.24797,0.400289 -2.37821,0.682849 -3.36717,0.918315 -0.98896,0.188373 -1.93083,0.28256 -2.84915,0.259013 -0.91831,-0.02355 -1.83663,-0.188373 -2.7785,-0.423839 -0.94187,-0.235467 -1.97792,-0.659307 -3.10816,-1.177333 -0.58867,-0.259014 -1.03605,-0.56512 -1.4128,-0.894773 -0.37675,-0.329653 -0.63576,-0.682853 -0.80059,-1.036053 -0.16482,-0.3532 -0.23546,-0.7064 -0.23546,-1.036053 0,-0.329653 0.11773,-0.63576 0.28256,-0.894773 0.14128,-0.188373 0.25901,-0.259013 0.3532,-0.259013 0.11773,0.02355 0.3532,0.117733 0.72994,0.3532 1.64827,1.083146 3.29654,1.883732 4.96835,2.378212 1.67181,0.49448 3.29653,0.659306 4.85061,0.470933 0.51802,-0.04709 1.10669,-0.164822 1.69535,-0.376742 0.58867,-0.21192 1.13024,-0.423839 1.60118,-0.659306 0.25901,-0.117733 0.40029,-0.259013 0.40029,-0.3532 0,-0.09419 -0.0706,-0.259013 -0.28256,-0.470933 -0.44739,-0.447386 -0.91832,-0.871226 -1.36571,-1.271519 -0.44738,-0.400294 -0.84768,-0.7064 -1.20088,-0.91832 -0.58866,-0.400293 -1.13023,-0.800586 -1.67181,-1.153786 -0.54157,-0.3532 -0.98896,-0.659307 -1.29506,-0.824133 -0.47094,-0.28256 -0.68286,-0.588667 -0.65931,-0.98896 0.0471,-0.329653 0.18837,-0.565119 0.42384,-0.706399 0.23547,-0.14128 0.63576,-0.21192 1.20088,-0.21192 0.65931,0 1.10669,0.07064 1.34216,0.164826 0.23547,0.09419 0.42384,0.28256 0.54157,0.541573 0.0706,0.117734 0.18837,0.28256 0.40029,0.541574 0.18838,0.235466 0.37675,0.423839 0.56512,0.565119 0.21192,0.164827 0.61222,0.518027 1.22443,1.13024 0.58867,0.588666 1.29507,1.295066 2.1192,2.119199 0.21192,0.21192 0.37675,0.329653 0.47093,0.329653 0.0942,0 0.21192,-0.07064 0.37675,-0.188373 0.25901,-0.21192 0.54157,-0.447387 0.80059,-0.7064 0.25901,-0.259013 0.47093,-0.470933 0.61221,-0.659306 0.30611,-0.3532 0.51803,-0.56512 0.6593,-0.612213 0.14128,-0.04709 0.30611,-0.07064 0.47094,-0.04709 0.3061,0.07064 0.56512,0.188374 0.72994,0.3532 0.16483,0.164827 0.28256,0.470933 0.4003,0.91832 0.0706,0.400293 0.0706,0.729946 -0.0471,1.036053 -0.11773,0.306106 -0.37674,0.612213 -0.77704,0.965412 -0.3061,0.259014 -0.61221,0.518027 -0.89477,0.753493 -0.16482,0.117734 -0.23546,0.235467 -0.23546,0.329654 0,0.09419 0.0706,0.21192 0.23546,0.376746 0.63576,0.682853 1.29507,1.34216 1.93083,1.977919 0.6593,0.659307 1.22442,1.27152 1.78954,1.836639 0.54158,0.588667 1.03606,1.083147 1.48344,1.530533 0.42384,0.42384 0.7535,0.800586 0.96542,1.012506 0.28256,0.329653 0.42384,0.612213 0.44738,0.824133 0.0236,0.21192 -0.0942,0.376747 -0.3532,0.541573 -0.32965,0.235467 -0.68285,0.164827 -1.0596,-0.164826 -0.91832,-0.871227 -1.766,-1.671813 -2.56658,-2.425306 -0.80059,-0.753493 -1.62472,-1.530532 -2.44886,-2.354665 -0.16482,-0.164827 -0.25901,-0.259014 -0.3061,-0.259014 -0.0471,0 -0.0706,0.02355 -0.0942,0.09419 0,0.09419 -0.0706,0.21192 -0.18837,0.329653 -0.11773,0.117733 -0.37675,0.235467 -0.77704,0.306107 -0.28256,0.04709 -0.56512,0.14128 -0.87123,0.306106 -0.3061,0.164827 -0.61221,0.329653 -0.91832,0.541573 -0.21191,0.164822 -0.3061,0.259009 -0.3061,0.306102 0.0236,0.07064 0.21192,0.117733 0.54157,0.164831 0.51803,0.09419 0.98896,0.188374 1.4128,0.235467 0.42384,0.04709 0.7064,0.04709 0.91832,0.02355 0.44739,-0.07064 0.82413,-0.02355 1.15378,0.07064 0.30611,0.117733 0.56512,0.329653 0.72995,0.635759 0.23547,0.470933 0.16483,0.91832 -0.18837,1.365706 -0.25902,0.306107 -0.54158,0.49448 -0.87123,0.541573 -0.30611,0.02355 -0.80058,-0.0471 -1.48343,-0.259017 -0.61222,-0.188374 -1.17734,-0.376747 -1.71891,-0.541574 -0.54157,-0.164826 -1.03605,-0.329653 -1.48344,-0.494479 -0.3061,-0.117734 -0.51802,-0.14128 -0.61221,-0.09419 -0.11773,0.02355 -0.23547,0.14128 -0.32965,0.329653 -0.23547,0.329653 -0.25902,0.824133 -0.11774,1.436346 0.14128,0.612213 0.56512,1.459893 1.29507,2.472399 0.23546,0.329653 0.61221,0.753493 1.17733,1.318613 0.56512,0.56512 1.15379,1.153786 1.81309,1.718906 0.63576,0.588666 1.29507,1.106693 1.93083,1.601172 0.63576,0.49448 1.13024,0.800587 1.53053,0.965413 0.4003,0.164827 0.61222,0.329653 0.63576,0.49448 -0.0942,0.14128 -0.25901,0.306107 -0.6593,0.470933 z m 4.21484,-14.339909 c -0.0471,0.470933 -0.40029,0.77704 -1.03605,0.84768 -0.40029,0.07064 -0.84768,-0.04709 -1.36571,-0.42384 -0.51802,-0.376746 -1.0125,-0.871226 -1.53053,-1.577626 -0.23547,-0.329653 -0.28256,-0.518026 -0.18837,-0.659306 0.11773,-0.117733 0.32965,-0.14128 0.61221,-0.04709 0.0706,0.02355 0.21192,0.07064 0.37675,0.09419 0.16482,0.02355 0.32965,0.04709 0.51802,0.09419 0.16483,0.02355 0.3532,0.02355 0.51803,0.04709 0.16483,0.02355 0.30611,0.02355 0.40029,0.02355 0.51803,-0.04709 0.94187,0.09419 1.27152,0.42384 0.37675,0.329653 0.49448,0.729946 0.42384,1.177332 z"
         inkscape:connector-curvature="0" /></g><g
       inkscape:transform-center-y="-71.293569"
       inkscape:transform-center-x="71.47806"
       id="g4173"
       transform="matrix(0,-1,1,0,-3.314103e-5,215.99966)"><path
         style="color:#000000;font-style:normal;font-variant:normal;font-weight:normal;font-stretch:normal;font-size:medium;line-height:normal;font-family:sans-serif;text-indent:0;text-align:start;text-decoration:none;text-decoration-line:none;text-decoration-style:solid;text-decoration-color:#000000;letter-spacing:normal;word-spacing:normal;text-transform:none;direction:ltr;block-progression:tb;writing-mode:lr-tb;baseline-shift:baseline;text-anchor:start;white-space:normal;clip-rule:nonzero;display:inline;overflow:visible;visibility:visible;opacity:1;isolation:auto;mix-blend-mode:normal;color-interpolation:sRGB;color-interpolation-filters:linearRGB;solid-color:#000000;solid-opacity:1;fill:#008000;fill-opacity:1;fill-rule:nonzero;stroke:none;stroke-width:3.54330707;stroke-linecap:butt;stroke-linejoin:miter;stroke-miterlimit:4;stroke-dasharray:none;stroke-dashoffset:0;stroke-opacity:1;color-rendering:auto;image-rendering:auto;shape-rendering:auto;text-rendering:auto;enable-background:accumulate"
         d="m 188.01197,25.800967 c -1.50856,-1.525706 -3.02118,0.316931 -4.02828,1.424264 -0.67076,0.758419 -1.237,-0.738543 -1.85294,-1.089325 -1.03986,-1.166847 -2.36915,-2.057801 -3.29241,-3.319819 -0.7338,-1.45852 -4.42255,-1.137549 -4.8133,1.111487 -0.0174,2.516541 4.84569,3.820447 6.31011,5.669467 -4.51621,2.160846 -9.74018,0.26336 -13.61962,-2.366698 -1.98123,-1.226703 -2.83168,2.187053 -1.67738,3.383033 1.47157,2.113543 4.16822,2.797331 6.494,3.517423 1.69868,0.689046 2.88871,0.142511 4.21021,1.725372 1.32149,1.58286 -0.52395,2.512399 0.57963,4.125852 0.85578,2.211596 2.02676,4.332926 2.84919,6.468125 0.8867,2.649594 3.37695,4.988338 6.32841,4.626925 1.56277,-0.281922 4.15807,-0.899226 4.94449,-2.45773 -0.79315,-3.063987 -8.6072,-5.163923 -9.62522,-9.484503 -0.24538,-1.881161 2.25033,0.386189 3.42903,0.302972 1.36349,0.604636 3.39928,0.835064 4.07772,-0.852556 0.38464,-1.044061 -0.34094,-2.220386 0.90665,-0.760164 1.1848,0.826907 2.00298,2.642783 3.63018,2.503763 2.58479,-0.998451 -0.0333,-3.439881 -1.19796,-4.468378 -1.77996,-1.319373 2.27864,0.415806 2.29779,-1.634974 0.60105,-1.724651 -1.44389,-3.109948 -2.7916,-2.809125 -1.04909,-0.358642 -3.19701,-0.383043 -3.16941,0.675257 -1.22953,-0.867016 -1.55323,-1.673725 -0.1473,-2.448624 1.13503,-0.950939 1.05408,-2.78167 0.15801,-3.842044 z"
         id="path4175"
         inkscape:connector-curvature="0"
         sodipodi:nodetypes="ccccccccczccccccccccccccc" /><path
         inkscape:connector-curvature="0"
         d="m 188.30496,48.473022 c -0.94187,0.376747 -1.83664,0.612213 -2.68432,0.7064 -0.84768,0.09419 -1.55408,0.04709 -2.1663,-0.188373 -0.68285,-0.21192 -1.27152,-0.612213 -1.81309,-1.153787 -0.51802,-0.518026 -1.03605,-1.365706 -1.50698,-2.495945 -0.18838,-0.376747 -0.32966,-0.7064 -0.42384,-0.98896 -0.11774,-0.306106 -0.23547,-0.565119 -0.37675,-0.894773 -0.11773,-0.306106 -0.30611,-0.635759 -0.44739,-1.012506 -0.18837,-0.376746 -0.40029,-0.824133 -0.68285,-1.389252 -0.28256,-0.612214 -0.49448,-1.106693 -0.63576,-1.530533 -0.14128,-0.42384 -0.23547,-0.800586 -0.21192,-1.153786 0,-0.329653 0.0706,-0.63576 0.21192,-0.91832 0.14128,-0.28256 0.32965,-0.56512 0.61221,-0.847679 0.11774,-0.117734 0.0706,-0.21192 -0.14128,-0.329654 -0.25901,-0.117733 -0.44738,-0.21192 -0.58866,-0.306106 -0.14128,-0.09419 -0.28256,-0.188373 -0.42384,-0.329653 -0.21192,-0.164827 -0.37675,-0.329654 -0.4003,-0.49448 -0.0471,-0.14128 -0.0235,-0.306107 0.0471,-0.470933 0.0942,-0.235467 0.21192,-0.3532 0.32965,-0.376747 0.11773,-0.02355 0.3532,0.02355 0.7064,0.188373 0.25901,0.117734 0.54157,0.259014 0.82413,0.3532 0.28256,0.09419 0.58867,0.21192 0.89478,0.329654 0.18837,0.04709 0.3532,0.07064 0.44738,0.07064 0.11774,-0.02355 0.23547,-0.09419 0.44739,-0.211919 0.14128,-0.09419 0.28256,-0.188374 0.47093,-0.28256 0.16483,-0.117734 0.32966,-0.235467 0.51802,-0.329649 0.61222,-0.376746 1.1067,-0.682853 1.4599,-0.941866 0.37674,-0.235467 0.6593,-0.42384 0.91832,-0.541573 0.25901,-0.117733 0.42384,-0.235467 0.49448,-0.306107 0.0706,-0.07064 0.0471,-0.14128 0,-0.188373 -0.11774,-0.117733 -0.23547,-0.188373 -0.3532,-0.164826 -0.11774,-0.02355 -0.30611,0.02355 -0.51803,0.09419 -0.25901,0.117733 -0.54157,0.21192 -0.87123,0.306107 -0.32965,0.09419 -0.68285,0.21192 -1.0125,0.306106 -1.24797,0.400289 -2.37821,0.682849 -3.36717,0.918315 -0.98896,0.188373 -1.93083,0.28256 -2.84915,0.259013 -0.91831,-0.02355 -1.83663,-0.188373 -2.7785,-0.423839 -0.94187,-0.235467 -1.97792,-0.659307 -3.10816,-1.177333 -0.58867,-0.259014 -1.03605,-0.56512 -1.4128,-0.894773 -0.37675,-0.329653 -0.63576,-0.682853 -0.80059,-1.036053 -0.16482,-0.3532 -0.23546,-0.7064 -0.23546,-1.036053 0,-0.329653 0.11773,-0.63576 0.28256,-0.894773 0.14128,-0.188373 0.25901,-0.259013 0.3532,-0.259013 0.11773,0.02355 0.3532,0.117733 0.72994,0.3532 1.64827,1.083146 3.29654,1.883732 4.96835,2.378212 1.67181,0.49448 3.29653,0.659306 4.85061,0.470933 0.51802,-0.04709 1.10669,-0.164822 1.69535,-0.376742 0.58867,-0.21192 1.13024,-0.423839 1.60118,-0.659306 0.25901,-0.117733 0.40029,-0.259013 0.40029,-0.3532 0,-0.09419 -0.0706,-0.259013 -0.28256,-0.470933 -0.44739,-0.447386 -0.91832,-0.871226 -1.36571,-1.271519 -0.44738,-0.400294 -0.84768,-0.7064 -1.20088,-0.91832 -0.58866,-0.400293 -1.13023,-0.800586 -1.67181,-1.153786 -0.54157,-0.3532 -0.98896,-0.659307 -1.29506,-0.824133 -0.47094,-0.28256 -0.68286,-0.588667 -0.65931,-0.98896 0.0471,-0.329653 0.18837,-0.565119 0.42384,-0.706399 0.23547,-0.14128 0.63576,-0.21192 1.20088,-0.21192 0.65931,0 1.10669,0.07064 1.34216,0.164826 0.23547,0.09419 0.42384,0.28256 0.54157,0.541573 0.0706,0.117734 0.18837,0.28256 0.40029,0.541574 0.18838,0.235466 0.37675,0.423839 0.56512,0.565119 0.21192,0.164827 0.61222,0.518027 1.22443,1.13024 0.58867,0.588666 1.29507,1.295066 2.1192,2.119199 0.21192,0.21192 0.37675,0.329653 0.47093,0.329653 0.0942,0 0.21192,-0.07064 0.37675,-0.188373 0.25901,-0.21192 0.54157,-0.447387 0.80059,-0.7064 0.25901,-0.259013 0.47093,-0.470933 0.61221,-0.659306 0.30611,-0.3532 0.51803,-0.56512 0.6593,-0.612213 0.14128,-0.04709 0.30611,-0.07064 0.47094,-0.04709 0.3061,0.07064 0.56512,0.188374 0.72994,0.3532 0.16483,0.164827 0.28256,0.470933 0.4003,0.91832 0.0706,0.400293 0.0706,0.729946 -0.0471,1.036053 -0.11773,0.306106 -0.37674,0.612213 -0.77704,0.965412 -0.3061,0.259014 -0.61221,0.518027 -0.89477,0.753493 -0.16482,0.117734 -0.23546,0.235467 -0.23546,0.329654 0,0.09419 0.0706,0.21192 0.23546,0.376746 0.63576,0.682853 1.29507,1.34216 1.93083,1.977919 0.6593,0.659307 1.22442,1.27152 1.78954,1.836639 0.54158,0.588667 1.03606,1.083147 1.48344,1.530533 0.42384,0.42384 0.7535,0.800586 0.96542,1.012506 0.28256,0.329653 0.42384,0.612213 0.44738,0.824133 0.0236,0.21192 -0.0942,0.376747 -0.3532,0.541573 -0.32965,0.235467 -0.68285,0.164827 -1.0596,-0.164826 -0.91832,-0.871227 -1.766,-1.671813 -2.56658,-2.425306 -0.80059,-0.753493 -1.62472,-1.530532 -2.44886,-2.354665 -0.16482,-0.164827 -0.25901,-0.259014 -0.3061,-0.259014 -0.0471,0 -0.0706,0.02355 -0.0942,0.09419 0,0.09419 -0.0706,0.21192 -0.18837,0.329653 -0.11773,0.117733 -0.37675,0.235467 -0.77704,0.306107 -0.28256,0.04709 -0.56512,0.14128 -0.87123,0.306106 -0.3061,0.164827 -0.61221,0.329653 -0.91832,0.541573 -0.21191,0.164822 -0.3061,0.259009 -0.3061,0.306102 0.0236,0.07064 0.21192,0.117733 0.54157,0.164831 0.51803,0.09419 0.98896,0.188374 1.4128,0.235467 0.42384,0.04709 0.7064,0.04709 0.91832,0.02355 0.44739,-0.07064 0.82413,-0.02355 1.15378,0.07064 0.30611,0.117733 0.56512,0.329653 0.72995,0.635759 0.23547,0.470933 0.16483,0.91832 -0.18837,1.365706 -0.25902,0.306107 -0.54158,0.49448 -0.87123,0.541573 -0.30611,0.02355 -0.80058,-0.0471 -1.48343,-0.259017 -0.61222,-0.188374 -1.17734,-0.376747 -1.71891,-0.541574 -0.54157,-0.164826 -1.03605,-0.329653 -1.48344,-0.494479 -0.3061,-0.117734 -0.51802,-0.14128 -0.61221,-0.09419 -0.11773,0.02355 -0.23547,0.14128 -0.32965,0.329653 -0.23547,0.329653 -0.25902,0.824133 -0.11774,1.436346 0.14128,0.612213 0.56512,1.459893 1.29507,2.472399 0.23546,0.329653 0.61221,0.753493 1.17733,1.318613 0.56512,0.56512 1.15379,1.153786 1.81309,1.718906 0.63576,0.588666 1.29507,1.106693 1.93083,1.601172 0.63576,0.49448 1.13024,0.800587 1.53053,0.965413 0.4003,0.164827 0.61222,0.329653 0.63576,0.49448 -0.0942,0.14128 -0.25901,0.306107 -0.6593,0.470933 z m 4.21484,-14.339909 c -0.0471,0.470933 -0.40029,0.77704 -1.03605,0.84768 -0.40029,0.07064 -0.84768,-0.04709 -1.36571,-0.42384 -0.51802,-0.376746 -1.0125,-0.871226 -1.53053,-1.577626 -0.23547,-0.329653 -0.28256,-0.518026 -0.18837,-0.659306 0.11773,-0.117733 0.32965,-0.14128 0.61221,-0.04709 0.0706,0.02355 0.21192,0.07064 0.37675,0.09419 0.16482,0.02355 0.32965,0.04709 0.51802,0.09419 0.16483,0.02355 0.3532,0.02355 0.51803,0.04709 0.16483,0.02355 0.30611,0.02355 0.40029,0.02355 0.51803,-0.04709 0.94187,0.09419 1.27152,0.42384 0.37675,0.329653 0.49448,0.729946 0.42384,1.177332 z"
         id="path4177" /></g><g
       inkscape:transform-center-y="71.293556"
       inkscape:transform-center-x="-71.478059"
       id="g4185"
       transform="matrix(0,1,-1,0,215.99967,3.0442905e-5)"><path
         style="color:#000000;font-style:normal;font-variant:normal;font-weight:normal;font-stretch:normal;font-size:medium;line-height:normal;font-family:sans-serif;text-indent:0;text-align:start;text-decoration:none;text-decoration-line:none;text-decoration-style:solid;text-decoration-color:#000000;letter-spacing:normal;word-spacing:normal;text-transform:none;direction:ltr;block-progression:tb;writing-mode:lr-tb;baseline-shift:baseline;text-anchor:start;white-space:normal;clip-rule:nonzero;display:inline;overflow:visible;visibility:visible;opacity:1;isolation:auto;mix-blend-mode:normal;color-interpolation:sRGB;color-interpolation-filters:linearRGB;solid-color:#000000;solid-opacity:1;fill:#008000;fill-opacity:1;fill-rule:nonzero;stroke:none;stroke-width:3.54330707;stroke-linecap:butt;stroke-linejoin:miter;stroke-miterlimit:4;stroke-dasharray:none;stroke-dashoffset:0;stroke-opacity:1;color-rendering:auto;image-rendering:auto;shape-rendering:auto;text-rendering:auto;enable-background:accumulate"
         d="m 188.01197,25.800967 c -1.50856,-1.525706 -3.02118,0.316931 -4.02828,1.424264 -0.67076,0.758419 -1.237,-0.738543 -1.85294,-1.089325 -1.03986,-1.166847 -2.36915,-2.057801 -3.29241,-3.319819 -0.7338,-1.45852 -4.42255,-1.137549 -4.8133,1.111487 -0.0174,2.516541 4.84569,3.820447 6.31011,5.669467 -4.51621,2.160846 -9.74018,0.26336 -13.61962,-2.366698 -1.98123,-1.226703 -2.83168,2.187053 -1.67738,3.383033 1.47157,2.113543 4.16822,2.797331 6.494,3.517423 1.69868,0.689046 2.88871,0.142511 4.21021,1.725372 1.32149,1.58286 -0.52395,2.512399 0.57963,4.125852 0.85578,2.211596 2.02676,4.332926 2.84919,6.468125 0.8867,2.649594 3.37695,4.988338 6.32841,4.626925 1.56277,-0.281922 4.15807,-0.899226 4.94449,-2.45773 -0.79315,-3.063987 -8.6072,-5.163923 -9.62522,-9.484503 -0.24538,-1.881161 2.25033,0.386189 3.42903,0.302972 1.36349,0.604636 3.39928,0.835064 4.07772,-0.852556 0.38464,-1.044061 -0.34094,-2.220386 0.90665,-0.760164 1.1848,0.826907 2.00298,2.642783 3.63018,2.503763 2.58479,-0.998451 -0.0333,-3.439881 -1.19796,-4.468378 -1.77996,-1.319373 2.27864,0.415806 2.29779,-1.634974 0.60105,-1.724651 -1.44389,-3.109948 -2.7916,-2.809125 -1.04909,-0.358642 -3.19701,-0.383043 -3.16941,0.675257 -1.22953,-0.867016 -1.55323,-1.673725 -0.1473,-2.448624 1.13503,-0.950939 1.05408,-2.78167 0.15801,-3.842044 z"
         id="path4187"
         inkscape:connector-curvature="0"
         sodipodi:nodetypes="ccccccccczccccccccccccccc" /><path
         inkscape:connector-curvature="0"
         d="m 188.30496,48.473022 c -0.94187,0.376747 -1.83664,0.612213 -2.68432,0.7064 -0.84768,0.09419 -1.55408,0.04709 -2.1663,-0.188373 -0.68285,-0.21192 -1.27152,-0.612213 -1.81309,-1.153787 -0.51802,-0.518026 -1.03605,-1.365706 -1.50698,-2.495945 -0.18838,-0.376747 -0.32966,-0.7064 -0.42384,-0.98896 -0.11774,-0.306106 -0.23547,-0.565119 -0.37675,-0.894773 -0.11773,-0.306106 -0.30611,-0.635759 -0.44739,-1.012506 -0.18837,-0.376746 -0.40029,-0.824133 -0.68285,-1.389252 -0.28256,-0.612214 -0.49448,-1.106693 -0.63576,-1.530533 -0.14128,-0.42384 -0.23547,-0.800586 -0.21192,-1.153786 0,-0.329653 0.0706,-0.63576 0.21192,-0.91832 0.14128,-0.28256 0.32965,-0.56512 0.61221,-0.847679 0.11774,-0.117734 0.0706,-0.21192 -0.14128,-0.329654 -0.25901,-0.117733 -0.44738,-0.21192 -0.58866,-0.306106 -0.14128,-0.09419 -0.28256,-0.188373 -0.42384,-0.329653 -0.21192,-0.164827 -0.37675,-0.329654 -0.4003,-0.49448 -0.0471,-0.14128 -0.0235,-0.306107 0.0471,-0.470933 0.0942,-0.235467 0.21192,-0.3532 0.32965,-0.376747 0.11773,-0.02355 0.3532,0.02355 0.7064,0.188373 0.25901,0.117734 0.54157,0.259014 0.82413,0.3532 0.28256,0.09419 0.58867,0.21192 0.89478,0.329654 0.18837,0.04709 0.3532,0.07064 0.44738,0.07064 0.11774,-0.02355 0.23547,-0.09419 0.44739,-0.211919 0.14128,-0.09419 0.28256,-0.188374 0.47093,-0.28256 0.16483,-0.117734 0.32966,-0.235467 0.51802,-0.329649 0.61222,-0.376746 1.1067,-0.682853 1.4599,-0.941866 0.37674,-0.235467 0.6593,-0.42384 0.91832,-0.541573 0.25901,-0.117733 0.42384,-0.235467 0.49448,-0.306107 0.0706,-0.07064 0.0471,-0.14128 0,-0.188373 -0.11774,-0.117733 -0.23547,-0.188373 -0.3532,-0.164826 -0.11774,-0.02355 -0.30611,0.02355 -0.51803,0.09419 -0.25901,0.117733 -0.54157,0.21192 -0.87123,0.306107 -0.32965,0.09419 -0.68285,0.21192 -1.0125,0.306106 -1.24797,0.400289 -2.37821,0.682849 -3.36717,0.918315 -0.98896,0.188373 -1.93083,0.28256 -2.84915,0.259013 -0.91831,-0.02355 -1.83663,-0.188373 -2.7785,-0.423839 -0.94187,-0.235467 -1.97792,-0.659307 -3.10816,-1.177333 -0.58867,-0.259014 -1.03605,-0.56512 -1.4128,-0.894773 -0.37675,-0.329653 -0.63576,-0.682853 -0.80059,-1.036053 -0.16482,-0.3532 -0.23546,-0.7064 -0.23546,-1.036053 0,-0.329653 0.11773,-0.63576 0.28256,-0.894773 0.14128,-0.188373 0.25901,-0.259013 0.3532,-0.259013 0.11773,0.02355 0.3532,0.117733 0.72994,0.3532 1.64827,1.083146 3.29654,1.883732 4.96835,2.378212 1.67181,0.49448 3.29653,0.659306 4.85061,0.470933 0.51802,-0.04709 1.10669,-0.164822 1.69535,-0.376742 0.58867,-0.21192 1.13024,-0.423839 1.60118,-0.659306 0.25901,-0.117733 0.40029,-0.259013 0.40029,-0.3532 0,-0.09419 -0.0706,-0.259013 -0.28256,-0.470933 -0.44739,-0.447386 -0.91832,-0.871226 -1.36571,-1.271519 -0.44738,-0.400294 -0.84768,-0.7064 -1.20088,-0.91832 -0.58866,-0.400293 -1.13023,-0.800586 -1.67181,-1.153786 -0.54157,-0.3532 -0.98896,-0.659307 -1.29506,-0.824133 -0.47094,-0.28256 -0.68286,-0.588667 -0.65931,-0.98896 0.0471,-0.329653 0.18837,-0.565119 0.42384,-0.706399 0.23547,-0.14128 0.63576,-0.21192 1.20088,-0.21192 0.65931,0 1.10669,0.07064 1.34216,0.164826 0.23547,0.09419 0.42384,0.28256 0.54157,0.541573 0.0706,0.117734 0.18837,0.28256 0.40029,0.541574 0.18838,0.235466 0.37675,0.423839 0.56512,0.565119 0.21192,0.164827 0.61222,0.518027 1.22443,1.13024 0.58867,0.588666 1.29507,1.295066 2.1192,2.119199 0.21192,0.21192 0.37675,0.329653 0.47093,0.329653 0.0942,0 0.21192,-0.07064 0.37675,-0.188373 0.25901,-0.21192 0.54157,-0.447387 0.80059,-0.7064 0.25901,-0.259013 0.47093,-0.470933 0.61221,-0.659306 0.30611,-0.3532 0.51803,-0.56512 0.6593,-0.612213 0.14128,-0.04709 0.30611,-0.07064 0.47094,-0.04709 0.3061,0.07064 0.56512,0.188374 0.72994,0.3532 0.16483,0.164827 0.28256,0.470933 0.4003,0.91832 0.0706,0.400293 0.0706,0.729946 -0.0471,1.036053 -0.11773,0.306106 -0.37674,0.612213 -0.77704,0.965412 -0.3061,0.259014 -0.61221,0.518027 -0.89477,0.753493 -0.16482,0.117734 -0.23546,0.235467 -0.23546,0.329654 0,0.09419 0.0706,0.21192 0.23546,0.376746 0.63576,0.682853 1.29507,1.34216 1.93083,1.977919 0.6593,0.659307 1.22442,1.27152 1.78954,1.836639 0.54158,0.588667 1.03606,1.083147 1.48344,1.530533 0.42384,0.42384 0.7535,0.800586 0.96542,1.012506 0.28256,0.329653 0.42384,0.612213 0.44738,0.824133 0.0236,0.21192 -0.0942,0.376747 -0.3532,0.541573 -0.32965,0.235467 -0.68285,0.164827 -1.0596,-0.164826 -0.91832,-0.871227 -1.766,-1.671813 -2.56658,-2.425306 -0.80059,-0.753493 -1.62472,-1.530532 -2.44886,-2.354665 -0.16482,-0.164827 -0.25901,-0.259014 -0.3061,-0.259014 -0.0471,0 -0.0706,0.02355 -0.0942,0.09419 0,0.09419 -0.0706,0.21192 -0.18837,0.329653 -0.11773,0.117733 -0.37675,0.235467 -0.77704,0.306107 -0.28256,0.04709 -0.56512,0.14128 -0.87123,0.306106 -0.3061,0.164827 -0.61221,0.329653 -0.91832,0.541573 -0.21191,0.164822 -0.3061,0.259009 -0.3061,0.306102 0.0236,0.07064 0.21192,0.117733 0.54157,0.164831 0.51803,0.09419 0.98896,0.188374 1.4128,0.235467 0.42384,0.04709 0.7064,0.04709 0.91832,0.02355 0.44739,-0.07064 0.82413,-0.02355 1.15378,0.07064 0.30611,0.117733 0.56512,0.329653 0.72995,0.635759 0.23547,0.470933 0.16483,0.91832 -0.18837,1.365706 -0.25902,0.306107 -0.54158,0.49448 -0.87123,0.541573 -0.30611,0.02355 -0.80058,-0.0471 -1.48343,-0.259017 -0.61222,-0.188374 -1.17734,-0.376747 -1.71891,-0.541574 -0.54157,-0.164826 -1.03605,-0.329653 -1.48344,-0.494479 -0.3061,-0.117734 -0.51802,-0.14128 -0.61221,-0.09419 -0.11773,0.02355 -0.23547,0.14128 -0.32965,0.329653 -0.23547,0.329653 -0.25902,0.824133 -0.11774,1.436346 0.14128,0.612213 0.56512,1.459893 1.29507,2.472399 0.23546,0.329653 0.61221,0.753493 1.17733,1.318613 0.56512,0.56512 1.15379,1.153786 1.81309,1.718906 0.63576,0.588666 1.29507,1.106693 1.93083,1.601172 0.63576,0.49448 1.13024,0.800587 1.53053,0.965413 0.4003,0.164827 0.61222,0.329653 0.63576,0.49448 -0.0942,0.14128 -0.25901,0.306107 -0.6593,0.470933 z m 4.21484,-14.339909 c -0.0471,0.470933 -0.40029,0.77704 -1.03605,0.84768 -0.40029,0.07064 -0.84768,-0.04709 -1.36571,-0.42384 -0.51802,-0.376746 -1.0125,-0.871226 -1.53053,-1.577626 -0.23547,-0.329653 -0.28256,-0.518026 -0.18837,-0.659306 0.11773,-0.117733 0.32965,-0.14128 0.61221,-0.04709 0.0706,0.02355 0.21192,0.07064 0.37675,0.09419 0.16482,0.02355 0.32965,0.04709 0.51802,0.09419 0.16483,0.02355 0.3532,0.02355 0.51803,0.04709 0.16483,0.02355 0.30611,0.02355 0.40029,0.02355 0.51803,-0.04709 0.94187,0.09419 1.27152,0.42384 0.37675,0.329653 0.49448,0.729946 0.42384,1.177332 z"
         id="path4189" /></g><g
       inkscape:transform-center-y="71.478065"
       inkscape:transform-center-x="71.293558"
       id="g4191"
       transform="matrix(-1,0,0,-1,215.99964,215.99971)"><path
         style="color:#000000;font-style:normal;font-variant:normal;font-weight:normal;font-stretch:normal;font-size:medium;line-height:normal;font-family:sans-serif;text-indent:0;text-align:start;text-decoration:none;text-decoration-line:none;text-decoration-style:solid;text-decoration-color:#000000;letter-spacing:normal;word-spacing:normal;text-transform:none;direction:ltr;block-progression:tb;writing-mode:lr-tb;baseline-shift:baseline;text-anchor:start;white-space:normal;clip-rule:nonzero;display:inline;overflow:visible;visibility:visible;opacity:1;isolation:auto;mix-blend-mode:normal;color-interpolation:sRGB;color-interpolation-filters:linearRGB;solid-color:#000000;solid-opacity:1;fill:#008000;fill-opacity:1;fill-rule:nonzero;stroke:none;stroke-width:3.54330707;stroke-linecap:butt;stroke-linejoin:miter;stroke-miterlimit:4;stroke-dasharray:none;stroke-dashoffset:0;stroke-opacity:1;color-rendering:auto;image-rendering:auto;shape-rendering:auto;text-rendering:auto;enable-background:accumulate"
         d="m 188.01197,25.800967 c -1.50856,-1.525706 -3.02118,0.316931 -4.02828,1.424264 -0.67076,0.758419 -1.237,-0.738543 -1.85294,-1.089325 -1.03986,-1.166847 -2.36915,-2.057801 -3.29241,-3.319819 -0.7338,-1.45852 -4.42255,-1.137549 -4.8133,1.111487 -0.0174,2.516541 4.84569,3.820447 6.31011,5.669467 -4.51621,2.160846 -9.74018,0.26336 -13.61962,-2.366698 -1.98123,-1.226703 -2.83168,2.187053 -1.67738,3.383033 1.47157,2.113543 4.16822,2.797331 6.494,3.517423 1.69868,0.689046 2.88871,0.142511 4.21021,1.725372 1.32149,1.58286 -0.52395,2.512399 0.57963,4.125852 0.85578,2.211596 2.02676,4.332926 2.84919,6.468125 0.8867,2.649594 3.37695,4.988338 6.32841,4.626925 1.56277,-0.281922 4.15807,-0.899226 4.94449,-2.45773 -0.79315,-3.063987 -8.6072,-5.163923 -9.62522,-9.484503 -0.24538,-1.881161 2.25033,0.386189 3.42903,0.302972 1.36349,0.604636 3.39928,0.835064 4.07772,-0.852556 0.38464,-1.044061 -0.34094,-2.220386 0.90665,-0.760164 1.1848,0.826907 2.00298,2.642783 3.63018,2.503763 2.58479,-0.998451 -0.0333,-3.439881 -1.19796,-4.468378 -1.77996,-1.319373 2.27864,0.415806 2.29779,-1.634974 0.60105,-1.724651 -1.44389,-3.109948 -2.7916,-2.809125 -1.04909,-0.358642 -3.19701,-0.383043 -3.16941,0.675257 -1.22953,-0.867016 -1.55323,-1.673725 -0.1473,-2.448624 1.13503,-0.950939 1.05408,-2.78167 0.15801,-3.842044 z"
         id="path4193"
         inkscape:connector-curvature="0"
         sodipodi:nodetypes="ccccccccczccccccccccccccc" /><path
         inkscape:connector-curvature="0"
         d="m 188.30496,48.473022 c -0.94187,0.376747 -1.83664,0.612213 -2.68432,0.7064 -0.84768,0.09419 -1.55408,0.04709 -2.1663,-0.188373 -0.68285,-0.21192 -1.27152,-0.612213 -1.81309,-1.153787 -0.51802,-0.518026 -1.03605,-1.365706 -1.50698,-2.495945 -0.18838,-0.376747 -0.32966,-0.7064 -0.42384,-0.98896 -0.11774,-0.306106 -0.23547,-0.565119 -0.37675,-0.894773 -0.11773,-0.306106 -0.30611,-0.635759 -0.44739,-1.012506 -0.18837,-0.376746 -0.40029,-0.824133 -0.68285,-1.389252 -0.28256,-0.612214 -0.49448,-1.106693 -0.63576,-1.530533 -0.14128,-0.42384 -0.23547,-0.800586 -0.21192,-1.153786 0,-0.329653 0.0706,-0.63576 0.21192,-0.91832 0.14128,-0.28256 0.32965,-0.56512 0.61221,-0.847679 0.11774,-0.117734 0.0706,-0.21192 -0.14128,-0.329654 -0.25901,-0.117733 -0.44738,-0.21192 -0.58866,-0.306106 -0.14128,-0.09419 -0.28256,-0.188373 -0.42384,-0.329653 -0.21192,-0.164827 -0.37675,-0.329654 -0.4003,-0.49448 -0.0471,-0.14128 -0.0235,-0.306107 0.0471,-0.470933 0.0942,-0.235467 0.21192,-0.3532 0.32965,-0.376747 0.11773,-0.02355 0.3532,0.02355 0.7064,0.188373 0.25901,0.117734 0.54157,0.259014 0.82413,0.3532 0.28256,0.09419 0.58867,0.21192 0.89478,0.329654 0.18837,0.04709 0.3532,0.07064 0.44738,0.07064 0.11774,-0.02355 0.23547,-0.09419 0.44739,-0.211919 0.14128,-0.09419 0.28256,-0.188374 0.47093,-0.28256 0.16483,-0.117734 0.32966,-0.235467 0.51802,-0.329649 0.61222,-0.376746 1.1067,-0.682853 1.4599,-0.941866 0.37674,-0.235467 0.6593,-0.42384 0.91832,-0.541573 0.25901,-0.117733 0.42384,-0.235467 0.49448,-0.306107 0.0706,-0.07064 0.0471,-0.14128 0,-0.188373 -0.11774,-0.117733 -0.23547,-0.188373 -0.3532,-0.164826 -0.11774,-0.02355 -0.30611,0.02355 -0.51803,0.09419 -0.25901,0.117733 -0.54157,0.21192 -0.87123,0.306107 -0.32965,0.09419 -0.68285,0.21192 -1.0125,0.306106 -1.24797,0.400289 -2.37821,0.682849 -3.36717,0.918315 -0.98896,0.188373 -1.93083,0.28256 -2.84915,0.259013 -0.91831,-0.02355 -1.83663,-0.188373 -2.7785,-0.423839 -0.94187,-0.235467 -1.97792,-0.659307 -3.10816,-1.177333 -0.58867,-0.259014 -1.03605,-0.56512 -1.4128,-0.894773 -0.37675,-0.329653 -0.63576,-0.682853 -0.80059,-1.036053 -0.16482,-0.3532 -0.23546,-0.7064 -0.23546,-1.036053 0,-0.329653 0.11773,-0.63576 0.28256,-0.894773 0.14128,-0.188373 0.25901,-0.259013 0.3532,-0.259013 0.11773,0.02355 0.3532,0.117733 0.72994,0.3532 1.64827,1.083146 3.29654,1.883732 4.96835,2.378212 1.67181,0.49448 3.29653,0.659306 4.85061,0.470933 0.51802,-0.04709 1.10669,-0.164822 1.69535,-0.376742 0.58867,-0.21192 1.13024,-0.423839 1.60118,-0.659306 0.25901,-0.117733 0.40029,-0.259013 0.40029,-0.3532 0,-0.09419 -0.0706,-0.259013 -0.28256,-0.470933 -0.44739,-0.447386 -0.91832,-0.871226 -1.36571,-1.271519 -0.44738,-0.400294 -0.84768,-0.7064 -1.20088,-0.91832 -0.58866,-0.400293 -1.13023,-0.800586 -1.67181,-1.153786 -0.54157,-0.3532 -0.98896,-0.659307 -1.29506,-0.824133 -0.47094,-0.28256 -0.68286,-0.588667 -0.65931,-0.98896 0.0471,-0.329653 0.18837,-0.565119 0.42384,-0.706399 0.23547,-0.14128 0.63576,-0.21192 1.20088,-0.21192 0.65931,0 1.10669,0.07064 1.34216,0.164826 0.23547,0.09419 0.42384,0.28256 0.54157,0.541573 0.0706,0.117734 0.18837,0.28256 0.40029,0.541574 0.18838,0.235466 0.37675,0.423839 0.56512,0.565119 0.21192,0.164827 0.61222,0.518027 1.22443,1.13024 0.58867,0.588666 1.29507,1.295066 2.1192,2.119199 0.21192,0.21192 0.37675,0.329653 0.47093,0.329653 0.0942,0 0.21192,-0.07064 0.37675,-0.188373 0.25901,-0.21192 0.54157,-0.447387 0.80059,-0.7064 0.25901,-0.259013 0.47093,-0.470933 0.61221,-0.659306 0.30611,-0.3532 0.51803,-0.56512 0.6593,-0.612213 0.14128,-0.04709 0.30611,-0.07064 0.47094,-0.04709 0.3061,0.07064 0.56512,0.188374 0.72994,0.3532 0.16483,0.164827 0.28256,0.470933 0.4003,0.91832 0.0706,0.400293 0.0706,0.729946 -0.0471,1.036053 -0.11773,0.306106 -0.37674,0.612213 -0.77704,0.965412 -0.3061,0.259014 -0.61221,0.518027 -0.89477,0.753493 -0.16482,0.117734 -0.23546,0.235467 -0.23546,0.329654 0,0.09419 0.0706,0.21192 0.23546,0.376746 0.63576,0.682853 1.29507,1.34216 1.93083,1.977919 0.6593,0.659307 1.22442,1.27152 1.78954,1.836639 0.54158,0.588667 1.03606,1.083147 1.48344,1.530533 0.42384,0.42384 0.7535,0.800586 0.96542,1.012506 0.28256,0.329653 0.42384,0.612213 0.44738,0.824133 0.0236,0.21192 -0.0942,0.376747 -0.3532,0.541573 -0.32965,0.235467 -0.68285,0.164827 -1.0596,-0.164826 -0.91832,-0.871227 -1.766,-1.671813 -2.56658,-2.425306 -0.80059,-0.753493 -1.62472,-1.530532 -2.44886,-2.354665 -0.16482,-0.164827 -0.25901,-0.259014 -0.3061,-0.259014 -0.0471,0 -0.0706,0.02355 -0.0942,0.09419 0,0.09419 -0.0706,0.21192 -0.18837,0.329653 -0.11773,0.117733 -0.37675,0.235467 -0.77704,0.306107 -0.28256,0.04709 -0.56512,0.14128 -0.87123,0.306106 -0.3061,0.164827 -0.61221,0.329653 -0.91832,0.541573 -0.21191,0.164822 -0.3061,0.259009 -0.3061,0.306102 0.0236,0.07064 0.21192,0.117733 0.54157,0.164831 0.51803,0.09419 0.98896,0.188374 1.4128,0.235467 0.42384,0.04709 0.7064,0.04709 0.91832,0.02355 0.44739,-0.07064 0.82413,-0.02355 1.15378,0.07064 0.30611,0.117733 0.56512,0.329653 0.72995,0.635759 0.23547,0.470933 0.16483,0.91832 -0.18837,1.365706 -0.25902,0.306107 -0.54158,0.49448 -0.87123,0.541573 -0.30611,0.02355 -0.80058,-0.0471 -1.48343,-0.259017 -0.61222,-0.188374 -1.17734,-0.376747 -1.71891,-0.541574 -0.54157,-0.164826 -1.03605,-0.329653 -1.48344,-0.494479 -0.3061,-0.117734 -0.51802,-0.14128 -0.61221,-0.09419 -0.11773,0.02355 -0.23547,0.14128 -0.32965,0.329653 -0.23547,0.329653 -0.25902,0.824133 -0.11774,1.436346 0.14128,0.612213 0.56512,1.459893 1.29507,2.472399 0.23546,0.329653 0.61221,0.753493 1.17733,1.318613 0.56512,0.56512 1.15379,1.153786 1.81309,1.718906 0.63576,0.588666 1.29507,1.106693 1.93083,1.601172 0.63576,0.49448 1.13024,0.800587 1.53053,0.965413 0.4003,0.164827 0.61222,0.329653 0.63576,0.49448 -0.0942,0.14128 -0.25901,0.306107 -0.6593,0.470933 z m 4.21484,-14.339909 c -0.0471,0.470933 -0.40029,0.77704 -1.03605,0.84768 -0.40029,0.07064 -0.84768,-0.04709 -1.36571,-0.42384 -0.51802,-0.376746 -1.0125,-0.871226 -1.53053,-1.577626 -0.23547,-0.329653 -0.28256,-0.518026 -0.18837,-0.659306 0.11773,-0.117733 0.32965,-0.14128 0.61221,-0.04709 0.0706,0.02355 0.21192,0.07064 0.37675,0.09419 0.16482,0.02355 0.32965,0.04709 0.51802,0.09419 0.16483,0.02355 0.3532,0.02355 0.51803,0.04709 0.16483,0.02355 0.30611,0.02355 0.40029,0.02355 0.51803,-0.04709 0.94187,0.09419 1.27152,0.42384 0.37675,0.329653 0.49448,0.729946 0.42384,1.177332 z"
         id="path4195" /></g></g></svg>