<?xml version="1.0" encoding="UTF-8" standalone="no"?>
<!-- Created with Inkscape (http://www.inkscape.org/) -->

<svg
   xmlns:dc="http://purl.org/dc/elements/1.1/"
   xmlns:cc="http://creativecommons.org/ns#"
   xmlns:rdf="http://www.w3.org/1999/02/22-rdf-syntax-ns#"
   xmlns:svg="http://www.w3.org/2000/svg"
   xmlns="http://www.w3.org/2000/svg"
   xmlns:xlink="http://www.w3.org/1999/xlink"
   xmlns:sodipodi="http://sodipodi.sourceforge.net/DTD/sodipodi-0.dtd"
   xmlns:inkscape="http://www.inkscape.org/namespaces/inkscape"
   width="210mm"
   height="297mm"
   viewBox="0 0 744.09448819 1052.3622047"
   id="svg2"
   version="1.1"
   inkscape:version="0.91 r13725"
   sodipodi:docname="print_and_play_move_template.svg">
  <defs
     id="defs4" />
  <sodipodi:namedview
     id="base"
     pagecolor="#ffffff"
     bordercolor="#666666"
     borderopacity="1.0"
     inkscape:pageopacity="0.0"
     inkscape:pageshadow="2"
     inkscape:zoom="0.9899495"
     inkscape:cx="266.84881"
     inkscape:cy="444.96418"
     inkscape:document-units="px"
     inkscape:current-layer="layer3"
     showgrid="false"
     inkscape:window-width="1920"
     inkscape:window-height="1056"
     inkscape:window-x="0"
     inkscape:window-y="24"
     inkscape:window-maximized="1"
     inkscape:snap-bbox="true"
     inkscape:snap-bbox-midpoints="true" />
  <metadata
     id="metadata7">
    <rdf:RDF>
      <cc:Work
         rdf:about="">
        <dc:format>image/svg+xml</dc:format>
        <dc:type
           rdf:resource="http://purl.org/dc/dcmitype/StillImage" />
        <dc:title />
      </cc:Work>
    </rdf:RDF>
  </metadata>
  <g
     inkscape:label="Card Template"
     inkscape:groupmode="layer"
     id="layer1"
     style="display:inline"
     sodipodi:insensitive="true">
    <g
       id="g4960"
       transform="translate(5.0472412,26.181092)">
      <image
         sodipodi:absref="/a/work/misc_work/deckahedron/resolution_cards/cards_v0.86/1.png"
         xlink:href="cards_v0.86/1.png"
         width="234"
         height="320"
         preserveAspectRatio="none"
         id="image4198-7-9"
         x="16"
         y="20" />
      <image
         sodipodi:absref="/a/work/misc_work/deckahedron/resolution_cards/cards_v0.86/2.png"
         xlink:href="cards_v0.86/2.png"
         width="234"
         height="320"
         preserveAspectRatio="none"
         id="image4198-7"
         x="250"
         y="20" />
      <image
         sodipodi:absref="/a/work/misc_work/deckahedron/resolution_cards/cards_v0.86/3.png"
         xlink:href="cards_v0.86/3.png"
         width="234"
         height="320"
         preserveAspectRatio="none"
         id="image4198-7-1"
         x="484"
         y="20" />
      <image
         sodipodi:absref="/a/work/misc_work/deckahedron/resolution_cards/cards_v0.86/4.png"
         xlink:href="cards_v0.86/4.png"
         width="234"
         height="320"
         preserveAspectRatio="none"
         id="image4198-7-2"
         x="16"
         y="340" />
      <image
         sodipodi:absref="/a/work/misc_work/deckahedron/resolution_cards/cards_v0.86/5.png"
         xlink:href="cards_v0.86/5.png"
         width="234"
         height="320"
         preserveAspectRatio="none"
         id="image4198-7-3"
         x="250"
         y="340" />
      <image
         sodipodi:absref="/a/work/misc_work/deckahedron/resolution_cards/cards_v0.86/6.png"
         xlink:href="cards_v0.86/6.png"
         width="234"
         height="320"
         preserveAspectRatio="none"
         id="image4198-7-27"
         x="484"
         y="340" />
      <image
         sodipodi:absref="/a/work/misc_work/deckahedron/resolution_cards/cards_v0.86/7.png"
         xlink:href="cards_v0.86/7.png"
         width="234"
         height="320"
         preserveAspectRatio="none"
         id="image4198-7-6"
         x="16"
         y="660" />
      <image
         sodipodi:absref="/a/work/misc_work/deckahedron/resolution_cards/cards_v0.86/8.png"
         xlink:href="cards_v0.86/8.png"
         width="234"
         height="320"
         preserveAspectRatio="none"
         id="image4198-7-5"
         x="250"
         y="660" />
      <image
         sodipodi:absref="/a/work/misc_work/deckahedron/resolution_cards/cards_v0.86/9.png"
         xlink:href="cards_v0.86/9.png"
         width="234"
         height="320"
         preserveAspectRatio="none"
         id="image4198-7-0"
         x="484"
         y="660" />
    </g>
  </g>
  <g
     inkscape:groupmode="layer"
     id="layer3"
     inkscape:label="shield">
    <path
       inkscape:connector-curvature="0"
       style="opacity:1;fill:#ffffff;fill-opacity:1;stroke:none;stroke-width:3;stroke-linejoin:round;stroke-miterlimit:4;stroke-dasharray:none;stroke-dashoffset:0;stroke-opacity:1"
       d="m -10.453148,31.181637 0,989.999863 765.000018,0 0,-989.999863 -765.000018,0 z m 46,17.5 205.000008,0 c 5.53999,0 10,4.46 10,10 l 0,295.000003 c -1e-5,5.54 -4.46001,10 -10,10 l -205.000008,0 c -5.54,0 -10,-4.46 -10,-10 l 0,-295.000003 c 0,-5.54 4.46,-10 10,-10 z m 234.000008,0 205,0 c 5.54,0 10,4.46 10,10 l 0,295.000003 c 0,5.54 -4.46,10 -10,10 l -205,0 c -5.54002,0 -10,-4.46 -10,-10 l 0,-295.000003 c 0,-5.54 4.45999,-10 10,-10 z m 234,0 205,0 c 5.53998,0 10.00001,4.46 10.00001,10 l 0,295.000003 c 0,5.54 -4.46003,10 -10.00001,10 l -205,0 c -5.54001,0 -10.00001,-4.46 -10,-10 l 0,-295.000003 c -10e-6,-5.54 4.45999,-10 10,-10 z M 35.546852,368.68164 l 205.000008,0 c 5.53999,0 10,4.46 10,10 l 0,295 c -1e-5,5.54 -4.46001,10 -10,10 l -205.000008,0 c -5.54,0 -10,-4.46 -10,-10 l 0,-295 c 0,-5.54 4.46,-10 10,-10 z m 234.000008,0 205,0 c 5.54,0 10,4.46 10,10 l 0,295 c 0,5.54 -4.46,10 -10,10 l -205,0 c -5.54002,0 -10,-4.46 -10,-10 l 0,-295 c 0,-5.54 4.45999,-10 10,-10 z m 234,0 205,0 c 5.53998,0 10.00001,4.46 10.00001,10 l 0,295 c 0,5.54 -4.46003,10 -10.00001,10 l -205,0 c -5.54001,0 -10.00001,-4.46 -10,-10 l 0,-295 c -10e-6,-5.54 4.45999,-10 10,-10 z m -468.000008,320 205.000008,0 c 5.53999,0 10,4.46 10,10 l 0,295.00003 c -1e-5,5.53995 -4.46001,9.99983 -10,9.99983 l -205.000008,0 c -5.54,0 -10,-4.45988 -10,-9.99983 l 0,-295.00003 c 0,-5.54 4.46,-10 10,-10 z m 234.000008,0 205,0 c 5.54,0 10,4.46 10,10 l 0,295.00003 c 0,5.53995 -4.46,9.99983 -10,9.99983 l -205,0 c -5.54002,0 -10,-4.45988 -10,-9.99983 l 0,-295.00003 c 0,-5.54 4.45999,-10 10,-10 z m 234,0 205,0 c 5.53998,0 10.00001,4.46 10.00001,10 l 0,295.00003 c 0,5.53995 -4.46003,9.99983 -10.00001,9.99983 l -205,0 c -5.54001,0 -10.00001,-4.45988 -10,-9.99983 l 0,-295.00003 c -10e-6,-5.54 4.45999,-10 10,-10 z"
       id="rect4223" />
    <path
       inkscape:connector-curvature="0"
       style="opacity:1;fill:#ffffff;fill-opacity:0.76097562;stroke:none;stroke-width:3;stroke-linejoin:round;stroke-miterlimit:4;stroke-dasharray:none;stroke-dashoffset:0;stroke-opacity:1"
       d="m 35.546852,48.681637 c -5.54,0 -10,4.46 -10,10 l 0,295.000003 c 0,5.54 4.46,10 10,10 l 205.000008,0 c 5.53999,0 10,-4.46 10,-10 l 0,-295.000003 c 0,-5.54 -4.46001,-10 -10,-10 l -205.000008,0 z m 9.744139,13.996093 185.511719,0 c 5.54,0 10,4.46 10,10 l 0,267.00782 c 0,5.54 -4.46,10 -10,10 l -185.511719,0 c -5.539999,0 -9.999999,-4.46 -9.999999,-10 l 0,-267.00782 c 0,-5.54 4.46,-10 9.999999,-10 z"
       id="rect4144" />
    <rect
       style="opacity:1;fill:#ff5555;fill-opacity:0.51707315;stroke:none;stroke-width:3;stroke-linejoin:round;stroke-miterlimit:4;stroke-dasharray:none;stroke-dashoffset:0;stroke-opacity:1"
       id="rect4144-2"
       width="225"
       height="315"
       x="-286.2132"
       y="46.210316"
       rx="10"
       ry="10" />
    <rect
       ry="10"
       rx="10"
       y="60.206379"
       x="-276.46912"
       height="287.00787"
       width="205.51181"
       id="rect4203-7"
       style="opacity:1;fill:#ff5555;fill-opacity:0.51707315;stroke:none;stroke-width:3;stroke-linejoin:round;stroke-miterlimit:4;stroke-dasharray:none;stroke-dashoffset:0;stroke-opacity:1" />
    <path
       style="fill:none;fill-rule:evenodd;stroke:#808080;stroke-width:1px;stroke-linecap:butt;stroke-linejoin:miter;stroke-opacity:1"
       d="m 255.04722,46.181088 0,959.999912"
       id="path4225"
       inkscape:connector-curvature="0" />
    <path
       style="fill:none;fill-rule:evenodd;stroke:#808080;stroke-width:1px;stroke-linecap:butt;stroke-linejoin:miter;stroke-opacity:1"
       d="m 489.04722,46.181088 0,959.999912"
       id="path4227"
       inkscape:connector-curvature="0" />
    <path
       style="fill:none;fill-rule:evenodd;stroke:#808080;stroke-width:1px;stroke-linecap:butt;stroke-linejoin:miter;stroke-opacity:1"
       d="m 21.047212,686.18109 702.000058,0"
       id="path4229"
       inkscape:connector-curvature="0" />
    <path
       style="fill:none;fill-rule:evenodd;stroke:#808080;stroke-width:1px;stroke-linecap:butt;stroke-linejoin:miter;stroke-opacity:1"
       d="m 723.04727,366.18109 -702.000058,0"
       id="path4231"
       inkscape:connector-curvature="0" />
    <path
       inkscape:connector-curvature="0"
       style="opacity:1;fill:#ffffff;fill-opacity:0.76097562;stroke:none;stroke-width:3;stroke-linejoin:round;stroke-miterlimit:4;stroke-dasharray:none;stroke-dashoffset:0;stroke-opacity:1"
       d="m 269.54722,48.681089 c -5.54,0 -10,4.46 -10,10 l 0,295.000001 c 0,5.54 4.46,10 10,10 l 205,0 c 5.53999,0 10,-4.46 10,-10 l 0,-295.000001 c 0,-5.54 -4.46001,-10 -10,-10 l -205,0 z m 9.74415,13.996093 185.5117,0 c 5.54,0 10,4.46 10,10 l 0,267.007818 c 0,5.54 -4.46,10 -10,10 l -185.5117,0 c -5.54,0 -10,-4.46 -10,-10 l 0,-267.007818 c 0,-5.54 4.46,-10 10,-10 z"
       id="rect4144-0" />
    <path
       inkscape:connector-curvature="0"
       style="opacity:1;fill:#ffffff;fill-opacity:0.76097562;stroke:none;stroke-width:3;stroke-linejoin:round;stroke-miterlimit:4;stroke-dasharray:none;stroke-dashoffset:0;stroke-opacity:1"
       d="m 503.54722,48.681088 c -5.54,0 -10,4.46 -10,10 l 0,295.000002 c 0,5.54 4.46,10 10,10 l 205,0 c 5.53999,0 10.00005,-4.46 10.00005,-10 l 0,-295.000002 c 0,-5.54 -4.46006,-10 -10.00005,-10 l -205,0 z m 9.74415,13.996093 185.5117,0 c 5.54,0 10,4.46 10,10 l 0,267.007819 c 0,5.54 -4.46,10 -10,10 l -185.5117,0 c -5.54,0 -10,-4.46 -10,-10 l 0,-267.007819 c 0,-5.54 4.46,-10 10,-10 z"
       id="rect4144-626" />
    <path
       inkscape:connector-curvature="0"
       style="opacity:1;fill:#ffffff;fill-opacity:0.76097562;stroke:none;stroke-width:3;stroke-linejoin:round;stroke-miterlimit:4;stroke-dasharray:none;stroke-dashoffset:0;stroke-opacity:1"
       d="m 503.54722,368.68109 c -5.54,0 -10,4.46 -10,10 l 0,295 c 0,5.54 4.46,10 10,10 l 205,0 c 5.53999,0 10.00005,-4.46 10.00005,-10 l 0,-295 c 0,-5.54 -4.46006,-10 -10.00005,-10 l -205,0 z m 9.74414,13.99609 185.51171,0 c 5.54,0 10,4.46 10,10 l 0,267.00782 c 0,5.54 -4.46,10 -10,10 l -185.51171,0 c -5.54,0 -10,-4.46 -10,-10 l 0,-267.00782 c 0,-5.54 4.46,-10 10,-10 z"
       id="rect4144-18" />
    <path
       inkscape:connector-curvature="0"
       style="opacity:1;fill:#ffffff;fill-opacity:0.76097562;stroke:none;stroke-width:3;stroke-linejoin:round;stroke-miterlimit:4;stroke-dasharray:none;stroke-dashoffset:0;stroke-opacity:1"
       d="m 269.54722,368.68109 c -5.54,0 -10,4.46 -10,10 l 0,295 c 0,5.54 4.46,10 10,10 l 205,0 c 5.53999,0 10,-4.46 10,-10 l 0,-295 c 0,-5.54 -4.46001,-10 -10,-10 l -205,0 z m 9.74414,13.9961 185.51171,0 c 5.54,0 10,4.46 10,10 l 0,267.00781 c 0,5.54 -4.46,10 -10,10 l -185.51171,0 c -5.54,0 -10,-4.46 -10,-10 l 0,-267.00781 c 0,-5.54 4.46,-10 10,-10 z"
       id="rect4144-79" />
    <path
       inkscape:connector-curvature="0"
       style="opacity:1;fill:#ffffff;fill-opacity:0.76097562;stroke:none;stroke-width:3;stroke-linejoin:round;stroke-miterlimit:4;stroke-dasharray:none;stroke-dashoffset:0;stroke-opacity:1"
       d="m 35.547212,368.68109 c -5.54,0 -10,4.46 -10,10 l 0,295 c 0,5.54 4.46,10 10,10 l 205.000008,0 c 5.53999,0 10,-4.46 10,-10 l 0,-295 c 0,-5.54 -4.46001,-10 -10,-10 l -205.000008,0 z m 9.744149,13.9961 185.511709,0 c 5.54,0 10,4.46 10,10 l 0,267.00781 c 0,5.54 -4.46,10 -10,10 l -185.511709,0 c -5.539999,0 -9.999999,-4.46 -9.999999,-10 l 0,-267.00781 c 0,-5.54 4.46,-10 9.999999,-10 z"
       id="rect4144-20" />
    <path
       inkscape:connector-curvature="0"
       style="opacity:1;fill:#ffffff;fill-opacity:0.76097562;stroke:none;stroke-width:3;stroke-linejoin:round;stroke-miterlimit:4;stroke-dasharray:none;stroke-dashoffset:0;stroke-opacity:1"
       d="m 35.547222,688.68109 c -5.54,0 -10,4.46 -10,10 l 0,294.99998 c 0,5.53995 4.46,9.99993 10,9.99993 l 204.999998,0 c 5.53999,0 10,-4.45998 10,-9.99993 l 0,-294.99998 c 0,-5.54 -4.46001,-10 -10,-10 l -204.999998,0 z m 9.744139,13.99609 185.511709,0 c 5.54,0 10,4.46 10,10 l 0,267.00779 c 0,5.54 -4.46,10 -10,10 l -185.511709,0 c -5.539999,0 -9.999999,-4.46 -9.999999,-10 l 0,-267.00779 c 0,-5.54 4.46,-10 9.999999,-10 z"
       id="rect4144-23" />
    <path
       inkscape:connector-curvature="0"
       style="opacity:1;fill:#ffffff;fill-opacity:0.76097562;stroke:none;stroke-width:3;stroke-linejoin:round;stroke-miterlimit:4;stroke-dasharray:none;stroke-dashoffset:0;stroke-opacity:1"
       d="m 269.54722,688.68109 c -5.54,0 -10,4.46 -10,10 l 0,294.99998 c 0,5.53995 4.46,9.99993 10,9.99993 l 205,0 c 5.53999,0 10,-4.45998 10,-9.99993 l 0,-294.99998 c 0,-5.54 -4.46001,-10 -10,-10 l -205,0 z m 9.74414,13.99609 185.51171,0 c 5.54,0 10,4.46 10,10 l 0,267.00779 c 0,5.54 -4.46,10 -10,10 l -185.51171,0 c -5.54,0 -10,-4.46 -10,-10 l 0,-267.00779 c 0,-5.54 4.46,-10 10,-10 z"
       id="rect4144-75" />
    <path
       inkscape:connector-curvature="0"
       style="opacity:1;fill:#ffffff;fill-opacity:0.76097562;stroke:none;stroke-width:3;stroke-linejoin:round;stroke-miterlimit:4;stroke-dasharray:none;stroke-dashoffset:0;stroke-opacity:1"
       d="m 503.54722,688.68109 c -5.54,0 -10,4.46 -10,10 l 0,294.99998 c 0,5.53995 4.46,9.99993 10,9.99993 l 205,0 c 5.53999,0 10.00005,-4.45998 10.00005,-9.99993 l 0,-294.99998 c 0,-5.54 -4.46006,-10 -10.00005,-10 l -205,0 z m 9.74414,13.99609 185.51171,0 c 5.54,0 10,4.46 10,10 l 0,267.00779 c 0,5.54 -4.46,10 -10,10 l -185.51171,0 c -5.54,0 -10,-4.46 -10,-10 l 0,-267.00779 c 0,-5.54 4.46,-10 10,-10 z"
       id="rect4144-92" />
  </g>
</svg>
