<?xml version="1.0" encoding="UTF-8" standalone="no"?>
<!-- Generator: Adobe Illustrator 15.0.0, SVG Export Plug-In . SVG Version: 6.00 Build 0)  -->

<svg
   xmlns:dc="http://purl.org/dc/elements/1.1/"
   xmlns:cc="http://creativecommons.org/ns#"
   xmlns:rdf="http://www.w3.org/1999/02/22-rdf-syntax-ns#"
   xmlns:svg="http://www.w3.org/2000/svg"
   xmlns="http://www.w3.org/2000/svg"
   xmlns:xlink="http://www.w3.org/1999/xlink"
   xmlns:sodipodi="http://sodipodi.sourceforge.net/DTD/sodipodi-0.dtd"
   xmlns:inkscape="http://www.inkscape.org/namespaces/inkscape"
   version="1.1"
   x="0px"
   y="0px"
   width="216px"
   height="216px"
   viewBox="0 0 216 216"
   enable-background="new 0 0 216 216"
   xml:space="preserve"
   id="svg2"
   inkscape:version="0.91 r13725"
   sodipodi:docname="redcard_back.svg"><metadata
     id="metadata496"><rdf:RDF><cc:Work
         rdf:about=""><dc:format>image/svg+xml</dc:format><dc:type
           rdf:resource="http://purl.org/dc/dcmitype/StillImage" /><dc:title /></cc:Work></rdf:RDF></metadata><defs
     id="defs494"><linearGradient
       inkscape:collect="always"
       id="linearGradient7341"><stop
         style="stop-color:#e50000;stop-opacity:1"
         offset="0"
         id="stop7343" /><stop
         style="stop-color:#7e0000;stop-opacity:1"
         offset="1"
         id="stop7345" /></linearGradient><linearGradient
       id="linearGradient6445"
       inkscape:collect="always"><stop
         id="stop7335"
         offset="0"
         style="stop-color:#ff0000;stop-opacity:1;" /><stop
         id="stop7337"
         offset="1"
         style="stop-color:#7e0000;stop-opacity:1" /></linearGradient><linearGradient
       inkscape:collect="always"
       id="linearGradient4796"><stop
         style="stop-color:#5f9c00;stop-opacity:1"
         offset="0"
         id="stop4798" /><stop
         style="stop-color:#005117;stop-opacity:1"
         offset="1"
         id="stop4800" /></linearGradient><linearGradient
       inkscape:collect="always"
       xlink:href="#linearGradient4796"
       id="linearGradient5912"
       x1="97.751755"
       y1="92.60479"
       x2="103.05542"
       y2="109.92422"
       gradientUnits="userSpaceOnUse" /><radialGradient
       inkscape:collect="always"
       xlink:href="#linearGradient6445"
       id="radialGradient6451"
       cx="107.99982"
       cy="107.99985"
       fx="107.99982"
       fy="107.99985"
       r="92.070374"
       gradientUnits="userSpaceOnUse" /><radialGradient
       inkscape:collect="always"
       xlink:href="#linearGradient7341"
       id="radialGradient7329"
       cx="98.841003"
       cy="106.53239"
       fx="98.841003"
       fy="106.53239"
       r="38.552464"
       gradientTransform="matrix(1,0,0,1.2176331,8.8896726,-21.317908)"
       gradientUnits="userSpaceOnUse" /></defs><sodipodi:namedview
     pagecolor="#ffffff"
     bordercolor="#666666"
     borderopacity="1"
     objecttolerance="10"
     gridtolerance="10"
     guidetolerance="10"
     inkscape:pageopacity="0"
     inkscape:pageshadow="2"
     inkscape:window-width="1600"
     inkscape:window-height="876"
     id="namedview492"
     showgrid="false"
     inkscape:snap-bbox="true"
     inkscape:snap-bbox-midpoints="true"
     inkscape:zoom="1.2096109"
     inkscape:cx="12.139673"
     inkscape:cy="93.049925"
     inkscape:window-x="0"
     inkscape:window-y="24"
     inkscape:window-maximized="1"
     inkscape:current-layer="layer1"
     inkscape:object-nodes="true"
     inkscape:snap-nodes="false" /><g
     inkscape:groupmode="layer"
     id="layer2"
     inkscape:label="bg"
     style="display:inline"><path
       inkscape:connector-curvature="0"
       style="display:none;opacity:1;fill:#ffffff;fill-opacity:1;stroke:none;stroke-width:8.69620609;stroke-linecap:round;stroke-linejoin:miter;stroke-miterlimit:4;stroke-dasharray:none;stroke-opacity:1"
       d="M 0,-5e-6 0,216 216.00001,216 216.00001,-4e-6 0,-4e-6 Z"
       id="path5573" /><rect
       style="opacity:1;fill:#000000;fill-opacity:1;stroke:none;stroke-width:40;stroke-linecap:round;stroke-linejoin:miter;stroke-miterlimit:4;stroke-dasharray:none;stroke-dashoffset:4.5999999;stroke-opacity:1"
       id="rect6453"
       width="216.87686"
       height="216.87686"
       x="-0.43861294"
       y="-0.4385767" /></g><g
     inkscape:groupmode="layer"
     id="layer1"
     inkscape:label="Layer 1"
     style="display:inline"><rect
       style="opacity:1;fill:url(#radialGradient6451);fill-opacity:1;stroke:none;stroke-width:40;stroke-linecap:round;stroke-linejoin:miter;stroke-miterlimit:4;stroke-dasharray:none;stroke-dashoffset:4.5999999;stroke-opacity:1"
       id="rect6429"
       width="184.14075"
       height="184.14075"
       x="15.929444"
       y="15.929481"
       rx="14.765625"
       ry="14.765625" /><path
       style="opacity:1;fill:url(#radialGradient7329);fill-opacity:1;stroke:none;stroke-width:0.177;stroke-linecap:round;stroke-linejoin:miter;stroke-miterlimit:4;stroke-dasharray:none;stroke-opacity:1"
       d="m 119.4754,64.234087 c 15.09096,0.103537 24.59536,11.239622 28.55148,24.445228 l -4.69094,2.249171 C 140.93466,83.084402 135.4696,77.30641 129.34566,73.808603 l -8.247,12.078151 c 7.68797,4.525001 12.86216,12.863806 12.86226,22.429856 -0.0106,1.8713 -0.22257,3.73182 -0.6328,5.55762 l -24.32135,-3.51478 9.89773,21.55638 c 4.62766,-2.14595 8.52545,-5.59826 11.20462,-9.93904 l 4.68407,1.63014 c -1.45201,4.26066 -3.04584,5.40132 -6.41049,8.39141 l 13.87336,15.5104 c 1.95159,-1.08956 9.8274,-7.13564 12.04375,-20.09129 l 4.69781,2.03597 c -5.53106,25.67278 -30.79949,31.8681 -45.19673,27.27214 l -1.12805,-9.0655 c 8.77542,2.71083 16.90687,-1.13231 19.23151,-2.36612 l -7.42159,-10.20038 c -2.2845,1.75504 -4.84878,3.1207 -7.57982,4.03749 l -1.91212,-5.77081 -13.41255,-16.17759 -11.390307,19.19025 c 3.8306,2.01371 8.08187,2.84281 12.263857,2.46927 -0.5653,0.40989 -0.17679,6.33418 -0.78413,6.68564 -4.754017,2.73766 -13.462027,-0.47091 -16.810337,-3.19836 l 4.4433,-15.81304 -0.007,-0.0412 c -4.57417,-4.69136 -7.40089,-11.08867 -7.40096,-18.15852 1.4e-4,-14.377995 11.65606,-26.03384 26.034067,-26.034051 3.08848,1.05e-4 6.03476,0.567373 8.78348,1.554491 l 4.13381,-7.889327 c -3.65761,-1.784243 -7.24843,-2.052311 -10.77131,-0.839138 l 0.44021,-9.739576 c 3.17811,-0.794519 6.16771,-1.154009 8.96235,-1.134921 z"
       id="rect4139"
       inkscape:connector-curvature="0" /></g></svg>